<?xml version="1.0" encoding="UTF-8" standalone="no"?><svg xmlns="http://www.w3.org/2000/svg" xmlns:xlink="http://www.w3.org/1999/xlink" clip-rule="evenodd" stroke-miterlimit="4.00" viewBox="0 0 1024 768"><desc>SVG generated by Keynote</desc><defs></defs><g transform="matrix(1.00, 0.00, -0.00, -1.00, 0.0, 768.0)"><path d="M 0.0 768.0 L 1024.0 768.0 L 1024.0 0.0 L 0.0 0.0 Z M 0.0 768.0 " fill="#FFFFFF"></path><path d="M 0.0 0.0 L 934.0 0.0 " fill="none" stroke="#747676" stroke-width="3.00" stroke-linecap="round" stroke-linejoin="round" stroke-dasharray="0.0, 9.0" transform="matrix(1.00, 0.00, 0.00, -1.00, 45.0, 644.0)"></path><text xml:space="preserve" font-family="DINCondensed-Bold" font-weight="bold" font-size="48.4" fill="#747676" transform="matrix(1.00, 0.00, -0.00, -1.00, 49.0, 673.0)">F</text><text xml:space="preserve" font-family="DINCondensed-Bold" font-weight="bold" font-size="48.4" fill="#747676" transform="matrix(1.00, 0.00, -0.00, -1.00, 66.9, 673.0)">I</text><text xml:space="preserve" font-family="DINCondensed-Bold" font-weight="bold" font-size="48.4" fill="#747676" transform="matrix(1.00, 0.00, -0.00, -1.00, 76.8, 673.0)">N</text><text xml:space="preserve" font-family="DINCondensed-Bold" font-weight="bold" font-size="48.4" fill="#747676" transform="matrix(1.00, 0.00, -0.00, -1.00, 98.2, 673.0)">D</text><path d="M 49.0 622.0 L 213.4 622.0 L 213.4 577.0 L 49.0 577.0 Z M 49.0 622.0 " fill="#344033"></path><path d="M 213.4 622.0 L 776.9 622.0 L 776.9 577.0 L 213.4 577.0 Z M 213.4 622.0 " fill="#2A2A2A"></path><text xml:space="preserve" font-family="Menlo-Regular" font-size="39.0" fill="#CACACA" transform="matrix(1.00, 0.00, -0.00, -1.00, 49.0, 586.0)">n</text><text xml:space="preserve" font-family="Menlo-Regular" font-size="39.0" fill="#CACACA" transform="matrix(1.00, 0.00, -0.00, -1.00, 72.5, 586.0)">u</text><text xml:space="preserve" font-family="Menlo-Regular" font-size="39.0" fill="#CACACA" transform="matrix(1.00, 0.00, -0.00, -1.00, 96.0, 586.0)">m</text><text xml:space="preserve" font-family="Menlo-Regular" font-size="39.0" fill="#CACACA" transform="matrix(1.00, 0.00, -0.00, -1.00, 119.5, 586.0)">b</text><text xml:space="preserve" font-family="Menlo-Regular" font-size="39.0" fill="#CACACA" transform="matrix(1.00, 0.00, -0.00, -1.00, 142.9, 586.0)">e</text><text xml:space="preserve" font-family="Menlo-Regular" font-size="39.0" fill="#CACACA" transform="matrix(1.00, 0.00, -0.00, -1.00, 166.4, 586.0)">r</text><text xml:space="preserve" font-family="Menlo-Regular" font-size="39.0" fill="#CACACA" transform="matrix(1.00, 0.00, -0.00, -1.00, 189.9, 586.0)">s</text><text xml:space="preserve" font-family="Menlo-Regular" font-size="39.0" fill="#CACACA" transform="matrix(1.00, 0.00, -0.00, -1.00, 213.4, 586.0)">.</text><text xml:space="preserve" font-family="Menlo-Regular" font-size="39.0" fill="#CACACA" transform="matrix(1.00, 0.00, -0.00, -1.00, 236.8, 586.0)">f</text><text xml:space="preserve" font-family="Menlo-Regular" font-size="39.0" fill="#CACACA" transform="matrix(1.00, 0.00, -0.00, -1.00, 260.3, 586.0)">i</text><text xml:space="preserve" font-family="Menlo-Regular" font-size="39.0" fill="#CACACA" transform="matrix(1.00, 0.00, -0.00, -1.00, 283.8, 586.0)">n</text><text xml:space="preserve" font-family="Menlo-Regular" font-size="39.0" fill="#CACACA" transform="matrix(1.00, 0.00, -0.00, -1.00, 307.3, 586.0)">d</text><text xml:space="preserve" font-family="Menlo-Regular" font-size="39.0" fill="#CACACA" transform="matrix(1.00, 0.00, -0.00, -1.00, 330.8, 586.0)">(</text><text xml:space="preserve" font-family="Menlo-Regular" font-size="39.0" fill="#CACACA" transform="matrix(1.00, 0.00, -0.00, -1.00, 354.3, 586.0)">(</text><text xml:space="preserve" font-family="Menlo-Regular" font-size="39.0" fill="#CACACA" transform="matrix(1.00, 0.00, -0.00, -1.00, 377.7, 586.0)">i</text><text xml:space="preserve" font-family="Menlo-Regular" font-size="39.0" fill="#CACACA" transform="matrix(1.00, 0.00, -0.00, -1.00, 401.2, 586.0)">:</text><text xml:space="preserve" font-family="Menlo-Regular" font-size="39.0" fill="#CACACA" transform="matrix(1.00, 0.00, -0.00, -1.00, 424.7, 586.0)"> </text><text xml:space="preserve" font-family="Menlo-Regular" font-size="39.0" fill="#CC7831" transform="matrix(1.00, 0.00, -0.00, -1.00, 448.2, 586.0)">I</text><text xml:space="preserve" font-family="Menlo-Regular" font-size="39.0" fill="#CC7831" transform="matrix(1.00, 0.00, -0.00, -1.00, 471.6, 586.0)">n</text><text xml:space="preserve" font-family="Menlo-Regular" font-size="39.0" fill="#CC7831" transform="matrix(1.00, 0.00, -0.00, -1.00, 495.1, 586.0)">t</text><text xml:space="preserve" font-family="Menlo-Regular" font-size="39.0" fill="#A9B6C6" transform="matrix(1.00, 0.00, -0.00, -1.00, 518.6, 586.0)">)</text><text xml:space="preserve" font-family="Menlo-Regular" font-size="39.0" fill="#A9B6C6" transform="matrix(1.00, 0.00, -0.00, -1.00, 542.1, 586.0)"> </text><text xml:space="preserve" font-family="Menlo-Regular" font-size="39.0" fill="#A9B6C6" transform="matrix(1.00, 0.00, -0.00, -1.00, 565.6, 586.0)">=</text><text xml:space="preserve" font-family="Menlo-Regular" font-size="39.0" fill="#A9B6C6" transform="matrix(1.00, 0.00, -0.00, -1.00, 589.1, 586.0)">&gt;</text><text xml:space="preserve" font-family="Menlo-Regular" font-size="39.0" fill="#A9B6C6" transform="matrix(1.00, 0.00, -0.00, -1.00, 612.5, 586.0)"> </text><text xml:space="preserve" font-family="Menlo-Regular" font-size="39.0" fill="#A9B6C6" transform="matrix(1.00, 0.00, -0.00, -1.00, 636.0, 586.0)">i</text><text xml:space="preserve" font-family="Menlo-Regular" font-size="39.0" fill="#A9B6C6" transform="matrix(1.00, 0.00, -0.00, -1.00, 659.5, 586.0)"> </text><text xml:space="preserve" font-family="Menlo-Regular" font-size="39.0" fill="#A9B6C6" transform="matrix(1.00, 0.00, -0.00, -1.00, 683.0, 586.0)">&gt;</text><text xml:space="preserve" font-family="Menlo-Regular" font-size="39.0" fill="#A9B6C6" transform="matrix(1.00, 0.00, -0.00, -1.00, 706.5, 586.0)"> </text><text xml:space="preserve" font-family="Menlo-Regular" font-size="39.0" fill="#6796BB" transform="matrix(1.00, 0.00, -0.00, -1.00, 729.9, 586.0)">5</text><text xml:space="preserve" font-family="Menlo-Regular" font-size="39.0" fill="#A9B6C6" transform="matrix(1.00, 0.00, -0.00, -1.00, 753.4, 586.0)">)</text><text xml:space="preserve" font-family="Monaco" font-size="39.0" fill="#A9B6C6" transform="matrix(1.00, 0.00, -0.00, -1.00, 776.9, 586.0)"> </text><text xml:space="preserve" font-family="ZapfDingbatsITC" font-size="24.0" fill="#5C5C5C" transform="matrix(1.00, 0.00, -0.00, -1.00, 49.0, 426.2)">➤</text><text xml:space="preserve" font-family="IowanOldStyle-Roman" font-size="32.0" fill="#5C5C5C" transform="matrix(1.00, 0.00, -0.00, -1.00, 86.0, 423.0)">R</text><text xml:space="preserve" font-family="IowanOldStyle-Roman" font-size="32.0" fill="#5C5C5C" transform="matrix(1.00, 0.00, -0.00, -1.00, 107.6, 423.0)">e</text><text xml:space="preserve" font-family="IowanOldStyle-Roman" font-size="32.0" fill="#5C5C5C" transform="matrix(1.00, 0.00, -0.00, -1.00, 123.2, 423.0)">t</text><text xml:space="preserve" font-family="IowanOldStyle-Roman" font-size="32.0" fill="#5C5C5C" transform="matrix(1.00, 0.00, -0.00, -1.00, 134.8, 423.0)">u</text><text xml:space="preserve" font-family="IowanOldStyle-Roman" font-size="32.0" fill="#5C5C5C" transform="matrix(1.00, 0.00, -0.00, -1.00, 153.6, 423.0)">r</text><text xml:space="preserve" font-family="IowanOldStyle-Roman" font-size="32.0" fill="#5C5C5C" transform="matrix(1.00, 0.00, -0.00, -1.00, 166.1, 423.0)">n</text><text xml:space="preserve" font-family="IowanOldStyle-Roman" font-size="32.0" fill="#5C5C5C" transform="matrix(1.00, 0.00, -0.00, -1.00, 184.7, 423.0)">s</text><text xml:space="preserve" font-family="IowanOldStyle-Roman" font-size="32.0" fill="#5C5C5C" transform="matrix(1.00, 0.00, -0.00, -1.00, 198.9, 423.0)"> </text><text xml:space="preserve" font-family="IowanOldStyle-Roman" font-size="32.0" fill="#5C5C5C" transform="matrix(1.00, 0.00, -0.00, -1.00, 207.8, 423.0)">t</text><text xml:space="preserve" font-family="IowanOldStyle-Roman" font-size="32.0" fill="#5C5C5C" transform="matrix(1.00, 0.00, -0.00, -1.00, 219.3, 423.0)">h</text><text xml:space="preserve" font-family="IowanOldStyle-Roman" font-size="32.0" fill="#5C5C5C" transform="matrix(1.00, 0.00, -0.00, -1.00, 238.1, 423.0)">e</text><text xml:space="preserve" font-family="IowanOldStyle-Roman" font-size="32.0" fill="#5C5C5C" transform="matrix(1.00, 0.00, -0.00, -1.00, 253.7, 423.0)"> </text><text xml:space="preserve" font-family="IowanOldStyle-BoldItalic" font-style="italic" font-weight="bold" font-size="32.0" fill="#5C5C5C" transform="matrix(1.00, 0.00, -0.00, -1.00, 262.6, 423.0)">ﬁ</text><text xml:space="preserve" font-family="IowanOldStyle-BoldItalic" font-style="italic" font-weight="bold" font-size="32.0" fill="#5C5C5C" transform="matrix(1.00, 0.00, -0.00, -1.00, 281.1, 423.0)">r</text><text xml:space="preserve" font-family="IowanOldStyle-BoldItalic" font-style="italic" font-weight="bold" font-size="32.0" fill="#5C5C5C" transform="matrix(1.00, 0.00, -0.00, -1.00, 294.2, 423.0)">s</text><text xml:space="preserve" font-family="IowanOldStyle-BoldItalic" font-style="italic" font-weight="bold" font-size="32.0" fill="#5C5C5C" transform="matrix(1.00, 0.00, -0.00, -1.00, 307.4, 423.0)">t</text><text xml:space="preserve" font-family="IowanOldStyle-Roman" font-size="32.0" fill="#5C5C5C" transform="matrix(1.00, 0.00, -0.00, -1.00, 319.0, 423.0)"> </text><text xml:space="preserve" font-family="IowanOldStyle-Roman" font-size="32.0" fill="#5C5C5C" transform="matrix(1.00, 0.00, -0.00, -1.00, 327.9, 423.0)">e</text><text xml:space="preserve" font-family="IowanOldStyle-Roman" font-size="32.0" fill="#5C5C5C" transform="matrix(1.00, 0.00, -0.00, -1.00, 343.5, 423.0)">l</text><text xml:space="preserve" font-family="IowanOldStyle-Roman" font-size="32.0" fill="#5C5C5C" transform="matrix(1.00, 0.00, -0.00, -1.00, 352.9, 423.0)">e</text><text xml:space="preserve" font-family="IowanOldStyle-Roman" font-size="32.0" fill="#5C5C5C" transform="matrix(1.00, 0.00, -0.00, -1.00, 368.5, 423.0)">m</text><text xml:space="preserve" font-family="IowanOldStyle-Roman" font-size="32.0" fill="#5C5C5C" transform="matrix(1.00, 0.00, -0.00, -1.00, 396.6, 423.0)">e</text><text xml:space="preserve" font-family="IowanOldStyle-Roman" font-size="32.0" fill="#5C5C5C" transform="matrix(1.00, 0.00, -0.00, -1.00, 412.2, 423.0)">n</text><text xml:space="preserve" font-family="IowanOldStyle-Roman" font-size="32.0" fill="#5C5C5C" transform="matrix(1.00, 0.00, -0.00, -1.00, 430.9, 423.0)">t</text><text xml:space="preserve" font-family="IowanOldStyle-Roman" font-size="32.0" fill="#5C5C5C" transform="matrix(1.00, 0.00, -0.00, -1.00, 442.4, 423.0)"> </text><text xml:space="preserve" font-family="IowanOldStyle-Roman" font-size="32.0" fill="#5C5C5C" transform="matrix(1.00, 0.00, -0.00, -1.00, 451.3, 423.0)">o</text><text xml:space="preserve" font-family="IowanOldStyle-Roman" font-size="32.0" fill="#5C5C5C" transform="matrix(1.00, 0.00, -0.00, -1.00, 468.9, 423.0)">f</text><text xml:space="preserve" font-family="IowanOldStyle-Roman" font-size="32.0" fill="#5C5C5C" transform="matrix(1.00, 0.00, -0.00, -1.00, 479.2, 423.0)"> </text><text xml:space="preserve" font-family="IowanOldStyle-Roman" font-size="32.0" fill="#5C5C5C" transform="matrix(1.00, 0.00, -0.00, -1.00, 488.0, 423.0)">a</text><text xml:space="preserve" font-family="IowanOldStyle-Roman" font-size="32.0" fill="#5C5C5C" transform="matrix(1.00, 0.00, -0.00, -1.00, 503.4, 423.0)"> </text><text xml:space="preserve" font-family="IowanOldStyle-Roman" font-size="32.0" fill="#5C5C5C" transform="matrix(1.00, 0.00, -0.00, -1.00, 512.3, 423.0)">c</text><text xml:space="preserve" font-family="IowanOldStyle-Roman" font-size="32.0" fill="#5C5C5C" transform="matrix(1.00, 0.00, -0.00, -1.00, 526.6, 423.0)">o</text><text xml:space="preserve" font-family="IowanOldStyle-Roman" font-size="32.0" fill="#5C5C5C" transform="matrix(1.00, 0.00, -0.00, -1.00, 544.2, 423.0)">l</text><text xml:space="preserve" font-family="IowanOldStyle-Roman" font-size="32.0" fill="#5C5C5C" transform="matrix(1.00, 0.00, -0.00, -1.00, 553.6, 423.0)">l</text><text xml:space="preserve" font-family="IowanOldStyle-Roman" font-size="32.0" fill="#5C5C5C" transform="matrix(1.00, 0.00, -0.00, -1.00, 562.9, 423.0)">e</text><text xml:space="preserve" font-family="IowanOldStyle-Roman" font-size="32.0" fill="#5C5C5C" transform="matrix(1.00, 0.00, -0.00, -1.00, 578.5, 423.0)">c</text><text xml:space="preserve" font-family="IowanOldStyle-Roman" font-size="32.0" fill="#5C5C5C" transform="matrix(1.00, 0.00, -0.00, -1.00, 592.8, 423.0)">t</text><text xml:space="preserve" font-family="IowanOldStyle-Roman" font-size="32.0" fill="#5C5C5C" transform="matrix(1.00, 0.00, -0.00, -1.00, 604.3, 423.0)">i</text><text xml:space="preserve" font-family="IowanOldStyle-Roman" font-size="32.0" fill="#5C5C5C" transform="matrix(1.00, 0.00, -0.00, -1.00, 613.8, 423.0)">o</text><text xml:space="preserve" font-family="IowanOldStyle-Roman" font-size="32.0" fill="#5C5C5C" transform="matrix(1.00, 0.00, -0.00, -1.00, 631.4, 423.0)">n</text><text xml:space="preserve" font-family="IowanOldStyle-Roman" font-size="32.0" fill="#5C5C5C" transform="matrix(1.00, 0.00, -0.00, -1.00, 650.1, 423.0)"> </text><text xml:space="preserve" font-family="IowanOldStyle-Roman" font-size="32.0" fill="#5C5C5C" transform="matrix(1.00, 0.00, -0.00, -1.00, 659.0, 423.0)">t</text><text xml:space="preserve" font-family="IowanOldStyle-Roman" font-size="32.0" fill="#5C5C5C" transform="matrix(1.00, 0.00, -0.00, -1.00, 670.5, 423.0)">h</text><text xml:space="preserve" font-family="IowanOldStyle-Roman" font-size="32.0" fill="#5C5C5C" transform="matrix(1.00, 0.00, -0.00, -1.00, 689.3, 423.0)">a</text><text xml:space="preserve" font-family="IowanOldStyle-Roman" font-size="32.0" fill="#5C5C5C" transform="matrix(1.00, 0.00, -0.00, -1.00, 704.7, 423.0)">t</text><text xml:space="preserve" font-family="IowanOldStyle-Roman" font-size="32.0" fill="#5C5C5C" transform="matrix(1.00, 0.00, -0.00, -1.00, 716.2, 423.0)"> </text><text xml:space="preserve" font-family="IowanOldStyle-Roman" font-size="32.0" fill="#5C5C5C" transform="matrix(1.00, 0.00, -0.00, -1.00, 725.0, 423.0)">m</text><text xml:space="preserve" font-family="IowanOldStyle-Roman" font-size="32.0" fill="#5C5C5C" transform="matrix(1.00, 0.00, -0.00, -1.00, 753.2, 423.0)">a</text><text xml:space="preserve" font-family="IowanOldStyle-Roman" font-size="32.0" fill="#5C5C5C" transform="matrix(1.00, 0.00, -0.00, -1.00, 768.6, 423.0)">t</text><text xml:space="preserve" font-family="IowanOldStyle-Roman" font-size="32.0" fill="#5C5C5C" transform="matrix(1.00, 0.00, -0.00, -1.00, 780.1, 423.0)">c</text><text xml:space="preserve" font-family="IowanOldStyle-Roman" font-size="32.0" fill="#5C5C5C" transform="matrix(1.00, 0.00, -0.00, -1.00, 794.4, 423.0)">h</text><text xml:space="preserve" font-family="IowanOldStyle-Roman" font-size="32.0" fill="#5C5C5C" transform="matrix(1.00, 0.00, -0.00, -1.00, 813.1, 423.0)">e</text><text xml:space="preserve" font-family="IowanOldStyle-Roman" font-size="32.0" fill="#5C5C5C" transform="matrix(1.00, 0.00, -0.00, -1.00, 828.7, 423.0)">s</text><text xml:space="preserve" font-family="IowanOldStyle-Roman" font-size="32.0" fill="#5C5C5C" transform="matrix(1.00, 0.00, -0.00, -1.00, 842.9, 423.0)"> </text><text xml:space="preserve" font-family="IowanOldStyle-Roman" font-size="32.0" fill="#5C5C5C" transform="matrix(1.00, 0.00, -0.00, -1.00, 851.8, 423.0)">a</text><text xml:space="preserve" font-family="IowanOldStyle-Roman" font-size="32.0" fill="#5C5C5C" transform="matrix(1.00, 0.00, -0.00, -1.00, 867.2, 423.0)"> </text><text xml:space="preserve" font-family="IowanOldStyle-Roman" font-size="32.0" fill="#5C5C5C" transform="matrix(1.00, 0.00, -0.00, -1.00, 86.0, 379.0)">p</text><text xml:space="preserve" font-family="IowanOldStyle-Roman" font-size="32.0" fill="#5C5C5C" transform="matrix(1.00, 0.00, -0.00, -1.00, 103.9, 379.0)">r</text><text xml:space="preserve" font-family="IowanOldStyle-Roman" font-size="32.0" fill="#5C5C5C" transform="matrix(1.00, 0.00, -0.00, -1.00, 116.4, 379.0)">e</text><text xml:space="preserve" font-family="IowanOldStyle-Roman" font-size="32.0" fill="#5C5C5C" transform="matrix(1.00, 0.00, -0.00, -1.00, 132.0, 379.0)">d</text><text xml:space="preserve" font-family="IowanOldStyle-Roman" font-size="32.0" fill="#5C5C5C" transform="matrix(1.00, 0.00, -0.00, -1.00, 150.0, 379.0)">i</text><text xml:space="preserve" font-family="IowanOldStyle-Roman" font-size="32.0" fill="#5C5C5C" transform="matrix(1.00, 0.00, -0.00, -1.00, 159.5, 379.0)">c</text><text xml:space="preserve" font-family="IowanOldStyle-Roman" font-size="32.0" fill="#5C5C5C" transform="matrix(1.00, 0.00, -0.00, -1.00, 173.8, 379.0)">a</text><text xml:space="preserve" font-family="IowanOldStyle-Roman" font-size="32.0" fill="#5C5C5C" transform="matrix(1.00, 0.00, -0.00, -1.00, 189.2, 379.0)">t</text><text xml:space="preserve" font-family="IowanOldStyle-Roman" font-size="32.0" fill="#5C5C5C" transform="matrix(1.00, 0.00, -0.00, -1.00, 200.7, 379.0)">e</text><text xml:space="preserve" font-family="IowanOldStyle-Roman" font-size="32.0" fill="#5C5C5C" transform="matrix(1.00, 0.00, -0.00, -1.00, 216.3, 379.0)"> </text><text xml:space="preserve" font-family="IowanOldStyle-Roman" font-size="32.0" fill="#5C5C5C" transform="matrix(1.00, 0.00, -0.00, -1.00, 225.2, 379.0)">f</text><text xml:space="preserve" font-family="IowanOldStyle-Roman" font-size="32.0" fill="#5C5C5C" transform="matrix(1.00, 0.00, -0.00, -1.00, 235.4, 379.0)">u</text><text xml:space="preserve" font-family="IowanOldStyle-Roman" font-size="32.0" fill="#5C5C5C" transform="matrix(1.00, 0.00, -0.00, -1.00, 254.2, 379.0)">n</text><text xml:space="preserve" font-family="IowanOldStyle-Roman" font-size="32.0" fill="#5C5C5C" transform="matrix(1.00, 0.00, -0.00, -1.00, 272.9, 379.0)">c</text><text xml:space="preserve" font-family="IowanOldStyle-Roman" font-size="32.0" fill="#5C5C5C" transform="matrix(1.00, 0.00, -0.00, -1.00, 287.2, 379.0)">t</text><text xml:space="preserve" font-family="IowanOldStyle-Roman" font-size="32.0" fill="#5C5C5C" transform="matrix(1.00, 0.00, -0.00, -1.00, 298.7, 379.0)">i</text><text xml:space="preserve" font-family="IowanOldStyle-Roman" font-size="32.0" fill="#5C5C5C" transform="matrix(1.00, 0.00, -0.00, -1.00, 308.2, 379.0)">o</text><text xml:space="preserve" font-family="IowanOldStyle-Roman" font-size="32.0" fill="#5C5C5C" transform="matrix(1.00, 0.00, -0.00, -1.00, 325.8, 379.0)">n</text><text xml:space="preserve" font-family="IowanOldStyle-Roman" font-size="32.0" fill="#5C5C5C" transform="matrix(1.00, 0.00, -0.00, -1.00, 344.5, 379.0)">.</text></g></svg>