<?xml version="1.0" encoding="UTF-8" standalone="no"?><svg xmlns="http://www.w3.org/2000/svg" xmlns:xlink="http://www.w3.org/1999/xlink" clip-rule="evenodd" stroke-miterlimit="4.00" viewBox="0 0 1024 768"><desc>SVG generated by Keynote</desc><defs></defs><g transform="matrix(1.00, 0.00, -0.00, -1.00, 0.0, 768.0)"><path d="M 0.0 768.0 L 1024.0 768.0 L 1024.0 0.0 L 0.0 0.0 Z M 0.0 768.0 " fill="#FFFFFF"></path><path d="M 0.0 0.0 L 934.0 0.0 " fill="none" stroke="#747676" stroke-width="3.00" stroke-linecap="round" stroke-linejoin="round" stroke-dasharray="0.0, 9.0" transform="matrix(1.00, 0.00, 0.00, -1.00, 45.0, 644.0)"></path><text xml:space="preserve" font-family="DINCondensed-Bold" font-weight="bold" font-size="48.4" fill="#747676" transform="matrix(1.00, 0.00, -0.00, -1.00, 49.0, 673.0)">P</text><text xml:space="preserve" font-family="DINCondensed-Bold" font-weight="bold" font-size="48.4" fill="#747676" transform="matrix(1.00, 0.00, -0.00, -1.00, 66.9, 673.0)">A</text><text xml:space="preserve" font-family="DINCondensed-Bold" font-weight="bold" font-size="48.4" fill="#747676" transform="matrix(1.00, 0.00, -0.00, -1.00, 83.9, 673.0)">T</text><text xml:space="preserve" font-family="DINCondensed-Bold" font-weight="bold" font-size="48.4" fill="#747676" transform="matrix(1.00, 0.00, -0.00, -1.00, 100.0, 673.0)">T</text><text xml:space="preserve" font-family="DINCondensed-Bold" font-weight="bold" font-size="48.4" fill="#747676" transform="matrix(1.00, 0.00, -0.00, -1.00, 116.0, 673.0)">E</text><text xml:space="preserve" font-family="DINCondensed-Bold" font-weight="bold" font-size="48.4" fill="#747676" transform="matrix(1.00, 0.00, -0.00, -1.00, 133.9, 673.0)">R</text><text xml:space="preserve" font-family="DINCondensed-Bold" font-weight="bold" font-size="48.4" fill="#747676" transform="matrix(1.00, 0.00, -0.00, -1.00, 154.5, 673.0)">N</text><text xml:space="preserve" font-family="DINCondensed-Bold" font-weight="bold" font-size="48.4" fill="#747676" transform="matrix(1.00, 0.00, -0.00, -1.00, 176.0, 673.0)"> </text><text xml:space="preserve" font-family="DINCondensed-Bold" font-weight="bold" font-size="48.4" fill="#747676" transform="matrix(1.00, 0.00, -0.00, -1.00, 185.0, 673.0)">M</text><text xml:space="preserve" font-family="DINCondensed-Bold" font-weight="bold" font-size="48.4" fill="#747676" transform="matrix(1.00, 0.00, -0.00, -1.00, 211.9, 673.0)">A</text><text xml:space="preserve" font-family="DINCondensed-Bold" font-weight="bold" font-size="48.4" fill="#747676" transform="matrix(1.00, 0.00, -0.00, -1.00, 228.9, 673.0)">T</text><text xml:space="preserve" font-family="DINCondensed-Bold" font-weight="bold" font-size="48.4" fill="#747676" transform="matrix(1.00, 0.00, -0.00, -1.00, 245.0, 673.0)">C</text><text xml:space="preserve" font-family="DINCondensed-Bold" font-weight="bold" font-size="48.4" fill="#747676" transform="matrix(1.00, 0.00, -0.00, -1.00, 264.6, 673.0)">H</text><text xml:space="preserve" font-family="DINCondensed-Bold" font-weight="bold" font-size="48.4" fill="#747676" transform="matrix(1.00, 0.00, -0.00, -1.00, 285.2, 673.0)">I</text><text xml:space="preserve" font-family="DINCondensed-Bold" font-weight="bold" font-size="48.4" fill="#747676" transform="matrix(1.00, 0.00, -0.00, -1.00, 295.1, 673.0)">N</text><text xml:space="preserve" font-family="DINCondensed-Bold" font-weight="bold" font-size="48.4" fill="#747676" transform="matrix(1.00, 0.00, -0.00, -1.00, 316.6, 673.0)">G</text><text xml:space="preserve" font-family="DINCondensed-Bold" font-weight="bold" font-size="48.4" fill="#747676" transform="matrix(1.00, 0.00, -0.00, -1.00, 337.2, 673.0)"> </text><text xml:space="preserve" font-family="DINCondensed-Bold" font-weight="bold" font-size="48.4" fill="#747676" transform="matrix(1.00, 0.00, -0.00, -1.00, 346.2, 673.0)">O</text><text xml:space="preserve" font-family="DINCondensed-Bold" font-weight="bold" font-size="48.4" fill="#747676" transform="matrix(1.00, 0.00, -0.00, -1.00, 366.8, 673.0)">N</text><text xml:space="preserve" font-family="DINCondensed-Bold" font-weight="bold" font-size="48.4" fill="#747676" transform="matrix(1.00, 0.00, -0.00, -1.00, 388.2, 673.0)"> </text><text xml:space="preserve" font-family="DINCondensed-Bold" font-weight="bold" font-size="48.4" fill="#747676" transform="matrix(1.00, 0.00, -0.00, -1.00, 397.2, 673.0)">V</text><text xml:space="preserve" font-family="DINCondensed-Bold" font-weight="bold" font-size="48.4" fill="#747676" transform="matrix(1.00, 0.00, -0.00, -1.00, 415.1, 673.0)">A</text><text xml:space="preserve" font-family="DINCondensed-Bold" font-weight="bold" font-size="48.4" fill="#747676" transform="matrix(1.00, 0.00, -0.00, -1.00, 434.8, 673.0)">L</text><text xml:space="preserve" font-family="DINCondensed-Bold" font-weight="bold" font-size="48.4" fill="#747676" transform="matrix(1.00, 0.00, -0.00, -1.00, 452.7, 673.0)">U</text><text xml:space="preserve" font-family="DINCondensed-Bold" font-weight="bold" font-size="48.4" fill="#747676" transform="matrix(1.00, 0.00, -0.00, -1.00, 473.3, 673.0)">E</text><text xml:space="preserve" font-family="DINCondensed-Bold" font-weight="bold" font-size="48.4" fill="#747676" transform="matrix(1.00, 0.00, -0.00, -1.00, 491.2, 673.0)">…</text><text xml:space="preserve" font-family="DINCondensed-Bold" font-weight="bold" font-size="48.4" fill="#747676" transform="matrix(1.00, 0.00, -0.00, -1.00, 539.6, 673.0)">.</text><text xml:space="preserve" font-family="DINCondensed-Bold" font-weight="bold" font-size="48.4" fill="#747676" transform="matrix(1.00, 0.00, -0.00, -1.00, 548.6, 673.0)"> </text><text xml:space="preserve" font-family="DINCondensed-Bold" font-weight="bold" font-size="48.4" fill="#747676" transform="matrix(1.00, 0.00, -0.00, -1.00, 557.6, 673.0)">A</text><text xml:space="preserve" font-family="DINCondensed-Bold" font-weight="bold" font-size="48.4" fill="#747676" transform="matrix(1.00, 0.00, -0.00, -1.00, 577.2, 673.0)">N</text><text xml:space="preserve" font-family="DINCondensed-Bold" font-weight="bold" font-size="48.4" fill="#747676" transform="matrix(1.00, 0.00, -0.00, -1.00, 598.7, 673.0)">D</text><text xml:space="preserve" font-family="DINCondensed-Bold" font-weight="bold" font-size="48.4" fill="#747676" transform="matrix(1.00, 0.00, -0.00, -1.00, 619.3, 673.0)"> </text><text xml:space="preserve" font-family="DINCondensed-Bold" font-weight="bold" font-size="48.4" fill="#747676" transform="matrix(1.00, 0.00, -0.00, -1.00, 628.3, 673.0)">G</text><text xml:space="preserve" font-family="DINCondensed-Bold" font-weight="bold" font-size="48.4" fill="#747676" transform="matrix(1.00, 0.00, -0.00, -1.00, 648.9, 673.0)">U</text><text xml:space="preserve" font-family="DINCondensed-Bold" font-weight="bold" font-size="48.4" fill="#747676" transform="matrix(1.00, 0.00, -0.00, -1.00, 668.9, 673.0)">A</text><text xml:space="preserve" font-family="DINCondensed-Bold" font-weight="bold" font-size="48.4" fill="#747676" transform="matrix(1.00, 0.00, -0.00, -1.00, 688.6, 673.0)">R</text><text xml:space="preserve" font-family="DINCondensed-Bold" font-weight="bold" font-size="48.4" fill="#747676" transform="matrix(1.00, 0.00, -0.00, -1.00, 709.2, 673.0)">D</text><text xml:space="preserve" font-family="DINCondensed-Bold" font-weight="bold" font-size="48.4" fill="#747676" transform="matrix(1.00, 0.00, -0.00, -1.00, 729.8, 673.0)">S</text><path d="M 49.0 622.0 L 128.5 622.0 L 128.5 571.0 L 49.0 571.0 Z M 49.0 622.0 " fill="#344033"></path><path d="M 128.5 622.0 L 366.9 622.0 L 366.9 571.0 L 128.5 571.0 Z M 128.5 622.0 " fill="#2A2A2A"></path><path d="M 366.9 622.0 L 393.4 622.0 L 393.4 571.0 L 366.9 571.0 Z M 366.9 622.0 " fill="#344033"></path><path d="M 49.0 571.0 L 393.4 571.0 L 393.4 520.0 L 49.0 520.0 Z M 49.0 571.0 " fill="#2A2A2A"></path><path d="M 49.0 520.0 L 764.2 520.0 L 764.2 469.0 L 49.0 469.0 Z M 49.0 520.0 " fill="#2A2A2A"></path><path d="M 49.0 469.0 L 764.2 469.0 L 764.2 418.0 L 49.0 418.0 Z M 49.0 469.0 " fill="#2A2A2A"></path><path d="M 49.0 418.0 L 870.2 418.0 L 870.2 367.0 L 49.0 367.0 Z M 49.0 418.0 " fill="#2A2A2A"></path><path d="M 49.0 367.0 L 102.0 367.0 L 102.0 316.0 L 49.0 316.0 Z M 49.0 367.0 " fill="#2A2A2A"></path><text xml:space="preserve" font-family="Menlo-Bold" font-weight="bold" font-size="44.0" fill="#CC7831" transform="matrix(1.00, 0.00, -0.00, -1.00, 49.0, 581.0)">v</text><text xml:space="preserve" font-family="Menlo-Bold" font-weight="bold" font-size="44.0" fill="#CC7831" transform="matrix(1.00, 0.00, -0.00, -1.00, 75.5, 581.0)">a</text><text xml:space="preserve" font-family="Menlo-Bold" font-weight="bold" font-size="44.0" fill="#CC7831" transform="matrix(1.00, 0.00, -0.00, -1.00, 102.0, 581.0)">l</text><text xml:space="preserve" font-family="Menlo-Bold" font-weight="bold" font-size="44.0" fill="#CC7831" transform="matrix(1.00, 0.00, -0.00, -1.00, 128.5, 581.0)"> </text><text xml:space="preserve" font-family="Menlo-Regular" font-size="44.0" fill="#A9B6C6" transform="matrix(1.00, 0.00, -0.00, -1.00, 155.0, 581.0)">t</text><text xml:space="preserve" font-family="Menlo-Regular" font-size="44.0" fill="#A9B6C6" transform="matrix(1.00, 0.00, -0.00, -1.00, 181.5, 581.0)">i</text><text xml:space="preserve" font-family="Menlo-Regular" font-size="44.0" fill="#A9B6C6" transform="matrix(1.00, 0.00, -0.00, -1.00, 208.0, 581.0)">m</text><text xml:space="preserve" font-family="Menlo-Regular" font-size="44.0" fill="#A9B6C6" transform="matrix(1.00, 0.00, -0.00, -1.00, 234.4, 581.0)">e</text><text xml:space="preserve" font-family="Menlo-Regular" font-size="44.0" fill="#A9B6C6" transform="matrix(1.00, 0.00, -0.00, -1.00, 260.9, 581.0)">s</text><text xml:space="preserve" font-family="Menlo-Regular" font-size="44.0" fill="#A9B6C6" transform="matrix(1.00, 0.00, -0.00, -1.00, 287.4, 581.0)"> </text><text xml:space="preserve" font-family="Menlo-Regular" font-size="44.0" fill="#A9B6C6" transform="matrix(1.00, 0.00, -0.00, -1.00, 313.9, 581.0)">=</text><text xml:space="preserve" font-family="Menlo-Regular" font-size="44.0" fill="#A9B6C6" transform="matrix(1.00, 0.00, -0.00, -1.00, 340.4, 581.0)"> </text><text xml:space="preserve" font-family="Menlo-Regular" font-size="44.0" fill="#6796BB" transform="matrix(1.00, 0.00, -0.00, -1.00, 366.9, 581.0)">1</text><text xml:space="preserve" font-family="Monaco" font-size="44.0" fill="#6796BB" transform="matrix(1.00, 0.00, -0.00, -1.00, 393.4, 581.0)"> </text><text xml:space="preserve" font-family="Menlo-Regular" font-size="44.0" fill="#A9B6C6" transform="matrix(1.00, 0.00, -0.00, -1.00, 49.0, 530.0)">t</text><text xml:space="preserve" font-family="Menlo-Regular" font-size="44.0" fill="#A9B6C6" transform="matrix(1.00, 0.00, -0.00, -1.00, 75.5, 530.0)">i</text><text xml:space="preserve" font-family="Menlo-Regular" font-size="44.0" fill="#A9B6C6" transform="matrix(1.00, 0.00, -0.00, -1.00, 102.0, 530.0)">m</text><text xml:space="preserve" font-family="Menlo-Regular" font-size="44.0" fill="#A9B6C6" transform="matrix(1.00, 0.00, -0.00, -1.00, 128.5, 530.0)">e</text><text xml:space="preserve" font-family="Menlo-Regular" font-size="44.0" fill="#A9B6C6" transform="matrix(1.00, 0.00, -0.00, -1.00, 155.0, 530.0)">s</text><text xml:space="preserve" font-family="Menlo-Regular" font-size="44.0" fill="#A9B6C6" transform="matrix(1.00, 0.00, -0.00, -1.00, 181.5, 530.0)"> </text><text xml:space="preserve" font-family="Menlo-Bold" font-weight="bold" font-size="44.0" fill="#CC7831" transform="matrix(1.00, 0.00, -0.00, -1.00, 207.9, 530.0)">m</text><text xml:space="preserve" font-family="Menlo-Bold" font-weight="bold" font-size="44.0" fill="#CC7831" transform="matrix(1.00, 0.00, -0.00, -1.00, 234.4, 530.0)">a</text><text xml:space="preserve" font-family="Menlo-Bold" font-weight="bold" font-size="44.0" fill="#CC7831" transform="matrix(1.00, 0.00, -0.00, -1.00, 260.9, 530.0)">t</text><text xml:space="preserve" font-family="Menlo-Bold" font-weight="bold" font-size="44.0" fill="#CC7831" transform="matrix(1.00, 0.00, -0.00, -1.00, 287.4, 530.0)">c</text><text xml:space="preserve" font-family="Menlo-Bold" font-weight="bold" font-size="44.0" fill="#CC7831" transform="matrix(1.00, 0.00, -0.00, -1.00, 313.9, 530.0)">h</text><text xml:space="preserve" font-family="Menlo-Bold" font-weight="bold" font-size="44.0" fill="#CC7831" transform="matrix(1.00, 0.00, -0.00, -1.00, 340.4, 530.0)"> </text><text xml:space="preserve" font-family="Menlo-Regular" font-size="44.0" fill="#A9B6C6" transform="matrix(1.00, 0.00, -0.00, -1.00, 366.9, 530.0)">{</text><text xml:space="preserve" font-family="Monaco" font-size="44.0" fill="#A9B6C6" transform="matrix(1.00, 0.00, -0.00, -1.00, 393.4, 530.0)"> </text><text xml:space="preserve" font-family="Menlo-Regular" font-size="44.0" fill="#A9B6C6" transform="matrix(1.00, 0.00, -0.00, -1.00, 49.0, 479.0)"> </text><text xml:space="preserve" font-family="Menlo-Regular" font-size="44.0" fill="#A9B6C6" transform="matrix(1.00, 0.00, -0.00, -1.00, 75.5, 479.0)"> </text><text xml:space="preserve" font-family="Menlo-Bold" font-weight="bold" font-size="44.0" fill="#CC7831" transform="matrix(1.00, 0.00, -0.00, -1.00, 102.0, 479.0)">c</text><text xml:space="preserve" font-family="Menlo-Bold" font-weight="bold" font-size="44.0" fill="#CC7831" transform="matrix(1.00, 0.00, -0.00, -1.00, 128.5, 479.0)">a</text><text xml:space="preserve" font-family="Menlo-Bold" font-weight="bold" font-size="44.0" fill="#CC7831" transform="matrix(1.00, 0.00, -0.00, -1.00, 155.0, 479.0)">s</text><text xml:space="preserve" font-family="Menlo-Bold" font-weight="bold" font-size="44.0" fill="#CC7831" transform="matrix(1.00, 0.00, -0.00, -1.00, 181.5, 479.0)">e</text><text xml:space="preserve" font-family="Menlo-Bold" font-weight="bold" font-size="44.0" fill="#CC7831" transform="matrix(1.00, 0.00, -0.00, -1.00, 208.0, 479.0)"> </text><text xml:space="preserve" font-family="Menlo-Regular" font-size="44.0" fill="#A9B6C6" transform="matrix(1.00, 0.00, -0.00, -1.00, 234.4, 479.0)">i</text><text xml:space="preserve" font-family="Menlo-Regular" font-size="44.0" fill="#A9B6C6" transform="matrix(1.00, 0.00, -0.00, -1.00, 260.9, 479.0)"> </text><text xml:space="preserve" font-family="Menlo-Bold" font-weight="bold" font-size="44.0" fill="#CC7831" transform="matrix(1.00, 0.00, -0.00, -1.00, 287.4, 479.0)">i</text><text xml:space="preserve" font-family="Menlo-Bold" font-weight="bold" font-size="44.0" fill="#CC7831" transform="matrix(1.00, 0.00, -0.00, -1.00, 313.9, 479.0)">f</text><text xml:space="preserve" font-family="Menlo-Bold" font-weight="bold" font-size="44.0" fill="#CC7831" transform="matrix(1.00, 0.00, -0.00, -1.00, 340.4, 479.0)"> </text><text xml:space="preserve" font-family="Menlo-Regular" font-size="44.0" fill="#A9B6C6" transform="matrix(1.00, 0.00, -0.00, -1.00, 366.9, 479.0)">i</text><text xml:space="preserve" font-family="Menlo-Regular" font-size="44.0" fill="#A9B6C6" transform="matrix(1.00, 0.00, -0.00, -1.00, 393.4, 479.0)"> </text><text xml:space="preserve" font-family="Menlo-Regular" font-size="44.0" fill="#A9B6C6" transform="matrix(1.00, 0.00, -0.00, -1.00, 419.9, 479.0)">=</text><text xml:space="preserve" font-family="Menlo-Regular" font-size="44.0" fill="#A9B6C6" transform="matrix(1.00, 0.00, -0.00, -1.00, 446.4, 479.0)">=</text><text xml:space="preserve" font-family="Menlo-Regular" font-size="44.0" fill="#A9B6C6" transform="matrix(1.00, 0.00, -0.00, -1.00, 472.9, 479.0)"> </text><text xml:space="preserve" font-family="Menlo-Regular" font-size="44.0" fill="#6796BB" transform="matrix(1.00, 0.00, -0.00, -1.00, 499.3, 479.0)">1</text><text xml:space="preserve" font-family="Menlo-Regular" font-size="44.0" fill="#6796BB" transform="matrix(1.00, 0.00, -0.00, -1.00, 525.8, 479.0)"> </text><text xml:space="preserve" font-family="Menlo-Regular" font-size="44.0" fill="#A9B6C6" transform="matrix(1.00, 0.00, -0.00, -1.00, 552.3, 479.0)">=</text><text xml:space="preserve" font-family="Menlo-Regular" font-size="44.0" fill="#A9B6C6" transform="matrix(1.00, 0.00, -0.00, -1.00, 578.8, 479.0)">&gt;</text><text xml:space="preserve" font-family="Menlo-Regular" font-size="44.0" fill="#A9B6C6" transform="matrix(1.00, 0.00, -0.00, -1.00, 605.3, 479.0)"> </text><text xml:space="preserve" font-family="Menlo-Regular" font-size="44.0" fill="#6A8758" transform="matrix(1.00, 0.00, -0.00, -1.00, 631.8, 479.0)">"</text><text xml:space="preserve" font-family="Menlo-Regular" font-size="44.0" fill="#6A8758" transform="matrix(1.00, 0.00, -0.00, -1.00, 658.3, 479.0)">o</text><text xml:space="preserve" font-family="Menlo-Regular" font-size="44.0" fill="#6A8758" transform="matrix(1.00, 0.00, -0.00, -1.00, 684.8, 479.0)">n</text><text xml:space="preserve" font-family="Menlo-Regular" font-size="44.0" fill="#6A8758" transform="matrix(1.00, 0.00, -0.00, -1.00, 711.3, 479.0)">e</text><text xml:space="preserve" font-family="Menlo-Regular" font-size="44.0" fill="#6A8758" transform="matrix(1.00, 0.00, -0.00, -1.00, 737.8, 479.0)">"</text><text xml:space="preserve" font-family="Monaco" font-size="44.0" fill="#6A8758" transform="matrix(1.00, 0.00, -0.00, -1.00, 764.2, 479.0)"> </text><text xml:space="preserve" font-family="Menlo-Regular" font-size="44.0" fill="#6A8758" transform="matrix(1.00, 0.00, -0.00, -1.00, 49.0, 428.0)"> </text><text xml:space="preserve" font-family="Menlo-Regular" font-size="44.0" fill="#6A8758" transform="matrix(1.00, 0.00, -0.00, -1.00, 75.5, 428.0)"> </text><text xml:space="preserve" font-family="Menlo-Bold" font-weight="bold" font-size="44.0" fill="#CC7831" transform="matrix(1.00, 0.00, -0.00, -1.00, 102.0, 428.0)">c</text><text xml:space="preserve" font-family="Menlo-Bold" font-weight="bold" font-size="44.0" fill="#CC7831" transform="matrix(1.00, 0.00, -0.00, -1.00, 128.5, 428.0)">a</text><text xml:space="preserve" font-family="Menlo-Bold" font-weight="bold" font-size="44.0" fill="#CC7831" transform="matrix(1.00, 0.00, -0.00, -1.00, 155.0, 428.0)">s</text><text xml:space="preserve" font-family="Menlo-Bold" font-weight="bold" font-size="44.0" fill="#CC7831" transform="matrix(1.00, 0.00, -0.00, -1.00, 181.5, 428.0)">e</text><text xml:space="preserve" font-family="Menlo-Bold" font-weight="bold" font-size="44.0" fill="#CC7831" transform="matrix(1.00, 0.00, -0.00, -1.00, 208.0, 428.0)"> </text><text xml:space="preserve" font-family="Menlo-Regular" font-size="44.0" fill="#A9B6C6" transform="matrix(1.00, 0.00, -0.00, -1.00, 234.4, 428.0)">i</text><text xml:space="preserve" font-family="Menlo-Regular" font-size="44.0" fill="#A9B6C6" transform="matrix(1.00, 0.00, -0.00, -1.00, 260.9, 428.0)"> </text><text xml:space="preserve" font-family="Menlo-Bold" font-weight="bold" font-size="44.0" fill="#CC7831" transform="matrix(1.00, 0.00, -0.00, -1.00, 287.4, 428.0)">i</text><text xml:space="preserve" font-family="Menlo-Bold" font-weight="bold" font-size="44.0" fill="#CC7831" transform="matrix(1.00, 0.00, -0.00, -1.00, 313.9, 428.0)">f</text><text xml:space="preserve" font-family="Menlo-Bold" font-weight="bold" font-size="44.0" fill="#CC7831" transform="matrix(1.00, 0.00, -0.00, -1.00, 340.4, 428.0)"> </text><text xml:space="preserve" font-family="Menlo-Regular" font-size="44.0" fill="#A9B6C6" transform="matrix(1.00, 0.00, -0.00, -1.00, 366.9, 428.0)">i</text><text xml:space="preserve" font-family="Menlo-Regular" font-size="44.0" fill="#A9B6C6" transform="matrix(1.00, 0.00, -0.00, -1.00, 393.4, 428.0)"> </text><text xml:space="preserve" font-family="Menlo-Regular" font-size="44.0" fill="#A9B6C6" transform="matrix(1.00, 0.00, -0.00, -1.00, 419.9, 428.0)">=</text><text xml:space="preserve" font-family="Menlo-Regular" font-size="44.0" fill="#A9B6C6" transform="matrix(1.00, 0.00, -0.00, -1.00, 446.4, 428.0)">=</text><text xml:space="preserve" font-family="Menlo-Regular" font-size="44.0" fill="#A9B6C6" transform="matrix(1.00, 0.00, -0.00, -1.00, 472.9, 428.0)"> </text><text xml:space="preserve" font-family="Menlo-Regular" font-size="44.0" fill="#6796BB" transform="matrix(1.00, 0.00, -0.00, -1.00, 499.3, 428.0)">2</text><text xml:space="preserve" font-family="Menlo-Regular" font-size="44.0" fill="#6796BB" transform="matrix(1.00, 0.00, -0.00, -1.00, 525.8, 428.0)"> </text><text xml:space="preserve" font-family="Menlo-Regular" font-size="44.0" fill="#A9B6C6" transform="matrix(1.00, 0.00, -0.00, -1.00, 552.3, 428.0)">=</text><text xml:space="preserve" font-family="Menlo-Regular" font-size="44.0" fill="#A9B6C6" transform="matrix(1.00, 0.00, -0.00, -1.00, 578.8, 428.0)">&gt;</text><text xml:space="preserve" font-family="Menlo-Regular" font-size="44.0" fill="#A9B6C6" transform="matrix(1.00, 0.00, -0.00, -1.00, 605.3, 428.0)"> </text><text xml:space="preserve" font-family="Menlo-Regular" font-size="44.0" fill="#6A8758" transform="matrix(1.00, 0.00, -0.00, -1.00, 631.8, 428.0)">"</text><text xml:space="preserve" font-family="Menlo-Regular" font-size="44.0" fill="#6A8758" transform="matrix(1.00, 0.00, -0.00, -1.00, 658.3, 428.0)">t</text><text xml:space="preserve" font-family="Menlo-Regular" font-size="44.0" fill="#6A8758" transform="matrix(1.00, 0.00, -0.00, -1.00, 684.8, 428.0)">w</text><text xml:space="preserve" font-family="Menlo-Regular" font-size="44.0" fill="#6A8758" transform="matrix(1.00, 0.00, -0.00, -1.00, 711.3, 428.0)">o</text><text xml:space="preserve" font-family="Menlo-Regular" font-size="44.0" fill="#6A8758" transform="matrix(1.00, 0.00, -0.00, -1.00, 737.8, 428.0)">"</text><text xml:space="preserve" font-family="Monaco" font-size="44.0" fill="#6A8758" transform="matrix(1.00, 0.00, -0.00, -1.00, 764.2, 428.0)"> </text><text xml:space="preserve" font-family="Menlo-Regular" font-size="44.0" fill="#6A8758" transform="matrix(1.00, 0.00, -0.00, -1.00, 49.0, 377.0)"> </text><text xml:space="preserve" font-family="Menlo-Regular" font-size="44.0" fill="#6A8758" transform="matrix(1.00, 0.00, -0.00, -1.00, 75.5, 377.0)"> </text><text xml:space="preserve" font-family="Menlo-Bold" font-weight="bold" font-size="44.0" fill="#CC7831" transform="matrix(1.00, 0.00, -0.00, -1.00, 102.0, 377.0)">c</text><text xml:space="preserve" font-family="Menlo-Bold" font-weight="bold" font-size="44.0" fill="#CC7831" transform="matrix(1.00, 0.00, -0.00, -1.00, 128.5, 377.0)">a</text><text xml:space="preserve" font-family="Menlo-Bold" font-weight="bold" font-size="44.0" fill="#CC7831" transform="matrix(1.00, 0.00, -0.00, -1.00, 155.0, 377.0)">s</text><text xml:space="preserve" font-family="Menlo-Bold" font-weight="bold" font-size="44.0" fill="#CC7831" transform="matrix(1.00, 0.00, -0.00, -1.00, 181.5, 377.0)">e</text><text xml:space="preserve" font-family="Menlo-Bold" font-weight="bold" font-size="44.0" fill="#CC7831" transform="matrix(1.00, 0.00, -0.00, -1.00, 208.0, 377.0)"> </text><text xml:space="preserve" font-family="Menlo-Regular" font-size="44.0" fill="#A9B6C6" transform="matrix(1.00, 0.00, -0.00, -1.00, 234.4, 377.0)">_</text><text xml:space="preserve" font-family="Menlo-Regular" font-size="44.0" fill="#A9B6C6" transform="matrix(1.00, 0.00, -0.00, -1.00, 260.9, 377.0)"> </text><text xml:space="preserve" font-family="Menlo-Regular" font-size="44.0" fill="#A9B6C6" transform="matrix(1.00, 0.00, -0.00, -1.00, 287.4, 377.0)">=</text><text xml:space="preserve" font-family="Menlo-Regular" font-size="44.0" fill="#A9B6C6" transform="matrix(1.00, 0.00, -0.00, -1.00, 313.9, 377.0)">&gt;</text><text xml:space="preserve" font-family="Menlo-Regular" font-size="44.0" fill="#A9B6C6" transform="matrix(1.00, 0.00, -0.00, -1.00, 340.4, 377.0)"> </text><text xml:space="preserve" font-family="Menlo-Regular" font-size="44.0" fill="#6A8758" transform="matrix(1.00, 0.00, -0.00, -1.00, 366.9, 377.0)">"</text><text xml:space="preserve" font-family="Menlo-Regular" font-size="44.0" fill="#6A8758" transform="matrix(1.00, 0.00, -0.00, -1.00, 393.4, 377.0)">s</text><text xml:space="preserve" font-family="Menlo-Regular" font-size="44.0" fill="#6A8758" transform="matrix(1.00, 0.00, -0.00, -1.00, 419.9, 377.0)">o</text><text xml:space="preserve" font-family="Menlo-Regular" font-size="44.0" fill="#6A8758" transform="matrix(1.00, 0.00, -0.00, -1.00, 446.4, 377.0)">m</text><text xml:space="preserve" font-family="Menlo-Regular" font-size="44.0" fill="#6A8758" transform="matrix(1.00, 0.00, -0.00, -1.00, 472.9, 377.0)">e</text><text xml:space="preserve" font-family="Menlo-Regular" font-size="44.0" fill="#6A8758" transform="matrix(1.00, 0.00, -0.00, -1.00, 499.4, 377.0)"> </text><text xml:space="preserve" font-family="Menlo-Regular" font-size="44.0" fill="#6A8758" transform="matrix(1.00, 0.00, -0.00, -1.00, 525.9, 377.0)">o</text><text xml:space="preserve" font-family="Menlo-Regular" font-size="44.0" fill="#6A8758" transform="matrix(1.00, 0.00, -0.00, -1.00, 552.3, 377.0)">t</text><text xml:space="preserve" font-family="Menlo-Regular" font-size="44.0" fill="#6A8758" transform="matrix(1.00, 0.00, -0.00, -1.00, 578.8, 377.0)">h</text><text xml:space="preserve" font-family="Menlo-Regular" font-size="44.0" fill="#6A8758" transform="matrix(1.00, 0.00, -0.00, -1.00, 605.3, 377.0)">e</text><text xml:space="preserve" font-family="Menlo-Regular" font-size="44.0" fill="#6A8758" transform="matrix(1.00, 0.00, -0.00, -1.00, 631.8, 377.0)">r</text><text xml:space="preserve" font-family="Menlo-Regular" font-size="44.0" fill="#6A8758" transform="matrix(1.00, 0.00, -0.00, -1.00, 658.3, 377.0)"> </text><text xml:space="preserve" font-family="Menlo-Regular" font-size="44.0" fill="#6A8758" transform="matrix(1.00, 0.00, -0.00, -1.00, 684.8, 377.0)">n</text><text xml:space="preserve" font-family="Menlo-Regular" font-size="44.0" fill="#6A8758" transform="matrix(1.00, 0.00, -0.00, -1.00, 711.3, 377.0)">u</text><text xml:space="preserve" font-family="Menlo-Regular" font-size="44.0" fill="#6A8758" transform="matrix(1.00, 0.00, -0.00, -1.00, 737.8, 377.0)">m</text><text xml:space="preserve" font-family="Menlo-Regular" font-size="44.0" fill="#6A8758" transform="matrix(1.00, 0.00, -0.00, -1.00, 764.3, 377.0)">b</text><text xml:space="preserve" font-family="Menlo-Regular" font-size="44.0" fill="#6A8758" transform="matrix(1.00, 0.00, -0.00, -1.00, 790.8, 377.0)">e</text><text xml:space="preserve" font-family="Menlo-Regular" font-size="44.0" fill="#6A8758" transform="matrix(1.00, 0.00, -0.00, -1.00, 817.3, 377.0)">r</text><text xml:space="preserve" font-family="Menlo-Regular" font-size="44.0" fill="#6A8758" transform="matrix(1.00, 0.00, -0.00, -1.00, 843.8, 377.0)">"</text><text xml:space="preserve" font-family="Monaco" font-size="44.0" fill="#6A8758" transform="matrix(1.00, 0.00, -0.00, -1.00, 870.2, 377.0)"> </text><text xml:space="preserve" font-family="Menlo-Regular" font-size="44.0" fill="#A9B6C6" transform="matrix(1.00, 0.00, -0.00, -1.00, 49.0, 326.0)">}</text><text xml:space="preserve" font-family="Menlo-Regular" font-size="44.0" fill="#A9B6C6" transform="matrix(1.00, 0.00, -0.00, -1.00, 75.5, 326.0)"> </text></g></svg>