<?xml version="1.0" encoding="UTF-8" standalone="no"?><svg xmlns="http://www.w3.org/2000/svg" xmlns:xlink="http://www.w3.org/1999/xlink" clip-rule="evenodd" stroke-miterlimit="4.00" viewBox="0 0 1024 768"><desc>SVG generated by Keynote</desc><defs></defs><g transform="matrix(1.00, 0.00, -0.00, -1.00, 0.0, 768.0)"><path d="M 0.0 768.0 L 1024.0 768.0 L 1024.0 0.0 L 0.0 0.0 Z M 0.0 768.0 " fill="#FFFFFF"></path><path d="M 0.0 0.0 L 934.0 0.0 " fill="none" stroke="#747676" stroke-width="3.00" stroke-linecap="round" stroke-linejoin="round" stroke-dasharray="0.0, 9.0" transform="matrix(1.00, 0.00, 0.00, -1.00, 45.0, 644.0)"></path><text xml:space="preserve" font-family="DINCondensed-Bold" font-weight="bold" font-size="48.4" fill="#747676" transform="matrix(1.00, 0.00, -0.00, -1.00, 49.0, 673.0)">S</text><text xml:space="preserve" font-family="DINCondensed-Bold" font-weight="bold" font-size="48.4" fill="#747676" transform="matrix(1.00, 0.00, -0.00, -1.00, 68.6, 673.0)">C</text><text xml:space="preserve" font-family="DINCondensed-Bold" font-weight="bold" font-size="48.4" fill="#747676" transform="matrix(1.00, 0.00, -0.00, -1.00, 88.3, 673.0)">A</text><text xml:space="preserve" font-family="DINCondensed-Bold" font-weight="bold" font-size="48.4" fill="#747676" transform="matrix(1.00, 0.00, -0.00, -1.00, 108.0, 673.0)">L</text><text xml:space="preserve" font-family="DINCondensed-Bold" font-weight="bold" font-size="48.4" fill="#747676" transform="matrix(1.00, 0.00, -0.00, -1.00, 125.9, 673.0)">A</text><text xml:space="preserve" font-family="DINCondensed-Bold" font-weight="bold" font-size="48.4" fill="#747676" transform="matrix(1.00, 0.00, -0.00, -1.00, 145.6, 673.0)"> </text><text xml:space="preserve" font-family="DINCondensed-Bold" font-weight="bold" font-size="48.4" fill="#747676" transform="matrix(1.00, 0.00, -0.00, -1.00, 154.6, 673.0)">P</text><text xml:space="preserve" font-family="DINCondensed-Bold" font-weight="bold" font-size="48.4" fill="#747676" transform="matrix(1.00, 0.00, -0.00, -1.00, 172.5, 673.0)">A</text><text xml:space="preserve" font-family="DINCondensed-Bold" font-weight="bold" font-size="48.4" fill="#747676" transform="matrix(1.00, 0.00, -0.00, -1.00, 192.1, 673.0)">R</text><text xml:space="preserve" font-family="DINCondensed-Bold" font-weight="bold" font-size="48.4" fill="#747676" transform="matrix(1.00, 0.00, -0.00, -1.00, 211.9, 673.0)">T</text><text xml:space="preserve" font-family="DINCondensed-Bold" font-weight="bold" font-size="48.4" fill="#747676" transform="matrix(1.00, 0.00, -0.00, -1.00, 227.9, 673.0)"> </text><text xml:space="preserve" font-family="DINCondensed-Bold" font-weight="bold" font-size="48.4" fill="#747676" transform="matrix(1.00, 0.00, -0.00, -1.00, 236.9, 673.0)">3</text><text xml:space="preserve" font-family="DINCondensed-Bold" font-weight="bold" font-size="48.4" fill="#747676" transform="matrix(1.00, 0.00, -0.00, -1.00, 254.9, 673.0)"> </text><text xml:space="preserve" font-family="DINCondensed-Bold" font-weight="bold" font-size="48.4" fill="#747676" transform="matrix(1.00, 0.00, -0.00, -1.00, 263.9, 673.0)">C</text><text xml:space="preserve" font-family="DINCondensed-Bold" font-weight="bold" font-size="48.4" fill="#747676" transform="matrix(1.00, 0.00, -0.00, -1.00, 283.6, 673.0)">O</text><text xml:space="preserve" font-family="DINCondensed-Bold" font-weight="bold" font-size="48.4" fill="#747676" transform="matrix(1.00, 0.00, -0.00, -1.00, 304.2, 673.0)">N</text><text xml:space="preserve" font-family="DINCondensed-Bold" font-weight="bold" font-size="48.4" fill="#747676" transform="matrix(1.00, 0.00, -0.00, -1.00, 325.7, 673.0)">C</text><text xml:space="preserve" font-family="DINCondensed-Bold" font-weight="bold" font-size="48.4" fill="#747676" transform="matrix(1.00, 0.00, -0.00, -1.00, 345.4, 673.0)">L</text><text xml:space="preserve" font-family="DINCondensed-Bold" font-weight="bold" font-size="48.4" fill="#747676" transform="matrix(1.00, 0.00, -0.00, -1.00, 363.2, 673.0)">U</text><text xml:space="preserve" font-family="DINCondensed-Bold" font-weight="bold" font-size="48.4" fill="#747676" transform="matrix(1.00, 0.00, -0.00, -1.00, 383.8, 673.0)">S</text><text xml:space="preserve" font-family="DINCondensed-Bold" font-weight="bold" font-size="48.4" fill="#747676" transform="matrix(1.00, 0.00, -0.00, -1.00, 403.5, 673.0)">I</text><text xml:space="preserve" font-family="DINCondensed-Bold" font-weight="bold" font-size="48.4" fill="#747676" transform="matrix(1.00, 0.00, -0.00, -1.00, 413.3, 673.0)">O</text><text xml:space="preserve" font-family="DINCondensed-Bold" font-weight="bold" font-size="48.4" fill="#747676" transform="matrix(1.00, 0.00, -0.00, -1.00, 433.9, 673.0)">N</text><path d="M 49.0 436.0 L 907.5 436.0 L 907.5 410.0 L 49.0 410.0 Z M 49.0 436.0 " fill="#2A2A2A"></path><text xml:space="preserve" font-family="ZapfDingbatsITC" font-size="24.0" fill="#5C5C5C" transform="matrix(1.00, 0.00, -0.00, -1.00, 49.0, 592.2)">➤</text><text xml:space="preserve" font-family="IowanOldStyle-Roman" font-size="32.0" fill="#5C5C5C" transform="matrix(1.00, 0.00, -0.00, -1.00, 86.0, 589.0)">A</text><text xml:space="preserve" font-family="IowanOldStyle-Roman" font-size="32.0" fill="#5C5C5C" transform="matrix(1.00, 0.00, -0.00, -1.00, 109.1, 589.0)">n</text><text xml:space="preserve" font-family="IowanOldStyle-Roman" font-size="32.0" fill="#5C5C5C" transform="matrix(1.00, 0.00, -0.00, -1.00, 127.8, 589.0)">y</text><text xml:space="preserve" font-family="IowanOldStyle-Roman" font-size="32.0" fill="#5C5C5C" transform="matrix(1.00, 0.00, -0.00, -1.00, 143.3, 589.0)"> </text><text xml:space="preserve" font-family="IowanOldStyle-Roman" font-size="32.0" fill="#5C5C5C" transform="matrix(1.00, 0.00, -0.00, -1.00, 152.2, 589.0)">q</text><text xml:space="preserve" font-family="IowanOldStyle-Roman" font-size="32.0" fill="#5C5C5C" transform="matrix(1.00, 0.00, -0.00, -1.00, 170.1, 589.0)">u</text><text xml:space="preserve" font-family="IowanOldStyle-Roman" font-size="32.0" fill="#5C5C5C" transform="matrix(1.00, 0.00, -0.00, -1.00, 188.9, 589.0)">e</text><text xml:space="preserve" font-family="IowanOldStyle-Roman" font-size="32.0" fill="#5C5C5C" transform="matrix(1.00, 0.00, -0.00, -1.00, 204.5, 589.0)">s</text><text xml:space="preserve" font-family="IowanOldStyle-Roman" font-size="32.0" fill="#5C5C5C" transform="matrix(1.00, 0.00, -0.00, -1.00, 218.7, 589.0)">t</text><text xml:space="preserve" font-family="IowanOldStyle-Roman" font-size="32.0" fill="#5C5C5C" transform="matrix(1.00, 0.00, -0.00, -1.00, 230.2, 589.0)">i</text><text xml:space="preserve" font-family="IowanOldStyle-Roman" font-size="32.0" fill="#5C5C5C" transform="matrix(1.00, 0.00, -0.00, -1.00, 239.7, 589.0)">o</text><text xml:space="preserve" font-family="IowanOldStyle-Roman" font-size="32.0" fill="#5C5C5C" transform="matrix(1.00, 0.00, -0.00, -1.00, 257.3, 589.0)">n</text><text xml:space="preserve" font-family="IowanOldStyle-Roman" font-size="32.0" fill="#5C5C5C" transform="matrix(1.00, 0.00, -0.00, -1.00, 276.0, 589.0)">s</text><text xml:space="preserve" font-family="IowanOldStyle-Roman" font-size="32.0" fill="#5C5C5C" transform="matrix(1.00, 0.00, -0.00, -1.00, 290.2, 589.0)">?</text><text xml:space="preserve" font-family="IowanOldStyle-Roman" font-size="32.0" fill="#5C5C5C" transform="matrix(1.00, 0.00, -0.00, -1.00, 305.2, 589.0)"> </text><text xml:space="preserve" font-family="ZapfDingbatsITC" font-size="24.0" fill="#5C5C5C" transform="matrix(1.00, 0.00, -0.00, -1.00, 49.0, 468.2)">➤</text><text xml:space="preserve" font-family="IowanOldStyle-Roman" font-size="32.0" fill="#5C5C5C" transform="matrix(1.00, 0.00, -0.00, -1.00, 86.0, 465.0)">E</text><text xml:space="preserve" font-family="IowanOldStyle-Roman" font-size="32.0" fill="#5C5C5C" transform="matrix(1.00, 0.00, -0.00, -1.00, 106.3, 465.0)">x</text><text xml:space="preserve" font-family="IowanOldStyle-Roman" font-size="32.0" fill="#5C5C5C" transform="matrix(1.00, 0.00, -0.00, -1.00, 123.2, 465.0)">e</text><text xml:space="preserve" font-family="IowanOldStyle-Roman" font-size="32.0" fill="#5C5C5C" transform="matrix(1.00, 0.00, -0.00, -1.00, 138.8, 465.0)">r</text><text xml:space="preserve" font-family="IowanOldStyle-Roman" font-size="32.0" fill="#5C5C5C" transform="matrix(1.00, 0.00, -0.00, -1.00, 151.3, 465.0)">c</text><text xml:space="preserve" font-family="IowanOldStyle-Roman" font-size="32.0" fill="#5C5C5C" transform="matrix(1.00, 0.00, -0.00, -1.00, 165.6, 465.0)">i</text><text xml:space="preserve" font-family="IowanOldStyle-Roman" font-size="32.0" fill="#5C5C5C" transform="matrix(1.00, 0.00, -0.00, -1.00, 175.1, 465.0)">s</text><text xml:space="preserve" font-family="IowanOldStyle-Roman" font-size="32.0" fill="#5C5C5C" transform="matrix(1.00, 0.00, -0.00, -1.00, 189.3, 465.0)">e</text><text xml:space="preserve" font-family="IowanOldStyle-Roman" font-size="32.0" fill="#5C5C5C" transform="matrix(1.00, 0.00, -0.00, -1.00, 204.9, 465.0)">:</text><text xml:space="preserve" font-family="IowanOldStyle-Roman" font-size="32.0" fill="#5C5C5C" transform="matrix(1.00, 0.00, -0.00, -1.00, 213.8, 465.0)"> </text><text xml:space="preserve" font-family="IowanOldStyle-Roman" font-size="32.0" fill="#5C5C5C" transform="matrix(1.00, 0.00, -0.00, -1.00, 222.6, 465.0)">F</text><text xml:space="preserve" font-family="IowanOldStyle-Roman" font-size="32.0" fill="#5C5C5C" transform="matrix(1.00, 0.00, -0.00, -1.00, 240.8, 465.0)">i</text><text xml:space="preserve" font-family="IowanOldStyle-Roman" font-size="32.0" fill="#5C5C5C" transform="matrix(1.00, 0.00, -0.00, -1.00, 250.3, 465.0)">n</text><text xml:space="preserve" font-family="IowanOldStyle-Roman" font-size="32.0" fill="#5C5C5C" transform="matrix(1.00, 0.00, -0.00, -1.00, 269.0, 465.0)">d</text><text xml:space="preserve" font-family="IowanOldStyle-Roman" font-size="32.0" fill="#5C5C5C" transform="matrix(1.00, 0.00, -0.00, -1.00, 287.0, 465.0)"> </text><text xml:space="preserve" font-family="IowanOldStyle-Roman" font-size="32.0" fill="#5C5C5C" transform="matrix(1.00, 0.00, -0.00, -1.00, 295.8, 465.0)">a</text><text xml:space="preserve" font-family="IowanOldStyle-Roman" font-size="32.0" fill="#5C5C5C" transform="matrix(1.00, 0.00, -0.00, -1.00, 311.2, 465.0)">l</text><text xml:space="preserve" font-family="IowanOldStyle-Roman" font-size="32.0" fill="#5C5C5C" transform="matrix(1.00, 0.00, -0.00, -1.00, 320.6, 465.0)">l</text><text xml:space="preserve" font-family="IowanOldStyle-Roman" font-size="32.0" fill="#5C5C5C" transform="matrix(1.00, 0.00, -0.00, -1.00, 329.9, 465.0)"> </text><text xml:space="preserve" font-family="IowanOldStyle-Roman" font-size="32.0" fill="#5C5C5C" transform="matrix(1.00, 0.00, -0.00, -1.00, 338.8, 465.0)">t</text><text xml:space="preserve" font-family="IowanOldStyle-Roman" font-size="32.0" fill="#5C5C5C" transform="matrix(1.00, 0.00, -0.00, -1.00, 350.3, 465.0)">h</text><text xml:space="preserve" font-family="IowanOldStyle-Roman" font-size="32.0" fill="#5C5C5C" transform="matrix(1.00, 0.00, -0.00, -1.00, 369.1, 465.0)">e</text><text xml:space="preserve" font-family="IowanOldStyle-Roman" font-size="32.0" fill="#5C5C5C" transform="matrix(1.00, 0.00, -0.00, -1.00, 384.7, 465.0)"> </text><text xml:space="preserve" font-family="IowanOldStyle-Roman" font-size="32.0" fill="#5C5C5C" transform="matrix(1.00, 0.00, -0.00, -1.00, 393.6, 465.0)">n</text><text xml:space="preserve" font-family="IowanOldStyle-Roman" font-size="32.0" fill="#5C5C5C" transform="matrix(1.00, 0.00, -0.00, -1.00, 412.2, 465.0)">u</text><text xml:space="preserve" font-family="IowanOldStyle-Roman" font-size="32.0" fill="#5C5C5C" transform="matrix(1.00, 0.00, -0.00, -1.00, 431.1, 465.0)">m</text><text xml:space="preserve" font-family="IowanOldStyle-Roman" font-size="32.0" fill="#5C5C5C" transform="matrix(1.00, 0.00, -0.00, -1.00, 459.2, 465.0)">b</text><text xml:space="preserve" font-family="IowanOldStyle-Roman" font-size="32.0" fill="#5C5C5C" transform="matrix(1.00, 0.00, -0.00, -1.00, 477.0, 465.0)">e</text><text xml:space="preserve" font-family="IowanOldStyle-Roman" font-size="32.0" fill="#5C5C5C" transform="matrix(1.00, 0.00, -0.00, -1.00, 492.6, 465.0)">r</text><text xml:space="preserve" font-family="IowanOldStyle-Roman" font-size="32.0" fill="#5C5C5C" transform="matrix(1.00, 0.00, -0.00, -1.00, 505.1, 465.0)">s</text><text xml:space="preserve" font-family="IowanOldStyle-Roman" font-size="32.0" fill="#5C5C5C" transform="matrix(1.00, 0.00, -0.00, -1.00, 519.3, 465.0)"> </text><text xml:space="preserve" font-family="IowanOldStyle-Roman" font-size="32.0" fill="#5C5C5C" transform="matrix(1.00, 0.00, -0.00, -1.00, 528.2, 465.0)">d</text><text xml:space="preserve" font-family="IowanOldStyle-Roman" font-size="32.0" fill="#5C5C5C" transform="matrix(1.00, 0.00, -0.00, -1.00, 546.1, 465.0)">i</text><text xml:space="preserve" font-family="IowanOldStyle-Roman" font-size="32.0" fill="#5C5C5C" transform="matrix(1.00, 0.00, -0.00, -1.00, 555.6, 465.0)">v</text><text xml:space="preserve" font-family="IowanOldStyle-Roman" font-size="32.0" fill="#5C5C5C" transform="matrix(1.00, 0.00, -0.00, -1.00, 571.4, 465.0)">i</text><text xml:space="preserve" font-family="IowanOldStyle-Roman" font-size="32.0" fill="#5C5C5C" transform="matrix(1.00, 0.00, -0.00, -1.00, 580.9, 465.0)">s</text><text xml:space="preserve" font-family="IowanOldStyle-Roman" font-size="32.0" fill="#5C5C5C" transform="matrix(1.00, 0.00, -0.00, -1.00, 595.0, 465.0)">i</text><text xml:space="preserve" font-family="IowanOldStyle-Roman" font-size="32.0" fill="#5C5C5C" transform="matrix(1.00, 0.00, -0.00, -1.00, 604.5, 465.0)">b</text><text xml:space="preserve" font-family="IowanOldStyle-Roman" font-size="32.0" fill="#5C5C5C" transform="matrix(1.00, 0.00, -0.00, -1.00, 622.3, 465.0)">l</text><text xml:space="preserve" font-family="IowanOldStyle-Roman" font-size="32.0" fill="#5C5C5C" transform="matrix(1.00, 0.00, -0.00, -1.00, 631.7, 465.0)">e</text><text xml:space="preserve" font-family="IowanOldStyle-Roman" font-size="32.0" fill="#5C5C5C" transform="matrix(1.00, 0.00, -0.00, -1.00, 647.3, 465.0)"> </text><text xml:space="preserve" font-family="IowanOldStyle-Roman" font-size="32.0" fill="#5C5C5C" transform="matrix(1.00, 0.00, -0.00, -1.00, 656.2, 465.0)">b</text><text xml:space="preserve" font-family="IowanOldStyle-Roman" font-size="32.0" fill="#5C5C5C" transform="matrix(1.00, 0.00, -0.00, -1.00, 674.0, 465.0)">y</text><text xml:space="preserve" font-family="IowanOldStyle-Roman" font-size="32.0" fill="#5C5C5C" transform="matrix(1.00, 0.00, -0.00, -1.00, 689.5, 465.0)"> </text><text xml:space="preserve" font-family="IowanOldStyle-Roman" font-size="32.0" fill="#5C5C5C" transform="matrix(1.00, 0.00, -0.00, -1.00, 698.4, 465.0)">3</text><text xml:space="preserve" font-family="IowanOldStyle-Roman" font-size="32.0" fill="#5C5C5C" transform="matrix(1.00, 0.00, -0.00, -1.00, 716.2, 465.0)"> </text><text xml:space="preserve" font-family="IowanOldStyle-Roman" font-size="32.0" fill="#5C5C5C" transform="matrix(1.00, 0.00, -0.00, -1.00, 725.1, 465.0)">i</text><text xml:space="preserve" font-family="IowanOldStyle-Roman" font-size="32.0" fill="#5C5C5C" transform="matrix(1.00, 0.00, -0.00, -1.00, 734.6, 465.0)">n</text><text xml:space="preserve" font-family="IowanOldStyle-Roman" font-size="32.0" fill="#5C5C5C" transform="matrix(1.00, 0.00, -0.00, -1.00, 753.3, 465.0)"> </text><text xml:space="preserve" font-family="IowanOldStyle-Roman" font-size="32.0" fill="#5C5C5C" transform="matrix(1.00, 0.00, -0.00, -1.00, 762.1, 465.0)">t</text><text xml:space="preserve" font-family="IowanOldStyle-Roman" font-size="32.0" fill="#5C5C5C" transform="matrix(1.00, 0.00, -0.00, -1.00, 773.7, 465.0)">h</text><text xml:space="preserve" font-family="IowanOldStyle-Roman" font-size="32.0" fill="#5C5C5C" transform="matrix(1.00, 0.00, -0.00, -1.00, 792.4, 465.0)">e</text><text xml:space="preserve" font-family="IowanOldStyle-Roman" font-size="32.0" fill="#5C5C5C" transform="matrix(1.00, 0.00, -0.00, -1.00, 808.0, 465.0)"> </text><text xml:space="preserve" font-family="IowanOldStyle-Roman" font-size="32.0" fill="#5C5C5C" transform="matrix(1.00, 0.00, -0.00, -1.00, 816.9, 465.0)">f</text><text xml:space="preserve" font-family="IowanOldStyle-Roman" font-size="32.0" fill="#5C5C5C" transform="matrix(1.00, 0.00, -0.00, -1.00, 827.1, 465.0)">o</text><text xml:space="preserve" font-family="IowanOldStyle-Roman" font-size="32.0" fill="#5C5C5C" transform="matrix(1.00, 0.00, -0.00, -1.00, 844.7, 465.0)">l</text><text xml:space="preserve" font-family="IowanOldStyle-Roman" font-size="32.0" fill="#5C5C5C" transform="matrix(1.00, 0.00, -0.00, -1.00, 854.1, 465.0)">l</text><text xml:space="preserve" font-family="IowanOldStyle-Roman" font-size="32.0" fill="#5C5C5C" transform="matrix(1.00, 0.00, -0.00, -1.00, 863.4, 465.0)">o</text><text xml:space="preserve" font-family="IowanOldStyle-Roman" font-size="32.0" fill="#5C5C5C" transform="matrix(1.00, 0.00, -0.00, -1.00, 881.0, 465.0)">w</text><text xml:space="preserve" font-family="IowanOldStyle-Roman" font-size="32.0" fill="#5C5C5C" transform="matrix(1.00, 0.00, -0.00, -1.00, 905.8, 465.0)">i</text><text xml:space="preserve" font-family="IowanOldStyle-Roman" font-size="32.0" fill="#5C5C5C" transform="matrix(1.00, 0.00, -0.00, -1.00, 915.3, 465.0)">n</text><text xml:space="preserve" font-family="IowanOldStyle-Roman" font-size="32.0" fill="#5C5C5C" transform="matrix(1.00, 0.00, -0.00, -1.00, 934.0, 465.0)">g</text><text xml:space="preserve" font-family="IowanOldStyle-Roman" font-size="32.0" fill="#5C5C5C" transform="matrix(1.00, 0.00, -0.00, -1.00, 950.5, 465.0)">:</text><text xml:space="preserve" font-family="IowanOldStyle-Roman" font-size="32.0" fill="#5C5C5C" transform="matrix(1.00, 0.00, -0.00, -1.00, 959.4, 465.0)"> </text><text xml:space="preserve" font-family="Menlo-Bold" font-weight="bold" font-size="23.0" fill="#CC7831" transform="matrix(1.00, 0.00, -0.00, -1.00, 49.0, 415.0)">v</text><text xml:space="preserve" font-family="Menlo-Bold" font-weight="bold" font-size="23.0" fill="#CC7831" transform="matrix(1.00, 0.00, -0.00, -1.00, 62.8, 415.0)">a</text><text xml:space="preserve" font-family="Menlo-Bold" font-weight="bold" font-size="23.0" fill="#CC7831" transform="matrix(1.00, 0.00, -0.00, -1.00, 76.7, 415.0)">l</text><text xml:space="preserve" font-family="Menlo-Bold" font-weight="bold" font-size="23.0" fill="#CC7831" transform="matrix(1.00, 0.00, -0.00, -1.00, 90.5, 415.0)"> </text><text xml:space="preserve" font-family="Menlo-Regular" font-size="23.0" fill="#A9B6C6" transform="matrix(1.00, 0.00, -0.00, -1.00, 104.4, 415.0)">d</text><text xml:space="preserve" font-family="Menlo-Regular" font-size="23.0" fill="#A9B6C6" transform="matrix(1.00, 0.00, -0.00, -1.00, 118.2, 415.0)">i</text><text xml:space="preserve" font-family="Menlo-Regular" font-size="23.0" fill="#A9B6C6" transform="matrix(1.00, 0.00, -0.00, -1.00, 132.1, 415.0)">v</text><text xml:space="preserve" font-family="Menlo-Regular" font-size="23.0" fill="#A9B6C6" transform="matrix(1.00, 0.00, -0.00, -1.00, 145.9, 415.0)">B</text><text xml:space="preserve" font-family="Menlo-Regular" font-size="23.0" fill="#A9B6C6" transform="matrix(1.00, 0.00, -0.00, -1.00, 159.8, 415.0)">y</text><text xml:space="preserve" font-family="Menlo-Regular" font-size="23.0" fill="#A9B6C6" transform="matrix(1.00, 0.00, -0.00, -1.00, 173.6, 415.0)">T</text><text xml:space="preserve" font-family="Menlo-Regular" font-size="23.0" fill="#A9B6C6" transform="matrix(1.00, 0.00, -0.00, -1.00, 187.5, 415.0)">h</text><text xml:space="preserve" font-family="Menlo-Regular" font-size="23.0" fill="#A9B6C6" transform="matrix(1.00, 0.00, -0.00, -1.00, 201.3, 415.0)">r</text><text xml:space="preserve" font-family="Menlo-Regular" font-size="23.0" fill="#A9B6C6" transform="matrix(1.00, 0.00, -0.00, -1.00, 215.2, 415.0)">e</text><text xml:space="preserve" font-family="Menlo-Regular" font-size="23.0" fill="#A9B6C6" transform="matrix(1.00, 0.00, -0.00, -1.00, 229.0, 415.0)">e</text><text xml:space="preserve" font-family="Menlo-Regular" font-size="23.0" fill="#A9B6C6" transform="matrix(1.00, 0.00, -0.00, -1.00, 242.9, 415.0)"> </text><text xml:space="preserve" font-family="Menlo-Regular" font-size="23.0" fill="#A9B6C6" transform="matrix(1.00, 0.00, -0.00, -1.00, 256.7, 415.0)">=</text><text xml:space="preserve" font-family="Menlo-Regular" font-size="23.0" fill="#A9B6C6" transform="matrix(1.00, 0.00, -0.00, -1.00, 270.6, 415.0)"> </text><text xml:space="preserve" font-family="Menlo-Italic" font-style="italic" font-size="23.0" fill="#9776AA" transform="matrix(1.00, 0.00, -0.00, -1.00, 284.4, 415.0)">L</text><text xml:space="preserve" font-family="Menlo-Italic" font-style="italic" font-size="23.0" fill="#9776AA" transform="matrix(1.00, 0.00, -0.00, -1.00, 298.3, 415.0)">i</text><text xml:space="preserve" font-family="Menlo-Italic" font-style="italic" font-size="23.0" fill="#9776AA" transform="matrix(1.00, 0.00, -0.00, -1.00, 312.1, 415.0)">s</text><text xml:space="preserve" font-family="Menlo-Italic" font-style="italic" font-size="23.0" fill="#9776AA" transform="matrix(1.00, 0.00, -0.00, -1.00, 326.0, 415.0)">t</text><text xml:space="preserve" font-family="Menlo-Regular" font-size="23.0" fill="#A9B6C6" transform="matrix(1.00, 0.00, -0.00, -1.00, 339.8, 415.0)">(</text><text xml:space="preserve" font-family="Menlo-Italic" font-style="italic" font-size="23.0" fill="#9776AA" transform="matrix(1.00, 0.00, -0.00, -1.00, 353.6, 415.0)">L</text><text xml:space="preserve" font-family="Menlo-Italic" font-style="italic" font-size="23.0" fill="#9776AA" transform="matrix(1.00, 0.00, -0.00, -1.00, 367.5, 415.0)">i</text><text xml:space="preserve" font-family="Menlo-Italic" font-style="italic" font-size="23.0" fill="#9776AA" transform="matrix(1.00, 0.00, -0.00, -1.00, 381.3, 415.0)">s</text><text xml:space="preserve" font-family="Menlo-Italic" font-style="italic" font-size="23.0" fill="#9776AA" transform="matrix(1.00, 0.00, -0.00, -1.00, 395.2, 415.0)">t</text><text xml:space="preserve" font-family="Menlo-Regular" font-size="23.0" fill="#A9B6C6" transform="matrix(1.00, 0.00, -0.00, -1.00, 409.0, 415.0)">(</text><text xml:space="preserve" font-family="Menlo-Regular" font-size="23.0" fill="#6796BB" transform="matrix(1.00, 0.00, -0.00, -1.00, 422.9, 415.0)">1</text><text xml:space="preserve" font-family="Menlo-Regular" font-size="23.0" fill="#CC7831" transform="matrix(1.00, 0.00, -0.00, -1.00, 436.7, 415.0)">,</text><text xml:space="preserve" font-family="Menlo-Regular" font-size="23.0" fill="#6796BB" transform="matrix(1.00, 0.00, -0.00, -1.00, 450.6, 415.0)">2</text><text xml:space="preserve" font-family="Menlo-Regular" font-size="23.0" fill="#CC7831" transform="matrix(1.00, 0.00, -0.00, -1.00, 464.4, 415.0)">,</text><text xml:space="preserve" font-family="Menlo-Regular" font-size="23.0" fill="#6796BB" transform="matrix(1.00, 0.00, -0.00, -1.00, 478.3, 415.0)">3</text><text xml:space="preserve" font-family="Menlo-Regular" font-size="23.0" fill="#A9B6C6" transform="matrix(1.00, 0.00, -0.00, -1.00, 492.1, 415.0)">)</text><text xml:space="preserve" font-family="Menlo-Regular" font-size="23.0" fill="#CC7831" transform="matrix(1.00, 0.00, -0.00, -1.00, 506.0, 415.0)">,</text><text xml:space="preserve" font-family="Menlo-Regular" font-size="23.0" fill="#CC7831" transform="matrix(1.00, 0.00, -0.00, -1.00, 519.8, 415.0)"> </text><text xml:space="preserve" font-family="Menlo-Italic" font-style="italic" font-size="23.0" fill="#9776AA" transform="matrix(1.00, 0.00, -0.00, -1.00, 533.7, 415.0)">L</text><text xml:space="preserve" font-family="Menlo-Italic" font-style="italic" font-size="23.0" fill="#9776AA" transform="matrix(1.00, 0.00, -0.00, -1.00, 547.5, 415.0)">i</text><text xml:space="preserve" font-family="Menlo-Italic" font-style="italic" font-size="23.0" fill="#9776AA" transform="matrix(1.00, 0.00, -0.00, -1.00, 561.3, 415.0)">s</text><text xml:space="preserve" font-family="Menlo-Italic" font-style="italic" font-size="23.0" fill="#9776AA" transform="matrix(1.00, 0.00, -0.00, -1.00, 575.2, 415.0)">t</text><text xml:space="preserve" font-family="Menlo-Regular" font-size="23.0" fill="#A9B6C6" transform="matrix(1.00, 0.00, -0.00, -1.00, 589.0, 415.0)">(</text><text xml:space="preserve" font-family="Menlo-Regular" font-size="23.0" fill="#6796BB" transform="matrix(1.00, 0.00, -0.00, -1.00, 602.9, 415.0)">3</text><text xml:space="preserve" font-family="Menlo-Regular" font-size="23.0" fill="#CC7831" transform="matrix(1.00, 0.00, -0.00, -1.00, 616.7, 415.0)">,</text><text xml:space="preserve" font-family="Menlo-Regular" font-size="23.0" fill="#6796BB" transform="matrix(1.00, 0.00, -0.00, -1.00, 630.6, 415.0)">4</text><text xml:space="preserve" font-family="Menlo-Regular" font-size="23.0" fill="#CC7831" transform="matrix(1.00, 0.00, -0.00, -1.00, 644.4, 415.0)">,</text><text xml:space="preserve" font-family="Menlo-Regular" font-size="23.0" fill="#6796BB" transform="matrix(1.00, 0.00, -0.00, -1.00, 658.3, 415.0)">5</text><text xml:space="preserve" font-family="Menlo-Regular" font-size="23.0" fill="#A9B6C6" transform="matrix(1.00, 0.00, -0.00, -1.00, 672.1, 415.0)">)</text><text xml:space="preserve" font-family="Menlo-Regular" font-size="23.0" fill="#CC7831" transform="matrix(1.00, 0.00, -0.00, -1.00, 686.0, 415.0)">,</text><text xml:space="preserve" font-family="Menlo-Regular" font-size="23.0" fill="#CC7831" transform="matrix(1.00, 0.00, -0.00, -1.00, 699.8, 415.0)"> </text><text xml:space="preserve" font-family="Menlo-Italic" font-style="italic" font-size="23.0" fill="#9776AA" transform="matrix(1.00, 0.00, -0.00, -1.00, 713.7, 415.0)">L</text><text xml:space="preserve" font-family="Menlo-Italic" font-style="italic" font-size="23.0" fill="#9776AA" transform="matrix(1.00, 0.00, -0.00, -1.00, 727.5, 415.0)">i</text><text xml:space="preserve" font-family="Menlo-Italic" font-style="italic" font-size="23.0" fill="#9776AA" transform="matrix(1.00, 0.00, -0.00, -1.00, 741.4, 415.0)">s</text><text xml:space="preserve" font-family="Menlo-Italic" font-style="italic" font-size="23.0" fill="#9776AA" transform="matrix(1.00, 0.00, -0.00, -1.00, 755.2, 415.0)">t</text><text xml:space="preserve" font-family="Menlo-Regular" font-size="23.0" fill="#A9B6C6" transform="matrix(1.00, 0.00, -0.00, -1.00, 769.1, 415.0)">(</text><text xml:space="preserve" font-family="Menlo-Regular" font-size="23.0" fill="#6796BB" transform="matrix(1.00, 0.00, -0.00, -1.00, 782.9, 415.0)">6</text><text xml:space="preserve" font-family="Menlo-Regular" font-size="23.0" fill="#CC7831" transform="matrix(1.00, 0.00, -0.00, -1.00, 796.7, 415.0)">,</text><text xml:space="preserve" font-family="Menlo-Regular" font-size="23.0" fill="#6796BB" transform="matrix(1.00, 0.00, -0.00, -1.00, 810.6, 415.0)">7</text><text xml:space="preserve" font-family="Menlo-Regular" font-size="23.0" fill="#CC7831" transform="matrix(1.00, 0.00, -0.00, -1.00, 824.4, 415.0)">,</text><text xml:space="preserve" font-family="Menlo-Regular" font-size="23.0" fill="#6796BB" transform="matrix(1.00, 0.00, -0.00, -1.00, 838.3, 415.0)">8</text><text xml:space="preserve" font-family="Menlo-Regular" font-size="23.0" fill="#CC7831" transform="matrix(1.00, 0.00, -0.00, -1.00, 852.1, 415.0)">,</text><text xml:space="preserve" font-family="Menlo-Regular" font-size="23.0" fill="#6796BB" transform="matrix(1.00, 0.00, -0.00, -1.00, 866.0, 415.0)">9</text><text xml:space="preserve" font-family="Menlo-Regular" font-size="23.0" fill="#A9B6C6" transform="matrix(1.00, 0.00, -0.00, -1.00, 879.8, 415.0)">)</text><text xml:space="preserve" font-family="Menlo-Regular" font-size="23.0" fill="#A9B6C6" transform="matrix(1.00, 0.00, -0.00, -1.00, 893.7, 415.0)">)</text><text xml:space="preserve" font-family="Monaco" font-size="23.0" fill="#A9B6C6" transform="matrix(1.00, 0.00, -0.00, -1.00, 907.5, 415.0)"> </text><text xml:space="preserve" font-family="ZapfDingbatsITC" font-size="24.0" fill="#5C5C5C" transform="matrix(1.00, 0.00, -0.00, -1.00, 49.0, 340.2)">➤</text><text xml:space="preserve" font-family="IowanOldStyle-Roman" font-size="32.0" fill="#5C5C5C" transform="matrix(1.00, 0.00, -0.00, -1.00, 86.0, 337.0)">B</text><text xml:space="preserve" font-family="IowanOldStyle-Roman" font-size="32.0" fill="#5C5C5C" transform="matrix(1.00, 0.00, -0.00, -1.00, 105.9, 337.0)">T</text><text xml:space="preserve" font-family="IowanOldStyle-Roman" font-size="32.0" fill="#5C5C5C" transform="matrix(1.00, 0.00, -0.00, -1.00, 126.1, 337.0)">W</text><text xml:space="preserve" font-family="IowanOldStyle-Roman" font-size="32.0" fill="#5C5C5C" transform="matrix(1.00, 0.00, -0.00, -1.00, 156.3, 337.0)">-</text><text xml:space="preserve" font-family="IowanOldStyle-Roman" font-size="32.0" fill="#5C5C5C" transform="matrix(1.00, 0.00, -0.00, -1.00, 167.6, 337.0)"> </text><text xml:space="preserve" font-family="IowanOldStyle-Roman" font-size="32.0" fill="#5C5C5C" transform="matrix(1.00, 0.00, -0.00, -1.00, 176.4, 337.0)">y</text><text xml:space="preserve" font-family="IowanOldStyle-Roman" font-size="32.0" fill="#5C5C5C" transform="matrix(1.00, 0.00, -0.00, -1.00, 192.0, 337.0)">o</text><text xml:space="preserve" font-family="IowanOldStyle-Roman" font-size="32.0" fill="#5C5C5C" transform="matrix(1.00, 0.00, -0.00, -1.00, 209.6, 337.0)">u</text><text xml:space="preserve" font-family="IowanOldStyle-Roman" font-size="32.0" fill="#5C5C5C" transform="matrix(1.00, 0.00, -0.00, -1.00, 228.4, 337.0)"> </text><text xml:space="preserve" font-family="IowanOldStyle-Roman" font-size="32.0" fill="#5C5C5C" transform="matrix(1.00, 0.00, -0.00, -1.00, 237.3, 337.0)">a</text><text xml:space="preserve" font-family="IowanOldStyle-Roman" font-size="32.0" fill="#5C5C5C" transform="matrix(1.00, 0.00, -0.00, -1.00, 252.7, 337.0)">r</text><text xml:space="preserve" font-family="IowanOldStyle-Roman" font-size="32.0" fill="#5C5C5C" transform="matrix(1.00, 0.00, -0.00, -1.00, 265.2, 337.0)">e</text><text xml:space="preserve" font-family="IowanOldStyle-Roman" font-size="32.0" fill="#5C5C5C" transform="matrix(1.00, 0.00, -0.00, -1.00, 280.8, 337.0)"> </text><text xml:space="preserve" font-family="IowanOldStyle-Roman" font-size="32.0" fill="#5C5C5C" transform="matrix(1.00, 0.00, -0.00, -1.00, 289.7, 337.0)">n</text><text xml:space="preserve" font-family="IowanOldStyle-Roman" font-size="32.0" fill="#5C5C5C" transform="matrix(1.00, 0.00, -0.00, -1.00, 308.3, 337.0)">o</text><text xml:space="preserve" font-family="IowanOldStyle-Roman" font-size="32.0" fill="#5C5C5C" transform="matrix(1.00, 0.00, -0.00, -1.00, 326.0, 337.0)">w</text><text xml:space="preserve" font-family="IowanOldStyle-Roman" font-size="32.0" fill="#5C5C5C" transform="matrix(1.00, 0.00, -0.00, -1.00, 350.8, 337.0)"> </text><text xml:space="preserve" font-family="IowanOldStyle-Roman" font-size="32.0" fill="#5C5C5C" transform="matrix(1.00, 0.00, -0.00, -1.00, 359.6, 337.0)">f</text><text xml:space="preserve" font-family="IowanOldStyle-Roman" font-size="32.0" fill="#5C5C5C" transform="matrix(1.00, 0.00, -0.00, -1.00, 369.9, 337.0)">a</text><text xml:space="preserve" font-family="IowanOldStyle-Roman" font-size="32.0" fill="#5C5C5C" transform="matrix(1.00, 0.00, -0.00, -1.00, 385.3, 337.0)">i</text><text xml:space="preserve" font-family="IowanOldStyle-Roman" font-size="32.0" fill="#5C5C5C" transform="matrix(1.00, 0.00, -0.00, -1.00, 394.8, 337.0)">r</text><text xml:space="preserve" font-family="IowanOldStyle-Roman" font-size="32.0" fill="#5C5C5C" transform="matrix(1.00, 0.00, -0.00, -1.00, 407.2, 337.0)">l</text><text xml:space="preserve" font-family="IowanOldStyle-Roman" font-size="32.0" fill="#5C5C5C" transform="matrix(1.00, 0.00, -0.00, -1.00, 416.6, 337.0)">y</text><text xml:space="preserve" font-family="IowanOldStyle-Roman" font-size="32.0" fill="#5C5C5C" transform="matrix(1.00, 0.00, -0.00, -1.00, 432.1, 337.0)"> </text><text xml:space="preserve" font-family="IowanOldStyle-Roman" font-size="32.0" fill="#5C5C5C" transform="matrix(1.00, 0.00, -0.00, -1.00, 441.0, 337.0)">d</text><text xml:space="preserve" font-family="IowanOldStyle-Roman" font-size="32.0" fill="#5C5C5C" transform="matrix(1.00, 0.00, -0.00, -1.00, 459.0, 337.0)">a</text><text xml:space="preserve" font-family="IowanOldStyle-Roman" font-size="32.0" fill="#5C5C5C" transform="matrix(1.00, 0.00, -0.00, -1.00, 474.4, 337.0)">n</text><text xml:space="preserve" font-family="IowanOldStyle-Roman" font-size="32.0" fill="#5C5C5C" transform="matrix(1.00, 0.00, -0.00, -1.00, 493.1, 337.0)">g</text><text xml:space="preserve" font-family="IowanOldStyle-Roman" font-size="32.0" fill="#5C5C5C" transform="matrix(1.00, 0.00, -0.00, -1.00, 509.6, 337.0)">e</text><text xml:space="preserve" font-family="IowanOldStyle-Roman" font-size="32.0" fill="#5C5C5C" transform="matrix(1.00, 0.00, -0.00, -1.00, 525.2, 337.0)">r</text><text xml:space="preserve" font-family="IowanOldStyle-Roman" font-size="32.0" fill="#5C5C5C" transform="matrix(1.00, 0.00, -0.00, -1.00, 537.7, 337.0)">o</text><text xml:space="preserve" font-family="IowanOldStyle-Roman" font-size="32.0" fill="#5C5C5C" transform="matrix(1.00, 0.00, -0.00, -1.00, 555.3, 337.0)">u</text><text xml:space="preserve" font-family="IowanOldStyle-Roman" font-size="32.0" fill="#5C5C5C" transform="matrix(1.00, 0.00, -0.00, -1.00, 574.1, 337.0)">s</text><text xml:space="preserve" font-family="IowanOldStyle-Roman" font-size="32.0" fill="#5C5C5C" transform="matrix(1.00, 0.00, -0.00, -1.00, 588.3, 337.0)"> </text><text xml:space="preserve" font-family="IowanOldStyle-Roman" font-size="32.0" fill="#5C5C5C" transform="matrix(1.00, 0.00, -0.00, -1.00, 597.2, 337.0)">w</text><text xml:space="preserve" font-family="IowanOldStyle-Roman" font-size="32.0" fill="#5C5C5C" transform="matrix(1.00, 0.00, -0.00, -1.00, 622.0, 337.0)">i</text><text xml:space="preserve" font-family="IowanOldStyle-Roman" font-size="32.0" fill="#5C5C5C" transform="matrix(1.00, 0.00, -0.00, -1.00, 631.5, 337.0)">t</text><text xml:space="preserve" font-family="IowanOldStyle-Roman" font-size="32.0" fill="#5C5C5C" transform="matrix(1.00, 0.00, -0.00, -1.00, 643.0, 337.0)">h</text><text xml:space="preserve" font-family="IowanOldStyle-Roman" font-size="32.0" fill="#5C5C5C" transform="matrix(1.00, 0.00, -0.00, -1.00, 661.7, 337.0)"> </text><text xml:space="preserve" font-family="IowanOldStyle-Roman" font-size="32.0" fill="#5C5C5C" transform="matrix(1.00, 0.00, -0.00, -1.00, 670.6, 337.0)">S</text><text xml:space="preserve" font-family="IowanOldStyle-Roman" font-size="32.0" fill="#5C5C5C" transform="matrix(1.00, 0.00, -0.00, -1.00, 687.9, 337.0)">c</text><text xml:space="preserve" font-family="IowanOldStyle-Roman" font-size="32.0" fill="#5C5C5C" transform="matrix(1.00, 0.00, -0.00, -1.00, 702.2, 337.0)">a</text><text xml:space="preserve" font-family="IowanOldStyle-Roman" font-size="32.0" fill="#5C5C5C" transform="matrix(1.00, 0.00, -0.00, -1.00, 717.6, 337.0)">l</text><text xml:space="preserve" font-family="IowanOldStyle-Roman" font-size="32.0" fill="#5C5C5C" transform="matrix(1.00, 0.00, -0.00, -1.00, 726.9, 337.0)">a</text><text xml:space="preserve" font-family="IowanOldStyle-Roman" font-size="32.0" fill="#5C5C5C" transform="matrix(1.00, 0.00, -0.00, -1.00, 742.3, 337.0)">.</text></g></svg>