<?xml version="1.0" encoding="UTF-8" standalone="no"?><svg xmlns="http://www.w3.org/2000/svg" xmlns:xlink="http://www.w3.org/1999/xlink" clip-rule="evenodd" stroke-miterlimit="4.00" viewBox="0 0 1024 768"><desc>SVG generated by Keynote</desc><defs></defs><g transform="matrix(1.00, 0.00, -0.00, -1.00, 0.0, 768.0)"><path d="M 0.0 768.0 L 1024.0 768.0 L 1024.0 0.0 L 0.0 0.0 Z M 0.0 768.0 " fill="#FFFFFF"></path><path d="M 0.0 0.0 L 934.0 0.0 " fill="none" stroke="#747676" stroke-width="3.00" stroke-linecap="round" stroke-linejoin="round" stroke-dasharray="0.0, 9.0" transform="matrix(1.00, 0.00, 0.00, -1.00, 45.0, 644.0)"></path><text xml:space="preserve" font-family="DINCondensed-Bold" font-weight="bold" font-size="48.4" fill="#747676" transform="matrix(1.00, 0.00, -0.00, -1.00, 49.0, 673.0)">O</text><text xml:space="preserve" font-family="DINCondensed-Bold" font-weight="bold" font-size="48.4" fill="#747676" transform="matrix(1.00, 0.00, -0.00, -1.00, 69.6, 673.0)">P</text><text xml:space="preserve" font-family="DINCondensed-Bold" font-weight="bold" font-size="48.4" fill="#747676" transform="matrix(1.00, 0.00, -0.00, -1.00, 89.3, 673.0)">T</text><text xml:space="preserve" font-family="DINCondensed-Bold" font-weight="bold" font-size="48.4" fill="#747676" transform="matrix(1.00, 0.00, -0.00, -1.00, 105.3, 673.0)">I</text><text xml:space="preserve" font-family="DINCondensed-Bold" font-weight="bold" font-size="48.4" fill="#747676" transform="matrix(1.00, 0.00, -0.00, -1.00, 115.2, 673.0)">O</text><text xml:space="preserve" font-family="DINCondensed-Bold" font-weight="bold" font-size="48.4" fill="#747676" transform="matrix(1.00, 0.00, -0.00, -1.00, 135.8, 673.0)">N</text><text xml:space="preserve" font-family="DINCondensed-Bold" font-weight="bold" font-size="48.4" fill="#747676" transform="matrix(1.00, 0.00, -0.00, -1.00, 157.3, 673.0)"> </text><text xml:space="preserve" font-family="DINCondensed-Bold" font-weight="bold" font-size="48.4" fill="#747676" transform="matrix(1.00, 0.00, -0.00, -1.00, 166.3, 673.0)">U</text><text xml:space="preserve" font-family="DINCondensed-Bold" font-weight="bold" font-size="48.4" fill="#747676" transform="matrix(1.00, 0.00, -0.00, -1.00, 186.9, 673.0)">S</text><text xml:space="preserve" font-family="DINCondensed-Bold" font-weight="bold" font-size="48.4" fill="#747676" transform="matrix(1.00, 0.00, -0.00, -1.00, 206.5, 673.0)">A</text><text xml:space="preserve" font-family="DINCondensed-Bold" font-weight="bold" font-size="48.4" fill="#747676" transform="matrix(1.00, 0.00, -0.00, -1.00, 226.2, 673.0)">G</text><text xml:space="preserve" font-family="DINCondensed-Bold" font-weight="bold" font-size="48.4" fill="#747676" transform="matrix(1.00, 0.00, -0.00, -1.00, 246.8, 673.0)">E</text><text xml:space="preserve" font-family="DINCondensed-Bold" font-weight="bold" font-size="48.4" fill="#747676" transform="matrix(1.00, 0.00, -0.00, -1.00, 264.7, 673.0)"> </text><text xml:space="preserve" font-family="DINCondensed-Bold" font-weight="bold" font-size="48.4" fill="#747676" transform="matrix(1.00, 0.00, -0.00, -1.00, 273.7, 673.0)">E</text><text xml:space="preserve" font-family="DINCondensed-Bold" font-weight="bold" font-size="48.4" fill="#747676" transform="matrix(1.00, 0.00, -0.00, -1.00, 291.6, 673.0)">X</text><text xml:space="preserve" font-family="DINCondensed-Bold" font-weight="bold" font-size="48.4" fill="#747676" transform="matrix(1.00, 0.00, -0.00, -1.00, 310.4, 673.0)">A</text><text xml:space="preserve" font-family="DINCondensed-Bold" font-weight="bold" font-size="48.4" fill="#747676" transform="matrix(1.00, 0.00, -0.00, -1.00, 330.1, 673.0)">M</text><text xml:space="preserve" font-family="DINCondensed-Bold" font-weight="bold" font-size="48.4" fill="#747676" transform="matrix(1.00, 0.00, -0.00, -1.00, 357.0, 673.0)">P</text><text xml:space="preserve" font-family="DINCondensed-Bold" font-weight="bold" font-size="48.4" fill="#747676" transform="matrix(1.00, 0.00, -0.00, -1.00, 376.6, 673.0)">L</text><text xml:space="preserve" font-family="DINCondensed-Bold" font-weight="bold" font-size="48.4" fill="#747676" transform="matrix(1.00, 0.00, -0.00, -1.00, 394.5, 673.0)">E</text><path d="M 49.0 498.0 L 114.0 498.0 L 114.0 457.0 L 49.0 457.0 Z M 49.0 498.0 " fill="#344033"></path><path d="M 114.0 498.0 L 352.4 498.0 L 352.4 457.0 L 114.0 457.0 Z M 114.0 498.0 " fill="#2A2A2A"></path><path d="M 352.4 498.0 L 937.6 498.0 L 937.6 457.0 L 352.4 457.0 Z M 352.4 498.0 " fill="#344033"></path><path d="M 49.0 457.0 L 439.1 457.0 L 439.1 416.0 L 49.0 416.0 Z M 49.0 457.0 " fill="#2A2A2A"></path><path d="M 49.0 416.0 L 504.2 416.0 L 504.2 375.0 L 49.0 375.0 Z M 49.0 416.0 " fill="#2A2A2A"></path><text xml:space="preserve" font-family="ZapfDingbatsITC" font-size="24.0" fill="#5C5C5C" transform="matrix(1.00, 0.00, -0.00, -1.00, 49.0, 592.2)">➤</text><text xml:space="preserve" font-family="IowanOldStyle-Roman" font-size="32.0" fill="#5C5C5C" transform="matrix(1.00, 0.00, -0.00, -1.00, 86.0, 589.0)">M</text><text xml:space="preserve" font-family="IowanOldStyle-Roman" font-size="32.0" fill="#5C5C5C" transform="matrix(1.00, 0.00, -0.00, -1.00, 115.1, 589.0)">a</text><text xml:space="preserve" font-family="IowanOldStyle-Roman" font-size="32.0" fill="#5C5C5C" transform="matrix(1.00, 0.00, -0.00, -1.00, 130.5, 589.0)">p</text><text xml:space="preserve" font-family="IowanOldStyle-Roman" font-size="32.0" fill="#5C5C5C" transform="matrix(1.00, 0.00, -0.00, -1.00, 148.4, 589.0)"> </text><text xml:space="preserve" font-family="IowanOldStyle-Roman" font-size="32.0" fill="#5C5C5C" transform="matrix(1.00, 0.00, -0.00, -1.00, 157.3, 589.0)">u</text><text xml:space="preserve" font-family="IowanOldStyle-Roman" font-size="32.0" fill="#5C5C5C" transform="matrix(1.00, 0.00, -0.00, -1.00, 176.1, 589.0)">s</text><text xml:space="preserve" font-family="IowanOldStyle-Roman" font-size="32.0" fill="#5C5C5C" transform="matrix(1.00, 0.00, -0.00, -1.00, 190.3, 589.0)">e</text><text xml:space="preserve" font-family="IowanOldStyle-Roman" font-size="32.0" fill="#5C5C5C" transform="matrix(1.00, 0.00, -0.00, -1.00, 205.9, 589.0)">s</text><text xml:space="preserve" font-family="IowanOldStyle-Roman" font-size="32.0" fill="#5C5C5C" transform="matrix(1.00, 0.00, -0.00, -1.00, 220.1, 589.0)"> </text><text xml:space="preserve" font-family="IowanOldStyle-Roman" font-size="32.0" fill="#5C5C5C" transform="matrix(1.00, 0.00, -0.00, -1.00, 229.0, 589.0)">O</text><text xml:space="preserve" font-family="IowanOldStyle-Roman" font-size="32.0" fill="#5C5C5C" transform="matrix(1.00, 0.00, -0.00, -1.00, 254.6, 589.0)">p</text><text xml:space="preserve" font-family="IowanOldStyle-Roman" font-size="32.0" fill="#5C5C5C" transform="matrix(1.00, 0.00, -0.00, -1.00, 272.5, 589.0)">t</text><text xml:space="preserve" font-family="IowanOldStyle-Roman" font-size="32.0" fill="#5C5C5C" transform="matrix(1.00, 0.00, -0.00, -1.00, 284.1, 589.0)">i</text><text xml:space="preserve" font-family="IowanOldStyle-Roman" font-size="32.0" fill="#5C5C5C" transform="matrix(1.00, 0.00, -0.00, -1.00, 293.5, 589.0)">o</text><text xml:space="preserve" font-family="IowanOldStyle-Roman" font-size="32.0" fill="#5C5C5C" transform="matrix(1.00, 0.00, -0.00, -1.00, 311.2, 589.0)">n</text><text xml:space="preserve" font-family="IowanOldStyle-Roman" font-size="32.0" fill="#5C5C5C" transform="matrix(1.00, 0.00, -0.00, -1.00, 329.9, 589.0)"> </text><text xml:space="preserve" font-family="IowanOldStyle-Roman" font-size="32.0" fill="#5C5C5C" transform="matrix(1.00, 0.00, -0.00, -1.00, 338.7, 589.0)">i</text><text xml:space="preserve" font-family="IowanOldStyle-Roman" font-size="32.0" fill="#5C5C5C" transform="matrix(1.00, 0.00, -0.00, -1.00, 348.2, 589.0)">n</text><text xml:space="preserve" font-family="IowanOldStyle-Roman" font-size="32.0" fill="#5C5C5C" transform="matrix(1.00, 0.00, -0.00, -1.00, 366.9, 589.0)"> </text><text xml:space="preserve" font-family="IowanOldStyle-Roman" font-size="32.0" fill="#5C5C5C" transform="matrix(1.00, 0.00, -0.00, -1.00, 375.8, 589.0)">r</text><text xml:space="preserve" font-family="IowanOldStyle-Roman" font-size="32.0" fill="#5C5C5C" transform="matrix(1.00, 0.00, -0.00, -1.00, 388.3, 589.0)">e</text><text xml:space="preserve" font-family="IowanOldStyle-Roman" font-size="32.0" fill="#5C5C5C" transform="matrix(1.00, 0.00, -0.00, -1.00, 403.9, 589.0)">t</text><text xml:space="preserve" font-family="IowanOldStyle-Roman" font-size="32.0" fill="#5C5C5C" transform="matrix(1.00, 0.00, -0.00, -1.00, 415.4, 589.0)">u</text><text xml:space="preserve" font-family="IowanOldStyle-Roman" font-size="32.0" fill="#5C5C5C" transform="matrix(1.00, 0.00, -0.00, -1.00, 434.2, 589.0)">r</text><text xml:space="preserve" font-family="IowanOldStyle-Roman" font-size="32.0" fill="#5C5C5C" transform="matrix(1.00, 0.00, -0.00, -1.00, 446.7, 589.0)">n</text><text xml:space="preserve" font-family="IowanOldStyle-Roman" font-size="32.0" fill="#5C5C5C" transform="matrix(1.00, 0.00, -0.00, -1.00, 465.4, 589.0)"> </text><text xml:space="preserve" font-family="IowanOldStyle-Roman" font-size="32.0" fill="#5C5C5C" transform="matrix(1.00, 0.00, -0.00, -1.00, 474.3, 589.0)">t</text><text xml:space="preserve" font-family="IowanOldStyle-Roman" font-size="32.0" fill="#5C5C5C" transform="matrix(1.00, 0.00, -0.00, -1.00, 485.8, 589.0)">y</text><text xml:space="preserve" font-family="IowanOldStyle-Roman" font-size="32.0" fill="#5C5C5C" transform="matrix(1.00, 0.00, -0.00, -1.00, 501.3, 589.0)">p</text><text xml:space="preserve" font-family="IowanOldStyle-Roman" font-size="32.0" fill="#5C5C5C" transform="matrix(1.00, 0.00, -0.00, -1.00, 519.3, 589.0)">e</text><text xml:space="preserve" font-family="IowanOldStyle-Roman" font-size="32.0" fill="#5C5C5C" transform="matrix(1.00, 0.00, -0.00, -1.00, 534.9, 589.0)">s</text><text xml:space="preserve" font-family="IowanOldStyle-Roman" font-size="32.0" fill="#5C5C5C" transform="matrix(1.00, 0.00, -0.00, -1.00, 549.0, 589.0)">…</text><text xml:space="preserve" font-family="IowanOldStyle-Roman" font-size="32.0" fill="#5C5C5C" transform="matrix(1.00, 0.00, -0.00, -1.00, 581.0, 589.0)"> </text><text xml:space="preserve" font-family="Menlo-Bold" font-weight="bold" font-size="36.0" fill="#CC7831" transform="matrix(1.00, 0.00, -0.00, -1.00, 49.0, 465.0)">v</text><text xml:space="preserve" font-family="Menlo-Bold" font-weight="bold" font-size="36.0" fill="#CC7831" transform="matrix(1.00, 0.00, -0.00, -1.00, 70.7, 465.0)">a</text><text xml:space="preserve" font-family="Menlo-Bold" font-weight="bold" font-size="36.0" fill="#CC7831" transform="matrix(1.00, 0.00, -0.00, -1.00, 92.4, 465.0)">l</text><text xml:space="preserve" font-family="Menlo-Bold" font-weight="bold" font-size="36.0" fill="#CC7831" transform="matrix(1.00, 0.00, -0.00, -1.00, 114.0, 465.0)"> </text><text xml:space="preserve" font-family="Menlo-Regular" font-size="36.0" fill="#A9B6C6" transform="matrix(1.00, 0.00, -0.00, -1.00, 135.7, 465.0)">n</text><text xml:space="preserve" font-family="Menlo-Regular" font-size="36.0" fill="#A9B6C6" transform="matrix(1.00, 0.00, -0.00, -1.00, 157.4, 465.0)">u</text><text xml:space="preserve" font-family="Menlo-Regular" font-size="36.0" fill="#A9B6C6" transform="matrix(1.00, 0.00, -0.00, -1.00, 179.1, 465.0)">m</text><text xml:space="preserve" font-family="Menlo-Regular" font-size="36.0" fill="#A9B6C6" transform="matrix(1.00, 0.00, -0.00, -1.00, 200.7, 465.0)">b</text><text xml:space="preserve" font-family="Menlo-Regular" font-size="36.0" fill="#A9B6C6" transform="matrix(1.00, 0.00, -0.00, -1.00, 222.4, 465.0)">e</text><text xml:space="preserve" font-family="Menlo-Regular" font-size="36.0" fill="#A9B6C6" transform="matrix(1.00, 0.00, -0.00, -1.00, 244.1, 465.0)">r</text><text xml:space="preserve" font-family="Menlo-Regular" font-size="36.0" fill="#A9B6C6" transform="matrix(1.00, 0.00, -0.00, -1.00, 265.8, 465.0)">s</text><text xml:space="preserve" font-family="Menlo-Regular" font-size="36.0" fill="#A9B6C6" transform="matrix(1.00, 0.00, -0.00, -1.00, 287.4, 465.0)"> </text><text xml:space="preserve" font-family="Menlo-Regular" font-size="36.0" fill="#A9B6C6" transform="matrix(1.00, 0.00, -0.00, -1.00, 309.1, 465.0)">=</text><text xml:space="preserve" font-family="Menlo-Regular" font-size="36.0" fill="#A9B6C6" transform="matrix(1.00, 0.00, -0.00, -1.00, 330.8, 465.0)"> </text><text xml:space="preserve" font-family="Menlo-Regular" font-size="36.0" fill="#A9B6C6" transform="matrix(1.00, 0.00, -0.00, -1.00, 352.4, 465.0)">M</text><text xml:space="preserve" font-family="Menlo-Regular" font-size="36.0" fill="#A9B6C6" transform="matrix(1.00, 0.00, -0.00, -1.00, 374.1, 465.0)">a</text><text xml:space="preserve" font-family="Menlo-Regular" font-size="36.0" fill="#A9B6C6" transform="matrix(1.00, 0.00, -0.00, -1.00, 395.8, 465.0)">p</text><text xml:space="preserve" font-family="Menlo-Regular" font-size="36.0" fill="#A9B6C6" transform="matrix(1.00, 0.00, -0.00, -1.00, 417.5, 465.0)">(</text><text xml:space="preserve" font-family="Menlo-Regular" font-size="36.0" fill="#6A8758" transform="matrix(1.00, 0.00, -0.00, -1.00, 439.1, 465.0)">"</text><text xml:space="preserve" font-family="Menlo-Regular" font-size="36.0" fill="#6A8758" transform="matrix(1.00, 0.00, -0.00, -1.00, 460.8, 465.0)">o</text><text xml:space="preserve" font-family="Menlo-Regular" font-size="36.0" fill="#6A8758" transform="matrix(1.00, 0.00, -0.00, -1.00, 482.5, 465.0)">n</text><text xml:space="preserve" font-family="Menlo-Regular" font-size="36.0" fill="#6A8758" transform="matrix(1.00, 0.00, -0.00, -1.00, 504.2, 465.0)">e</text><text xml:space="preserve" font-family="Menlo-Regular" font-size="36.0" fill="#6A8758" transform="matrix(1.00, 0.00, -0.00, -1.00, 525.8, 465.0)">"</text><text xml:space="preserve" font-family="Menlo-Regular" font-size="36.0" fill="#6A8758" transform="matrix(1.00, 0.00, -0.00, -1.00, 547.5, 465.0)"> </text><text xml:space="preserve" font-family="Menlo-Regular" font-size="36.0" fill="#A9B6C6" transform="matrix(1.00, 0.00, -0.00, -1.00, 569.2, 465.0)">-</text><text xml:space="preserve" font-family="Menlo-Regular" font-size="36.0" fill="#A9B6C6" transform="matrix(1.00, 0.00, -0.00, -1.00, 590.8, 465.0)">&gt;</text><text xml:space="preserve" font-family="Menlo-Regular" font-size="36.0" fill="#A9B6C6" transform="matrix(1.00, 0.00, -0.00, -1.00, 612.5, 465.0)"> </text><text xml:space="preserve" font-family="Menlo-Regular" font-size="36.0" fill="#6796BB" transform="matrix(1.00, 0.00, -0.00, -1.00, 634.2, 465.0)">1</text><text xml:space="preserve" font-family="Menlo-Regular" font-size="36.0" fill="#CC7831" transform="matrix(1.00, 0.00, -0.00, -1.00, 655.9, 465.0)">,</text><text xml:space="preserve" font-family="Menlo-Regular" font-size="36.0" fill="#CC7831" transform="matrix(1.00, 0.00, -0.00, -1.00, 677.5, 465.0)"> </text><text xml:space="preserve" font-family="Menlo-Regular" font-size="36.0" fill="#6A8758" transform="matrix(1.00, 0.00, -0.00, -1.00, 699.2, 465.0)">"</text><text xml:space="preserve" font-family="Menlo-Regular" font-size="36.0" fill="#6A8758" transform="matrix(1.00, 0.00, -0.00, -1.00, 720.9, 465.0)">t</text><text xml:space="preserve" font-family="Menlo-Regular" font-size="36.0" fill="#6A8758" transform="matrix(1.00, 0.00, -0.00, -1.00, 742.6, 465.0)">w</text><text xml:space="preserve" font-family="Menlo-Regular" font-size="36.0" fill="#6A8758" transform="matrix(1.00, 0.00, -0.00, -1.00, 764.2, 465.0)">o</text><text xml:space="preserve" font-family="Menlo-Regular" font-size="36.0" fill="#6A8758" transform="matrix(1.00, 0.00, -0.00, -1.00, 785.9, 465.0)">"</text><text xml:space="preserve" font-family="Menlo-Regular" font-size="36.0" fill="#6A8758" transform="matrix(1.00, 0.00, -0.00, -1.00, 807.6, 465.0)"> </text><text xml:space="preserve" font-family="Menlo-Regular" font-size="36.0" fill="#A9B6C6" transform="matrix(1.00, 0.00, -0.00, -1.00, 829.3, 465.0)">-</text><text xml:space="preserve" font-family="Menlo-Regular" font-size="36.0" fill="#A9B6C6" transform="matrix(1.00, 0.00, -0.00, -1.00, 850.9, 465.0)">&gt;</text><text xml:space="preserve" font-family="Menlo-Regular" font-size="36.0" fill="#A9B6C6" transform="matrix(1.00, 0.00, -0.00, -1.00, 872.6, 465.0)"> </text><text xml:space="preserve" font-family="Menlo-Regular" font-size="36.0" fill="#6796BB" transform="matrix(1.00, 0.00, -0.00, -1.00, 894.3, 465.0)">2</text><text xml:space="preserve" font-family="Menlo-Regular" font-size="36.0" fill="#A9B6C6" transform="matrix(1.00, 0.00, -0.00, -1.00, 916.0, 465.0)">)</text><text xml:space="preserve" font-family="Monaco" font-size="36.0" fill="#A9B6C6" transform="matrix(1.00, 0.00, -0.00, -1.00, 937.6, 465.0)"> </text><text xml:space="preserve" font-family="Menlo-Regular" font-size="36.0" fill="#A9B6C6" transform="matrix(1.00, 0.00, -0.00, -1.00, 49.0, 424.0)">n</text><text xml:space="preserve" font-family="Menlo-Regular" font-size="36.0" fill="#A9B6C6" transform="matrix(1.00, 0.00, -0.00, -1.00, 70.7, 424.0)">u</text><text xml:space="preserve" font-family="Menlo-Regular" font-size="36.0" fill="#A9B6C6" transform="matrix(1.00, 0.00, -0.00, -1.00, 92.4, 424.0)">m</text><text xml:space="preserve" font-family="Menlo-Regular" font-size="36.0" fill="#A9B6C6" transform="matrix(1.00, 0.00, -0.00, -1.00, 114.0, 424.0)">b</text><text xml:space="preserve" font-family="Menlo-Regular" font-size="36.0" fill="#A9B6C6" transform="matrix(1.00, 0.00, -0.00, -1.00, 135.7, 424.0)">e</text><text xml:space="preserve" font-family="Menlo-Regular" font-size="36.0" fill="#A9B6C6" transform="matrix(1.00, 0.00, -0.00, -1.00, 157.4, 424.0)">r</text><text xml:space="preserve" font-family="Menlo-Regular" font-size="36.0" fill="#A9B6C6" transform="matrix(1.00, 0.00, -0.00, -1.00, 179.1, 424.0)">s</text><text xml:space="preserve" font-family="Menlo-Regular" font-size="36.0" fill="#A9B6C6" transform="matrix(1.00, 0.00, -0.00, -1.00, 200.7, 424.0)">.</text><text xml:space="preserve" font-family="Menlo-Regular" font-size="36.0" fill="#A9B6C6" transform="matrix(1.00, 0.00, -0.00, -1.00, 222.4, 424.0)">g</text><text xml:space="preserve" font-family="Menlo-Regular" font-size="36.0" fill="#A9B6C6" transform="matrix(1.00, 0.00, -0.00, -1.00, 244.1, 424.0)">e</text><text xml:space="preserve" font-family="Menlo-Regular" font-size="36.0" fill="#A9B6C6" transform="matrix(1.00, 0.00, -0.00, -1.00, 265.8, 424.0)">t</text><text xml:space="preserve" font-family="Menlo-Regular" font-size="36.0" fill="#A9B6C6" transform="matrix(1.00, 0.00, -0.00, -1.00, 287.5, 424.0)">(</text><text xml:space="preserve" font-family="Menlo-Regular" font-size="36.0" fill="#6A8758" transform="matrix(1.00, 0.00, -0.00, -1.00, 309.1, 424.0)">"</text><text xml:space="preserve" font-family="Menlo-Regular" font-size="36.0" fill="#6A8758" transform="matrix(1.00, 0.00, -0.00, -1.00, 330.8, 424.0)">t</text><text xml:space="preserve" font-family="Menlo-Regular" font-size="36.0" fill="#6A8758" transform="matrix(1.00, 0.00, -0.00, -1.00, 352.4, 424.0)">w</text><text xml:space="preserve" font-family="Menlo-Regular" font-size="36.0" fill="#6A8758" transform="matrix(1.00, 0.00, -0.00, -1.00, 374.1, 424.0)">o</text><text xml:space="preserve" font-family="Menlo-Regular" font-size="36.0" fill="#6A8758" transform="matrix(1.00, 0.00, -0.00, -1.00, 395.8, 424.0)">"</text><text xml:space="preserve" font-family="Menlo-Regular" font-size="36.0" fill="#A9B6C6" transform="matrix(1.00, 0.00, -0.00, -1.00, 417.5, 424.0)">)</text><text xml:space="preserve" font-family="Monaco" font-size="36.0" fill="#A9B6C6" transform="matrix(1.00, 0.00, -0.00, -1.00, 439.1, 424.0)"> </text><text xml:space="preserve" font-family="Menlo-Regular" font-size="36.0" fill="#A9B6C6" transform="matrix(1.00, 0.00, -0.00, -1.00, 49.0, 383.0)">n</text><text xml:space="preserve" font-family="Menlo-Regular" font-size="36.0" fill="#A9B6C6" transform="matrix(1.00, 0.00, -0.00, -1.00, 70.7, 383.0)">u</text><text xml:space="preserve" font-family="Menlo-Regular" font-size="36.0" fill="#A9B6C6" transform="matrix(1.00, 0.00, -0.00, -1.00, 92.4, 383.0)">m</text><text xml:space="preserve" font-family="Menlo-Regular" font-size="36.0" fill="#A9B6C6" transform="matrix(1.00, 0.00, -0.00, -1.00, 114.0, 383.0)">b</text><text xml:space="preserve" font-family="Menlo-Regular" font-size="36.0" fill="#A9B6C6" transform="matrix(1.00, 0.00, -0.00, -1.00, 135.7, 383.0)">e</text><text xml:space="preserve" font-family="Menlo-Regular" font-size="36.0" fill="#A9B6C6" transform="matrix(1.00, 0.00, -0.00, -1.00, 157.4, 383.0)">r</text><text xml:space="preserve" font-family="Menlo-Regular" font-size="36.0" fill="#A9B6C6" transform="matrix(1.00, 0.00, -0.00, -1.00, 179.1, 383.0)">s</text><text xml:space="preserve" font-family="Menlo-Regular" font-size="36.0" fill="#A9B6C6" transform="matrix(1.00, 0.00, -0.00, -1.00, 200.7, 383.0)">.</text><text xml:space="preserve" font-family="Menlo-Regular" font-size="36.0" fill="#A9B6C6" transform="matrix(1.00, 0.00, -0.00, -1.00, 222.4, 383.0)">g</text><text xml:space="preserve" font-family="Menlo-Regular" font-size="36.0" fill="#A9B6C6" transform="matrix(1.00, 0.00, -0.00, -1.00, 244.1, 383.0)">e</text><text xml:space="preserve" font-family="Menlo-Regular" font-size="36.0" fill="#A9B6C6" transform="matrix(1.00, 0.00, -0.00, -1.00, 265.8, 383.0)">t</text><text xml:space="preserve" font-family="Menlo-Regular" font-size="36.0" fill="#A9B6C6" transform="matrix(1.00, 0.00, -0.00, -1.00, 287.5, 383.0)">(</text><text xml:space="preserve" font-family="Menlo-Regular" font-size="36.0" fill="#6A8758" transform="matrix(1.00, 0.00, -0.00, -1.00, 309.1, 383.0)">"</text><text xml:space="preserve" font-family="Menlo-Regular" font-size="36.0" fill="#6A8758" transform="matrix(1.00, 0.00, -0.00, -1.00, 330.8, 383.0)">t</text><text xml:space="preserve" font-family="Menlo-Regular" font-size="36.0" fill="#6A8758" transform="matrix(1.00, 0.00, -0.00, -1.00, 352.4, 383.0)">h</text><text xml:space="preserve" font-family="Menlo-Regular" font-size="36.0" fill="#6A8758" transform="matrix(1.00, 0.00, -0.00, -1.00, 374.1, 383.0)">r</text><text xml:space="preserve" font-family="Menlo-Regular" font-size="36.0" fill="#6A8758" transform="matrix(1.00, 0.00, -0.00, -1.00, 395.8, 383.0)">e</text><text xml:space="preserve" font-family="Menlo-Regular" font-size="36.0" fill="#6A8758" transform="matrix(1.00, 0.00, -0.00, -1.00, 417.5, 383.0)">e</text><text xml:space="preserve" font-family="Menlo-Regular" font-size="36.0" fill="#6A8758" transform="matrix(1.00, 0.00, -0.00, -1.00, 439.2, 383.0)">"</text><text xml:space="preserve" font-family="Menlo-Regular" font-size="36.0" fill="#A9B6C6" transform="matrix(1.00, 0.00, -0.00, -1.00, 460.8, 383.0)">)</text><text xml:space="preserve" font-family="Menlo-Regular" font-size="36.0" fill="#A9B6C6" transform="matrix(1.00, 0.00, -0.00, -1.00, 482.5, 383.0)"> </text></g></svg>