<?xml version="1.0" encoding="UTF-8" standalone="no"?><svg xmlns="http://www.w3.org/2000/svg" xmlns:xlink="http://www.w3.org/1999/xlink" clip-rule="evenodd" stroke-miterlimit="4.00" viewBox="0 0 1024 768"><desc>SVG generated by Keynote</desc><defs></defs><g transform="matrix(1.00, 0.00, -0.00, -1.00, 0.0, 768.0)"><path d="M 0.0 768.0 L 1024.0 768.0 L 1024.0 0.0 L 0.0 0.0 Z M 0.0 768.0 " fill="#FFFFFF"></path><path d="M 0.0 0.0 L 934.0 0.0 " fill="none" stroke="#747676" stroke-width="3.00" stroke-linecap="round" stroke-linejoin="round" stroke-dasharray="0.0, 9.0" transform="matrix(1.00, 0.00, 0.00, -1.00, 45.0, 644.0)"></path><text xml:space="preserve" font-family="DINCondensed-Bold" font-weight="bold" font-size="48.4" fill="#747676" transform="matrix(1.00, 0.00, -0.00, -1.00, 49.0, 673.0)">F</text><text xml:space="preserve" font-family="DINCondensed-Bold" font-weight="bold" font-size="48.4" fill="#747676" transform="matrix(1.00, 0.00, -0.00, -1.00, 66.9, 673.0)">L</text><text xml:space="preserve" font-family="DINCondensed-Bold" font-weight="bold" font-size="48.4" fill="#747676" transform="matrix(1.00, 0.00, -0.00, -1.00, 84.8, 673.0)">A</text><text xml:space="preserve" font-family="DINCondensed-Bold" font-weight="bold" font-size="48.4" fill="#747676" transform="matrix(1.00, 0.00, -0.00, -1.00, 101.8, 673.0)">T</text><text xml:space="preserve" font-family="DINCondensed-Bold" font-weight="bold" font-size="48.4" fill="#747676" transform="matrix(1.00, 0.00, -0.00, -1.00, 117.9, 673.0)">M</text><text xml:space="preserve" font-family="DINCondensed-Bold" font-weight="bold" font-size="48.4" fill="#747676" transform="matrix(1.00, 0.00, -0.00, -1.00, 144.8, 673.0)">A</text><text xml:space="preserve" font-family="DINCondensed-Bold" font-weight="bold" font-size="48.4" fill="#747676" transform="matrix(1.00, 0.00, -0.00, -1.00, 164.4, 673.0)">P</text><path d="M 49.0 622.0 L 103.2 622.0 L 103.2 587.0 L 49.0 587.0 Z M 49.0 622.0 " fill="#344033"></path><path d="M 103.2 622.0 L 410.2 622.0 L 410.2 587.0 L 103.2 587.0 Z M 103.2 622.0 " fill="#2A2A2A"></path><path d="M 410.2 622.0 L 916.0 622.0 L 916.0 587.0 L 410.2 587.0 Z M 410.2 622.0 " fill="#344033"></path><path d="M 49.0 587.0 L 789.5 587.0 L 789.5 552.0 L 49.0 552.0 Z M 49.0 587.0 " fill="#2A2A2A"></path><text xml:space="preserve" font-family="Menlo-Bold" font-weight="bold" font-size="30.0" fill="#CC7831" transform="matrix(1.00, 0.00, -0.00, -1.00, 49.0, 594.0)">v</text><text xml:space="preserve" font-family="Menlo-Bold" font-weight="bold" font-size="30.0" fill="#CC7831" transform="matrix(1.00, 0.00, -0.00, -1.00, 67.1, 594.0)">a</text><text xml:space="preserve" font-family="Menlo-Bold" font-weight="bold" font-size="30.0" fill="#CC7831" transform="matrix(1.00, 0.00, -0.00, -1.00, 85.1, 594.0)">l</text><text xml:space="preserve" font-family="Menlo-Bold" font-weight="bold" font-size="30.0" fill="#CC7831" transform="matrix(1.00, 0.00, -0.00, -1.00, 103.2, 594.0)"> </text><text xml:space="preserve" font-family="Menlo-Regular" font-size="30.0" fill="#A9B6C6" transform="matrix(1.00, 0.00, -0.00, -1.00, 121.2, 594.0)">n</text><text xml:space="preserve" font-family="Menlo-Regular" font-size="30.0" fill="#A9B6C6" transform="matrix(1.00, 0.00, -0.00, -1.00, 139.3, 594.0)">e</text><text xml:space="preserve" font-family="Menlo-Regular" font-size="30.0" fill="#A9B6C6" transform="matrix(1.00, 0.00, -0.00, -1.00, 157.4, 594.0)">s</text><text xml:space="preserve" font-family="Menlo-Regular" font-size="30.0" fill="#A9B6C6" transform="matrix(1.00, 0.00, -0.00, -1.00, 175.4, 594.0)">t</text><text xml:space="preserve" font-family="Menlo-Regular" font-size="30.0" fill="#A9B6C6" transform="matrix(1.00, 0.00, -0.00, -1.00, 193.5, 594.0)">e</text><text xml:space="preserve" font-family="Menlo-Regular" font-size="30.0" fill="#A9B6C6" transform="matrix(1.00, 0.00, -0.00, -1.00, 211.6, 594.0)">d</text><text xml:space="preserve" font-family="Menlo-Regular" font-size="30.0" fill="#A9B6C6" transform="matrix(1.00, 0.00, -0.00, -1.00, 229.6, 594.0)">N</text><text xml:space="preserve" font-family="Menlo-Regular" font-size="30.0" fill="#A9B6C6" transform="matrix(1.00, 0.00, -0.00, -1.00, 247.7, 594.0)">u</text><text xml:space="preserve" font-family="Menlo-Regular" font-size="30.0" fill="#A9B6C6" transform="matrix(1.00, 0.00, -0.00, -1.00, 265.8, 594.0)">m</text><text xml:space="preserve" font-family="Menlo-Regular" font-size="30.0" fill="#A9B6C6" transform="matrix(1.00, 0.00, -0.00, -1.00, 283.8, 594.0)">b</text><text xml:space="preserve" font-family="Menlo-Regular" font-size="30.0" fill="#A9B6C6" transform="matrix(1.00, 0.00, -0.00, -1.00, 301.9, 594.0)">e</text><text xml:space="preserve" font-family="Menlo-Regular" font-size="30.0" fill="#A9B6C6" transform="matrix(1.00, 0.00, -0.00, -1.00, 320.0, 594.0)">r</text><text xml:space="preserve" font-family="Menlo-Regular" font-size="30.0" fill="#A9B6C6" transform="matrix(1.00, 0.00, -0.00, -1.00, 338.0, 594.0)">s</text><text xml:space="preserve" font-family="Menlo-Regular" font-size="30.0" fill="#A9B6C6" transform="matrix(1.00, 0.00, -0.00, -1.00, 356.1, 594.0)"> </text><text xml:space="preserve" font-family="Menlo-Regular" font-size="30.0" fill="#A9B6C6" transform="matrix(1.00, 0.00, -0.00, -1.00, 374.1, 594.0)">=</text><text xml:space="preserve" font-family="Menlo-Regular" font-size="30.0" fill="#A9B6C6" transform="matrix(1.00, 0.00, -0.00, -1.00, 392.2, 594.0)"> </text><text xml:space="preserve" font-family="Menlo-Regular" font-size="30.0" fill="#A9B6C6" transform="matrix(1.00, 0.00, -0.00, -1.00, 410.2, 594.0)">L</text><text xml:space="preserve" font-family="Menlo-Regular" font-size="30.0" fill="#A9B6C6" transform="matrix(1.00, 0.00, -0.00, -1.00, 428.3, 594.0)">i</text><text xml:space="preserve" font-family="Menlo-Regular" font-size="30.0" fill="#A9B6C6" transform="matrix(1.00, 0.00, -0.00, -1.00, 446.4, 594.0)">s</text><text xml:space="preserve" font-family="Menlo-Regular" font-size="30.0" fill="#A9B6C6" transform="matrix(1.00, 0.00, -0.00, -1.00, 464.4, 594.0)">t</text><text xml:space="preserve" font-family="Menlo-Regular" font-size="30.0" fill="#A9B6C6" transform="matrix(1.00, 0.00, -0.00, -1.00, 482.5, 594.0)">(</text><text xml:space="preserve" font-family="Menlo-Regular" font-size="30.0" fill="#A9B6C6" transform="matrix(1.00, 0.00, -0.00, -1.00, 500.6, 594.0)">L</text><text xml:space="preserve" font-family="Menlo-Regular" font-size="30.0" fill="#A9B6C6" transform="matrix(1.00, 0.00, -0.00, -1.00, 518.6, 594.0)">i</text><text xml:space="preserve" font-family="Menlo-Regular" font-size="30.0" fill="#A9B6C6" transform="matrix(1.00, 0.00, -0.00, -1.00, 536.7, 594.0)">s</text><text xml:space="preserve" font-family="Menlo-Regular" font-size="30.0" fill="#A9B6C6" transform="matrix(1.00, 0.00, -0.00, -1.00, 554.7, 594.0)">t</text><text xml:space="preserve" font-family="Menlo-Regular" font-size="30.0" fill="#A9B6C6" transform="matrix(1.00, 0.00, -0.00, -1.00, 572.8, 594.0)">(</text><text xml:space="preserve" font-family="Menlo-Regular" font-size="30.0" fill="#6796BB" transform="matrix(1.00, 0.00, -0.00, -1.00, 590.8, 594.0)">1</text><text xml:space="preserve" font-family="Menlo-Regular" font-size="30.0" fill="#CC7831" transform="matrix(1.00, 0.00, -0.00, -1.00, 608.9, 594.0)">,</text><text xml:space="preserve" font-family="Menlo-Regular" font-size="30.0" fill="#CC7831" transform="matrix(1.00, 0.00, -0.00, -1.00, 627.0, 594.0)"> </text><text xml:space="preserve" font-family="Menlo-Regular" font-size="30.0" fill="#6796BB" transform="matrix(1.00, 0.00, -0.00, -1.00, 645.0, 594.0)">2</text><text xml:space="preserve" font-family="Menlo-Regular" font-size="30.0" fill="#A9B6C6" transform="matrix(1.00, 0.00, -0.00, -1.00, 663.1, 594.0)">)</text><text xml:space="preserve" font-family="Menlo-Regular" font-size="30.0" fill="#CC7831" transform="matrix(1.00, 0.00, -0.00, -1.00, 681.2, 594.0)">,</text><text xml:space="preserve" font-family="Menlo-Regular" font-size="30.0" fill="#CC7831" transform="matrix(1.00, 0.00, -0.00, -1.00, 699.2, 594.0)"> </text><text xml:space="preserve" font-family="Menlo-Regular" font-size="30.0" fill="#A9B6C6" transform="matrix(1.00, 0.00, -0.00, -1.00, 717.3, 594.0)">L</text><text xml:space="preserve" font-family="Menlo-Regular" font-size="30.0" fill="#A9B6C6" transform="matrix(1.00, 0.00, -0.00, -1.00, 735.3, 594.0)">i</text><text xml:space="preserve" font-family="Menlo-Regular" font-size="30.0" fill="#A9B6C6" transform="matrix(1.00, 0.00, -0.00, -1.00, 753.4, 594.0)">s</text><text xml:space="preserve" font-family="Menlo-Regular" font-size="30.0" fill="#A9B6C6" transform="matrix(1.00, 0.00, -0.00, -1.00, 771.5, 594.0)">t</text><text xml:space="preserve" font-family="Menlo-Regular" font-size="30.0" fill="#A9B6C6" transform="matrix(1.00, 0.00, -0.00, -1.00, 789.5, 594.0)">(</text><text xml:space="preserve" font-family="Menlo-Regular" font-size="30.0" fill="#6796BB" transform="matrix(1.00, 0.00, -0.00, -1.00, 807.6, 594.0)">3</text><text xml:space="preserve" font-family="Menlo-Regular" font-size="30.0" fill="#CC7831" transform="matrix(1.00, 0.00, -0.00, -1.00, 825.6, 594.0)">,</text><text xml:space="preserve" font-family="Menlo-Regular" font-size="30.0" fill="#CC7831" transform="matrix(1.00, 0.00, -0.00, -1.00, 843.7, 594.0)"> </text><text xml:space="preserve" font-family="Menlo-Regular" font-size="30.0" fill="#6796BB" transform="matrix(1.00, 0.00, -0.00, -1.00, 861.8, 594.0)">4</text><text xml:space="preserve" font-family="Menlo-Regular" font-size="30.0" fill="#A9B6C6" transform="matrix(1.00, 0.00, -0.00, -1.00, 879.8, 594.0)">)</text><text xml:space="preserve" font-family="Menlo-Regular" font-size="30.0" fill="#A9B6C6" transform="matrix(1.00, 0.00, -0.00, -1.00, 897.9, 594.0)">)</text><text xml:space="preserve" font-family="Monaco" font-size="30.0" fill="#A9B6C6" transform="matrix(1.00, 0.00, -0.00, -1.00, 916.0, 594.0)"> </text><text xml:space="preserve" font-family="Menlo-Regular" font-size="30.0" fill="#A9B6C6" transform="matrix(1.00, 0.00, -0.00, -1.00, 49.0, 559.0)">n</text><text xml:space="preserve" font-family="Menlo-Regular" font-size="30.0" fill="#A9B6C6" transform="matrix(1.00, 0.00, -0.00, -1.00, 67.1, 559.0)">e</text><text xml:space="preserve" font-family="Menlo-Regular" font-size="30.0" fill="#A9B6C6" transform="matrix(1.00, 0.00, -0.00, -1.00, 85.1, 559.0)">s</text><text xml:space="preserve" font-family="Menlo-Regular" font-size="30.0" fill="#A9B6C6" transform="matrix(1.00, 0.00, -0.00, -1.00, 103.2, 559.0)">t</text><text xml:space="preserve" font-family="Menlo-Regular" font-size="30.0" fill="#A9B6C6" transform="matrix(1.00, 0.00, -0.00, -1.00, 121.3, 559.0)">e</text><text xml:space="preserve" font-family="Menlo-Regular" font-size="30.0" fill="#A9B6C6" transform="matrix(1.00, 0.00, -0.00, -1.00, 139.3, 559.0)">d</text><text xml:space="preserve" font-family="Menlo-Regular" font-size="30.0" fill="#A9B6C6" transform="matrix(1.00, 0.00, -0.00, -1.00, 157.4, 559.0)">N</text><text xml:space="preserve" font-family="Menlo-Regular" font-size="30.0" fill="#A9B6C6" transform="matrix(1.00, 0.00, -0.00, -1.00, 175.5, 559.0)">u</text><text xml:space="preserve" font-family="Menlo-Regular" font-size="30.0" fill="#A9B6C6" transform="matrix(1.00, 0.00, -0.00, -1.00, 193.5, 559.0)">m</text><text xml:space="preserve" font-family="Menlo-Regular" font-size="30.0" fill="#A9B6C6" transform="matrix(1.00, 0.00, -0.00, -1.00, 211.6, 559.0)">b</text><text xml:space="preserve" font-family="Menlo-Regular" font-size="30.0" fill="#A9B6C6" transform="matrix(1.00, 0.00, -0.00, -1.00, 229.6, 559.0)">e</text><text xml:space="preserve" font-family="Menlo-Regular" font-size="30.0" fill="#A9B6C6" transform="matrix(1.00, 0.00, -0.00, -1.00, 247.7, 559.0)">r</text><text xml:space="preserve" font-family="Menlo-Regular" font-size="30.0" fill="#A9B6C6" transform="matrix(1.00, 0.00, -0.00, -1.00, 265.8, 559.0)">s</text><text xml:space="preserve" font-family="Menlo-Regular" font-size="30.0" fill="#A9B6C6" transform="matrix(1.00, 0.00, -0.00, -1.00, 283.8, 559.0)">.</text><text xml:space="preserve" font-family="Menlo-Regular" font-size="30.0" fill="#A9B6C6" transform="matrix(1.00, 0.00, -0.00, -1.00, 301.9, 559.0)">f</text><text xml:space="preserve" font-family="Menlo-Regular" font-size="30.0" fill="#A9B6C6" transform="matrix(1.00, 0.00, -0.00, -1.00, 320.0, 559.0)">l</text><text xml:space="preserve" font-family="Menlo-Regular" font-size="30.0" fill="#A9B6C6" transform="matrix(1.00, 0.00, -0.00, -1.00, 338.0, 559.0)">a</text><text xml:space="preserve" font-family="Menlo-Regular" font-size="30.0" fill="#A9B6C6" transform="matrix(1.00, 0.00, -0.00, -1.00, 356.1, 559.0)">t</text><text xml:space="preserve" font-family="Menlo-Regular" font-size="30.0" fill="#A9B6C6" transform="matrix(1.00, 0.00, -0.00, -1.00, 374.2, 559.0)">M</text><text xml:space="preserve" font-family="Menlo-Regular" font-size="30.0" fill="#A9B6C6" transform="matrix(1.00, 0.00, -0.00, -1.00, 392.2, 559.0)">a</text><text xml:space="preserve" font-family="Menlo-Regular" font-size="30.0" fill="#A9B6C6" transform="matrix(1.00, 0.00, -0.00, -1.00, 410.3, 559.0)">p</text><text xml:space="preserve" font-family="Menlo-Regular" font-size="30.0" fill="#A9B6C6" transform="matrix(1.00, 0.00, -0.00, -1.00, 428.4, 559.0)">(</text><text xml:space="preserve" font-family="Menlo-Regular" font-size="30.0" fill="#A9B6C6" transform="matrix(1.00, 0.00, -0.00, -1.00, 446.4, 559.0)">x</text><text xml:space="preserve" font-family="Menlo-Regular" font-size="30.0" fill="#A9B6C6" transform="matrix(1.00, 0.00, -0.00, -1.00, 464.5, 559.0)"> </text><text xml:space="preserve" font-family="Menlo-Regular" font-size="30.0" fill="#A9B6C6" transform="matrix(1.00, 0.00, -0.00, -1.00, 482.5, 559.0)">=</text><text xml:space="preserve" font-family="Menlo-Regular" font-size="30.0" fill="#A9B6C6" transform="matrix(1.00, 0.00, -0.00, -1.00, 500.6, 559.0)">&gt;</text><text xml:space="preserve" font-family="Menlo-Regular" font-size="30.0" fill="#A9B6C6" transform="matrix(1.00, 0.00, -0.00, -1.00, 518.7, 559.0)"> </text><text xml:space="preserve" font-family="Menlo-Regular" font-size="30.0" fill="#A9B6C6" transform="matrix(1.00, 0.00, -0.00, -1.00, 536.7, 559.0)">x</text><text xml:space="preserve" font-family="Menlo-Regular" font-size="30.0" fill="#A9B6C6" transform="matrix(1.00, 0.00, -0.00, -1.00, 554.8, 559.0)">.</text><text xml:space="preserve" font-family="Menlo-Regular" font-size="30.0" fill="#A9B6C6" transform="matrix(1.00, 0.00, -0.00, -1.00, 572.9, 559.0)">m</text><text xml:space="preserve" font-family="Menlo-Regular" font-size="30.0" fill="#A9B6C6" transform="matrix(1.00, 0.00, -0.00, -1.00, 590.9, 559.0)">a</text><text xml:space="preserve" font-family="Menlo-Regular" font-size="30.0" fill="#A9B6C6" transform="matrix(1.00, 0.00, -0.00, -1.00, 609.0, 559.0)">p</text><text xml:space="preserve" font-family="Menlo-Regular" font-size="30.0" fill="#A9B6C6" transform="matrix(1.00, 0.00, -0.00, -1.00, 627.1, 559.0)">(</text><text xml:space="preserve" font-family="Menlo-Regular" font-size="30.0" fill="#A9B6C6" transform="matrix(1.00, 0.00, -0.00, -1.00, 645.1, 559.0)">_</text><text xml:space="preserve" font-family="Menlo-Regular" font-size="30.0" fill="#A9B6C6" transform="matrix(1.00, 0.00, -0.00, -1.00, 663.2, 559.0)"> </text><text xml:space="preserve" font-family="Menlo-Regular" font-size="30.0" fill="#A9B6C6" transform="matrix(1.00, 0.00, -0.00, -1.00, 681.3, 559.0)">*</text><text xml:space="preserve" font-family="Menlo-Regular" font-size="30.0" fill="#A9B6C6" transform="matrix(1.00, 0.00, -0.00, -1.00, 699.3, 559.0)"> </text><text xml:space="preserve" font-family="Menlo-Regular" font-size="30.0" fill="#6796BB" transform="matrix(1.00, 0.00, -0.00, -1.00, 717.3, 559.0)">2</text><text xml:space="preserve" font-family="Menlo-Regular" font-size="30.0" fill="#A9B6C6" transform="matrix(1.00, 0.00, -0.00, -1.00, 735.3, 559.0)">)</text><text xml:space="preserve" font-family="Menlo-Regular" font-size="30.0" fill="#A9B6C6" transform="matrix(1.00, 0.00, -0.00, -1.00, 753.4, 559.0)">)</text><text xml:space="preserve" font-family="Menlo-Regular" font-size="30.0" fill="#A9B6C6" transform="matrix(1.00, 0.00, -0.00, -1.00, 771.5, 559.0)"> </text><text xml:space="preserve" font-family="ZapfDingbatsITC" font-size="24.0" fill="#5C5C5C" transform="matrix(1.00, 0.00, -0.00, -1.00, 49.0, 384.2)">➤</text><text xml:space="preserve" font-family="IowanOldStyle-Roman" font-size="32.0" fill="#5C5C5C" transform="matrix(1.00, 0.00, -0.00, -1.00, 86.0, 381.0)">`</text><text xml:space="preserve" font-family="IowanOldStyle-Roman" font-size="32.0" fill="#5C5C5C" transform="matrix(1.00, 0.00, -0.00, -1.00, 102.0, 381.0)">ﬂ</text><text xml:space="preserve" font-family="IowanOldStyle-Roman" font-size="32.0" fill="#5C5C5C" transform="matrix(1.00, 0.00, -0.00, -1.00, 121.4, 381.0)">a</text><text xml:space="preserve" font-family="IowanOldStyle-Roman" font-size="32.0" fill="#5C5C5C" transform="matrix(1.00, 0.00, -0.00, -1.00, 136.8, 381.0)">t</text><text xml:space="preserve" font-family="IowanOldStyle-Roman" font-size="32.0" fill="#5C5C5C" transform="matrix(1.00, 0.00, -0.00, -1.00, 148.3, 381.0)">M</text><text xml:space="preserve" font-family="IowanOldStyle-Roman" font-size="32.0" fill="#5C5C5C" transform="matrix(1.00, 0.00, -0.00, -1.00, 177.4, 381.0)">a</text><text xml:space="preserve" font-family="IowanOldStyle-Roman" font-size="32.0" fill="#5C5C5C" transform="matrix(1.00, 0.00, -0.00, -1.00, 192.8, 381.0)">p</text><text xml:space="preserve" font-family="IowanOldStyle-Roman" font-size="32.0" fill="#5C5C5C" transform="matrix(1.00, 0.00, -0.00, -1.00, 210.7, 381.0)">`</text><text xml:space="preserve" font-family="IowanOldStyle-Roman" font-size="32.0" fill="#5C5C5C" transform="matrix(1.00, 0.00, -0.00, -1.00, 226.7, 381.0)"> </text><text xml:space="preserve" font-family="IowanOldStyle-Roman" font-size="32.0" fill="#5C5C5C" transform="matrix(1.00, 0.00, -0.00, -1.00, 235.6, 381.0)">t</text><text xml:space="preserve" font-family="IowanOldStyle-Roman" font-size="32.0" fill="#5C5C5C" transform="matrix(1.00, 0.00, -0.00, -1.00, 247.1, 381.0)">a</text><text xml:space="preserve" font-family="IowanOldStyle-Roman" font-size="32.0" fill="#5C5C5C" transform="matrix(1.00, 0.00, -0.00, -1.00, 262.5, 381.0)">k</text><text xml:space="preserve" font-family="IowanOldStyle-Roman" font-size="32.0" fill="#5C5C5C" transform="matrix(1.00, 0.00, -0.00, -1.00, 279.0, 381.0)">e</text><text xml:space="preserve" font-family="IowanOldStyle-Roman" font-size="32.0" fill="#5C5C5C" transform="matrix(1.00, 0.00, -0.00, -1.00, 294.6, 381.0)">s</text><text xml:space="preserve" font-family="IowanOldStyle-Roman" font-size="32.0" fill="#5C5C5C" transform="matrix(1.00, 0.00, -0.00, -1.00, 308.8, 381.0)"> </text><text xml:space="preserve" font-family="IowanOldStyle-Roman" font-size="32.0" fill="#5C5C5C" transform="matrix(1.00, 0.00, -0.00, -1.00, 317.7, 381.0)">a</text><text xml:space="preserve" font-family="IowanOldStyle-Roman" font-size="32.0" fill="#5C5C5C" transform="matrix(1.00, 0.00, -0.00, -1.00, 333.0, 381.0)"> </text><text xml:space="preserve" font-family="IowanOldStyle-Roman" font-size="32.0" fill="#5C5C5C" transform="matrix(1.00, 0.00, -0.00, -1.00, 341.9, 381.0)">f</text><text xml:space="preserve" font-family="IowanOldStyle-Roman" font-size="32.0" fill="#5C5C5C" transform="matrix(1.00, 0.00, -0.00, -1.00, 352.2, 381.0)">u</text><text xml:space="preserve" font-family="IowanOldStyle-Roman" font-size="32.0" fill="#5C5C5C" transform="matrix(1.00, 0.00, -0.00, -1.00, 371.0, 381.0)">n</text><text xml:space="preserve" font-family="IowanOldStyle-Roman" font-size="32.0" fill="#5C5C5C" transform="matrix(1.00, 0.00, -0.00, -1.00, 389.7, 381.0)">c</text><text xml:space="preserve" font-family="IowanOldStyle-Roman" font-size="32.0" fill="#5C5C5C" transform="matrix(1.00, 0.00, -0.00, -1.00, 403.9, 381.0)">t</text><text xml:space="preserve" font-family="IowanOldStyle-Roman" font-size="32.0" fill="#5C5C5C" transform="matrix(1.00, 0.00, -0.00, -1.00, 415.5, 381.0)">i</text><text xml:space="preserve" font-family="IowanOldStyle-Roman" font-size="32.0" fill="#5C5C5C" transform="matrix(1.00, 0.00, -0.00, -1.00, 425.0, 381.0)">o</text><text xml:space="preserve" font-family="IowanOldStyle-Roman" font-size="32.0" fill="#5C5C5C" transform="matrix(1.00, 0.00, -0.00, -1.00, 442.6, 381.0)">n</text><text xml:space="preserve" font-family="IowanOldStyle-Roman" font-size="32.0" fill="#5C5C5C" transform="matrix(1.00, 0.00, -0.00, -1.00, 461.3, 381.0)"> </text><text xml:space="preserve" font-family="IowanOldStyle-Roman" font-size="32.0" fill="#5C5C5C" transform="matrix(1.00, 0.00, -0.00, -1.00, 470.1, 381.0)">t</text><text xml:space="preserve" font-family="IowanOldStyle-Roman" font-size="32.0" fill="#5C5C5C" transform="matrix(1.00, 0.00, -0.00, -1.00, 481.7, 381.0)">h</text><text xml:space="preserve" font-family="IowanOldStyle-Roman" font-size="32.0" fill="#5C5C5C" transform="matrix(1.00, 0.00, -0.00, -1.00, 500.4, 381.0)">a</text><text xml:space="preserve" font-family="IowanOldStyle-Roman" font-size="32.0" fill="#5C5C5C" transform="matrix(1.00, 0.00, -0.00, -1.00, 515.8, 381.0)">t</text><text xml:space="preserve" font-family="IowanOldStyle-Roman" font-size="32.0" fill="#5C5C5C" transform="matrix(1.00, 0.00, -0.00, -1.00, 527.3, 381.0)"> </text><text xml:space="preserve" font-family="IowanOldStyle-Roman" font-size="32.0" fill="#5C5C5C" transform="matrix(1.00, 0.00, -0.00, -1.00, 536.2, 381.0)">w</text><text xml:space="preserve" font-family="IowanOldStyle-Roman" font-size="32.0" fill="#5C5C5C" transform="matrix(1.00, 0.00, -0.00, -1.00, 561.0, 381.0)">o</text><text xml:space="preserve" font-family="IowanOldStyle-Roman" font-size="32.0" fill="#5C5C5C" transform="matrix(1.00, 0.00, -0.00, -1.00, 578.6, 381.0)">r</text><text xml:space="preserve" font-family="IowanOldStyle-Roman" font-size="32.0" fill="#5C5C5C" transform="matrix(1.00, 0.00, -0.00, -1.00, 591.1, 381.0)">k</text><text xml:space="preserve" font-family="IowanOldStyle-Roman" font-size="32.0" fill="#5C5C5C" transform="matrix(1.00, 0.00, -0.00, -1.00, 608.6, 381.0)">s</text><text xml:space="preserve" font-family="IowanOldStyle-Roman" font-size="32.0" fill="#5C5C5C" transform="matrix(1.00, 0.00, -0.00, -1.00, 622.7, 381.0)"> </text><text xml:space="preserve" font-family="IowanOldStyle-Roman" font-size="32.0" fill="#5C5C5C" transform="matrix(1.00, 0.00, -0.00, -1.00, 631.6, 381.0)">o</text><text xml:space="preserve" font-family="IowanOldStyle-Roman" font-size="32.0" fill="#5C5C5C" transform="matrix(1.00, 0.00, -0.00, -1.00, 649.2, 381.0)">n</text><text xml:space="preserve" font-family="IowanOldStyle-Roman" font-size="32.0" fill="#5C5C5C" transform="matrix(1.00, 0.00, -0.00, -1.00, 667.9, 381.0)"> </text><text xml:space="preserve" font-family="IowanOldStyle-Roman" font-size="32.0" fill="#5C5C5C" transform="matrix(1.00, 0.00, -0.00, -1.00, 676.8, 381.0)">t</text><text xml:space="preserve" font-family="IowanOldStyle-Roman" font-size="32.0" fill="#5C5C5C" transform="matrix(1.00, 0.00, -0.00, -1.00, 688.3, 381.0)">h</text><text xml:space="preserve" font-family="IowanOldStyle-Roman" font-size="32.0" fill="#5C5C5C" transform="matrix(1.00, 0.00, -0.00, -1.00, 707.1, 381.0)">e</text><text xml:space="preserve" font-family="IowanOldStyle-Roman" font-size="32.0" fill="#5C5C5C" transform="matrix(1.00, 0.00, -0.00, -1.00, 722.7, 381.0)"> </text><text xml:space="preserve" font-family="IowanOldStyle-Roman" font-size="32.0" fill="#5C5C5C" transform="matrix(1.00, 0.00, -0.00, -1.00, 731.5, 381.0)">n</text><text xml:space="preserve" font-family="IowanOldStyle-Roman" font-size="32.0" fill="#5C5C5C" transform="matrix(1.00, 0.00, -0.00, -1.00, 750.2, 381.0)">e</text><text xml:space="preserve" font-family="IowanOldStyle-Roman" font-size="32.0" fill="#5C5C5C" transform="matrix(1.00, 0.00, -0.00, -1.00, 765.8, 381.0)">s</text><text xml:space="preserve" font-family="IowanOldStyle-Roman" font-size="32.0" fill="#5C5C5C" transform="matrix(1.00, 0.00, -0.00, -1.00, 780.0, 381.0)">t</text><text xml:space="preserve" font-family="IowanOldStyle-Roman" font-size="32.0" fill="#5C5C5C" transform="matrix(1.00, 0.00, -0.00, -1.00, 791.5, 381.0)">e</text><text xml:space="preserve" font-family="IowanOldStyle-Roman" font-size="32.0" fill="#5C5C5C" transform="matrix(1.00, 0.00, -0.00, -1.00, 807.1, 381.0)">d</text><text xml:space="preserve" font-family="IowanOldStyle-Roman" font-size="32.0" fill="#5C5C5C" transform="matrix(1.00, 0.00, -0.00, -1.00, 825.1, 381.0)"> </text><text xml:space="preserve" font-family="IowanOldStyle-Roman" font-size="32.0" fill="#5C5C5C" transform="matrix(1.00, 0.00, -0.00, -1.00, 834.0, 381.0)">l</text><text xml:space="preserve" font-family="IowanOldStyle-Roman" font-size="32.0" fill="#5C5C5C" transform="matrix(1.00, 0.00, -0.00, -1.00, 843.3, 381.0)">i</text><text xml:space="preserve" font-family="IowanOldStyle-Roman" font-size="32.0" fill="#5C5C5C" transform="matrix(1.00, 0.00, -0.00, -1.00, 852.8, 381.0)">s</text><text xml:space="preserve" font-family="IowanOldStyle-Roman" font-size="32.0" fill="#5C5C5C" transform="matrix(1.00, 0.00, -0.00, -1.00, 867.0, 381.0)">t</text><text xml:space="preserve" font-family="IowanOldStyle-Roman" font-size="32.0" fill="#5C5C5C" transform="matrix(1.00, 0.00, -0.00, -1.00, 878.5, 381.0)">s</text><text xml:space="preserve" font-family="IowanOldStyle-Roman" font-size="32.0" fill="#5C5C5C" transform="matrix(1.00, 0.00, -0.00, -1.00, 892.7, 381.0)"> </text><text xml:space="preserve" font-family="IowanOldStyle-Roman" font-size="32.0" fill="#5C5C5C" transform="matrix(1.00, 0.00, -0.00, -1.00, 901.6, 381.0)">a</text><text xml:space="preserve" font-family="IowanOldStyle-Roman" font-size="32.0" fill="#5C5C5C" transform="matrix(1.00, 0.00, -0.00, -1.00, 917.0, 381.0)">n</text><text xml:space="preserve" font-family="IowanOldStyle-Roman" font-size="32.0" fill="#5C5C5C" transform="matrix(1.00, 0.00, -0.00, -1.00, 935.6, 381.0)">d</text><text xml:space="preserve" font-family="IowanOldStyle-Roman" font-size="32.0" fill="#5C5C5C" transform="matrix(1.00, 0.00, -0.00, -1.00, 953.6, 381.0)"> </text><text xml:space="preserve" font-family="IowanOldStyle-Roman" font-size="32.0" fill="#5C5C5C" transform="matrix(1.00, 0.00, -0.00, -1.00, 86.0, 337.0)">t</text><text xml:space="preserve" font-family="IowanOldStyle-Roman" font-size="32.0" fill="#5C5C5C" transform="matrix(1.00, 0.00, -0.00, -1.00, 97.5, 337.0)">h</text><text xml:space="preserve" font-family="IowanOldStyle-Roman" font-size="32.0" fill="#5C5C5C" transform="matrix(1.00, 0.00, -0.00, -1.00, 116.3, 337.0)">e</text><text xml:space="preserve" font-family="IowanOldStyle-Roman" font-size="32.0" fill="#5C5C5C" transform="matrix(1.00, 0.00, -0.00, -1.00, 131.9, 337.0)">n</text><text xml:space="preserve" font-family="IowanOldStyle-Roman" font-size="32.0" fill="#5C5C5C" transform="matrix(1.00, 0.00, -0.00, -1.00, 150.5, 337.0)"> </text><text xml:space="preserve" font-family="IowanOldStyle-Roman" font-size="32.0" fill="#5C5C5C" transform="matrix(1.00, 0.00, -0.00, -1.00, 159.4, 337.0)">c</text><text xml:space="preserve" font-family="IowanOldStyle-Roman" font-size="32.0" fill="#5C5C5C" transform="matrix(1.00, 0.00, -0.00, -1.00, 173.7, 337.0)">o</text><text xml:space="preserve" font-family="IowanOldStyle-Roman" font-size="32.0" fill="#5C5C5C" transform="matrix(1.00, 0.00, -0.00, -1.00, 191.3, 337.0)">n</text><text xml:space="preserve" font-family="IowanOldStyle-Roman" font-size="32.0" fill="#5C5C5C" transform="matrix(1.00, 0.00, -0.00, -1.00, 210.0, 337.0)">c</text><text xml:space="preserve" font-family="IowanOldStyle-Roman" font-size="32.0" fill="#5C5C5C" transform="matrix(1.00, 0.00, -0.00, -1.00, 224.3, 337.0)">a</text><text xml:space="preserve" font-family="IowanOldStyle-Roman" font-size="32.0" fill="#5C5C5C" transform="matrix(1.00, 0.00, -0.00, -1.00, 239.7, 337.0)">t</text><text xml:space="preserve" font-family="IowanOldStyle-Roman" font-size="32.0" fill="#5C5C5C" transform="matrix(1.00, 0.00, -0.00, -1.00, 251.2, 337.0)">e</text><text xml:space="preserve" font-family="IowanOldStyle-Roman" font-size="32.0" fill="#5C5C5C" transform="matrix(1.00, 0.00, -0.00, -1.00, 266.8, 337.0)">n</text><text xml:space="preserve" font-family="IowanOldStyle-Roman" font-size="32.0" fill="#5C5C5C" transform="matrix(1.00, 0.00, -0.00, -1.00, 285.5, 337.0)">a</text><text xml:space="preserve" font-family="IowanOldStyle-Roman" font-size="32.0" fill="#5C5C5C" transform="matrix(1.00, 0.00, -0.00, -1.00, 300.9, 337.0)">t</text><text xml:space="preserve" font-family="IowanOldStyle-Roman" font-size="32.0" fill="#5C5C5C" transform="matrix(1.00, 0.00, -0.00, -1.00, 312.4, 337.0)">e</text><text xml:space="preserve" font-family="IowanOldStyle-Roman" font-size="32.0" fill="#5C5C5C" transform="matrix(1.00, 0.00, -0.00, -1.00, 328.0, 337.0)">s</text><text xml:space="preserve" font-family="IowanOldStyle-Roman" font-size="32.0" fill="#5C5C5C" transform="matrix(1.00, 0.00, -0.00, -1.00, 342.2, 337.0)"> </text><text xml:space="preserve" font-family="IowanOldStyle-Roman" font-size="32.0" fill="#5C5C5C" transform="matrix(1.00, 0.00, -0.00, -1.00, 351.1, 337.0)">t</text><text xml:space="preserve" font-family="IowanOldStyle-Roman" font-size="32.0" fill="#5C5C5C" transform="matrix(1.00, 0.00, -0.00, -1.00, 362.6, 337.0)">h</text><text xml:space="preserve" font-family="IowanOldStyle-Roman" font-size="32.0" fill="#5C5C5C" transform="matrix(1.00, 0.00, -0.00, -1.00, 381.3, 337.0)">e</text><text xml:space="preserve" font-family="IowanOldStyle-Roman" font-size="32.0" fill="#5C5C5C" transform="matrix(1.00, 0.00, -0.00, -1.00, 396.9, 337.0)"> </text><text xml:space="preserve" font-family="IowanOldStyle-Roman" font-size="32.0" fill="#5C5C5C" transform="matrix(1.00, 0.00, -0.00, -1.00, 405.8, 337.0)">r</text><text xml:space="preserve" font-family="IowanOldStyle-Roman" font-size="32.0" fill="#5C5C5C" transform="matrix(1.00, 0.00, -0.00, -1.00, 418.3, 337.0)">e</text><text xml:space="preserve" font-family="IowanOldStyle-Roman" font-size="32.0" fill="#5C5C5C" transform="matrix(1.00, 0.00, -0.00, -1.00, 433.9, 337.0)">s</text><text xml:space="preserve" font-family="IowanOldStyle-Roman" font-size="32.0" fill="#5C5C5C" transform="matrix(1.00, 0.00, -0.00, -1.00, 448.1, 337.0)">u</text><text xml:space="preserve" font-family="IowanOldStyle-Roman" font-size="32.0" fill="#5C5C5C" transform="matrix(1.00, 0.00, -0.00, -1.00, 466.9, 337.0)">l</text><text xml:space="preserve" font-family="IowanOldStyle-Roman" font-size="32.0" fill="#5C5C5C" transform="matrix(1.00, 0.00, -0.00, -1.00, 476.2, 337.0)">t</text><text xml:space="preserve" font-family="IowanOldStyle-Roman" font-size="32.0" fill="#5C5C5C" transform="matrix(1.00, 0.00, -0.00, -1.00, 487.7, 337.0)">s</text><text xml:space="preserve" font-family="IowanOldStyle-Roman" font-size="32.0" fill="#5C5C5C" transform="matrix(1.00, 0.00, -0.00, -1.00, 501.9, 337.0)"> </text><text xml:space="preserve" font-family="IowanOldStyle-Roman" font-size="32.0" fill="#5C5C5C" transform="matrix(1.00, 0.00, -0.00, -1.00, 510.8, 337.0)">b</text><text xml:space="preserve" font-family="IowanOldStyle-Roman" font-size="32.0" fill="#5C5C5C" transform="matrix(1.00, 0.00, -0.00, -1.00, 528.6, 337.0)">a</text><text xml:space="preserve" font-family="IowanOldStyle-Roman" font-size="32.0" fill="#5C5C5C" transform="matrix(1.00, 0.00, -0.00, -1.00, 544.0, 337.0)">c</text><text xml:space="preserve" font-family="IowanOldStyle-Roman" font-size="32.0" fill="#5C5C5C" transform="matrix(1.00, 0.00, -0.00, -1.00, 558.3, 337.0)">k</text><text xml:space="preserve" font-family="IowanOldStyle-Roman" font-size="32.0" fill="#5C5C5C" transform="matrix(1.00, 0.00, -0.00, -1.00, 575.7, 337.0)"> </text><text xml:space="preserve" font-family="IowanOldStyle-Roman" font-size="32.0" fill="#5C5C5C" transform="matrix(1.00, 0.00, -0.00, -1.00, 584.6, 337.0)">t</text><text xml:space="preserve" font-family="IowanOldStyle-Roman" font-size="32.0" fill="#5C5C5C" transform="matrix(1.00, 0.00, -0.00, -1.00, 596.1, 337.0)">o</text><text xml:space="preserve" font-family="IowanOldStyle-Roman" font-size="32.0" fill="#5C5C5C" transform="matrix(1.00, 0.00, -0.00, -1.00, 613.8, 337.0)">g</text><text xml:space="preserve" font-family="IowanOldStyle-Roman" font-size="32.0" fill="#5C5C5C" transform="matrix(1.00, 0.00, -0.00, -1.00, 630.3, 337.0)">e</text><text xml:space="preserve" font-family="IowanOldStyle-Roman" font-size="32.0" fill="#5C5C5C" transform="matrix(1.00, 0.00, -0.00, -1.00, 645.9, 337.0)">t</text><text xml:space="preserve" font-family="IowanOldStyle-Roman" font-size="32.0" fill="#5C5C5C" transform="matrix(1.00, 0.00, -0.00, -1.00, 657.4, 337.0)">h</text><text xml:space="preserve" font-family="IowanOldStyle-Roman" font-size="32.0" fill="#5C5C5C" transform="matrix(1.00, 0.00, -0.00, -1.00, 676.1, 337.0)">e</text><text xml:space="preserve" font-family="IowanOldStyle-Roman" font-size="32.0" fill="#5C5C5C" transform="matrix(1.00, 0.00, -0.00, -1.00, 691.7, 337.0)">r</text><text xml:space="preserve" font-family="IowanOldStyle-Roman" font-size="32.0" fill="#5C5C5C" transform="matrix(1.00, 0.00, -0.00, -1.00, 701.6, 337.0)">.</text></g></svg>