<?xml version="1.0" encoding="UTF-8" standalone="no"?><svg xmlns="http://www.w3.org/2000/svg" xmlns:xlink="http://www.w3.org/1999/xlink" clip-rule="evenodd" stroke-miterlimit="4.00" viewBox="0 0 1024 768"><desc>SVG generated by Keynote</desc><defs></defs><g transform="matrix(1.00, 0.00, -0.00, -1.00, 0.0, 768.0)"><path d="M 0.0 768.0 L 1024.0 768.0 L 1024.0 0.0 L 0.0 0.0 Z M 0.0 768.0 " fill="#FFFFFF"></path><path d="M 0.0 0.0 L 934.0 0.0 " fill="none" stroke="#747676" stroke-width="3.00" stroke-linecap="round" stroke-linejoin="round" stroke-dasharray="0.0, 9.0" transform="matrix(1.00, 0.00, 0.00, -1.00, 45.0, 644.0)"></path><text xml:space="preserve" font-family="DINCondensed-Bold" font-weight="bold" font-size="48.4" fill="#747676" transform="matrix(1.00, 0.00, -0.00, -1.00, 49.0, 673.0)">C</text><text xml:space="preserve" font-family="DINCondensed-Bold" font-weight="bold" font-size="48.4" fill="#747676" transform="matrix(1.00, 0.00, -0.00, -1.00, 68.7, 673.0)">L</text><text xml:space="preserve" font-family="DINCondensed-Bold" font-weight="bold" font-size="48.4" fill="#747676" transform="matrix(1.00, 0.00, -0.00, -1.00, 86.6, 673.0)">A</text><text xml:space="preserve" font-family="DINCondensed-Bold" font-weight="bold" font-size="48.4" fill="#747676" transform="matrix(1.00, 0.00, -0.00, -1.00, 106.3, 673.0)">S</text><text xml:space="preserve" font-family="DINCondensed-Bold" font-weight="bold" font-size="48.4" fill="#747676" transform="matrix(1.00, 0.00, -0.00, -1.00, 125.9, 673.0)">S</text><text xml:space="preserve" font-family="DINCondensed-Bold" font-weight="bold" font-size="48.4" fill="#747676" transform="matrix(1.00, 0.00, -0.00, -1.00, 145.5, 673.0)">E</text><text xml:space="preserve" font-family="DINCondensed-Bold" font-weight="bold" font-size="48.4" fill="#747676" transform="matrix(1.00, 0.00, -0.00, -1.00, 163.4, 673.0)">S</text><text xml:space="preserve" font-family="ZapfDingbatsITC" font-size="24.0" fill="#5C5C5C" transform="matrix(1.00, 0.00, -0.00, -1.00, 49.0, 592.2)">➤</text><text xml:space="preserve" font-family="IowanOldStyle-Roman" font-size="32.0" fill="#5C5C5C" transform="matrix(1.00, 0.00, -0.00, -1.00, 86.0, 589.0)">T</text><text xml:space="preserve" font-family="IowanOldStyle-Roman" font-size="32.0" fill="#5C5C5C" transform="matrix(1.00, 0.00, -0.00, -1.00, 106.2, 589.0)">h</text><text xml:space="preserve" font-family="IowanOldStyle-Roman" font-size="32.0" fill="#5C5C5C" transform="matrix(1.00, 0.00, -0.00, -1.00, 124.9, 589.0)">e</text><text xml:space="preserve" font-family="IowanOldStyle-Roman" font-size="32.0" fill="#5C5C5C" transform="matrix(1.00, 0.00, -0.00, -1.00, 140.5, 589.0)">r</text><text xml:space="preserve" font-family="IowanOldStyle-Roman" font-size="32.0" fill="#5C5C5C" transform="matrix(1.00, 0.00, -0.00, -1.00, 153.0, 589.0)">e</text><text xml:space="preserve" font-family="IowanOldStyle-Roman" font-size="32.0" fill="#5C5C5C" transform="matrix(1.00, 0.00, -0.00, -1.00, 168.6, 589.0)">’</text><text xml:space="preserve" font-family="IowanOldStyle-Roman" font-size="32.0" fill="#5C5C5C" transform="matrix(1.00, 0.00, -0.00, -1.00, 177.5, 589.0)">s</text><text xml:space="preserve" font-family="IowanOldStyle-Roman" font-size="32.0" fill="#5C5C5C" transform="matrix(1.00, 0.00, -0.00, -1.00, 191.7, 589.0)"> </text><text xml:space="preserve" font-family="IowanOldStyle-Roman" font-size="32.0" fill="#5C5C5C" transform="matrix(1.00, 0.00, -0.00, -1.00, 200.6, 589.0)">m</text><text xml:space="preserve" font-family="IowanOldStyle-Roman" font-size="32.0" fill="#5C5C5C" transform="matrix(1.00, 0.00, -0.00, -1.00, 228.7, 589.0)">o</text><text xml:space="preserve" font-family="IowanOldStyle-Roman" font-size="32.0" fill="#5C5C5C" transform="matrix(1.00, 0.00, -0.00, -1.00, 246.3, 589.0)">r</text><text xml:space="preserve" font-family="IowanOldStyle-Roman" font-size="32.0" fill="#5C5C5C" transform="matrix(1.00, 0.00, -0.00, -1.00, 258.8, 589.0)">e</text><text xml:space="preserve" font-family="IowanOldStyle-Roman" font-size="32.0" fill="#5C5C5C" transform="matrix(1.00, 0.00, -0.00, -1.00, 274.4, 589.0)"> </text><text xml:space="preserve" font-family="IowanOldStyle-Roman" font-size="32.0" fill="#5C5C5C" transform="matrix(1.00, 0.00, -0.00, -1.00, 283.3, 589.0)">t</text><text xml:space="preserve" font-family="IowanOldStyle-Roman" font-size="32.0" fill="#5C5C5C" transform="matrix(1.00, 0.00, -0.00, -1.00, 294.8, 589.0)">o</text><text xml:space="preserve" font-family="IowanOldStyle-Roman" font-size="32.0" fill="#5C5C5C" transform="matrix(1.00, 0.00, -0.00, -1.00, 312.4, 589.0)"> </text><text xml:space="preserve" font-family="IowanOldStyle-Roman" font-size="32.0" fill="#5C5C5C" transform="matrix(1.00, 0.00, -0.00, -1.00, 321.3, 589.0)">c</text><text xml:space="preserve" font-family="IowanOldStyle-Roman" font-size="32.0" fill="#5C5C5C" transform="matrix(1.00, 0.00, -0.00, -1.00, 335.6, 589.0)">l</text><text xml:space="preserve" font-family="IowanOldStyle-Roman" font-size="32.0" fill="#5C5C5C" transform="matrix(1.00, 0.00, -0.00, -1.00, 345.0, 589.0)">a</text><text xml:space="preserve" font-family="IowanOldStyle-Roman" font-size="32.0" fill="#5C5C5C" transform="matrix(1.00, 0.00, -0.00, -1.00, 360.3, 589.0)">s</text><text xml:space="preserve" font-family="IowanOldStyle-Roman" font-size="32.0" fill="#5C5C5C" transform="matrix(1.00, 0.00, -0.00, -1.00, 374.5, 589.0)">s</text><text xml:space="preserve" font-family="IowanOldStyle-Roman" font-size="32.0" fill="#5C5C5C" transform="matrix(1.00, 0.00, -0.00, -1.00, 388.7, 589.0)">e</text><text xml:space="preserve" font-family="IowanOldStyle-Roman" font-size="32.0" fill="#5C5C5C" transform="matrix(1.00, 0.00, -0.00, -1.00, 404.3, 589.0)">s</text><text xml:space="preserve" font-family="IowanOldStyle-Roman" font-size="32.0" fill="#5C5C5C" transform="matrix(1.00, 0.00, -0.00, -1.00, 418.5, 589.0)">,</text><text xml:space="preserve" font-family="IowanOldStyle-Roman" font-size="32.0" fill="#5C5C5C" transform="matrix(1.00, 0.00, -0.00, -1.00, 427.3, 589.0)"> </text><text xml:space="preserve" font-family="IowanOldStyle-Roman" font-size="32.0" fill="#5C5C5C" transform="matrix(1.00, 0.00, -0.00, -1.00, 436.2, 589.0)">b</text><text xml:space="preserve" font-family="IowanOldStyle-Roman" font-size="32.0" fill="#5C5C5C" transform="matrix(1.00, 0.00, -0.00, -1.00, 454.0, 589.0)">u</text><text xml:space="preserve" font-family="IowanOldStyle-Roman" font-size="32.0" fill="#5C5C5C" transform="matrix(1.00, 0.00, -0.00, -1.00, 472.8, 589.0)">t</text><text xml:space="preserve" font-family="IowanOldStyle-Roman" font-size="32.0" fill="#5C5C5C" transform="matrix(1.00, 0.00, -0.00, -1.00, 484.4, 589.0)"> </text><text xml:space="preserve" font-family="IowanOldStyle-Roman" font-size="32.0" fill="#5C5C5C" transform="matrix(1.00, 0.00, -0.00, -1.00, 493.2, 589.0)">w</text><text xml:space="preserve" font-family="IowanOldStyle-Roman" font-size="32.0" fill="#5C5C5C" transform="matrix(1.00, 0.00, -0.00, -1.00, 518.0, 589.0)">e</text><text xml:space="preserve" font-family="IowanOldStyle-Roman" font-size="32.0" fill="#5C5C5C" transform="matrix(1.00, 0.00, -0.00, -1.00, 533.6, 589.0)"> </text><text xml:space="preserve" font-family="IowanOldStyle-Roman" font-size="32.0" fill="#5C5C5C" transform="matrix(1.00, 0.00, -0.00, -1.00, 542.5, 589.0)">c</text><text xml:space="preserve" font-family="IowanOldStyle-Roman" font-size="32.0" fill="#5C5C5C" transform="matrix(1.00, 0.00, -0.00, -1.00, 556.8, 589.0)">o</text><text xml:space="preserve" font-family="IowanOldStyle-Roman" font-size="32.0" fill="#5C5C5C" transform="matrix(1.00, 0.00, -0.00, -1.00, 574.4, 589.0)">v</text><text xml:space="preserve" font-family="IowanOldStyle-Roman" font-size="32.0" fill="#5C5C5C" transform="matrix(1.00, 0.00, -0.00, -1.00, 590.2, 589.0)">e</text><text xml:space="preserve" font-family="IowanOldStyle-Roman" font-size="32.0" fill="#5C5C5C" transform="matrix(1.00, 0.00, -0.00, -1.00, 605.8, 589.0)">r</text><text xml:space="preserve" font-family="IowanOldStyle-Roman" font-size="32.0" fill="#5C5C5C" transform="matrix(1.00, 0.00, -0.00, -1.00, 618.2, 589.0)">e</text><text xml:space="preserve" font-family="IowanOldStyle-Roman" font-size="32.0" fill="#5C5C5C" transform="matrix(1.00, 0.00, -0.00, -1.00, 633.8, 589.0)">d</text><text xml:space="preserve" font-family="IowanOldStyle-Roman" font-size="32.0" fill="#5C5C5C" transform="matrix(1.00, 0.00, -0.00, -1.00, 651.8, 589.0)"> </text><text xml:space="preserve" font-family="IowanOldStyle-Roman" font-size="32.0" fill="#5C5C5C" transform="matrix(1.00, 0.00, -0.00, -1.00, 660.7, 589.0)">t</text><text xml:space="preserve" font-family="IowanOldStyle-Roman" font-size="32.0" fill="#5C5C5C" transform="matrix(1.00, 0.00, -0.00, -1.00, 672.2, 589.0)">h</text><text xml:space="preserve" font-family="IowanOldStyle-Roman" font-size="32.0" fill="#5C5C5C" transform="matrix(1.00, 0.00, -0.00, -1.00, 691.0, 589.0)">e</text><text xml:space="preserve" font-family="IowanOldStyle-Roman" font-size="32.0" fill="#5C5C5C" transform="matrix(1.00, 0.00, -0.00, -1.00, 706.6, 589.0)"> </text><text xml:space="preserve" font-family="IowanOldStyle-Roman" font-size="32.0" fill="#5C5C5C" transform="matrix(1.00, 0.00, -0.00, -1.00, 715.5, 589.0)">k</text><text xml:space="preserve" font-family="IowanOldStyle-Roman" font-size="32.0" fill="#5C5C5C" transform="matrix(1.00, 0.00, -0.00, -1.00, 731.9, 589.0)">e</text><text xml:space="preserve" font-family="IowanOldStyle-Roman" font-size="32.0" fill="#5C5C5C" transform="matrix(1.00, 0.00, -0.00, -1.00, 747.5, 589.0)">y</text><text xml:space="preserve" font-family="IowanOldStyle-Roman" font-size="32.0" fill="#5C5C5C" transform="matrix(1.00, 0.00, -0.00, -1.00, 763.1, 589.0)"> </text><text xml:space="preserve" font-family="IowanOldStyle-Roman" font-size="32.0" fill="#5C5C5C" transform="matrix(1.00, 0.00, -0.00, -1.00, 772.0, 589.0)">c</text><text xml:space="preserve" font-family="IowanOldStyle-Roman" font-size="32.0" fill="#5C5C5C" transform="matrix(1.00, 0.00, -0.00, -1.00, 786.3, 589.0)">o</text><text xml:space="preserve" font-family="IowanOldStyle-Roman" font-size="32.0" fill="#5C5C5C" transform="matrix(1.00, 0.00, -0.00, -1.00, 803.9, 589.0)">n</text><text xml:space="preserve" font-family="IowanOldStyle-Roman" font-size="32.0" fill="#5C5C5C" transform="matrix(1.00, 0.00, -0.00, -1.00, 822.6, 589.0)">s</text><text xml:space="preserve" font-family="IowanOldStyle-Roman" font-size="32.0" fill="#5C5C5C" transform="matrix(1.00, 0.00, -0.00, -1.00, 836.7, 589.0)">t</text><text xml:space="preserve" font-family="IowanOldStyle-Roman" font-size="32.0" fill="#5C5C5C" transform="matrix(1.00, 0.00, -0.00, -1.00, 848.2, 589.0)">r</text><text xml:space="preserve" font-family="IowanOldStyle-Roman" font-size="32.0" fill="#5C5C5C" transform="matrix(1.00, 0.00, -0.00, -1.00, 860.7, 589.0)">u</text><text xml:space="preserve" font-family="IowanOldStyle-Roman" font-size="32.0" fill="#5C5C5C" transform="matrix(1.00, 0.00, -0.00, -1.00, 879.5, 589.0)">c</text><text xml:space="preserve" font-family="IowanOldStyle-Roman" font-size="32.0" fill="#5C5C5C" transform="matrix(1.00, 0.00, -0.00, -1.00, 893.8, 589.0)">t</text><text xml:space="preserve" font-family="IowanOldStyle-Roman" font-size="32.0" fill="#5C5C5C" transform="matrix(1.00, 0.00, -0.00, -1.00, 905.3, 589.0)">s</text><text xml:space="preserve" font-family="IowanOldStyle-Roman" font-size="32.0" fill="#5C5C5C" transform="matrix(1.00, 0.00, -0.00, -1.00, 919.5, 589.0)"> </text><text xml:space="preserve" font-family="ZapfDingbatsITC" font-size="24.0" fill="#5C5C5C" transform="matrix(1.00, 0.00, -0.00, -1.00, 49.0, 468.2)">➤</text><text xml:space="preserve" font-family="IowanOldStyle-Roman" font-size="32.0" fill="#5C5C5C" transform="matrix(1.00, 0.00, -0.00, -1.00, 86.0, 465.0)">A</text><text xml:space="preserve" font-family="IowanOldStyle-Roman" font-size="32.0" fill="#5C5C5C" transform="matrix(1.00, 0.00, -0.00, -1.00, 109.1, 465.0)">n</text><text xml:space="preserve" font-family="IowanOldStyle-Roman" font-size="32.0" fill="#5C5C5C" transform="matrix(1.00, 0.00, -0.00, -1.00, 127.8, 465.0)">y</text><text xml:space="preserve" font-family="IowanOldStyle-Roman" font-size="32.0" fill="#5C5C5C" transform="matrix(1.00, 0.00, -0.00, -1.00, 143.3, 465.0)"> </text><text xml:space="preserve" font-family="IowanOldStyle-Roman" font-size="32.0" fill="#5C5C5C" transform="matrix(1.00, 0.00, -0.00, -1.00, 152.2, 465.0)">q</text><text xml:space="preserve" font-family="IowanOldStyle-Roman" font-size="32.0" fill="#5C5C5C" transform="matrix(1.00, 0.00, -0.00, -1.00, 170.1, 465.0)">u</text><text xml:space="preserve" font-family="IowanOldStyle-Roman" font-size="32.0" fill="#5C5C5C" transform="matrix(1.00, 0.00, -0.00, -1.00, 188.9, 465.0)">e</text><text xml:space="preserve" font-family="IowanOldStyle-Roman" font-size="32.0" fill="#5C5C5C" transform="matrix(1.00, 0.00, -0.00, -1.00, 204.5, 465.0)">s</text><text xml:space="preserve" font-family="IowanOldStyle-Roman" font-size="32.0" fill="#5C5C5C" transform="matrix(1.00, 0.00, -0.00, -1.00, 218.7, 465.0)">t</text><text xml:space="preserve" font-family="IowanOldStyle-Roman" font-size="32.0" fill="#5C5C5C" transform="matrix(1.00, 0.00, -0.00, -1.00, 230.2, 465.0)">i</text><text xml:space="preserve" font-family="IowanOldStyle-Roman" font-size="32.0" fill="#5C5C5C" transform="matrix(1.00, 0.00, -0.00, -1.00, 239.7, 465.0)">o</text><text xml:space="preserve" font-family="IowanOldStyle-Roman" font-size="32.0" fill="#5C5C5C" transform="matrix(1.00, 0.00, -0.00, -1.00, 257.3, 465.0)">n</text><text xml:space="preserve" font-family="IowanOldStyle-Roman" font-size="32.0" fill="#5C5C5C" transform="matrix(1.00, 0.00, -0.00, -1.00, 276.0, 465.0)">s</text><text xml:space="preserve" font-family="IowanOldStyle-Roman" font-size="32.0" fill="#5C5C5C" transform="matrix(1.00, 0.00, -0.00, -1.00, 290.2, 465.0)">?</text><text xml:space="preserve" font-family="IowanOldStyle-Roman" font-size="32.0" fill="#5C5C5C" transform="matrix(1.00, 0.00, -0.00, -1.00, 305.2, 465.0)"> </text><text xml:space="preserve" font-family="ZapfDingbatsITC" font-size="24.0" fill="#5C5C5C" transform="matrix(1.00, 0.00, -0.00, -1.00, 49.0, 220.2)">➤</text><text xml:space="preserve" font-family="IowanOldStyle-Roman" font-size="32.0" fill="#5C5C5C" transform="matrix(1.00, 0.00, -0.00, -1.00, 86.0, 217.0)">N</text><text xml:space="preserve" font-family="IowanOldStyle-Roman" font-size="32.0" fill="#5C5C5C" transform="matrix(1.00, 0.00, -0.00, -1.00, 111.9, 217.0)">e</text><text xml:space="preserve" font-family="IowanOldStyle-Roman" font-size="32.0" fill="#5C5C5C" transform="matrix(1.00, 0.00, -0.00, -1.00, 126.9, 217.0)">x</text><text xml:space="preserve" font-family="IowanOldStyle-Roman" font-size="32.0" fill="#5C5C5C" transform="matrix(1.00, 0.00, -0.00, -1.00, 143.8, 217.0)">t</text><text xml:space="preserve" font-family="IowanOldStyle-Roman" font-size="32.0" fill="#5C5C5C" transform="matrix(1.00, 0.00, -0.00, -1.00, 155.4, 217.0)"> </text><text xml:space="preserve" font-family="IowanOldStyle-Roman" font-size="32.0" fill="#5C5C5C" transform="matrix(1.00, 0.00, -0.00, -1.00, 164.2, 217.0)">u</text><text xml:space="preserve" font-family="IowanOldStyle-Roman" font-size="32.0" fill="#5C5C5C" transform="matrix(1.00, 0.00, -0.00, -1.00, 183.1, 217.0)">p</text><text xml:space="preserve" font-family="IowanOldStyle-Roman" font-size="32.0" fill="#5C5C5C" transform="matrix(1.00, 0.00, -0.00, -1.00, 201.0, 217.0)">…</text><text xml:space="preserve" font-family="IowanOldStyle-Roman" font-size="32.0" fill="#5C5C5C" transform="matrix(1.00, 0.00, -0.00, -1.00, 233.0, 217.0)">.</text><text xml:space="preserve" font-family="IowanOldStyle-Roman" font-size="32.0" fill="#5C5C5C" transform="matrix(1.00, 0.00, -0.00, -1.00, 241.9, 217.0)"> </text><text xml:space="preserve" font-family="IowanOldStyle-Roman" font-size="32.0" fill="#5C5C5C" transform="matrix(1.00, 0.00, -0.00, -1.00, 250.7, 217.0)">t</text><text xml:space="preserve" font-family="IowanOldStyle-Roman" font-size="32.0" fill="#5C5C5C" transform="matrix(1.00, 0.00, -0.00, -1.00, 262.3, 217.0)">r</text><text xml:space="preserve" font-family="IowanOldStyle-Roman" font-size="32.0" fill="#5C5C5C" transform="matrix(1.00, 0.00, -0.00, -1.00, 274.7, 217.0)">a</text><text xml:space="preserve" font-family="IowanOldStyle-Roman" font-size="32.0" fill="#5C5C5C" transform="matrix(1.00, 0.00, -0.00, -1.00, 290.1, 217.0)">i</text><text xml:space="preserve" font-family="IowanOldStyle-Roman" font-size="32.0" fill="#5C5C5C" transform="matrix(1.00, 0.00, -0.00, -1.00, 299.6, 217.0)">t</text><text xml:space="preserve" font-family="IowanOldStyle-Roman" font-size="32.0" fill="#5C5C5C" transform="matrix(1.00, 0.00, -0.00, -1.00, 311.1, 217.0)">s</text></g></svg>