<?xml version="1.0" encoding="UTF-8" standalone="no"?><svg xmlns="http://www.w3.org/2000/svg" xmlns:xlink="http://www.w3.org/1999/xlink" clip-rule="evenodd" stroke-miterlimit="4.00" viewBox="0 0 1024 768"><desc>SVG generated by Keynote</desc><defs></defs><g transform="matrix(1.00, 0.00, -0.00, -1.00, 0.0, 768.0)"><path d="M 0.0 768.0 L 1024.0 768.0 L 1024.0 0.0 L 0.0 0.0 Z M 0.0 768.0 " fill="#FFFFFF"></path><g><clipPath id="clip-111"><path d="M 593.0 768.0 L 1024.0 768.0 L 1024.0 0.0 L 593.0 0.0 Z M 593.0 768.0 "></path></clipPath><g clip-path="url(#clip-111)"><image xlink:href="C9C45D50B2E7D68C0E9AAA86DD9F4E44.jpeg" width="769.00" height="769.00" transform="matrix(1.00, 0.00, -0.00, -1.00, 330.0, 769.0)"></image></g></g><path d="M 0.0 0.0 L 508.0 0.0 " fill="none" stroke="#747676" stroke-width="3.00" stroke-linecap="round" stroke-linejoin="round" stroke-dasharray="0.0, 9.0" transform="matrix(1.00, 0.00, 0.00, -1.00, 45.0, 168.0)"></path><text xml:space="preserve" font-family="DINCondensed-Bold" font-weight="bold" font-size="121.0" fill="#5C5C5C" transform="matrix(1.00, 0.00, -0.00, -1.00, 307.4, 315.0)">S</text><text xml:space="preserve" font-family="DINCondensed-Bold" font-weight="bold" font-size="121.0" fill="#5C5C5C" transform="matrix(1.00, 0.00, -0.00, -1.00, 356.5, 315.0)">C</text><text xml:space="preserve" font-family="DINCondensed-Bold" font-weight="bold" font-size="121.0" fill="#5C5C5C" transform="matrix(1.00, 0.00, -0.00, -1.00, 405.7, 315.0)">A</text><text xml:space="preserve" font-family="DINCondensed-Bold" font-weight="bold" font-size="121.0" fill="#5C5C5C" transform="matrix(1.00, 0.00, -0.00, -1.00, 455.0, 315.0)">L</text><text xml:space="preserve" font-family="DINCondensed-Bold" font-weight="bold" font-size="121.0" fill="#5C5C5C" transform="matrix(1.00, 0.00, -0.00, -1.00, 499.8, 315.0)">A</text><text xml:space="preserve" font-family="DINCondensed-Bold" font-weight="bold" font-size="121.0" fill="#5C5C5C" transform="matrix(1.00, 0.00, -0.00, -1.00, 549.0, 315.0)"> </text><text xml:space="preserve" font-family="DINCondensed-Bold" font-weight="bold" font-size="121.0" fill="#5C5C5C" transform="matrix(1.00, 0.00, -0.00, -1.00, 180.9, 194.2)">P</text><text xml:space="preserve" font-family="DINCondensed-Bold" font-weight="bold" font-size="121.0" fill="#5C5C5C" transform="matrix(1.00, 0.00, -0.00, -1.00, 225.7, 194.2)">A</text><text xml:space="preserve" font-family="DINCondensed-Bold" font-weight="bold" font-size="121.0" fill="#5C5C5C" transform="matrix(1.00, 0.00, -0.00, -1.00, 274.9, 194.2)">R</text><text xml:space="preserve" font-family="DINCondensed-Bold" font-weight="bold" font-size="121.0" fill="#5C5C5C" transform="matrix(1.00, 0.00, -0.00, -1.00, 324.3, 194.2)">T</text><text xml:space="preserve" font-family="DINCondensed-Bold" font-weight="bold" font-size="121.0" fill="#5C5C5C" transform="matrix(1.00, 0.00, -0.00, -1.00, 364.5, 194.2)"> </text><text xml:space="preserve" font-family="DINCondensed-Bold" font-weight="bold" font-size="121.0" fill="#5C5C5C" transform="matrix(1.00, 0.00, -0.00, -1.00, 387.0, 194.2)">T</text><text xml:space="preserve" font-family="DINCondensed-Bold" font-weight="bold" font-size="121.0" fill="#5C5C5C" transform="matrix(1.00, 0.00, -0.00, -1.00, 427.2, 194.2)">W</text><text xml:space="preserve" font-family="DINCondensed-Bold" font-weight="bold" font-size="121.0" fill="#5C5C5C" transform="matrix(1.00, 0.00, -0.00, -1.00, 497.5, 194.2)">O</text><text xml:space="preserve" font-family="IowanOldStyle-Italic" font-style="italic" font-size="48.0" fill="#737575" transform="matrix(1.00, 0.00, -0.00, -1.00, 221.6, 109.8)">B</text><text xml:space="preserve" font-family="IowanOldStyle-Italic" font-style="italic" font-size="48.0" fill="#737575" transform="matrix(1.00, 0.00, -0.00, -1.00, 250.6, 109.8)">e</text><text xml:space="preserve" font-family="IowanOldStyle-Italic" font-style="italic" font-size="48.0" fill="#737575" transform="matrix(1.00, 0.00, -0.00, -1.00, 268.8, 109.8)">y</text><text xml:space="preserve" font-family="IowanOldStyle-Italic" font-style="italic" font-size="48.0" fill="#737575" transform="matrix(1.00, 0.00, -0.00, -1.00, 290.0, 109.8)">o</text><text xml:space="preserve" font-family="IowanOldStyle-Italic" font-style="italic" font-size="48.0" fill="#737575" transform="matrix(1.00, 0.00, -0.00, -1.00, 311.8, 109.8)">n</text><text xml:space="preserve" font-family="IowanOldStyle-Italic" font-style="italic" font-size="48.0" fill="#737575" transform="matrix(1.00, 0.00, -0.00, -1.00, 336.1, 109.8)">d</text><text xml:space="preserve" font-family="IowanOldStyle-Italic" font-style="italic" font-size="48.0" fill="#737575" transform="matrix(1.00, 0.00, -0.00, -1.00, 359.4, 109.8)"> </text><text xml:space="preserve" font-family="IowanOldStyle-Italic" font-style="italic" font-size="48.0" fill="#737575" transform="matrix(1.00, 0.00, -0.00, -1.00, 370.0, 109.8)">t</text><text xml:space="preserve" font-family="IowanOldStyle-Italic" font-style="italic" font-size="48.0" fill="#737575" transform="matrix(1.00, 0.00, -0.00, -1.00, 386.2, 109.8)">h</text><text xml:space="preserve" font-family="IowanOldStyle-Italic" font-style="italic" font-size="48.0" fill="#737575" transform="matrix(1.00, 0.00, -0.00, -1.00, 410.1, 109.8)">e</text><text xml:space="preserve" font-family="IowanOldStyle-Italic" font-style="italic" font-size="48.0" fill="#737575" transform="matrix(1.00, 0.00, -0.00, -1.00, 428.4, 109.8)"> </text><text xml:space="preserve" font-family="IowanOldStyle-Italic" font-style="italic" font-size="48.0" fill="#737575" transform="matrix(1.00, 0.00, -0.00, -1.00, 438.9, 109.8)">b</text><text xml:space="preserve" font-family="IowanOldStyle-Italic" font-style="italic" font-size="48.0" fill="#737575" transform="matrix(1.00, 0.00, -0.00, -1.00, 461.7, 109.8)">a</text><text xml:space="preserve" font-family="IowanOldStyle-Italic" font-style="italic" font-size="48.0" fill="#737575" transform="matrix(1.00, 0.00, -0.00, -1.00, 484.4, 109.8)">s</text><text xml:space="preserve" font-family="IowanOldStyle-Italic" font-style="italic" font-size="48.0" fill="#737575" transform="matrix(1.00, 0.00, -0.00, -1.00, 501.5, 109.8)">i</text><text xml:space="preserve" font-family="IowanOldStyle-Italic" font-style="italic" font-size="48.0" fill="#737575" transform="matrix(1.00, 0.00, -0.00, -1.00, 514.6, 109.8)">c</text><text xml:space="preserve" font-family="IowanOldStyle-Italic" font-style="italic" font-size="48.0" fill="#737575" transform="matrix(1.00, 0.00, -0.00, -1.00, 532.0, 109.8)">s</text></g></svg>