<?xml version="1.0" encoding="UTF-8" standalone="no"?>
<!DOCTYPE svg PUBLIC "-//W3C//DTD SVG 1.0//EN" "http://www.w3.org/TR/2001/REC-SVG-20010904/DTD/svg10.dtd">
<!-- Generated by Microsoft Visio 11.0, SVG Export, v1.0 in-memory.svg Page-1 -->
<svg xmlns="http://www.w3.org/2000/svg" xmlns:xlink="http://www.w3.org/1999/xlink" xmlns:ev="http://www.w3.org/2001/xml-events"
		xmlns:v="http://schemas.microsoft.com/visio/2003/SVGExtensions/" width="9.76389in" height="4.63889in" viewBox="0 0 703 334"
		xml:space="preserve" color-interpolation-filters="sRGB" class="st17">
	<v:documentProperties v:langID="1033" v:viewMarkup="false">
		<v:userDefs>
			<v:ud v:nameU="msvNoAutoConnect" v:val="VT0(0):26"/>
		</v:userDefs>
	</v:documentProperties>

	<style type="text/css">
	<![CDATA[
		.st1 {fill:#eff2e6;stroke:#404040;stroke-linecap:round;stroke-linejoin:round;stroke-width:0.25}
		.st2 {fill:#000000;font-family:Courier New;font-size:1.00001em;font-weight:bold}
		.st3 {fill:#fae9dc;stroke:#404040;stroke-linecap:round;stroke-linejoin:round;stroke-width:0.25}
		.st4 {fill:#e1ebf3;stroke:#404040;stroke-linecap:round;stroke-linejoin:round;stroke-width:0.25}
		.st5 {fill:#e7e3ee;stroke:#404040;stroke-linecap:round;stroke-linejoin:round;stroke-width:0.25}
		.st6 {fill:url(#grad38-52)}
		.st7 {stroke:#404040;stroke-linecap:round;stroke-linejoin:round;stroke-width:0.75}
		.st8 {fill:#000000;font-family:Courier New;font-size:1.5em}
		.st9 {font-size:1em}
		.st10 {visibility:visible}
		.st11 {fill:#cdcdcd;fill-opacity:0.5}
		.st12 {stroke:#cdcdcd;stroke-linecap:round;stroke-linejoin:round;stroke-opacity:0.5;stroke-width:0.25}
		.st13 {fill:url(#grad30-64)}
		.st14 {stroke:#404040;stroke-linecap:round;stroke-linejoin:round;stroke-width:0.25}
		.st15 {marker-end:url(#mrkr5-84);stroke:#404040;stroke-linecap:round;stroke-linejoin:round;stroke-width:1}
		.st16 {fill:#404040;fill-opacity:1;stroke:#404040;stroke-opacity:1;stroke-width:0.28409090909091}
		.st17 {fill:none;fill-rule:evenodd;font-size:12px;overflow:visible;stroke-linecap:square;stroke-miterlimit:3}
	]]>
	</style>

	<defs id="Patterns_And_Gradients">
		<radialGradient id="grad38-52" v:fillPattern="38" v:foreground="#f0f0f0" v:background="#cb6015" cx="0" cy="1" r="1">
			<stop offset="0" style="stop-color:#f0f0f0;stop-opacity:1"/>
			<stop offset="1" style="stop-color:#cb6015;stop-opacity:1"/>
		</radialGradient>
		<linearGradient id="grad30-64" v:fillPattern="30" v:foreground="#f0f0f0" v:background="#ffffff" x1="0" y1="1" x2="0" y2="0">
			<stop offset="0" style="stop-color:#f0f0f0;stop-opacity:1"/>
			<stop offset="1" style="stop-color:#ffffff;stop-opacity:1"/>
		</linearGradient>
	</defs>
	<defs id="Markers">
		<g id="lend5">
			<path d="M 2 1 L 0 0 L 1.98117 -0.993387 C 1.67173 -0.364515 1.67301 0.372641 1.98465 1.00043 " style="stroke:none"/>
		</g>
		<marker id="mrkr5-84" class="st16" v:arrowType="5" v:arrowSize="2" v:setback="5.8" refX="-5.8" orient="auto"
				markerUnits="strokeWidth" overflow="visible">
			<use xlink:href="#lend5" transform="scale(-3.52,-3.52) "/>
		</marker>
	</defs>
	<g v:mID="0" v:index="1" v:groupContext="foregroundPage">
		<v:userDefs>
			<v:ud v:nameU="msvThemeColors" v:val="VT0(36):26"/>
			<v:ud v:nameU="msvThemeEffects" v:val="VT0(16):26"/>
			<v:ud v:nameU="msvThemeOrder" v:val="VT0(0):26"/>
		</v:userDefs>
		<title>Page-1</title>
		<v:pageProperties v:drawingScale="1" v:pageScale="1" v:drawingUnits="0" v:shadowOffsetX="9" v:shadowOffsetY="-9"/>
		<v:layer v:name="Flowchart" v:index="0"/>
		<v:layer v:name="Container" v:index="1"/>
		<v:layer v:name="Connector" v:index="2"/>
		<v:layer v:name="Annotations" v:index="3"/>
		<v:layer v:name="Web Site Map Shapes" v:index="4"/>
		<v:layer v:name="Network" v:index="5"/>
		<g id="shape26-1" v:mID="26" v:groupContext="shape" transform="translate(182.5,-234.75)">
			<title>Grid.26</title>
			<desc>Sara</desc>
			<v:userDefs>
				<v:ud v:nameU="msvThemeColors" v:val="VT0(36):26"/>
				<v:ud v:nameU="msvThemeEffects" v:val="VT0(16):26"/>
			</v:userDefs>
			<v:textBlock v:margins="rect(0,0,0,0)"/>
			<v:textRect cx="24.7505" cy="324.659" width="49.51" height="18.6826"/>
			<rect x="0" y="315.317" width="49.5009" height="18.6826" class="st1"/>
			<text x="7.2" y="328.26" class="st2" v:langID="1033"><v:paragraph v:indentLeft="7.2"/><v:tabList/>Sara</text>		</g>
		<g id="shape27-4" v:mID="27" v:groupContext="shape" transform="translate(182.5,-216.067)">
			<title>Grid.27</title>
			<desc>Bob</desc>
			<v:userDefs>
				<v:ud v:nameU="msvThemeColors" v:val="VT0(36):26"/>
				<v:ud v:nameU="msvThemeEffects" v:val="VT0(16):26"/>
			</v:userDefs>
			<v:textBlock v:margins="rect(0,0,0,0)"/>
			<v:textRect cx="24.7505" cy="324.659" width="49.51" height="18.6826"/>
			<rect x="0" y="315.317" width="49.5009" height="18.6826" class="st1"/>
			<text x="7.2" y="328.26" class="st2" v:langID="1033"><v:paragraph v:indentLeft="7.2"/><v:tabList/>Bob</text>		</g>
		<g id="shape28-7" v:mID="28" v:groupContext="shape" transform="translate(231.999,-234.75)">
			<title>Grid.28</title>
			<desc>3</desc>
			<v:userDefs>
				<v:ud v:nameU="msvThemeColors" v:val="VT0(36):26"/>
				<v:ud v:nameU="msvThemeEffects" v:val="VT0(16):26"/>
			</v:userDefs>
			<v:textBlock v:margins="rect(0,0,0,0)"/>
			<v:textRect cx="24.7505" cy="324.659" width="49.51" height="18.6826"/>
			<rect x="0" y="315.317" width="49.5009" height="18.6826" class="st1"/>
			<text x="7.2" y="328.26" class="st2" v:langID="1033"><v:paragraph v:indentLeft="7.2"/><v:tabList/>3</text>		</g>
		<g id="shape29-10" v:mID="29" v:groupContext="shape" transform="translate(231.999,-216.067)">
			<title>Grid.29</title>
			<desc>12</desc>
			<v:userDefs>
				<v:ud v:nameU="msvThemeColors" v:val="VT0(36):26"/>
				<v:ud v:nameU="msvThemeEffects" v:val="VT0(16):26"/>
			</v:userDefs>
			<v:textBlock v:margins="rect(0,0,0,0)"/>
			<v:textRect cx="24.7505" cy="324.659" width="49.51" height="18.6826"/>
			<rect x="0" y="315.317" width="49.5009" height="18.6826" class="st1"/>
			<text x="7.2" y="328.26" class="st2" v:langID="1033"><v:paragraph v:indentLeft="7.2"/><v:tabList/>12</text>		</g>
		<g id="shape22-13" v:mID="22" v:groupContext="shape" transform="translate(182.5,-297.067)">
			<title>Grid.22</title>
			<desc>Alice</desc>
			<v:userDefs>
				<v:ud v:nameU="msvThemeColors" v:val="VT0(36):26"/>
				<v:ud v:nameU="msvThemeEffects" v:val="VT0(16):26"/>
			</v:userDefs>
			<v:textBlock v:margins="rect(0,0,0,0)"/>
			<v:textRect cx="24.7505" cy="324.659" width="49.51" height="18.6826"/>
			<rect x="0" y="315.317" width="49.5009" height="18.6826" class="st3"/>
			<text x="7.2" y="328.26" class="st2" v:langID="1033"><v:paragraph v:indentLeft="7.2"/><v:tabList/>Alice</text>		</g>
		<g id="shape23-16" v:mID="23" v:groupContext="shape" transform="translate(182.5,-278.385)">
			<title>Grid.23</title>
			<desc>Tom</desc>
			<v:userDefs>
				<v:ud v:nameU="msvThemeColors" v:val="VT0(36):26"/>
				<v:ud v:nameU="msvThemeEffects" v:val="VT0(16):26"/>
			</v:userDefs>
			<v:textBlock v:margins="rect(0,0,0,0)"/>
			<v:textRect cx="24.7505" cy="324.659" width="49.51" height="18.6826"/>
			<rect x="0" y="315.317" width="49.5009" height="18.6826" class="st3"/>
			<text x="7.2" y="328.26" class="st2" v:langID="1033"><v:paragraph v:indentLeft="7.2"/><v:tabList/>Tom</text>		</g>
		<g id="shape24-19" v:mID="24" v:groupContext="shape" transform="translate(231.999,-297.067)">
			<title>Grid.24</title>
			<desc>21</desc>
			<v:userDefs>
				<v:ud v:nameU="msvThemeColors" v:val="VT0(36):26"/>
				<v:ud v:nameU="msvThemeEffects" v:val="VT0(16):26"/>
			</v:userDefs>
			<v:textBlock v:margins="rect(0,0,0,0)"/>
			<v:textRect cx="24.7505" cy="324.659" width="49.51" height="18.6826"/>
			<rect x="0" y="315.317" width="49.5009" height="18.6826" class="st3"/>
			<text x="7.2" y="328.26" class="st2" v:langID="1033"><v:paragraph v:indentLeft="7.2"/><v:tabList/>21</text>		</g>
		<g id="shape25-22" v:mID="25" v:groupContext="shape" transform="translate(231.999,-278.385)">
			<title>Grid.25</title>
			<desc>34</desc>
			<v:userDefs>
				<v:ud v:nameU="msvThemeColors" v:val="VT0(36):26"/>
				<v:ud v:nameU="msvThemeEffects" v:val="VT0(16):26"/>
			</v:userDefs>
			<v:textBlock v:margins="rect(0,0,0,0)"/>
			<v:textRect cx="24.7505" cy="324.659" width="49.51" height="18.6826"/>
			<rect x="0" y="315.317" width="49.5009" height="18.6826" class="st3"/>
			<text x="7.2" y="328.26" class="st2" v:langID="1033"><v:paragraph v:indentLeft="7.2"/><v:tabList/>34</text>		</g>
		<g id="shape33-25" v:mID="33" v:groupContext="shape" transform="translate(18.25,-117.067)">
			<title>Grid.33</title>
			<desc>Ron</desc>
			<v:userDefs>
				<v:ud v:nameU="msvThemeColors" v:val="VT0(36):26"/>
				<v:ud v:nameU="msvThemeEffects" v:val="VT0(16):26"/>
			</v:userDefs>
			<v:textBlock v:margins="rect(0,0,0,0)"/>
			<v:textRect cx="24.7505" cy="324.659" width="49.51" height="18.6826"/>
			<rect x="0" y="315.317" width="49.5009" height="18.6826" class="st4"/>
			<text x="7.2" y="328.26" class="st2" v:langID="1033"><v:paragraph v:indentLeft="7.2"/><v:tabList/>Ron</text>		</g>
		<g id="shape40-28" v:mID="40" v:groupContext="shape" transform="translate(67.7491,-117.067)">
			<title>Grid.40</title>
			<desc>65</desc>
			<v:userDefs>
				<v:ud v:nameU="msvThemeColors" v:val="VT0(36):26"/>
				<v:ud v:nameU="msvThemeEffects" v:val="VT0(16):26"/>
			</v:userDefs>
			<v:textBlock v:margins="rect(0,0,0,0)"/>
			<v:textRect cx="24.7505" cy="324.659" width="49.51" height="18.6826"/>
			<rect x="0" y="315.317" width="49.5009" height="18.6826" class="st4"/>
			<text x="7.2" y="328.26" class="st2" v:langID="1033"><v:paragraph v:indentLeft="7.2"/><v:tabList/>65</text>		</g>
		<g id="shape41-31" v:mID="41" v:groupContext="shape" transform="translate(18.25,-98.3996)">
			<title>Grid.41</title>
			<desc>Bob</desc>
			<v:userDefs>
				<v:ud v:nameU="msvThemeColors" v:val="VT0(36):26"/>
				<v:ud v:nameU="msvThemeEffects" v:val="VT0(16):26"/>
			</v:userDefs>
			<v:textBlock v:margins="rect(0,0,0,0)"/>
			<v:textRect cx="24.7505" cy="324.659" width="49.51" height="18.6826"/>
			<rect x="0" y="315.317" width="49.5009" height="18.6826" class="st4"/>
			<text x="7.2" y="328.26" class="st2" v:langID="1033"><v:paragraph v:indentLeft="7.2"/><v:tabList/>Bob</text>		</g>
		<g id="shape42-34" v:mID="42" v:groupContext="shape" transform="translate(67.7491,-98.3996)">
			<title>Grid.42</title>
			<desc>18</desc>
			<v:userDefs>
				<v:ud v:nameU="msvThemeColors" v:val="VT0(36):26"/>
				<v:ud v:nameU="msvThemeEffects" v:val="VT0(16):26"/>
			</v:userDefs>
			<v:textBlock v:margins="rect(0,0,0,0)"/>
			<v:textRect cx="24.7505" cy="324.659" width="49.51" height="18.6826"/>
			<rect x="0" y="315.317" width="49.5009" height="18.6826" class="st4"/>
			<text x="7.2" y="328.26" class="st2" v:langID="1033"><v:paragraph v:indentLeft="7.2"/><v:tabList/>18</text>		</g>
		<g id="shape44-37" v:mID="44" v:groupContext="shape" transform="translate(182.5,-172.445)">
			<title>Grid.44</title>
			<desc>Emma</desc>
			<v:userDefs>
				<v:ud v:nameU="msvThemeColors" v:val="VT0(36):26"/>
				<v:ud v:nameU="msvThemeEffects" v:val="VT0(16):26"/>
			</v:userDefs>
			<v:textBlock v:margins="rect(0,0,0,0)"/>
			<v:textRect cx="24.7347" cy="324.665" width="49.47" height="18.6707"/>
			<rect x="0" y="315.329" width="49.4694" height="18.6707" class="st5"/>
			<text x="7.2" y="328.26" class="st2" v:langID="1033"><v:paragraph v:indentLeft="7.2"/><v:tabList/>Emma</text>		</g>
		<g id="shape45-40" v:mID="45" v:groupContext="shape" transform="translate(182.5,-153.774)">
			<title>Grid.45</title>
			<desc>Jon</desc>
			<v:userDefs>
				<v:ud v:nameU="msvThemeColors" v:val="VT0(36):26"/>
				<v:ud v:nameU="msvThemeEffects" v:val="VT0(16):26"/>
			</v:userDefs>
			<v:textBlock v:margins="rect(0,0,0,0)"/>
			<v:textRect cx="24.7347" cy="324.665" width="49.47" height="18.6707"/>
			<rect x="0" y="315.329" width="49.4694" height="18.6707" class="st5"/>
			<text x="7.2" y="328.26" class="st2" v:langID="1033"><v:paragraph v:indentLeft="7.2"/><v:tabList/>Jon</text>		</g>
		<g id="shape46-43" v:mID="46" v:groupContext="shape" transform="translate(231.968,-172.445)">
			<title>Grid.46</title>
			<desc>24</desc>
			<v:userDefs>
				<v:ud v:nameU="msvThemeColors" v:val="VT0(36):26"/>
				<v:ud v:nameU="msvThemeEffects" v:val="VT0(16):26"/>
			</v:userDefs>
			<v:textBlock v:margins="rect(0,0,0,0)"/>
			<v:textRect cx="24.7347" cy="324.665" width="49.47" height="18.6707"/>
			<rect x="0" y="315.329" width="49.4694" height="18.6707" class="st5"/>
			<text x="7.2" y="328.26" class="st2" v:langID="1033"><v:paragraph v:indentLeft="7.2"/><v:tabList/>24</text>		</g>
		<g id="shape47-46" v:mID="47" v:groupContext="shape" transform="translate(231.968,-153.774)">
			<title>Grid.47</title>
			<desc>14</desc>
			<v:userDefs>
				<v:ud v:nameU="msvThemeColors" v:val="VT0(36):26"/>
				<v:ud v:nameU="msvThemeEffects" v:val="VT0(16):26"/>
			</v:userDefs>
			<v:textBlock v:margins="rect(0,0,0,0)"/>
			<v:textRect cx="24.7347" cy="324.665" width="49.47" height="18.6707"/>
			<rect x="0" y="315.329" width="49.4694" height="18.6707" class="st5"/>
			<text x="7.2" y="328.26" class="st2" v:langID="1033"><v:paragraph v:indentLeft="7.2"/><v:tabList/>14</text>		</g>
		<g id="shape50-49" v:mID="50" v:groupContext="shape" v:layerMember="5" transform="translate(67.75,-18.75)">
			<title>Datastore</title>
			<desc>Data Source</desc>
			<v:custProps>
				<v:cp v:nameU="Manufacturer" v:lbl="Manufacturer" v:type="0" v:sortKey="1" v:invis="false" v:ask="false"
						v:langID="1033" v:val="VT4()"/>
				<v:cp v:nameU="ProductNumber" v:lbl="Product Number" v:type="0" v:sortKey="1" v:invis="false" v:ask="false"
						v:langID="1033" v:val="VT4()"/>
				<v:cp v:nameU="PartNumber" v:lbl="Part Number" v:type="0" v:sortKey="1" v:invis="false" v:ask="false"
						v:langID="1033" v:val="VT4()"/>
				<v:cp v:nameU="ProductDescription" v:lbl="Product Description" v:type="0" v:sortKey="1" v:invis="false"
						v:ask="false" v:langID="1033" v:val="VT4()"/>
				<v:cp v:nameU="AssetNumber" v:lbl="Asset Number" v:type="0" v:sortKey="1" v:invis="false" v:ask="false"
						v:langID="1033" v:val="VT4()"/>
				<v:cp v:nameU="SerialNumber" v:lbl="Serial Number" v:type="0" v:sortKey="1" v:invis="false" v:ask="false"
						v:langID="1033" v:val="VT4()"/>
				<v:cp v:nameU="Location" v:lbl="Location" v:type="0" v:sortKey="1" v:invis="false" v:ask="false" v:langID="1033"
						v:val="VT4()"/>
				<v:cp v:nameU="Building" v:lbl="Building" v:type="0" v:sortKey="1" v:invis="false" v:ask="false" v:langID="1033"
						v:val="VT4()"/>
				<v:cp v:nameU="Room" v:lbl="Room" v:type="0" v:sortKey="1" v:invis="false" v:ask="false" v:langID="1033"
						v:val="VT4()"/>
				<v:cp v:nameU="Department" v:lbl="Department" v:type="0" v:sortKey="1" v:invis="false" v:ask="false"
						v:langID="1033" v:val="VT4()"/>
			</v:custProps>
			<v:userDefs>
				<v:ud v:nameU="visDescription"
						v:val="VT4(Use to add a a database, data source, or data storage device to your system diagram.)"/>
				<v:ud v:nameU="visVersion" v:val="VT0(14):26"/>
				<v:ud v:nameU="msvThemeColors" v:val="VT0(36):26"/>
			</v:userDefs>
			<v:textBlock v:margins="rect(0,0,0,0)" v:tabSpace="42.5197"/>
			<v:textRect cx="56.25" cy="303.906" width="112.5" height="32.0625"/>
			<path d="M0 273.81 L0 319.94 A56.25 14.0625 -180 1 0 112.5 319.94 L112.5 273.81 A56.25 14.0625 -180 0 0 0 273.81 Z"
					class="st6"/>
			<path d="M0 273.81 L0 319.94 A56.25 14.0625 -180 1 0 112.5 319.94 L112.5 273.81 A56.25 14.0625 -180 0 0 0 273.81"
					class="st7"/>
			<path d="M0 273.81 A56.25 14.0625 -180 1 0 112.5 273.81" class="st7"/>
			<text x="34.65" y="298.51" class="st8" v:langID="1033"><v:paragraph v:horizAlign="1"/><v:tabList/>Data<v:newlineChar/><tspan
						x="23.84" dy="1.2em" class="st9">Source</tspan></text>		</g>
		<g id="shape1-57" v:mID="1" v:groupContext="shape" v:layerMember="0" transform="translate(295,-252.75)">
			<title>Database</title>
			<desc>Parallel</desc>
			<v:custProps>
				<v:cp v:nameU="Cost" v:lbl="Cost" v:prompt="" v:type="7" v:format="@" v:sortKey="" v:invis="false" v:ask="false"
						v:langID="1033" v:cal="0"/>
				<v:cp v:nameU="ProcessNumber" v:lbl="Process Number" v:prompt="" v:type="2" v:format="" v:sortKey=""
						v:invis="false" v:ask="false" v:langID="1033" v:cal="0"/>
				<v:cp v:nameU="Owner" v:lbl="Owner" v:prompt="" v:type="0" v:format="" v:sortKey="" v:invis="false" v:ask="false"
						v:langID="1033" v:cal="0"/>
				<v:cp v:nameU="Function" v:lbl="Function" v:prompt="" v:type="0" v:format="" v:sortKey="" v:invis="false"
						v:ask="false" v:langID="1033" v:cal="0" v:val="VT4()"/>
				<v:cp v:nameU="StartDate" v:lbl="Start Date" v:prompt="" v:type="5" v:format="" v:sortKey="" v:invis="false"
						v:ask="false" v:langID="1033" v:cal="0"/>
				<v:cp v:nameU="EndDate" v:lbl="End Date" v:prompt="" v:type="5" v:format="" v:sortKey="" v:invis="false"
						v:ask="false" v:langID="1033" v:cal="0"/>
				<v:cp v:nameU="Status" v:lbl="Status" v:prompt="" v:type="4"
						v:format=";Not Started;In Progress;Completed;Deferred;Waiting on Input" v:sortKey="" v:invis="false"
						v:ask="false" v:langID="1033" v:cal="0" v:val="VT4()"/>
			</v:custProps>
			<v:userDefs>
				<v:ud v:nameU="visVersion" v:prompt="" v:val="VT0(14):26"/>
				<v:ud v:nameU="DefaultWidth" v:prompt="" v:val="VT0(1):0"/>
				<v:ud v:nameU="DefaultHeight" v:prompt="" v:val="VT0(0.75):0"/>
				<v:ud v:nameU="ResizeTxtHeight" v:prompt="" v:val="VT0(0.75):0"/>
				<v:ud v:nameU="msvThemeColors" v:val="VT0(36):26"/>
				<v:ud v:nameU="msvThemeEffects" v:val="VT0(16):26"/>
			</v:userDefs>
			<v:textBlock v:margins="rect(2,2,2,2)"/>
			<v:textRect cx="90" cy="316" width="171" height="36"/>
			<g id="shadow1-58" v:groupContext="shadow" v:shadowOffsetX="1.44" v:shadowOffsetY="-1.44" v:shadowType="1"
					transform="matrix(1,0,0,1,1.44,1.44)" class="st10">
				<path d="M4.5 298 L180 298 A38.25 38.25 0 0 1 180 334 L4.5 334 A38.25 38.25 0 0 1 4.5 298 Z" class="st11"/>
				<path d="M4.5 298 L180 298 A38.25 38.25 0 0 1 180 334 L4.5 334 A38.25 38.25 0 0 1 4.5 298" class="st12"/>
				<path d="M180 298 A38.25 38.25 -180 0 0 180 334" class="st12"/>
			</g>
			<path d="M4.5 298 L180 298 A38.25 38.25 0 0 1 180 334 L4.5 334 A38.25 38.25 0 0 1 4.5 298 Z" class="st13"/>
			<path d="M4.5 298 L180 298 A38.25 38.25 0 0 1 180 334 L4.5 334 A38.25 38.25 0 0 1 4.5 298" class="st14"/>
			<path d="M180 298 A38.25 38.25 -180 0 0 180 334" class="st14"/>
			<text x="46.79" y="321.4" class="st8" v:langID="1033"><v:paragraph v:horizAlign="1"/><v:tabList/>Parallel</text>		</g>
		<g id="shape2-68" v:mID="2" v:groupContext="shape" v:layerMember="0" transform="translate(295,-189.75)">
			<title>Database.2</title>
			<desc>In-memory</desc>
			<v:custProps>
				<v:cp v:nameU="Cost" v:lbl="Cost" v:prompt="" v:type="7" v:format="@" v:sortKey="" v:invis="false" v:ask="false"
						v:langID="1033" v:cal="0"/>
				<v:cp v:nameU="ProcessNumber" v:lbl="Process Number" v:prompt="" v:type="2" v:format="" v:sortKey=""
						v:invis="false" v:ask="false" v:langID="1033" v:cal="0"/>
				<v:cp v:nameU="Owner" v:lbl="Owner" v:prompt="" v:type="0" v:format="" v:sortKey="" v:invis="false" v:ask="false"
						v:langID="1033" v:cal="0"/>
				<v:cp v:nameU="Function" v:lbl="Function" v:prompt="" v:type="0" v:format="" v:sortKey="" v:invis="false"
						v:ask="false" v:langID="1033" v:cal="0" v:val="VT4()"/>
				<v:cp v:nameU="StartDate" v:lbl="Start Date" v:prompt="" v:type="5" v:format="" v:sortKey="" v:invis="false"
						v:ask="false" v:langID="1033" v:cal="0"/>
				<v:cp v:nameU="EndDate" v:lbl="End Date" v:prompt="" v:type="5" v:format="" v:sortKey="" v:invis="false"
						v:ask="false" v:langID="1033" v:cal="0"/>
				<v:cp v:nameU="Status" v:lbl="Status" v:prompt="" v:type="4"
						v:format=";Not Started;In Progress;Completed;Deferred;Waiting on Input" v:sortKey="" v:invis="false"
						v:ask="false" v:langID="1033" v:cal="0" v:val="VT4()"/>
			</v:custProps>
			<v:userDefs>
				<v:ud v:nameU="visVersion" v:prompt="" v:val="VT0(14):26"/>
				<v:ud v:nameU="DefaultWidth" v:prompt="" v:val="VT0(1):0"/>
				<v:ud v:nameU="DefaultHeight" v:prompt="" v:val="VT0(0.75):0"/>
				<v:ud v:nameU="ResizeTxtHeight" v:prompt="" v:val="VT0(0.75):0"/>
				<v:ud v:nameU="msvThemeColors" v:val="VT0(36):26"/>
				<v:ud v:nameU="msvThemeEffects" v:val="VT0(16):26"/>
			</v:userDefs>
			<v:textBlock v:margins="rect(2,2,2,2)"/>
			<v:textRect cx="90" cy="316" width="171" height="36"/>
			<g id="shadow2-69" v:groupContext="shadow" v:shadowOffsetX="1.44" v:shadowOffsetY="-1.44" v:shadowType="1"
					transform="matrix(1,0,0,1,1.44,1.44)" class="st10">
				<path d="M4.5 298 L180 298 A38.25 38.25 0 0 1 180 334 L4.5 334 A38.25 38.25 0 0 1 4.5 298 Z" class="st11"/>
				<path d="M4.5 298 L180 298 A38.25 38.25 0 0 1 180 334 L4.5 334 A38.25 38.25 0 0 1 4.5 298" class="st12"/>
				<path d="M180 298 A38.25 38.25 -180 0 0 180 334" class="st12"/>
			</g>
			<path d="M4.5 298 L180 298 A38.25 38.25 0 0 1 180 334 L4.5 334 A38.25 38.25 0 0 1 4.5 298 Z" class="st13"/>
			<path d="M4.5 298 L180 298 A38.25 38.25 0 0 1 180 334 L4.5 334 A38.25 38.25 0 0 1 4.5 298" class="st14"/>
			<path d="M180 298 A38.25 38.25 -180 0 0 180 334" class="st14"/>
			<text x="41.39" y="321.4" class="st8" v:langID="1033"><v:paragraph v:horizAlign="1"/><v:tabList/>In-memory</text>		</g>
		<g id="shape3-78" v:mID="3" v:groupContext="shape" v:layerMember="2" transform="translate(124,-93)">
			<title>Dynamic connector</title>
			<v:userDefs>
				<v:ud v:nameU="msvThemeColors" v:val="VT0(36):26"/>
				<v:ud v:nameU="msvThemeEffects" v:val="VT0(16):26"/>
			</v:userDefs>
			<path d="M0 334 C0 289.56 -0 222.55 32.41 189.22 C62.97 157.8 122.33 156.32 164.84 156.25 L165.2 156.25" class="st15"/>
		</g>
		<g id="shape4-85" v:mID="4" v:groupContext="shape" v:layerMember="2" transform="translate(124,-93)">
			<title>Dynamic connector.4</title>
			<v:userDefs>
				<v:ud v:nameU="msvThemeColors" v:val="VT0(36):26"/>
				<v:ud v:nameU="msvThemeEffects" v:val="VT0(16):26"/>
			</v:userDefs>
			<path d="M0 334 C-0 305.31 0 264.57 28.74 243.12 C59.22 220.37 122.01 219.3 164.84 219.25 L165.2 219.25" class="st15"/>
		</g>
		<g id="shape5-91" v:mID="5" v:groupContext="shape" v:layerMember="0" transform="translate(295,-126.75)">
			<title>Database.5</title>
			<desc>Computation</desc>
			<v:custProps>
				<v:cp v:nameU="Cost" v:lbl="Cost" v:prompt="" v:type="7" v:format="@" v:sortKey="" v:invis="false" v:ask="false"
						v:langID="1033" v:cal="0"/>
				<v:cp v:nameU="ProcessNumber" v:lbl="Process Number" v:prompt="" v:type="2" v:format="" v:sortKey=""
						v:invis="false" v:ask="false" v:langID="1033" v:cal="0"/>
				<v:cp v:nameU="Owner" v:lbl="Owner" v:prompt="" v:type="0" v:format="" v:sortKey="" v:invis="false" v:ask="false"
						v:langID="1033" v:cal="0"/>
				<v:cp v:nameU="Function" v:lbl="Function" v:prompt="" v:type="0" v:format="" v:sortKey="" v:invis="false"
						v:ask="false" v:langID="1033" v:cal="0" v:val="VT4()"/>
				<v:cp v:nameU="StartDate" v:lbl="Start Date" v:prompt="" v:type="5" v:format="" v:sortKey="" v:invis="false"
						v:ask="false" v:langID="1033" v:cal="0"/>
				<v:cp v:nameU="EndDate" v:lbl="End Date" v:prompt="" v:type="5" v:format="" v:sortKey="" v:invis="false"
						v:ask="false" v:langID="1033" v:cal="0"/>
				<v:cp v:nameU="Status" v:lbl="Status" v:prompt="" v:type="4"
						v:format=";Not Started;In Progress;Completed;Deferred;Waiting on Input" v:sortKey="" v:invis="false"
						v:ask="false" v:langID="1033" v:cal="0" v:val="VT4()"/>
			</v:custProps>
			<v:userDefs>
				<v:ud v:nameU="visVersion" v:prompt="" v:val="VT0(14):26"/>
				<v:ud v:nameU="DefaultWidth" v:prompt="" v:val="VT0(1):0"/>
				<v:ud v:nameU="DefaultHeight" v:prompt="" v:val="VT0(0.75):0"/>
				<v:ud v:nameU="ResizeTxtHeight" v:prompt="" v:val="VT0(0.75):0"/>
				<v:ud v:nameU="msvThemeColors" v:val="VT0(36):26"/>
				<v:ud v:nameU="msvThemeEffects" v:val="VT0(16):26"/>
			</v:userDefs>
			<v:textBlock v:margins="rect(2,2,2,2)"/>
			<v:textRect cx="90" cy="316" width="171" height="36"/>
			<g id="shadow5-92" v:groupContext="shadow" v:shadowOffsetX="1.44" v:shadowOffsetY="-1.44" v:shadowType="1"
					transform="matrix(1,0,0,1,1.44,1.44)" class="st10">
				<path d="M4.5 298 L180 298 A38.25 38.25 0 0 1 180 334 L4.5 334 A38.25 38.25 0 0 1 4.5 298 Z" class="st11"/>
				<path d="M4.5 298 L180 298 A38.25 38.25 0 0 1 180 334 L4.5 334 A38.25 38.25 0 0 1 4.5 298" class="st12"/>
				<path d="M180 298 A38.25 38.25 -180 0 0 180 334" class="st12"/>
			</g>
			<path d="M4.5 298 L180 298 A38.25 38.25 0 0 1 180 334 L4.5 334 A38.25 38.25 0 0 1 4.5 298 Z" class="st13"/>
			<path d="M4.5 298 L180 298 A38.25 38.25 0 0 1 180 334 L4.5 334 A38.25 38.25 0 0 1 4.5 298" class="st14"/>
			<path d="M180 298 A38.25 38.25 -180 0 0 180 334" class="st14"/>
			<text x="30.59" y="321.4" class="st8" v:langID="1033"><v:paragraph v:horizAlign="1"/><v:tabList/>Computation</text>		</g>
		<g id="shape6-101" v:mID="6" v:groupContext="shape" v:layerMember="2" transform="translate(124,-93)">
			<title>Dynamic connector.6</title>
			<v:userDefs>
				<v:ud v:nameU="msvThemeColors" v:val="VT0(36):26"/>
				<v:ud v:nameU="msvThemeEffects" v:val="VT0(16):26"/>
			</v:userDefs>
			<path d="M0 334 C-0 321.06 0 303.95 24.93 294.38 C55.08 282.82 121.65 282.28 164.84 282.25 L165.2 282.25" class="st15"/>
		</g>
		<g id="shape7-107" v:mID="7" v:groupContext="shape" v:layerMember="5" transform="translate(571.75,-18.75)">
			<title>Datastore.7</title>
			<desc>Output</desc>
			<v:custProps>
				<v:cp v:nameU="Manufacturer" v:lbl="Manufacturer" v:type="0" v:sortKey="1" v:invis="false" v:ask="false"
						v:langID="1033" v:val="VT4()"/>
				<v:cp v:nameU="ProductNumber" v:lbl="Product Number" v:type="0" v:sortKey="1" v:invis="false" v:ask="false"
						v:langID="1033" v:val="VT4()"/>
				<v:cp v:nameU="PartNumber" v:lbl="Part Number" v:type="0" v:sortKey="1" v:invis="false" v:ask="false"
						v:langID="1033" v:val="VT4()"/>
				<v:cp v:nameU="ProductDescription" v:lbl="Product Description" v:type="0" v:sortKey="1" v:invis="false"
						v:ask="false" v:langID="1033" v:val="VT4()"/>
				<v:cp v:nameU="AssetNumber" v:lbl="Asset Number" v:type="0" v:sortKey="1" v:invis="false" v:ask="false"
						v:langID="1033" v:val="VT4()"/>
				<v:cp v:nameU="SerialNumber" v:lbl="Serial Number" v:type="0" v:sortKey="1" v:invis="false" v:ask="false"
						v:langID="1033" v:val="VT4()"/>
				<v:cp v:nameU="Location" v:lbl="Location" v:type="0" v:sortKey="1" v:invis="false" v:ask="false" v:langID="1033"
						v:val="VT4()"/>
				<v:cp v:nameU="Building" v:lbl="Building" v:type="0" v:sortKey="1" v:invis="false" v:ask="false" v:langID="1033"
						v:val="VT4()"/>
				<v:cp v:nameU="Room" v:lbl="Room" v:type="0" v:sortKey="1" v:invis="false" v:ask="false" v:langID="1033"
						v:val="VT4()"/>
				<v:cp v:nameU="Department" v:lbl="Department" v:type="0" v:sortKey="1" v:invis="false" v:ask="false"
						v:langID="1033" v:val="VT4()"/>
			</v:custProps>
			<v:userDefs>
				<v:ud v:nameU="visDescription"
						v:val="VT4(Use to add a a database, data source, or data storage device to your system diagram.)"/>
				<v:ud v:nameU="visVersion" v:val="VT0(14):26"/>
				<v:ud v:nameU="msvThemeColors" v:val="VT0(36):26"/>
			</v:userDefs>
			<v:textBlock v:margins="rect(0,0,0,0)" v:tabSpace="42.5197"/>
			<v:textRect cx="56.25" cy="303.906" width="112.5" height="32.0625"/>
			<path d="M0 273.81 L0 319.94 A56.25 14.0625 -180 1 0 112.5 319.94 L112.5 273.81 A56.25 14.0625 -180 0 0 0 273.81 Z"
					class="st6"/>
			<path d="M0 273.81 L0 319.94 A56.25 14.0625 -180 1 0 112.5 319.94 L112.5 273.81 A56.25 14.0625 -180 0 0 0 273.81"
					class="st7"/>
			<path d="M0 273.81 A56.25 14.0625 -180 1 0 112.5 273.81" class="st7"/>
			<text x="23.84" y="309.31" class="st8" v:langID="1033"><v:paragraph v:horizAlign="1"/><v:tabList/>Output</text>		</g>
		<g id="shape8-113" v:mID="8" v:groupContext="shape" v:layerMember="2" transform="translate(475,-270.75)">
			<title>Dynamic connector.8</title>
			<v:userDefs>
				<v:ud v:nameU="msvThemeColors" v:val="VT0(36):26"/>
				<v:ud v:nameU="msvThemeEffects" v:val="VT0(16):26"/>
			</v:userDefs>
			<path d="M0 334 C38.25 334 94.43 334 123.1 365.95 C151.65 397.76 152.94 461.24 153 505.59 L153 505.95" class="st15"/>
		</g>
		<g id="shape9-119" v:mID="9" v:groupContext="shape" v:layerMember="2" transform="translate(475,-207.75)">
			<title>Dynamic connector.9</title>
			<v:userDefs>
				<v:ud v:nameU="msvThemeColors" v:val="VT0(36):26"/>
				<v:ud v:nameU="msvThemeEffects" v:val="VT0(16):26"/>
			</v:userDefs>
			<path d="M0 334 C38.25 334 97.88 334 126.52 357.24 C151.16 377.23 152.87 414.41 152.99 442.59 L152.99 442.95"
					class="st15"/>
		</g>
		<g id="shape10-125" v:mID="10" v:groupContext="shape" v:layerMember="2" transform="translate(475,-144.75)">
			<title>Dynamic connector.10</title>
			<v:userDefs>
				<v:ud v:nameU="msvThemeColors" v:val="VT0(36):26"/>
				<v:ud v:nameU="msvThemeEffects" v:val="VT0(16):26"/>
			</v:userDefs>
			<path d="M0 334 C38.25 334 102.09 334 130.41 346.01 C149.56 354.14 152.48 367.75 152.92 379.59 L152.93 379.95"
					class="st15"/>
		</g>
	</g>
</svg>
