<?xml version="1.0" encoding="UTF-8" standalone="no"?><svg xmlns="http://www.w3.org/2000/svg" xmlns:xlink="http://www.w3.org/1999/xlink" clip-rule="evenodd" stroke-miterlimit="4.00" viewBox="0 0 1024 768"><desc>SVG generated by Keynote</desc><defs></defs><g transform="matrix(1.00, 0.00, -0.00, -1.00, 0.0, 768.0)"><path d="M 0.0 768.0 L 1024.0 768.0 L 1024.0 0.0 L 0.0 0.0 Z M 0.0 768.0 " fill="#FFFFFF"></path><path d="M 0.0 0.0 L 934.0 0.0 " fill="none" stroke="#747676" stroke-width="3.00" stroke-linecap="round" stroke-linejoin="round" stroke-dasharray="0.0, 9.0" transform="matrix(1.00, 0.00, 0.00, -1.00, 45.0, 644.0)"></path><text xml:space="preserve" font-family="DINCondensed-Bold" font-weight="bold" font-size="48.4" fill="#747676" transform="matrix(1.00, 0.00, -0.00, -1.00, 49.0, 673.0)">P</text><text xml:space="preserve" font-family="DINCondensed-Bold" font-weight="bold" font-size="48.4" fill="#747676" transform="matrix(1.00, 0.00, -0.00, -1.00, 66.9, 673.0)">A</text><text xml:space="preserve" font-family="DINCondensed-Bold" font-weight="bold" font-size="48.4" fill="#747676" transform="matrix(1.00, 0.00, -0.00, -1.00, 83.9, 673.0)">T</text><text xml:space="preserve" font-family="DINCondensed-Bold" font-weight="bold" font-size="48.4" fill="#747676" transform="matrix(1.00, 0.00, -0.00, -1.00, 100.0, 673.0)">T</text><text xml:space="preserve" font-family="DINCondensed-Bold" font-weight="bold" font-size="48.4" fill="#747676" transform="matrix(1.00, 0.00, -0.00, -1.00, 116.0, 673.0)">E</text><text xml:space="preserve" font-family="DINCondensed-Bold" font-weight="bold" font-size="48.4" fill="#747676" transform="matrix(1.00, 0.00, -0.00, -1.00, 133.9, 673.0)">R</text><text xml:space="preserve" font-family="DINCondensed-Bold" font-weight="bold" font-size="48.4" fill="#747676" transform="matrix(1.00, 0.00, -0.00, -1.00, 154.5, 673.0)">N</text><text xml:space="preserve" font-family="DINCondensed-Bold" font-weight="bold" font-size="48.4" fill="#747676" transform="matrix(1.00, 0.00, -0.00, -1.00, 176.0, 673.0)"> </text><text xml:space="preserve" font-family="DINCondensed-Bold" font-weight="bold" font-size="48.4" fill="#747676" transform="matrix(1.00, 0.00, -0.00, -1.00, 185.0, 673.0)">M</text><text xml:space="preserve" font-family="DINCondensed-Bold" font-weight="bold" font-size="48.4" fill="#747676" transform="matrix(1.00, 0.00, -0.00, -1.00, 211.9, 673.0)">A</text><text xml:space="preserve" font-family="DINCondensed-Bold" font-weight="bold" font-size="48.4" fill="#747676" transform="matrix(1.00, 0.00, -0.00, -1.00, 228.9, 673.0)">T</text><text xml:space="preserve" font-family="DINCondensed-Bold" font-weight="bold" font-size="48.4" fill="#747676" transform="matrix(1.00, 0.00, -0.00, -1.00, 245.0, 673.0)">C</text><text xml:space="preserve" font-family="DINCondensed-Bold" font-weight="bold" font-size="48.4" fill="#747676" transform="matrix(1.00, 0.00, -0.00, -1.00, 264.6, 673.0)">H</text><text xml:space="preserve" font-family="DINCondensed-Bold" font-weight="bold" font-size="48.4" fill="#747676" transform="matrix(1.00, 0.00, -0.00, -1.00, 285.2, 673.0)">I</text><text xml:space="preserve" font-family="DINCondensed-Bold" font-weight="bold" font-size="48.4" fill="#747676" transform="matrix(1.00, 0.00, -0.00, -1.00, 295.1, 673.0)">N</text><text xml:space="preserve" font-family="DINCondensed-Bold" font-weight="bold" font-size="48.4" fill="#747676" transform="matrix(1.00, 0.00, -0.00, -1.00, 316.6, 673.0)">G</text><text xml:space="preserve" font-family="DINCondensed-Bold" font-weight="bold" font-size="48.4" fill="#747676" transform="matrix(1.00, 0.00, -0.00, -1.00, 337.2, 673.0)"> </text><text xml:space="preserve" font-family="DINCondensed-Bold" font-weight="bold" font-size="48.4" fill="#747676" transform="matrix(1.00, 0.00, -0.00, -1.00, 346.2, 673.0)">O</text><text xml:space="preserve" font-family="DINCondensed-Bold" font-weight="bold" font-size="48.4" fill="#747676" transform="matrix(1.00, 0.00, -0.00, -1.00, 366.8, 673.0)">N</text><text xml:space="preserve" font-family="DINCondensed-Bold" font-weight="bold" font-size="48.4" fill="#747676" transform="matrix(1.00, 0.00, -0.00, -1.00, 388.2, 673.0)"> </text><text xml:space="preserve" font-family="DINCondensed-Bold" font-weight="bold" font-size="48.4" fill="#747676" transform="matrix(1.00, 0.00, -0.00, -1.00, 397.2, 673.0)">V</text><text xml:space="preserve" font-family="DINCondensed-Bold" font-weight="bold" font-size="48.4" fill="#747676" transform="matrix(1.00, 0.00, -0.00, -1.00, 415.1, 673.0)">A</text><text xml:space="preserve" font-family="DINCondensed-Bold" font-weight="bold" font-size="48.4" fill="#747676" transform="matrix(1.00, 0.00, -0.00, -1.00, 434.8, 673.0)">L</text><text xml:space="preserve" font-family="DINCondensed-Bold" font-weight="bold" font-size="48.4" fill="#747676" transform="matrix(1.00, 0.00, -0.00, -1.00, 452.7, 673.0)">U</text><text xml:space="preserve" font-family="DINCondensed-Bold" font-weight="bold" font-size="48.4" fill="#747676" transform="matrix(1.00, 0.00, -0.00, -1.00, 473.3, 673.0)">E</text><path d="M 49.0 622.0 L 126.7 622.0 L 126.7 572.0 L 49.0 572.0 Z M 49.0 622.0 " fill="#344033"></path><path d="M 126.7 622.0 L 359.7 622.0 L 359.7 572.0 L 126.7 572.0 Z M 126.7 622.0 " fill="#2A2A2A"></path><path d="M 359.7 622.0 L 385.5 622.0 L 385.5 572.0 L 359.7 572.0 Z M 359.7 622.0 " fill="#344033"></path><path d="M 49.0 572.0 L 385.5 572.0 L 385.5 522.0 L 49.0 522.0 Z M 49.0 572.0 " fill="#2A2A2A"></path><path d="M 49.0 522.0 L 489.1 522.0 L 489.1 472.0 L 49.0 472.0 Z M 49.0 522.0 " fill="#2A2A2A"></path><path d="M 49.0 472.0 L 489.1 472.0 L 489.1 422.0 L 49.0 422.0 Z M 49.0 472.0 " fill="#2A2A2A"></path><path d="M 49.0 422.0 L 851.5 422.0 L 851.5 372.0 L 49.0 372.0 Z M 49.0 422.0 " fill="#2A2A2A"></path><path d="M 49.0 372.0 L 100.8 372.0 L 100.8 322.0 L 49.0 322.0 Z M 49.0 372.0 " fill="#2A2A2A"></path><text xml:space="preserve" font-family="Menlo-Bold" font-weight="bold" font-size="43.0" fill="#CC7831" transform="matrix(1.00, 0.00, -0.00, -1.00, 49.0, 582.0)">v</text><text xml:space="preserve" font-family="Menlo-Bold" font-weight="bold" font-size="43.0" fill="#CC7831" transform="matrix(1.00, 0.00, -0.00, -1.00, 74.9, 582.0)">a</text><text xml:space="preserve" font-family="Menlo-Bold" font-weight="bold" font-size="43.0" fill="#CC7831" transform="matrix(1.00, 0.00, -0.00, -1.00, 100.8, 582.0)">l</text><text xml:space="preserve" font-family="Menlo-Bold" font-weight="bold" font-size="43.0" fill="#CC7831" transform="matrix(1.00, 0.00, -0.00, -1.00, 126.7, 582.0)"> </text><text xml:space="preserve" font-family="Menlo-Regular" font-size="43.0" fill="#A9B6C6" transform="matrix(1.00, 0.00, -0.00, -1.00, 152.6, 582.0)">t</text><text xml:space="preserve" font-family="Menlo-Regular" font-size="43.0" fill="#A9B6C6" transform="matrix(1.00, 0.00, -0.00, -1.00, 178.4, 582.0)">i</text><text xml:space="preserve" font-family="Menlo-Regular" font-size="43.0" fill="#A9B6C6" transform="matrix(1.00, 0.00, -0.00, -1.00, 204.3, 582.0)">m</text><text xml:space="preserve" font-family="Menlo-Regular" font-size="43.0" fill="#A9B6C6" transform="matrix(1.00, 0.00, -0.00, -1.00, 230.2, 582.0)">e</text><text xml:space="preserve" font-family="Menlo-Regular" font-size="43.0" fill="#A9B6C6" transform="matrix(1.00, 0.00, -0.00, -1.00, 256.1, 582.0)">s</text><text xml:space="preserve" font-family="Menlo-Regular" font-size="43.0" fill="#A9B6C6" transform="matrix(1.00, 0.00, -0.00, -1.00, 282.0, 582.0)"> </text><text xml:space="preserve" font-family="Menlo-Regular" font-size="43.0" fill="#A9B6C6" transform="matrix(1.00, 0.00, -0.00, -1.00, 307.9, 582.0)">=</text><text xml:space="preserve" font-family="Menlo-Regular" font-size="43.0" fill="#A9B6C6" transform="matrix(1.00, 0.00, -0.00, -1.00, 333.8, 582.0)"> </text><text xml:space="preserve" font-family="Menlo-Regular" font-size="43.0" fill="#6796BB" transform="matrix(1.00, 0.00, -0.00, -1.00, 359.7, 582.0)">1</text><text xml:space="preserve" font-family="Monaco" font-size="43.0" fill="#6796BB" transform="matrix(1.00, 0.00, -0.00, -1.00, 385.5, 582.0)"> </text><text xml:space="preserve" font-family="Menlo-Regular" font-size="43.0" fill="#A9B6C6" transform="matrix(1.00, 0.00, -0.00, -1.00, 49.0, 532.0)">t</text><text xml:space="preserve" font-family="Menlo-Regular" font-size="43.0" fill="#A9B6C6" transform="matrix(1.00, 0.00, -0.00, -1.00, 74.9, 532.0)">i</text><text xml:space="preserve" font-family="Menlo-Regular" font-size="43.0" fill="#A9B6C6" transform="matrix(1.00, 0.00, -0.00, -1.00, 100.8, 532.0)">m</text><text xml:space="preserve" font-family="Menlo-Regular" font-size="43.0" fill="#A9B6C6" transform="matrix(1.00, 0.00, -0.00, -1.00, 126.7, 532.0)">e</text><text xml:space="preserve" font-family="Menlo-Regular" font-size="43.0" fill="#A9B6C6" transform="matrix(1.00, 0.00, -0.00, -1.00, 152.6, 532.0)">s</text><text xml:space="preserve" font-family="Menlo-Regular" font-size="43.0" fill="#A9B6C6" transform="matrix(1.00, 0.00, -0.00, -1.00, 178.5, 532.0)"> </text><text xml:space="preserve" font-family="Menlo-Bold" font-weight="bold" font-size="43.0" fill="#CC7831" transform="matrix(1.00, 0.00, -0.00, -1.00, 204.3, 532.0)">m</text><text xml:space="preserve" font-family="Menlo-Bold" font-weight="bold" font-size="43.0" fill="#CC7831" transform="matrix(1.00, 0.00, -0.00, -1.00, 230.2, 532.0)">a</text><text xml:space="preserve" font-family="Menlo-Bold" font-weight="bold" font-size="43.0" fill="#CC7831" transform="matrix(1.00, 0.00, -0.00, -1.00, 256.1, 532.0)">t</text><text xml:space="preserve" font-family="Menlo-Bold" font-weight="bold" font-size="43.0" fill="#CC7831" transform="matrix(1.00, 0.00, -0.00, -1.00, 282.0, 532.0)">c</text><text xml:space="preserve" font-family="Menlo-Bold" font-weight="bold" font-size="43.0" fill="#CC7831" transform="matrix(1.00, 0.00, -0.00, -1.00, 307.9, 532.0)">h</text><text xml:space="preserve" font-family="Menlo-Bold" font-weight="bold" font-size="43.0" fill="#CC7831" transform="matrix(1.00, 0.00, -0.00, -1.00, 333.8, 532.0)"> </text><text xml:space="preserve" font-family="Menlo-Regular" font-size="43.0" fill="#A9B6C6" transform="matrix(1.00, 0.00, -0.00, -1.00, 359.7, 532.0)">{</text><text xml:space="preserve" font-family="Monaco" font-size="43.0" fill="#A9B6C6" transform="matrix(1.00, 0.00, -0.00, -1.00, 385.5, 532.0)"> </text><text xml:space="preserve" font-family="Menlo-Regular" font-size="43.0" fill="#A9B6C6" transform="matrix(1.00, 0.00, -0.00, -1.00, 49.0, 482.0)"> </text><text xml:space="preserve" font-family="Menlo-Regular" font-size="43.0" fill="#A9B6C6" transform="matrix(1.00, 0.00, -0.00, -1.00, 74.9, 482.0)"> </text><text xml:space="preserve" font-family="Menlo-Bold" font-weight="bold" font-size="43.0" fill="#CC7831" transform="matrix(1.00, 0.00, -0.00, -1.00, 100.8, 482.0)">c</text><text xml:space="preserve" font-family="Menlo-Bold" font-weight="bold" font-size="43.0" fill="#CC7831" transform="matrix(1.00, 0.00, -0.00, -1.00, 126.7, 482.0)">a</text><text xml:space="preserve" font-family="Menlo-Bold" font-weight="bold" font-size="43.0" fill="#CC7831" transform="matrix(1.00, 0.00, -0.00, -1.00, 152.6, 482.0)">s</text><text xml:space="preserve" font-family="Menlo-Bold" font-weight="bold" font-size="43.0" fill="#CC7831" transform="matrix(1.00, 0.00, -0.00, -1.00, 178.5, 482.0)">e</text><text xml:space="preserve" font-family="Menlo-Bold" font-weight="bold" font-size="43.0" fill="#CC7831" transform="matrix(1.00, 0.00, -0.00, -1.00, 204.3, 482.0)"> </text><text xml:space="preserve" font-family="Menlo-Regular" font-size="43.0" fill="#6796BB" transform="matrix(1.00, 0.00, -0.00, -1.00, 230.2, 482.0)">1</text><text xml:space="preserve" font-family="Menlo-Regular" font-size="43.0" fill="#6796BB" transform="matrix(1.00, 0.00, -0.00, -1.00, 256.1, 482.0)"> </text><text xml:space="preserve" font-family="Menlo-Regular" font-size="43.0" fill="#A9B6C6" transform="matrix(1.00, 0.00, -0.00, -1.00, 282.0, 482.0)">=</text><text xml:space="preserve" font-family="Menlo-Regular" font-size="43.0" fill="#A9B6C6" transform="matrix(1.00, 0.00, -0.00, -1.00, 307.9, 482.0)">&gt;</text><text xml:space="preserve" font-family="Menlo-Regular" font-size="43.0" fill="#A9B6C6" transform="matrix(1.00, 0.00, -0.00, -1.00, 333.8, 482.0)"> </text><text xml:space="preserve" font-family="Menlo-Regular" font-size="43.0" fill="#6A8758" transform="matrix(1.00, 0.00, -0.00, -1.00, 359.7, 482.0)">"</text><text xml:space="preserve" font-family="Menlo-Regular" font-size="43.0" fill="#6A8758" transform="matrix(1.00, 0.00, -0.00, -1.00, 385.6, 482.0)">o</text><text xml:space="preserve" font-family="Menlo-Regular" font-size="43.0" fill="#6A8758" transform="matrix(1.00, 0.00, -0.00, -1.00, 411.4, 482.0)">n</text><text xml:space="preserve" font-family="Menlo-Regular" font-size="43.0" fill="#6A8758" transform="matrix(1.00, 0.00, -0.00, -1.00, 437.3, 482.0)">e</text><text xml:space="preserve" font-family="Menlo-Regular" font-size="43.0" fill="#6A8758" transform="matrix(1.00, 0.00, -0.00, -1.00, 463.2, 482.0)">"</text><text xml:space="preserve" font-family="Monaco" font-size="43.0" fill="#6A8758" transform="matrix(1.00, 0.00, -0.00, -1.00, 489.1, 482.0)"> </text><text xml:space="preserve" font-family="Menlo-Regular" font-size="43.0" fill="#6A8758" transform="matrix(1.00, 0.00, -0.00, -1.00, 49.0, 432.0)"> </text><text xml:space="preserve" font-family="Menlo-Regular" font-size="43.0" fill="#6A8758" transform="matrix(1.00, 0.00, -0.00, -1.00, 74.9, 432.0)"> </text><text xml:space="preserve" font-family="Menlo-Bold" font-weight="bold" font-size="43.0" fill="#CC7831" transform="matrix(1.00, 0.00, -0.00, -1.00, 100.8, 432.0)">c</text><text xml:space="preserve" font-family="Menlo-Bold" font-weight="bold" font-size="43.0" fill="#CC7831" transform="matrix(1.00, 0.00, -0.00, -1.00, 126.7, 432.0)">a</text><text xml:space="preserve" font-family="Menlo-Bold" font-weight="bold" font-size="43.0" fill="#CC7831" transform="matrix(1.00, 0.00, -0.00, -1.00, 152.6, 432.0)">s</text><text xml:space="preserve" font-family="Menlo-Bold" font-weight="bold" font-size="43.0" fill="#CC7831" transform="matrix(1.00, 0.00, -0.00, -1.00, 178.5, 432.0)">e</text><text xml:space="preserve" font-family="Menlo-Bold" font-weight="bold" font-size="43.0" fill="#CC7831" transform="matrix(1.00, 0.00, -0.00, -1.00, 204.3, 432.0)"> </text><text xml:space="preserve" font-family="Menlo-Regular" font-size="43.0" fill="#6796BB" transform="matrix(1.00, 0.00, -0.00, -1.00, 230.2, 432.0)">2</text><text xml:space="preserve" font-family="Menlo-Regular" font-size="43.0" fill="#6796BB" transform="matrix(1.00, 0.00, -0.00, -1.00, 256.1, 432.0)"> </text><text xml:space="preserve" font-family="Menlo-Regular" font-size="43.0" fill="#A9B6C6" transform="matrix(1.00, 0.00, -0.00, -1.00, 282.0, 432.0)">=</text><text xml:space="preserve" font-family="Menlo-Regular" font-size="43.0" fill="#A9B6C6" transform="matrix(1.00, 0.00, -0.00, -1.00, 307.9, 432.0)">&gt;</text><text xml:space="preserve" font-family="Menlo-Regular" font-size="43.0" fill="#A9B6C6" transform="matrix(1.00, 0.00, -0.00, -1.00, 333.8, 432.0)"> </text><text xml:space="preserve" font-family="Menlo-Regular" font-size="43.0" fill="#6A8758" transform="matrix(1.00, 0.00, -0.00, -1.00, 359.7, 432.0)">"</text><text xml:space="preserve" font-family="Menlo-Regular" font-size="43.0" fill="#6A8758" transform="matrix(1.00, 0.00, -0.00, -1.00, 385.6, 432.0)">t</text><text xml:space="preserve" font-family="Menlo-Regular" font-size="43.0" fill="#6A8758" transform="matrix(1.00, 0.00, -0.00, -1.00, 411.4, 432.0)">w</text><text xml:space="preserve" font-family="Menlo-Regular" font-size="43.0" fill="#6A8758" transform="matrix(1.00, 0.00, -0.00, -1.00, 437.3, 432.0)">o</text><text xml:space="preserve" font-family="Menlo-Regular" font-size="43.0" fill="#6A8758" transform="matrix(1.00, 0.00, -0.00, -1.00, 463.2, 432.0)">"</text><text xml:space="preserve" font-family="Monaco" font-size="43.0" fill="#6A8758" transform="matrix(1.00, 0.00, -0.00, -1.00, 489.1, 432.0)"> </text><text xml:space="preserve" font-family="Menlo-Regular" font-size="43.0" fill="#6A8758" transform="matrix(1.00, 0.00, -0.00, -1.00, 49.0, 382.0)"> </text><text xml:space="preserve" font-family="Menlo-Regular" font-size="43.0" fill="#6A8758" transform="matrix(1.00, 0.00, -0.00, -1.00, 74.9, 382.0)"> </text><text xml:space="preserve" font-family="Menlo-Bold" font-weight="bold" font-size="43.0" fill="#CC7831" transform="matrix(1.00, 0.00, -0.00, -1.00, 100.8, 382.0)">c</text><text xml:space="preserve" font-family="Menlo-Bold" font-weight="bold" font-size="43.0" fill="#CC7831" transform="matrix(1.00, 0.00, -0.00, -1.00, 126.7, 382.0)">a</text><text xml:space="preserve" font-family="Menlo-Bold" font-weight="bold" font-size="43.0" fill="#CC7831" transform="matrix(1.00, 0.00, -0.00, -1.00, 152.6, 382.0)">s</text><text xml:space="preserve" font-family="Menlo-Bold" font-weight="bold" font-size="43.0" fill="#CC7831" transform="matrix(1.00, 0.00, -0.00, -1.00, 178.5, 382.0)">e</text><text xml:space="preserve" font-family="Menlo-Bold" font-weight="bold" font-size="43.0" fill="#CC7831" transform="matrix(1.00, 0.00, -0.00, -1.00, 204.3, 382.0)"> </text><text xml:space="preserve" font-family="Menlo-Regular" font-size="43.0" fill="#A9B6C6" transform="matrix(1.00, 0.00, -0.00, -1.00, 230.2, 382.0)">_</text><text xml:space="preserve" font-family="Menlo-Regular" font-size="43.0" fill="#A9B6C6" transform="matrix(1.00, 0.00, -0.00, -1.00, 256.1, 382.0)"> </text><text xml:space="preserve" font-family="Menlo-Regular" font-size="43.0" fill="#A9B6C6" transform="matrix(1.00, 0.00, -0.00, -1.00, 282.0, 382.0)">=</text><text xml:space="preserve" font-family="Menlo-Regular" font-size="43.0" fill="#A9B6C6" transform="matrix(1.00, 0.00, -0.00, -1.00, 307.9, 382.0)">&gt;</text><text xml:space="preserve" font-family="Menlo-Regular" font-size="43.0" fill="#A9B6C6" transform="matrix(1.00, 0.00, -0.00, -1.00, 333.8, 382.0)"> </text><text xml:space="preserve" font-family="Menlo-Regular" font-size="43.0" fill="#6A8758" transform="matrix(1.00, 0.00, -0.00, -1.00, 359.7, 382.0)">"</text><text xml:space="preserve" font-family="Menlo-Regular" font-size="43.0" fill="#6A8758" transform="matrix(1.00, 0.00, -0.00, -1.00, 385.6, 382.0)">s</text><text xml:space="preserve" font-family="Menlo-Regular" font-size="43.0" fill="#6A8758" transform="matrix(1.00, 0.00, -0.00, -1.00, 411.4, 382.0)">o</text><text xml:space="preserve" font-family="Menlo-Regular" font-size="43.0" fill="#6A8758" transform="matrix(1.00, 0.00, -0.00, -1.00, 437.3, 382.0)">m</text><text xml:space="preserve" font-family="Menlo-Regular" font-size="43.0" fill="#6A8758" transform="matrix(1.00, 0.00, -0.00, -1.00, 463.2, 382.0)">e</text><text xml:space="preserve" font-family="Menlo-Regular" font-size="43.0" fill="#6A8758" transform="matrix(1.00, 0.00, -0.00, -1.00, 489.1, 382.0)"> </text><text xml:space="preserve" font-family="Menlo-Regular" font-size="43.0" fill="#6A8758" transform="matrix(1.00, 0.00, -0.00, -1.00, 515.0, 382.0)">o</text><text xml:space="preserve" font-family="Menlo-Regular" font-size="43.0" fill="#6A8758" transform="matrix(1.00, 0.00, -0.00, -1.00, 540.9, 382.0)">t</text><text xml:space="preserve" font-family="Menlo-Regular" font-size="43.0" fill="#6A8758" transform="matrix(1.00, 0.00, -0.00, -1.00, 566.8, 382.0)">h</text><text xml:space="preserve" font-family="Menlo-Regular" font-size="43.0" fill="#6A8758" transform="matrix(1.00, 0.00, -0.00, -1.00, 592.7, 382.0)">e</text><text xml:space="preserve" font-family="Menlo-Regular" font-size="43.0" fill="#6A8758" transform="matrix(1.00, 0.00, -0.00, -1.00, 618.6, 382.0)">r</text><text xml:space="preserve" font-family="Menlo-Regular" font-size="43.0" fill="#6A8758" transform="matrix(1.00, 0.00, -0.00, -1.00, 644.5, 382.0)"> </text><text xml:space="preserve" font-family="Menlo-Regular" font-size="43.0" fill="#6A8758" transform="matrix(1.00, 0.00, -0.00, -1.00, 670.4, 382.0)">n</text><text xml:space="preserve" font-family="Menlo-Regular" font-size="43.0" fill="#6A8758" transform="matrix(1.00, 0.00, -0.00, -1.00, 696.3, 382.0)">u</text><text xml:space="preserve" font-family="Menlo-Regular" font-size="43.0" fill="#6A8758" transform="matrix(1.00, 0.00, -0.00, -1.00, 722.2, 382.0)">m</text><text xml:space="preserve" font-family="Menlo-Regular" font-size="43.0" fill="#6A8758" transform="matrix(1.00, 0.00, -0.00, -1.00, 748.0, 382.0)">b</text><text xml:space="preserve" font-family="Menlo-Regular" font-size="43.0" fill="#6A8758" transform="matrix(1.00, 0.00, -0.00, -1.00, 773.9, 382.0)">e</text><text xml:space="preserve" font-family="Menlo-Regular" font-size="43.0" fill="#6A8758" transform="matrix(1.00, 0.00, -0.00, -1.00, 799.8, 382.0)">r</text><text xml:space="preserve" font-family="Menlo-Regular" font-size="43.0" fill="#6A8758" transform="matrix(1.00, 0.00, -0.00, -1.00, 825.7, 382.0)">"</text><text xml:space="preserve" font-family="Monaco" font-size="43.0" fill="#6A8758" transform="matrix(1.00, 0.00, -0.00, -1.00, 851.5, 382.0)"> </text><text xml:space="preserve" font-family="Menlo-Regular" font-size="43.0" fill="#A9B6C6" transform="matrix(1.00, 0.00, -0.00, -1.00, 49.0, 332.0)">}</text><text xml:space="preserve" font-family="Menlo-Regular" font-size="43.0" fill="#A9B6C6" transform="matrix(1.00, 0.00, -0.00, -1.00, 74.9, 332.0)"> </text></g></svg>