<?xml version="1.0" encoding="UTF-8" standalone="no"?><svg xmlns="http://www.w3.org/2000/svg" xmlns:xlink="http://www.w3.org/1999/xlink" clip-rule="evenodd" stroke-miterlimit="4.00" viewBox="0 0 1024 768"><desc>SVG generated by Keynote</desc><defs></defs><g transform="matrix(1.00, 0.00, -0.00, -1.00, 0.0, 768.0)"><path d="M 0.0 768.0 L 1024.0 768.0 L 1024.0 0.0 L 0.0 0.0 Z M 0.0 768.0 " fill="#FFFFFF"></path><path d="M 0.0 0.0 L 934.0 0.0 " fill="none" stroke="#747676" stroke-width="3.00" stroke-linecap="round" stroke-linejoin="round" stroke-dasharray="0.0, 9.0" transform="matrix(1.00, 0.00, 0.00, -1.00, 45.0, 644.0)"></path><text xml:space="preserve" font-family="DINCondensed-Bold" font-weight="bold" font-size="48.4" fill="#747676" transform="matrix(1.00, 0.00, -0.00, -1.00, 49.0, 673.0)">F</text><text xml:space="preserve" font-family="DINCondensed-Bold" font-weight="bold" font-size="48.4" fill="#747676" transform="matrix(1.00, 0.00, -0.00, -1.00, 66.9, 673.0)">L</text><text xml:space="preserve" font-family="DINCondensed-Bold" font-weight="bold" font-size="48.4" fill="#747676" transform="matrix(1.00, 0.00, -0.00, -1.00, 84.8, 673.0)">A</text><text xml:space="preserve" font-family="DINCondensed-Bold" font-weight="bold" font-size="48.4" fill="#747676" transform="matrix(1.00, 0.00, -0.00, -1.00, 101.8, 673.0)">T</text><text xml:space="preserve" font-family="DINCondensed-Bold" font-weight="bold" font-size="48.4" fill="#747676" transform="matrix(1.00, 0.00, -0.00, -1.00, 117.9, 673.0)">T</text><text xml:space="preserve" font-family="DINCondensed-Bold" font-weight="bold" font-size="48.4" fill="#747676" transform="matrix(1.00, 0.00, -0.00, -1.00, 133.9, 673.0)">E</text><text xml:space="preserve" font-family="DINCondensed-Bold" font-weight="bold" font-size="48.4" fill="#747676" transform="matrix(1.00, 0.00, -0.00, -1.00, 151.8, 673.0)">N</text><path d="M 49.0 622.0 L 145.3 622.0 L 145.3 576.0 L 49.0 576.0 Z M 49.0 622.0 " fill="#344033"></path><path d="M 145.3 622.0 L 169.4 622.0 L 169.4 576.0 L 145.3 576.0 Z M 145.3 622.0 " fill="#2A2A2A"></path><path d="M 169.4 622.0 L 265.7 622.0 L 265.7 576.0 L 169.4 576.0 Z M 169.4 622.0 " fill="#344033"></path><path d="M 265.7 622.0 L 458.4 622.0 L 458.4 576.0 L 265.7 576.0 Z M 265.7 622.0 " fill="#2A2A2A"></path><path d="M 458.4 622.0 L 554.7 622.0 L 554.7 576.0 L 458.4 576.0 Z M 458.4 622.0 " fill="#344033"></path><path d="M 554.7 622.0 L 916.0 622.0 L 916.0 576.0 L 554.7 576.0 Z M 554.7 622.0 " fill="#2A2A2A"></path><text xml:space="preserve" font-family="Menlo-Regular" font-size="40.0" fill="#CACACA" transform="matrix(1.00, 0.00, -0.00, -1.00, 49.0, 585.0)">L</text><text xml:space="preserve" font-family="Menlo-Regular" font-size="40.0" fill="#CACACA" transform="matrix(1.00, 0.00, -0.00, -1.00, 73.1, 585.0)">i</text><text xml:space="preserve" font-family="Menlo-Regular" font-size="40.0" fill="#CACACA" transform="matrix(1.00, 0.00, -0.00, -1.00, 97.2, 585.0)">s</text><text xml:space="preserve" font-family="Menlo-Regular" font-size="40.0" fill="#CACACA" transform="matrix(1.00, 0.00, -0.00, -1.00, 121.3, 585.0)">t</text><text xml:space="preserve" font-family="Menlo-Regular" font-size="40.0" fill="#CACACA" transform="matrix(1.00, 0.00, -0.00, -1.00, 145.3, 585.0)">(</text><text xml:space="preserve" font-family="Menlo-Regular" font-size="40.0" fill="#CACACA" transform="matrix(1.00, 0.00, -0.00, -1.00, 169.4, 585.0)">L</text><text xml:space="preserve" font-family="Menlo-Regular" font-size="40.0" fill="#CACACA" transform="matrix(1.00, 0.00, -0.00, -1.00, 193.5, 585.0)">i</text><text xml:space="preserve" font-family="Menlo-Regular" font-size="40.0" fill="#CACACA" transform="matrix(1.00, 0.00, -0.00, -1.00, 217.6, 585.0)">s</text><text xml:space="preserve" font-family="Menlo-Regular" font-size="40.0" fill="#CACACA" transform="matrix(1.00, 0.00, -0.00, -1.00, 241.7, 585.0)">t</text><text xml:space="preserve" font-family="Menlo-Regular" font-size="40.0" fill="#CACACA" transform="matrix(1.00, 0.00, -0.00, -1.00, 265.7, 585.0)">(</text><text xml:space="preserve" font-family="Menlo-Regular" font-size="40.0" fill="#6796BB" transform="matrix(1.00, 0.00, -0.00, -1.00, 289.8, 585.0)">1</text><text xml:space="preserve" font-family="Menlo-Regular" font-size="40.0" fill="#CC7831" transform="matrix(1.00, 0.00, -0.00, -1.00, 313.9, 585.0)">,</text><text xml:space="preserve" font-family="Menlo-Regular" font-size="40.0" fill="#CC7831" transform="matrix(1.00, 0.00, -0.00, -1.00, 338.0, 585.0)"> </text><text xml:space="preserve" font-family="Menlo-Regular" font-size="40.0" fill="#6796BB" transform="matrix(1.00, 0.00, -0.00, -1.00, 362.1, 585.0)">2</text><text xml:space="preserve" font-family="Menlo-Regular" font-size="40.0" fill="#A9B6C6" transform="matrix(1.00, 0.00, -0.00, -1.00, 386.1, 585.0)">)</text><text xml:space="preserve" font-family="Menlo-Regular" font-size="40.0" fill="#CC7831" transform="matrix(1.00, 0.00, -0.00, -1.00, 410.2, 585.0)">,</text><text xml:space="preserve" font-family="Menlo-Regular" font-size="40.0" fill="#CC7831" transform="matrix(1.00, 0.00, -0.00, -1.00, 434.3, 585.0)"> </text><text xml:space="preserve" font-family="Menlo-Regular" font-size="40.0" fill="#A9B6C6" transform="matrix(1.00, 0.00, -0.00, -1.00, 458.4, 585.0)">L</text><text xml:space="preserve" font-family="Menlo-Regular" font-size="40.0" fill="#A9B6C6" transform="matrix(1.00, 0.00, -0.00, -1.00, 482.5, 585.0)">i</text><text xml:space="preserve" font-family="Menlo-Regular" font-size="40.0" fill="#A9B6C6" transform="matrix(1.00, 0.00, -0.00, -1.00, 506.6, 585.0)">s</text><text xml:space="preserve" font-family="Menlo-Regular" font-size="40.0" fill="#A9B6C6" transform="matrix(1.00, 0.00, -0.00, -1.00, 530.7, 585.0)">t</text><text xml:space="preserve" font-family="Menlo-Regular" font-size="40.0" fill="#A9B6C6" transform="matrix(1.00, 0.00, -0.00, -1.00, 554.7, 585.0)">(</text><text xml:space="preserve" font-family="Menlo-Regular" font-size="40.0" fill="#6796BB" transform="matrix(1.00, 0.00, -0.00, -1.00, 578.8, 585.0)">3</text><text xml:space="preserve" font-family="Menlo-Regular" font-size="40.0" fill="#CC7831" transform="matrix(1.00, 0.00, -0.00, -1.00, 602.9, 585.0)">,</text><text xml:space="preserve" font-family="Menlo-Regular" font-size="40.0" fill="#CC7831" transform="matrix(1.00, 0.00, -0.00, -1.00, 627.0, 585.0)"> </text><text xml:space="preserve" font-family="Menlo-Regular" font-size="40.0" fill="#6796BB" transform="matrix(1.00, 0.00, -0.00, -1.00, 651.1, 585.0)">4</text><text xml:space="preserve" font-family="Menlo-Regular" font-size="40.0" fill="#A9B6C6" transform="matrix(1.00, 0.00, -0.00, -1.00, 675.1, 585.0)">)</text><text xml:space="preserve" font-family="Menlo-Regular" font-size="40.0" fill="#A9B6C6" transform="matrix(1.00, 0.00, -0.00, -1.00, 699.2, 585.0)">)</text><text xml:space="preserve" font-family="Menlo-Regular" font-size="40.0" fill="#A9B6C6" transform="matrix(1.00, 0.00, -0.00, -1.00, 723.3, 585.0)">.</text><text xml:space="preserve" font-family="Menlo-Regular" font-size="40.0" fill="#A9B6C6" transform="matrix(1.00, 0.00, -0.00, -1.00, 747.4, 585.0)">f</text><text xml:space="preserve" font-family="Menlo-Regular" font-size="40.0" fill="#A9B6C6" transform="matrix(1.00, 0.00, -0.00, -1.00, 771.5, 585.0)">l</text><text xml:space="preserve" font-family="Menlo-Regular" font-size="40.0" fill="#A9B6C6" transform="matrix(1.00, 0.00, -0.00, -1.00, 795.6, 585.0)">a</text><text xml:space="preserve" font-family="Menlo-Regular" font-size="40.0" fill="#A9B6C6" transform="matrix(1.00, 0.00, -0.00, -1.00, 819.6, 585.0)">t</text><text xml:space="preserve" font-family="Menlo-Regular" font-size="40.0" fill="#A9B6C6" transform="matrix(1.00, 0.00, -0.00, -1.00, 843.7, 585.0)">t</text><text xml:space="preserve" font-family="Menlo-Regular" font-size="40.0" fill="#A9B6C6" transform="matrix(1.00, 0.00, -0.00, -1.00, 867.8, 585.0)">e</text><text xml:space="preserve" font-family="Menlo-Regular" font-size="40.0" fill="#A9B6C6" transform="matrix(1.00, 0.00, -0.00, -1.00, 891.9, 585.0)">n</text><text xml:space="preserve" font-family="Monaco" font-size="40.0" fill="#A9B6C6" transform="matrix(1.00, 0.00, -0.00, -1.00, 916.0, 585.0)"> </text><text xml:space="preserve" font-family="ZapfDingbatsITC" font-size="24.0" fill="#5C5C5C" transform="matrix(1.00, 0.00, -0.00, -1.00, 49.0, 376.2)">➤</text><text xml:space="preserve" font-family="IowanOldStyle-Roman" font-size="32.0" fill="#5C5C5C" transform="matrix(1.00, 0.00, -0.00, -1.00, 86.0, 373.0)">`</text><text xml:space="preserve" font-family="IowanOldStyle-Roman" font-size="32.0" fill="#5C5C5C" transform="matrix(1.00, 0.00, -0.00, -1.00, 102.0, 373.0)">ﬂ</text><text xml:space="preserve" font-family="IowanOldStyle-Roman" font-size="32.0" fill="#5C5C5C" transform="matrix(1.00, 0.00, -0.00, -1.00, 121.4, 373.0)">a</text><text xml:space="preserve" font-family="IowanOldStyle-Roman" font-size="32.0" fill="#5C5C5C" transform="matrix(1.00, 0.00, -0.00, -1.00, 136.8, 373.0)">t</text><text xml:space="preserve" font-family="IowanOldStyle-Roman" font-size="32.0" fill="#5C5C5C" transform="matrix(1.00, 0.00, -0.00, -1.00, 148.3, 373.0)">t</text><text xml:space="preserve" font-family="IowanOldStyle-Roman" font-size="32.0" fill="#5C5C5C" transform="matrix(1.00, 0.00, -0.00, -1.00, 159.8, 373.0)">e</text><text xml:space="preserve" font-family="IowanOldStyle-Roman" font-size="32.0" fill="#5C5C5C" transform="matrix(1.00, 0.00, -0.00, -1.00, 175.4, 373.0)">n</text><text xml:space="preserve" font-family="IowanOldStyle-Roman" font-size="32.0" fill="#5C5C5C" transform="matrix(1.00, 0.00, -0.00, -1.00, 194.1, 373.0)">`</text><text xml:space="preserve" font-family="IowanOldStyle-Roman" font-size="32.0" fill="#5C5C5C" transform="matrix(1.00, 0.00, -0.00, -1.00, 210.1, 373.0)"> </text><text xml:space="preserve" font-family="IowanOldStyle-Roman" font-size="32.0" fill="#5C5C5C" transform="matrix(1.00, 0.00, -0.00, -1.00, 219.0, 373.0)">c</text><text xml:space="preserve" font-family="IowanOldStyle-Roman" font-size="32.0" fill="#5C5C5C" transform="matrix(1.00, 0.00, -0.00, -1.00, 233.3, 373.0)">o</text><text xml:space="preserve" font-family="IowanOldStyle-Roman" font-size="32.0" fill="#5C5C5C" transform="matrix(1.00, 0.00, -0.00, -1.00, 250.9, 373.0)">l</text><text xml:space="preserve" font-family="IowanOldStyle-Roman" font-size="32.0" fill="#5C5C5C" transform="matrix(1.00, 0.00, -0.00, -1.00, 260.2, 373.0)">l</text><text xml:space="preserve" font-family="IowanOldStyle-Roman" font-size="32.0" fill="#5C5C5C" transform="matrix(1.00, 0.00, -0.00, -1.00, 269.6, 373.0)">a</text><text xml:space="preserve" font-family="IowanOldStyle-Roman" font-size="32.0" fill="#5C5C5C" transform="matrix(1.00, 0.00, -0.00, -1.00, 285.0, 373.0)">p</text><text xml:space="preserve" font-family="IowanOldStyle-Roman" font-size="32.0" fill="#5C5C5C" transform="matrix(1.00, 0.00, -0.00, -1.00, 302.9, 373.0)">s</text><text xml:space="preserve" font-family="IowanOldStyle-Roman" font-size="32.0" fill="#5C5C5C" transform="matrix(1.00, 0.00, -0.00, -1.00, 317.1, 373.0)">e</text><text xml:space="preserve" font-family="IowanOldStyle-Roman" font-size="32.0" fill="#5C5C5C" transform="matrix(1.00, 0.00, -0.00, -1.00, 332.7, 373.0)">s</text><text xml:space="preserve" font-family="IowanOldStyle-Roman" font-size="32.0" fill="#5C5C5C" transform="matrix(1.00, 0.00, -0.00, -1.00, 346.8, 373.0)"> </text><text xml:space="preserve" font-family="IowanOldStyle-Roman" font-size="32.0" fill="#5C5C5C" transform="matrix(1.00, 0.00, -0.00, -1.00, 355.7, 373.0)">o</text><text xml:space="preserve" font-family="IowanOldStyle-Roman" font-size="32.0" fill="#5C5C5C" transform="matrix(1.00, 0.00, -0.00, -1.00, 373.3, 373.0)">n</text><text xml:space="preserve" font-family="IowanOldStyle-Roman" font-size="32.0" fill="#5C5C5C" transform="matrix(1.00, 0.00, -0.00, -1.00, 392.0, 373.0)">e</text><text xml:space="preserve" font-family="IowanOldStyle-Roman" font-size="32.0" fill="#5C5C5C" transform="matrix(1.00, 0.00, -0.00, -1.00, 407.6, 373.0)"> </text><text xml:space="preserve" font-family="IowanOldStyle-Roman" font-size="32.0" fill="#5C5C5C" transform="matrix(1.00, 0.00, -0.00, -1.00, 416.5, 373.0)">l</text><text xml:space="preserve" font-family="IowanOldStyle-Roman" font-size="32.0" fill="#5C5C5C" transform="matrix(1.00, 0.00, -0.00, -1.00, 425.9, 373.0)">e</text><text xml:space="preserve" font-family="IowanOldStyle-Roman" font-size="32.0" fill="#5C5C5C" transform="matrix(1.00, 0.00, -0.00, -1.00, 441.5, 373.0)">v</text><text xml:space="preserve" font-family="IowanOldStyle-Roman" font-size="32.0" fill="#5C5C5C" transform="matrix(1.00, 0.00, -0.00, -1.00, 457.2, 373.0)">e</text><text xml:space="preserve" font-family="IowanOldStyle-Roman" font-size="32.0" fill="#5C5C5C" transform="matrix(1.00, 0.00, -0.00, -1.00, 472.8, 373.0)">l</text><text xml:space="preserve" font-family="IowanOldStyle-Roman" font-size="32.0" fill="#5C5C5C" transform="matrix(1.00, 0.00, -0.00, -1.00, 482.1, 373.0)"> </text><text xml:space="preserve" font-family="IowanOldStyle-Roman" font-size="32.0" fill="#5C5C5C" transform="matrix(1.00, 0.00, -0.00, -1.00, 491.0, 373.0)">o</text><text xml:space="preserve" font-family="IowanOldStyle-Roman" font-size="32.0" fill="#5C5C5C" transform="matrix(1.00, 0.00, -0.00, -1.00, 508.6, 373.0)">f</text><text xml:space="preserve" font-family="IowanOldStyle-Roman" font-size="32.0" fill="#5C5C5C" transform="matrix(1.00, 0.00, -0.00, -1.00, 518.9, 373.0)"> </text><text xml:space="preserve" font-family="IowanOldStyle-Roman" font-size="32.0" fill="#5C5C5C" transform="matrix(1.00, 0.00, -0.00, -1.00, 527.8, 373.0)">n</text><text xml:space="preserve" font-family="IowanOldStyle-Roman" font-size="32.0" fill="#5C5C5C" transform="matrix(1.00, 0.00, -0.00, -1.00, 546.4, 373.0)">e</text><text xml:space="preserve" font-family="IowanOldStyle-Roman" font-size="32.0" fill="#5C5C5C" transform="matrix(1.00, 0.00, -0.00, -1.00, 562.0, 373.0)">s</text><text xml:space="preserve" font-family="IowanOldStyle-Roman" font-size="32.0" fill="#5C5C5C" transform="matrix(1.00, 0.00, -0.00, -1.00, 576.2, 373.0)">t</text><text xml:space="preserve" font-family="IowanOldStyle-Roman" font-size="32.0" fill="#5C5C5C" transform="matrix(1.00, 0.00, -0.00, -1.00, 587.7, 373.0)">e</text><text xml:space="preserve" font-family="IowanOldStyle-Roman" font-size="32.0" fill="#5C5C5C" transform="matrix(1.00, 0.00, -0.00, -1.00, 603.3, 373.0)">d</text><text xml:space="preserve" font-family="IowanOldStyle-Roman" font-size="32.0" fill="#5C5C5C" transform="matrix(1.00, 0.00, -0.00, -1.00, 621.3, 373.0)"> </text><text xml:space="preserve" font-family="IowanOldStyle-Roman" font-size="32.0" fill="#5C5C5C" transform="matrix(1.00, 0.00, -0.00, -1.00, 630.2, 373.0)">s</text><text xml:space="preserve" font-family="IowanOldStyle-Roman" font-size="32.0" fill="#5C5C5C" transform="matrix(1.00, 0.00, -0.00, -1.00, 644.4, 373.0)">t</text><text xml:space="preserve" font-family="IowanOldStyle-Roman" font-size="32.0" fill="#5C5C5C" transform="matrix(1.00, 0.00, -0.00, -1.00, 655.9, 373.0)">r</text><text xml:space="preserve" font-family="IowanOldStyle-Roman" font-size="32.0" fill="#5C5C5C" transform="matrix(1.00, 0.00, -0.00, -1.00, 668.4, 373.0)">u</text><text xml:space="preserve" font-family="IowanOldStyle-Roman" font-size="32.0" fill="#5C5C5C" transform="matrix(1.00, 0.00, -0.00, -1.00, 687.2, 373.0)">c</text><text xml:space="preserve" font-family="IowanOldStyle-Roman" font-size="32.0" fill="#5C5C5C" transform="matrix(1.00, 0.00, -0.00, -1.00, 701.5, 373.0)">t</text><text xml:space="preserve" font-family="IowanOldStyle-Roman" font-size="32.0" fill="#5C5C5C" transform="matrix(1.00, 0.00, -0.00, -1.00, 713.0, 373.0)">u</text><text xml:space="preserve" font-family="IowanOldStyle-Roman" font-size="32.0" fill="#5C5C5C" transform="matrix(1.00, 0.00, -0.00, -1.00, 731.8, 373.0)">r</text><text xml:space="preserve" font-family="IowanOldStyle-Roman" font-size="32.0" fill="#5C5C5C" transform="matrix(1.00, 0.00, -0.00, -1.00, 744.3, 373.0)">e</text><text xml:space="preserve" font-family="IowanOldStyle-Roman" font-size="32.0" fill="#5C5C5C" transform="matrix(1.00, 0.00, -0.00, -1.00, 759.9, 373.0)">.</text></g></svg>