<?xml version="1.0" encoding="UTF-8" standalone="no"?><svg xmlns="http://www.w3.org/2000/svg" xmlns:xlink="http://www.w3.org/1999/xlink" clip-rule="evenodd" stroke-miterlimit="4.00" viewBox="0 0 1024 768"><desc>SVG generated by Keynote</desc><defs></defs><g transform="matrix(1.00, 0.00, -0.00, -1.00, 0.0, 768.0)"><path d="M 0.0 768.0 L 1024.0 768.0 L 1024.0 0.0 L 0.0 0.0 Z M 0.0 768.0 " fill="#FFFFFF"></path><path d="M 0.0 0.0 L 934.0 0.0 " fill="none" stroke="#747676" stroke-width="3.00" stroke-linecap="round" stroke-linejoin="round" stroke-dasharray="0.0, 9.0" transform="matrix(1.00, 0.00, 0.00, -1.00, 45.0, 644.0)"></path><text xml:space="preserve" font-family="DINCondensed-Bold" font-weight="bold" font-size="48.4" fill="#747676" transform="matrix(1.00, 0.00, -0.00, -1.00, 49.0, 673.0)">S</text><text xml:space="preserve" font-family="DINCondensed-Bold" font-weight="bold" font-size="48.4" fill="#747676" transform="matrix(1.00, 0.00, -0.00, -1.00, 68.6, 673.0)">C</text><text xml:space="preserve" font-family="DINCondensed-Bold" font-weight="bold" font-size="48.4" fill="#747676" transform="matrix(1.00, 0.00, -0.00, -1.00, 88.3, 673.0)">A</text><text xml:space="preserve" font-family="DINCondensed-Bold" font-weight="bold" font-size="48.4" fill="#747676" transform="matrix(1.00, 0.00, -0.00, -1.00, 108.0, 673.0)">L</text><text xml:space="preserve" font-family="DINCondensed-Bold" font-weight="bold" font-size="48.4" fill="#747676" transform="matrix(1.00, 0.00, -0.00, -1.00, 125.9, 673.0)">A</text><text xml:space="preserve" font-family="DINCondensed-Bold" font-weight="bold" font-size="48.4" fill="#747676" transform="matrix(1.00, 0.00, -0.00, -1.00, 145.6, 673.0)"> </text><text xml:space="preserve" font-family="DINCondensed-Bold" font-weight="bold" font-size="48.4" fill="#747676" transform="matrix(1.00, 0.00, -0.00, -1.00, 154.6, 673.0)">C</text><text xml:space="preserve" font-family="DINCondensed-Bold" font-weight="bold" font-size="48.4" fill="#747676" transform="matrix(1.00, 0.00, -0.00, -1.00, 174.3, 673.0)">O</text><text xml:space="preserve" font-family="DINCondensed-Bold" font-weight="bold" font-size="48.4" fill="#747676" transform="matrix(1.00, 0.00, -0.00, -1.00, 194.9, 673.0)">U</text><text xml:space="preserve" font-family="DINCondensed-Bold" font-weight="bold" font-size="48.4" fill="#747676" transform="matrix(1.00, 0.00, -0.00, -1.00, 215.5, 673.0)">R</text><text xml:space="preserve" font-family="DINCondensed-Bold" font-weight="bold" font-size="48.4" fill="#747676" transform="matrix(1.00, 0.00, -0.00, -1.00, 236.1, 673.0)">S</text><text xml:space="preserve" font-family="DINCondensed-Bold" font-weight="bold" font-size="48.4" fill="#747676" transform="matrix(1.00, 0.00, -0.00, -1.00, 255.7, 673.0)">E</text><text xml:space="preserve" font-family="DINCondensed-Bold" font-weight="bold" font-size="48.4" fill="#747676" transform="matrix(1.00, 0.00, -0.00, -1.00, 273.6, 673.0)"> </text><text xml:space="preserve" font-family="DINCondensed-Bold" font-weight="bold" font-size="48.4" fill="#747676" transform="matrix(1.00, 0.00, -0.00, -1.00, 282.6, 673.0)">-</text><text xml:space="preserve" font-family="DINCondensed-Bold" font-weight="bold" font-size="48.4" fill="#747676" transform="matrix(1.00, 0.00, -0.00, -1.00, 301.4, 673.0)"> </text><text xml:space="preserve" font-family="DINCondensed-Bold" font-weight="bold" font-size="48.4" fill="#747676" transform="matrix(1.00, 0.00, -0.00, -1.00, 310.4, 673.0)">P</text><text xml:space="preserve" font-family="DINCondensed-Bold" font-weight="bold" font-size="48.4" fill="#747676" transform="matrix(1.00, 0.00, -0.00, -1.00, 328.3, 673.0)">A</text><text xml:space="preserve" font-family="DINCondensed-Bold" font-weight="bold" font-size="48.4" fill="#747676" transform="matrix(1.00, 0.00, -0.00, -1.00, 348.0, 673.0)">R</text><text xml:space="preserve" font-family="DINCondensed-Bold" font-weight="bold" font-size="48.4" fill="#747676" transform="matrix(1.00, 0.00, -0.00, -1.00, 367.7, 673.0)">T</text><text xml:space="preserve" font-family="DINCondensed-Bold" font-weight="bold" font-size="48.4" fill="#747676" transform="matrix(1.00, 0.00, -0.00, -1.00, 383.7, 673.0)"> </text><text xml:space="preserve" font-family="DINCondensed-Bold" font-weight="bold" font-size="48.4" fill="#747676" transform="matrix(1.00, 0.00, -0.00, -1.00, 392.7, 673.0)">F</text><text xml:space="preserve" font-family="DINCondensed-Bold" font-weight="bold" font-size="48.4" fill="#747676" transform="matrix(1.00, 0.00, -0.00, -1.00, 410.6, 673.0)">O</text><text xml:space="preserve" font-family="DINCondensed-Bold" font-weight="bold" font-size="48.4" fill="#747676" transform="matrix(1.00, 0.00, -0.00, -1.00, 431.2, 673.0)">U</text><text xml:space="preserve" font-family="DINCondensed-Bold" font-weight="bold" font-size="48.4" fill="#747676" transform="matrix(1.00, 0.00, -0.00, -1.00, 451.8, 673.0)">R</text><text xml:space="preserve" font-family="ZapfDingbatsITC" font-size="24.0" fill="#5C5C5C" transform="matrix(1.00, 0.00, -0.00, -1.00, 49.0, 592.2)">➤</text><text xml:space="preserve" font-family="IowanOldStyle-Roman" font-size="32.0" fill="#5C5C5C" transform="matrix(1.00, 0.00, -0.00, -1.00, 86.0, 589.0)">I</text><text xml:space="preserve" font-family="IowanOldStyle-Roman" font-size="32.0" fill="#5C5C5C" transform="matrix(1.00, 0.00, -0.00, -1.00, 96.9, 589.0)">n</text><text xml:space="preserve" font-family="IowanOldStyle-Roman" font-size="32.0" fill="#5C5C5C" transform="matrix(1.00, 0.00, -0.00, -1.00, 115.6, 589.0)">t</text><text xml:space="preserve" font-family="IowanOldStyle-Roman" font-size="32.0" fill="#5C5C5C" transform="matrix(1.00, 0.00, -0.00, -1.00, 127.1, 589.0)">e</text><text xml:space="preserve" font-family="IowanOldStyle-Roman" font-size="32.0" fill="#5C5C5C" transform="matrix(1.00, 0.00, -0.00, -1.00, 142.7, 589.0)">l</text><text xml:space="preserve" font-family="IowanOldStyle-Roman" font-size="32.0" fill="#5C5C5C" transform="matrix(1.00, 0.00, -0.00, -1.00, 152.0, 589.0)">l</text><text xml:space="preserve" font-family="IowanOldStyle-Roman" font-size="32.0" fill="#5C5C5C" transform="matrix(1.00, 0.00, -0.00, -1.00, 161.4, 589.0)">i</text><text xml:space="preserve" font-family="IowanOldStyle-Roman" font-size="32.0" fill="#5C5C5C" transform="matrix(1.00, 0.00, -0.00, -1.00, 170.9, 589.0)">J</text><text xml:space="preserve" font-family="IowanOldStyle-Roman" font-size="32.0" fill="#5C5C5C" transform="matrix(1.00, 0.00, -0.00, -1.00, 181.5, 589.0)"> </text><text xml:space="preserve" font-family="IowanOldStyle-Roman" font-size="32.0" fill="#5C5C5C" transform="matrix(1.00, 0.00, -0.00, -1.00, 190.4, 589.0)">t</text><text xml:space="preserve" font-family="IowanOldStyle-Roman" font-size="32.0" fill="#5C5C5C" transform="matrix(1.00, 0.00, -0.00, -1.00, 201.9, 589.0)">i</text><text xml:space="preserve" font-family="IowanOldStyle-Roman" font-size="32.0" fill="#5C5C5C" transform="matrix(1.00, 0.00, -0.00, -1.00, 211.4, 589.0)">p</text><text xml:space="preserve" font-family="IowanOldStyle-Roman" font-size="32.0" fill="#5C5C5C" transform="matrix(1.00, 0.00, -0.00, -1.00, 229.3, 589.0)">s</text><text xml:space="preserve" font-family="IowanOldStyle-Roman" font-size="32.0" fill="#5C5C5C" transform="matrix(1.00, 0.00, -0.00, -1.00, 243.5, 589.0)"> </text><text xml:space="preserve" font-family="IowanOldStyle-Roman" font-size="32.0" fill="#5C5C5C" transform="matrix(1.00, 0.00, -0.00, -1.00, 252.4, 589.0)">a</text><text xml:space="preserve" font-family="IowanOldStyle-Roman" font-size="32.0" fill="#5C5C5C" transform="matrix(1.00, 0.00, -0.00, -1.00, 267.7, 589.0)">n</text><text xml:space="preserve" font-family="IowanOldStyle-Roman" font-size="32.0" fill="#5C5C5C" transform="matrix(1.00, 0.00, -0.00, -1.00, 286.4, 589.0)">d</text><text xml:space="preserve" font-family="IowanOldStyle-Roman" font-size="32.0" fill="#5C5C5C" transform="matrix(1.00, 0.00, -0.00, -1.00, 304.4, 589.0)"> </text><text xml:space="preserve" font-family="IowanOldStyle-Roman" font-size="32.0" fill="#5C5C5C" transform="matrix(1.00, 0.00, -0.00, -1.00, 313.3, 589.0)">t</text><text xml:space="preserve" font-family="IowanOldStyle-Roman" font-size="32.0" fill="#5C5C5C" transform="matrix(1.00, 0.00, -0.00, -1.00, 324.8, 589.0)">r</text><text xml:space="preserve" font-family="IowanOldStyle-Roman" font-size="32.0" fill="#5C5C5C" transform="matrix(1.00, 0.00, -0.00, -1.00, 337.3, 589.0)">i</text><text xml:space="preserve" font-family="IowanOldStyle-Roman" font-size="32.0" fill="#5C5C5C" transform="matrix(1.00, 0.00, -0.00, -1.00, 346.8, 589.0)">c</text><text xml:space="preserve" font-family="IowanOldStyle-Roman" font-size="32.0" fill="#5C5C5C" transform="matrix(1.00, 0.00, -0.00, -1.00, 361.1, 589.0)">k</text><text xml:space="preserve" font-family="IowanOldStyle-Roman" font-size="32.0" fill="#5C5C5C" transform="matrix(1.00, 0.00, -0.00, -1.00, 378.6, 589.0)">s</text><text xml:space="preserve" font-family="IowanOldStyle-Roman" font-size="32.0" fill="#5C5C5C" transform="matrix(1.00, 0.00, -0.00, -1.00, 392.7, 589.0)"> </text><text xml:space="preserve" font-family="ZapfDingbatsITC" font-size="24.0" fill="#5C5C5C" transform="matrix(1.00, 0.00, -0.00, -1.00, 86.0, 530.2)">➤</text><text xml:space="preserve" font-family="IowanOldStyle-Roman" font-size="32.0" fill="#5C5C5C" transform="matrix(1.00, 0.00, -0.00, -1.00, 123.0, 527.0)">D</text><text xml:space="preserve" font-family="IowanOldStyle-Roman" font-size="32.0" fill="#5C5C5C" transform="matrix(1.00, 0.00, -0.00, -1.00, 148.0, 527.0)">e</text><text xml:space="preserve" font-family="IowanOldStyle-Roman" font-size="32.0" fill="#5C5C5C" transform="matrix(1.00, 0.00, -0.00, -1.00, 163.6, 527.0)">b</text><text xml:space="preserve" font-family="IowanOldStyle-Roman" font-size="32.0" fill="#5C5C5C" transform="matrix(1.00, 0.00, -0.00, -1.00, 181.4, 527.0)">u</text><text xml:space="preserve" font-family="IowanOldStyle-Roman" font-size="32.0" fill="#5C5C5C" transform="matrix(1.00, 0.00, -0.00, -1.00, 200.2, 527.0)">g</text><text xml:space="preserve" font-family="IowanOldStyle-Roman" font-size="32.0" fill="#5C5C5C" transform="matrix(1.00, 0.00, -0.00, -1.00, 216.7, 527.0)">g</text><text xml:space="preserve" font-family="IowanOldStyle-Roman" font-size="32.0" fill="#5C5C5C" transform="matrix(1.00, 0.00, -0.00, -1.00, 233.2, 527.0)">i</text><text xml:space="preserve" font-family="IowanOldStyle-Roman" font-size="32.0" fill="#5C5C5C" transform="matrix(1.00, 0.00, -0.00, -1.00, 242.7, 527.0)">n</text><text xml:space="preserve" font-family="IowanOldStyle-Roman" font-size="32.0" fill="#5C5C5C" transform="matrix(1.00, 0.00, -0.00, -1.00, 261.4, 527.0)">g</text><text xml:space="preserve" font-family="IowanOldStyle-Roman" font-size="32.0" fill="#5C5C5C" transform="matrix(1.00, 0.00, -0.00, -1.00, 277.9, 527.0)"> </text><text xml:space="preserve" font-family="ZapfDingbatsITC" font-size="24.0" fill="#5C5C5C" transform="matrix(1.00, 0.00, -0.00, -1.00, 86.0, 468.2)">➤</text><text xml:space="preserve" font-family="IowanOldStyle-Roman" font-size="32.0" fill="#5C5C5C" transform="matrix(1.00, 0.00, -0.00, -1.00, 123.0, 465.0)">S</text><text xml:space="preserve" font-family="IowanOldStyle-Roman" font-size="32.0" fill="#5C5C5C" transform="matrix(1.00, 0.00, -0.00, -1.00, 140.3, 465.0)">h</text><text xml:space="preserve" font-family="IowanOldStyle-Roman" font-size="32.0" fill="#5C5C5C" transform="matrix(1.00, 0.00, -0.00, -1.00, 159.1, 465.0)">o</text><text xml:space="preserve" font-family="IowanOldStyle-Roman" font-size="32.0" fill="#5C5C5C" transform="matrix(1.00, 0.00, -0.00, -1.00, 176.7, 465.0)">r</text><text xml:space="preserve" font-family="IowanOldStyle-Roman" font-size="32.0" fill="#5C5C5C" transform="matrix(1.00, 0.00, -0.00, -1.00, 189.2, 465.0)">t</text><text xml:space="preserve" font-family="IowanOldStyle-Roman" font-size="32.0" fill="#5C5C5C" transform="matrix(1.00, 0.00, -0.00, -1.00, 200.7, 465.0)">c</text><text xml:space="preserve" font-family="IowanOldStyle-Roman" font-size="32.0" fill="#5C5C5C" transform="matrix(1.00, 0.00, -0.00, -1.00, 215.0, 465.0)">u</text><text xml:space="preserve" font-family="IowanOldStyle-Roman" font-size="32.0" fill="#5C5C5C" transform="matrix(1.00, 0.00, -0.00, -1.00, 233.8, 465.0)">t</text><text xml:space="preserve" font-family="IowanOldStyle-Roman" font-size="32.0" fill="#5C5C5C" transform="matrix(1.00, 0.00, -0.00, -1.00, 245.3, 465.0)">s</text></g></svg>