<?xml version="1.0" encoding="UTF-8" standalone="no"?><svg xmlns="http://www.w3.org/2000/svg" xmlns:xlink="http://www.w3.org/1999/xlink" clip-rule="evenodd" stroke-miterlimit="4.00" viewBox="0 0 1024 768"><desc>SVG generated by Keynote</desc><defs></defs><g transform="matrix(1.00, 0.00, -0.00, -1.00, 0.0, 768.0)"><path d="M 0.0 768.0 L 1024.0 768.0 L 1024.0 0.0 L 0.0 0.0 Z M 0.0 768.0 " fill="#FFFFFF"></path><g><clipPath id="clip-113"><path d="M 593.0 768.0 L 1024.0 768.0 L 1024.0 0.0 L 593.0 0.0 Z M 593.0 768.0 "></path></clipPath><g clip-path="url(#clip-113)"><image xlink:href="C9C45D50B2E7D68C0E9AAA86DD9F4E44.jpeg" width="769.00" height="769.00" transform="matrix(1.00, 0.00, -0.00, -1.00, 330.0, 769.0)"></image></g></g><path d="M 0.0 0.0 L 508.0 0.0 " fill="none" stroke="#747676" stroke-width="3.00" stroke-linecap="round" stroke-linejoin="round" stroke-dasharray="0.0, 9.0" transform="matrix(1.00, 0.00, 0.00, -1.00, 45.0, 168.0)"></path><text xml:space="preserve" font-family="DINCondensed-Bold" font-weight="bold" font-size="121.0" fill="#5C5C5C" transform="matrix(1.00, 0.00, -0.00, -1.00, 307.4, 315.0)">S</text><text xml:space="preserve" font-family="DINCondensed-Bold" font-weight="bold" font-size="121.0" fill="#5C5C5C" transform="matrix(1.00, 0.00, -0.00, -1.00, 356.5, 315.0)">C</text><text xml:space="preserve" font-family="DINCondensed-Bold" font-weight="bold" font-size="121.0" fill="#5C5C5C" transform="matrix(1.00, 0.00, -0.00, -1.00, 405.7, 315.0)">A</text><text xml:space="preserve" font-family="DINCondensed-Bold" font-weight="bold" font-size="121.0" fill="#5C5C5C" transform="matrix(1.00, 0.00, -0.00, -1.00, 455.0, 315.0)">L</text><text xml:space="preserve" font-family="DINCondensed-Bold" font-weight="bold" font-size="121.0" fill="#5C5C5C" transform="matrix(1.00, 0.00, -0.00, -1.00, 499.8, 315.0)">A</text><text xml:space="preserve" font-family="DINCondensed-Bold" font-weight="bold" font-size="121.0" fill="#5C5C5C" transform="matrix(1.00, 0.00, -0.00, -1.00, 549.0, 315.0)"> </text><text xml:space="preserve" font-family="DINCondensed-Bold" font-weight="bold" font-size="121.0" fill="#5C5C5C" transform="matrix(1.00, 0.00, -0.00, -1.00, 571.5, 315.0)"> </text><text xml:space="preserve" font-family="DINCondensed-Bold" font-weight="bold" font-size="121.0" fill="#5C5C5C" transform="matrix(1.00, 0.00, -0.00, -1.00, 143.5, 194.2)">P</text><text xml:space="preserve" font-family="DINCondensed-Bold" font-weight="bold" font-size="121.0" fill="#5C5C5C" transform="matrix(1.00, 0.00, -0.00, -1.00, 188.3, 194.2)">A</text><text xml:space="preserve" font-family="DINCondensed-Bold" font-weight="bold" font-size="121.0" fill="#5C5C5C" transform="matrix(1.00, 0.00, -0.00, -1.00, 237.5, 194.2)">R</text><text xml:space="preserve" font-family="DINCondensed-Bold" font-weight="bold" font-size="121.0" fill="#5C5C5C" transform="matrix(1.00, 0.00, -0.00, -1.00, 286.9, 194.2)">T</text><text xml:space="preserve" font-family="DINCondensed-Bold" font-weight="bold" font-size="121.0" fill="#5C5C5C" transform="matrix(1.00, 0.00, -0.00, -1.00, 327.1, 194.2)"> </text><text xml:space="preserve" font-family="DINCondensed-Bold" font-weight="bold" font-size="121.0" fill="#5C5C5C" transform="matrix(1.00, 0.00, -0.00, -1.00, 349.6, 194.2)">F</text><text xml:space="preserve" font-family="DINCondensed-Bold" font-weight="bold" font-size="121.0" fill="#5C5C5C" transform="matrix(1.00, 0.00, -0.00, -1.00, 394.4, 194.2)">O</text><text xml:space="preserve" font-family="DINCondensed-Bold" font-weight="bold" font-size="121.0" fill="#5C5C5C" transform="matrix(1.00, 0.00, -0.00, -1.00, 445.9, 194.2)">U</text><text xml:space="preserve" font-family="DINCondensed-Bold" font-weight="bold" font-size="121.0" fill="#5C5C5C" transform="matrix(1.00, 0.00, -0.00, -1.00, 497.5, 194.2)">R</text><text xml:space="preserve" font-family="IowanOldStyle-Italic" font-style="italic" font-size="28.3" fill="#737575" transform="matrix(1.00, 0.00, -0.00, -1.00, 309.4, 131.3)">I</text><text xml:space="preserve" font-family="IowanOldStyle-Italic" font-style="italic" font-size="28.3" fill="#737575" transform="matrix(1.00, 0.00, -0.00, -1.00, 318.7, 131.3)">n</text><text xml:space="preserve" font-family="IowanOldStyle-Italic" font-style="italic" font-size="28.3" fill="#737575" transform="matrix(1.00, 0.00, -0.00, -1.00, 333.1, 131.3)">t</text><text xml:space="preserve" font-family="IowanOldStyle-Italic" font-style="italic" font-size="28.3" fill="#737575" transform="matrix(1.00, 0.00, -0.00, -1.00, 342.6, 131.3)">e</text><text xml:space="preserve" font-family="IowanOldStyle-Italic" font-style="italic" font-size="28.3" fill="#737575" transform="matrix(1.00, 0.00, -0.00, -1.00, 353.4, 131.3)">l</text><text xml:space="preserve" font-family="IowanOldStyle-Italic" font-style="italic" font-size="28.3" fill="#737575" transform="matrix(1.00, 0.00, -0.00, -1.00, 361.0, 131.3)">l</text><text xml:space="preserve" font-family="IowanOldStyle-Italic" font-style="italic" font-size="28.3" fill="#737575" transform="matrix(1.00, 0.00, -0.00, -1.00, 368.6, 131.3)">i</text><text xml:space="preserve" font-family="IowanOldStyle-Italic" font-style="italic" font-size="28.3" fill="#737575" transform="matrix(1.00, 0.00, -0.00, -1.00, 376.4, 131.3)">J</text><text xml:space="preserve" font-family="IowanOldStyle-Italic" font-style="italic" font-size="28.3" fill="#737575" transform="matrix(1.00, 0.00, -0.00, -1.00, 385.7, 131.3)"> </text><text xml:space="preserve" font-family="IowanOldStyle-Italic" font-style="italic" font-size="28.3" fill="#737575" transform="matrix(1.00, 0.00, -0.00, -1.00, 391.9, 131.3)">t</text><text xml:space="preserve" font-family="IowanOldStyle-Italic" font-style="italic" font-size="28.3" fill="#737575" transform="matrix(1.00, 0.00, -0.00, -1.00, 401.5, 131.3)">i</text><text xml:space="preserve" font-family="IowanOldStyle-Italic" font-style="italic" font-size="28.3" fill="#737575" transform="matrix(1.00, 0.00, -0.00, -1.00, 409.3, 131.3)">p</text><text xml:space="preserve" font-family="IowanOldStyle-Italic" font-style="italic" font-size="28.3" fill="#737575" transform="matrix(1.00, 0.00, -0.00, -1.00, 423.0, 131.3)">s</text><text xml:space="preserve" font-family="IowanOldStyle-Italic" font-style="italic" font-size="28.3" fill="#737575" transform="matrix(1.00, 0.00, -0.00, -1.00, 433.1, 131.3)"> </text><text xml:space="preserve" font-family="IowanOldStyle-Italic" font-style="italic" font-size="28.3" fill="#737575" transform="matrix(1.00, 0.00, -0.00, -1.00, 439.3, 131.3)">a</text><text xml:space="preserve" font-family="IowanOldStyle-Italic" font-style="italic" font-size="28.3" fill="#737575" transform="matrix(1.00, 0.00, -0.00, -1.00, 452.7, 131.3)">n</text><text xml:space="preserve" font-family="IowanOldStyle-Italic" font-style="italic" font-size="28.3" fill="#737575" transform="matrix(1.00, 0.00, -0.00, -1.00, 467.0, 131.3)">d</text><text xml:space="preserve" font-family="IowanOldStyle-Italic" font-style="italic" font-size="28.3" fill="#737575" transform="matrix(1.00, 0.00, -0.00, -1.00, 480.8, 131.3)"> </text><text xml:space="preserve" font-family="IowanOldStyle-Italic" font-style="italic" font-size="28.3" fill="#737575" transform="matrix(1.00, 0.00, -0.00, -1.00, 487.0, 131.3)">t</text><text xml:space="preserve" font-family="IowanOldStyle-Italic" font-style="italic" font-size="28.3" fill="#737575" transform="matrix(1.00, 0.00, -0.00, -1.00, 496.6, 131.3)">r</text><text xml:space="preserve" font-family="IowanOldStyle-Italic" font-style="italic" font-size="28.3" fill="#737575" transform="matrix(1.00, 0.00, -0.00, -1.00, 507.0, 131.3)">i</text><text xml:space="preserve" font-family="IowanOldStyle-Italic" font-style="italic" font-size="28.3" fill="#737575" transform="matrix(1.00, 0.00, -0.00, -1.00, 514.8, 131.3)">c</text><text xml:space="preserve" font-family="IowanOldStyle-Italic" font-style="italic" font-size="28.3" fill="#737575" transform="matrix(1.00, 0.00, -0.00, -1.00, 525.0, 131.3)">k</text><text xml:space="preserve" font-family="IowanOldStyle-Italic" font-style="italic" font-size="28.3" fill="#737575" transform="matrix(1.00, 0.00, -0.00, -1.00, 538.9, 131.3)">s</text><text xml:space="preserve" font-family="IowanOldStyle-Italic" font-style="italic" font-size="28.3" fill="#737575" transform="matrix(1.00, 0.00, -0.00, -1.00, 549.0, 131.3)"> </text><text xml:space="preserve" font-family="IowanOldStyle-Italic" font-style="italic" font-size="28.3" fill="#737575" transform="matrix(1.00, 0.00, -0.00, -1.00, 428.8, 101.2)">D</text><text xml:space="preserve" font-family="IowanOldStyle-Italic" font-style="italic" font-size="28.3" fill="#737575" transform="matrix(1.00, 0.00, -0.00, -1.00, 449.4, 101.2)">e</text><text xml:space="preserve" font-family="IowanOldStyle-Italic" font-style="italic" font-size="28.3" fill="#737575" transform="matrix(1.00, 0.00, -0.00, -1.00, 460.2, 101.2)">b</text><text xml:space="preserve" font-family="IowanOldStyle-Italic" font-style="italic" font-size="28.3" fill="#737575" transform="matrix(1.00, 0.00, -0.00, -1.00, 473.7, 101.2)">u</text><text xml:space="preserve" font-family="IowanOldStyle-Italic" font-style="italic" font-size="28.3" fill="#737575" transform="matrix(1.00, 0.00, -0.00, -1.00, 487.9, 101.2)">g</text><text xml:space="preserve" font-family="IowanOldStyle-Italic" font-style="italic" font-size="28.3" fill="#737575" transform="matrix(1.00, 0.00, -0.00, -1.00, 500.9, 101.2)">g</text><text xml:space="preserve" font-family="IowanOldStyle-Italic" font-style="italic" font-size="28.3" fill="#737575" transform="matrix(1.00, 0.00, -0.00, -1.00, 513.9, 101.2)">i</text><text xml:space="preserve" font-family="IowanOldStyle-Italic" font-style="italic" font-size="28.3" fill="#737575" transform="matrix(1.00, 0.00, -0.00, -1.00, 521.7, 101.2)">n</text><text xml:space="preserve" font-family="IowanOldStyle-Italic" font-style="italic" font-size="28.3" fill="#737575" transform="matrix(1.00, 0.00, -0.00, -1.00, 536.0, 101.2)">g</text><text xml:space="preserve" font-family="IowanOldStyle-Italic" font-style="italic" font-size="28.3" fill="#737575" transform="matrix(1.00, 0.00, -0.00, -1.00, 549.0, 101.2)"> </text><text xml:space="preserve" font-family="IowanOldStyle-Italic" font-style="italic" font-size="28.3" fill="#737575" transform="matrix(1.00, 0.00, -0.00, -1.00, 442.2, 71.0)">S</text><text xml:space="preserve" font-family="IowanOldStyle-Italic" font-style="italic" font-size="28.3" fill="#737575" transform="matrix(1.00, 0.00, -0.00, -1.00, 457.9, 71.0)">h</text><text xml:space="preserve" font-family="IowanOldStyle-Italic" font-style="italic" font-size="28.3" fill="#737575" transform="matrix(1.00, 0.00, -0.00, -1.00, 472.0, 71.0)">o</text><text xml:space="preserve" font-family="IowanOldStyle-Italic" font-style="italic" font-size="28.3" fill="#737575" transform="matrix(1.00, 0.00, -0.00, -1.00, 484.9, 71.0)">r</text><text xml:space="preserve" font-family="IowanOldStyle-Italic" font-style="italic" font-size="28.3" fill="#737575" transform="matrix(1.00, 0.00, -0.00, -1.00, 495.4, 71.0)">t</text><text xml:space="preserve" font-family="IowanOldStyle-Italic" font-style="italic" font-size="28.3" fill="#737575" transform="matrix(1.00, 0.00, -0.00, -1.00, 504.9, 71.0)">c</text><text xml:space="preserve" font-family="IowanOldStyle-Italic" font-style="italic" font-size="28.3" fill="#737575" transform="matrix(1.00, 0.00, -0.00, -1.00, 515.1, 71.0)">u</text><text xml:space="preserve" font-family="IowanOldStyle-Italic" font-style="italic" font-size="28.3" fill="#737575" transform="matrix(1.00, 0.00, -0.00, -1.00, 529.4, 71.0)">t</text><text xml:space="preserve" font-family="IowanOldStyle-Italic" font-style="italic" font-size="28.3" fill="#737575" transform="matrix(1.00, 0.00, -0.00, -1.00, 538.9, 71.0)">s</text><image xlink:href="B882BC3B8A72C565C59603E2209E9E8D.png" width="415.00" height="112.00" transform="matrix(1.20, 0.00, -0.00, -1.20, 42.0, 710.0)"></image></g></svg>