<?xml version="1.0" encoding="UTF-8" standalone="no"?><svg xmlns="http://www.w3.org/2000/svg" xmlns:xlink="http://www.w3.org/1999/xlink" clip-rule="evenodd" stroke-miterlimit="4.00" viewBox="0 0 1024 768"><desc>SVG generated by Keynote</desc><defs></defs><g transform="matrix(1.00, 0.00, -0.00, -1.00, 0.0, 768.0)"><path d="M 0.0 768.0 L 1024.0 768.0 L 1024.0 0.0 L 0.0 0.0 Z M 0.0 768.0 " fill="#FFFFFF"></path><path d="M 0.0 0.0 L 934.0 0.0 " fill="none" stroke="#747676" stroke-width="3.00" stroke-linecap="round" stroke-linejoin="round" stroke-dasharray="0.0, 9.0" transform="matrix(1.00, 0.00, 0.00, -1.00, 45.0, 644.0)"></path><text xml:space="preserve" font-family="DINCondensed-Bold" font-weight="bold" font-size="48.4" fill="#747676" transform="matrix(1.00, 0.00, -0.00, -1.00, 49.0, 673.0)">U</text><text xml:space="preserve" font-family="DINCondensed-Bold" font-weight="bold" font-size="48.4" fill="#747676" transform="matrix(1.00, 0.00, -0.00, -1.00, 69.6, 673.0)">S</text><text xml:space="preserve" font-family="DINCondensed-Bold" font-weight="bold" font-size="48.4" fill="#747676" transform="matrix(1.00, 0.00, -0.00, -1.00, 89.2, 673.0)">I</text><text xml:space="preserve" font-family="DINCondensed-Bold" font-weight="bold" font-size="48.4" fill="#747676" transform="matrix(1.00, 0.00, -0.00, -1.00, 99.1, 673.0)">N</text><text xml:space="preserve" font-family="DINCondensed-Bold" font-weight="bold" font-size="48.4" fill="#747676" transform="matrix(1.00, 0.00, -0.00, -1.00, 120.6, 673.0)">G</text><text xml:space="preserve" font-family="DINCondensed-Bold" font-weight="bold" font-size="48.4" fill="#747676" transform="matrix(1.00, 0.00, -0.00, -1.00, 141.2, 673.0)"> </text><text xml:space="preserve" font-family="DINCondensed-Bold" font-weight="bold" font-size="48.4" fill="#747676" transform="matrix(1.00, 0.00, -0.00, -1.00, 150.2, 673.0)">O</text><text xml:space="preserve" font-family="DINCondensed-Bold" font-weight="bold" font-size="48.4" fill="#747676" transform="matrix(1.00, 0.00, -0.00, -1.00, 170.8, 673.0)">N</text><text xml:space="preserve" font-family="DINCondensed-Bold" font-weight="bold" font-size="48.4" fill="#747676" transform="matrix(1.00, 0.00, -0.00, -1.00, 192.2, 673.0)">E</text><text xml:space="preserve" font-family="DINCondensed-Bold" font-weight="bold" font-size="48.4" fill="#747676" transform="matrix(1.00, 0.00, -0.00, -1.00, 210.1, 673.0)"> </text><text xml:space="preserve" font-family="DINCondensed-Bold" font-weight="bold" font-size="48.4" fill="#747676" transform="matrix(1.00, 0.00, -0.00, -1.00, 219.1, 673.0)">T</text><text xml:space="preserve" font-family="DINCondensed-Bold" font-weight="bold" font-size="48.4" fill="#747676" transform="matrix(1.00, 0.00, -0.00, -1.00, 235.2, 673.0)">R</text><text xml:space="preserve" font-family="DINCondensed-Bold" font-weight="bold" font-size="48.4" fill="#747676" transform="matrix(1.00, 0.00, -0.00, -1.00, 255.8, 673.0)">A</text><text xml:space="preserve" font-family="DINCondensed-Bold" font-weight="bold" font-size="48.4" fill="#747676" transform="matrix(1.00, 0.00, -0.00, -1.00, 275.5, 673.0)">I</text><text xml:space="preserve" font-family="DINCondensed-Bold" font-weight="bold" font-size="48.4" fill="#747676" transform="matrix(1.00, 0.00, -0.00, -1.00, 285.3, 673.0)">T</text><path d="M 49.0 622.0 L 169.4 622.0 L 169.4 576.0 L 49.0 576.0 Z M 49.0 622.0 " fill="#344033"></path><path d="M 169.4 622.0 L 627.0 622.0 L 627.0 576.0 L 169.4 576.0 Z M 169.4 622.0 " fill="#2A2A2A"></path><path d="M 49.0 576.0 L 916.0 576.0 L 916.0 530.0 L 49.0 530.0 Z M 49.0 576.0 " fill="#2A2A2A"></path><path d="M 49.0 530.0 L 386.1 530.0 L 386.1 484.0 L 49.0 484.0 Z M 49.0 530.0 " fill="#2A2A2A"></path><path d="M 386.1 530.0 L 506.6 530.0 L 506.6 484.0 L 386.1 484.0 Z M 386.1 530.0 " fill="#344033"></path><path d="M 49.0 484.0 L 97.2 484.0 L 97.2 438.0 L 49.0 438.0 Z M 49.0 484.0 " fill="#2A2A2A"></path><text xml:space="preserve" font-family="Menlo-Bold" font-weight="bold" font-size="40.0" fill="#CC7831" transform="matrix(1.00, 0.00, -0.00, -1.00, 49.0, 585.0)">c</text><text xml:space="preserve" font-family="Menlo-Bold" font-weight="bold" font-size="40.0" fill="#CC7831" transform="matrix(1.00, 0.00, -0.00, -1.00, 73.1, 585.0)">l</text><text xml:space="preserve" font-family="Menlo-Bold" font-weight="bold" font-size="40.0" fill="#CC7831" transform="matrix(1.00, 0.00, -0.00, -1.00, 97.2, 585.0)">a</text><text xml:space="preserve" font-family="Menlo-Bold" font-weight="bold" font-size="40.0" fill="#CC7831" transform="matrix(1.00, 0.00, -0.00, -1.00, 121.3, 585.0)">s</text><text xml:space="preserve" font-family="Menlo-Bold" font-weight="bold" font-size="40.0" fill="#CC7831" transform="matrix(1.00, 0.00, -0.00, -1.00, 145.3, 585.0)">s</text><text xml:space="preserve" font-family="Menlo-Bold" font-weight="bold" font-size="40.0" fill="#CC7831" transform="matrix(1.00, 0.00, -0.00, -1.00, 169.4, 585.0)"> </text><text xml:space="preserve" font-family="Menlo-Regular" font-size="40.0" fill="#A9B6C6" transform="matrix(1.00, 0.00, -0.00, -1.00, 193.5, 585.0)">B</text><text xml:space="preserve" font-family="Menlo-Regular" font-size="40.0" fill="#A9B6C6" transform="matrix(1.00, 0.00, -0.00, -1.00, 217.6, 585.0)">M</text><text xml:space="preserve" font-family="Menlo-Regular" font-size="40.0" fill="#A9B6C6" transform="matrix(1.00, 0.00, -0.00, -1.00, 241.7, 585.0)">W</text><text xml:space="preserve" font-family="Menlo-Regular" font-size="40.0" fill="#A9B6C6" transform="matrix(1.00, 0.00, -0.00, -1.00, 265.8, 585.0)"> </text><text xml:space="preserve" font-family="Menlo-Bold" font-weight="bold" font-size="40.0" fill="#CC7831" transform="matrix(1.00, 0.00, -0.00, -1.00, 289.8, 585.0)">e</text><text xml:space="preserve" font-family="Menlo-Bold" font-weight="bold" font-size="40.0" fill="#CC7831" transform="matrix(1.00, 0.00, -0.00, -1.00, 313.9, 585.0)">x</text><text xml:space="preserve" font-family="Menlo-Bold" font-weight="bold" font-size="40.0" fill="#CC7831" transform="matrix(1.00, 0.00, -0.00, -1.00, 338.0, 585.0)">t</text><text xml:space="preserve" font-family="Menlo-Bold" font-weight="bold" font-size="40.0" fill="#CC7831" transform="matrix(1.00, 0.00, -0.00, -1.00, 362.1, 585.0)">e</text><text xml:space="preserve" font-family="Menlo-Bold" font-weight="bold" font-size="40.0" fill="#CC7831" transform="matrix(1.00, 0.00, -0.00, -1.00, 386.2, 585.0)">n</text><text xml:space="preserve" font-family="Menlo-Bold" font-weight="bold" font-size="40.0" fill="#CC7831" transform="matrix(1.00, 0.00, -0.00, -1.00, 410.3, 585.0)">d</text><text xml:space="preserve" font-family="Menlo-Bold" font-weight="bold" font-size="40.0" fill="#CC7831" transform="matrix(1.00, 0.00, -0.00, -1.00, 434.3, 585.0)">s</text><text xml:space="preserve" font-family="Menlo-Bold" font-weight="bold" font-size="40.0" fill="#CC7831" transform="matrix(1.00, 0.00, -0.00, -1.00, 458.4, 585.0)"> </text><text xml:space="preserve" font-family="Menlo-Regular" font-size="40.0" fill="#A9B6C6" transform="matrix(1.00, 0.00, -0.00, -1.00, 482.5, 585.0)">C</text><text xml:space="preserve" font-family="Menlo-Regular" font-size="40.0" fill="#A9B6C6" transform="matrix(1.00, 0.00, -0.00, -1.00, 506.6, 585.0)">a</text><text xml:space="preserve" font-family="Menlo-Regular" font-size="40.0" fill="#A9B6C6" transform="matrix(1.00, 0.00, -0.00, -1.00, 530.6, 585.0)">r</text><text xml:space="preserve" font-family="Menlo-Regular" font-size="40.0" fill="#A9B6C6" transform="matrix(1.00, 0.00, -0.00, -1.00, 554.7, 585.0)"> </text><text xml:space="preserve" font-family="Menlo-Regular" font-size="40.0" fill="#A9B6C6" transform="matrix(1.00, 0.00, -0.00, -1.00, 578.8, 585.0)">{</text><text xml:space="preserve" font-family="Menlo-Regular" font-size="40.0" fill="#A9B6C6" transform="matrix(1.00, 0.00, -0.00, -1.00, 602.9, 585.0)"> </text><text xml:space="preserve" font-family="Menlo-Regular" font-size="40.0" fill="#A9B6C6" transform="matrix(1.00, 0.00, -0.00, -1.00, 627.0, 585.0)"> </text><text xml:space="preserve" font-family="Menlo-Regular" font-size="40.0" fill="#808080" transform="matrix(1.00, 0.00, -0.00, -1.00, 49.0, 539.0)">/</text><text xml:space="preserve" font-family="Menlo-Regular" font-size="40.0" fill="#808080" transform="matrix(1.00, 0.00, -0.00, -1.00, 73.1, 539.0)">/</text><text xml:space="preserve" font-family="Menlo-Regular" font-size="40.0" fill="#808080" transform="matrix(1.00, 0.00, -0.00, -1.00, 97.2, 539.0)"> </text><text xml:space="preserve" font-family="Menlo-Regular" font-size="40.0" fill="#808080" transform="matrix(1.00, 0.00, -0.00, -1.00, 121.3, 539.0)">`</text><text xml:space="preserve" font-family="Menlo-Regular" font-size="40.0" fill="#808080" transform="matrix(1.00, 0.00, -0.00, -1.00, 145.3, 539.0)">e</text><text xml:space="preserve" font-family="Menlo-Regular" font-size="40.0" fill="#808080" transform="matrix(1.00, 0.00, -0.00, -1.00, 169.4, 539.0)">x</text><text xml:space="preserve" font-family="Menlo-Regular" font-size="40.0" fill="#808080" transform="matrix(1.00, 0.00, -0.00, -1.00, 193.5, 539.0)">t</text><text xml:space="preserve" font-family="Menlo-Regular" font-size="40.0" fill="#808080" transform="matrix(1.00, 0.00, -0.00, -1.00, 217.6, 539.0)">e</text><text xml:space="preserve" font-family="Menlo-Regular" font-size="40.0" fill="#808080" transform="matrix(1.00, 0.00, -0.00, -1.00, 241.7, 539.0)">n</text><text xml:space="preserve" font-family="Menlo-Regular" font-size="40.0" fill="#808080" transform="matrix(1.00, 0.00, -0.00, -1.00, 265.8, 539.0)">d</text><text xml:space="preserve" font-family="Menlo-Regular" font-size="40.0" fill="#808080" transform="matrix(1.00, 0.00, -0.00, -1.00, 289.9, 539.0)">s</text><text xml:space="preserve" font-family="Menlo-Regular" font-size="40.0" fill="#808080" transform="matrix(1.00, 0.00, -0.00, -1.00, 313.9, 539.0)">`</text><text xml:space="preserve" font-family="Menlo-Regular" font-size="40.0" fill="#808080" transform="matrix(1.00, 0.00, -0.00, -1.00, 338.0, 539.0)"> </text><text xml:space="preserve" font-family="Menlo-Regular" font-size="40.0" fill="#808080" transform="matrix(1.00, 0.00, -0.00, -1.00, 362.1, 539.0)">l</text><text xml:space="preserve" font-family="Menlo-Regular" font-size="40.0" fill="#808080" transform="matrix(1.00, 0.00, -0.00, -1.00, 386.2, 539.0)">i</text><text xml:space="preserve" font-family="Menlo-Regular" font-size="40.0" fill="#808080" transform="matrix(1.00, 0.00, -0.00, -1.00, 410.3, 539.0)">k</text><text xml:space="preserve" font-family="Menlo-Regular" font-size="40.0" fill="#808080" transform="matrix(1.00, 0.00, -0.00, -1.00, 434.4, 539.0)">e</text><text xml:space="preserve" font-family="Menlo-Regular" font-size="40.0" fill="#808080" transform="matrix(1.00, 0.00, -0.00, -1.00, 458.5, 539.0)"> </text><text xml:space="preserve" font-family="Menlo-Regular" font-size="40.0" fill="#808080" transform="matrix(1.00, 0.00, -0.00, -1.00, 482.5, 539.0)">a</text><text xml:space="preserve" font-family="Menlo-Regular" font-size="40.0" fill="#808080" transform="matrix(1.00, 0.00, -0.00, -1.00, 506.6, 539.0)"> </text><text xml:space="preserve" font-family="Menlo-Regular" font-size="40.0" fill="#808080" transform="matrix(1.00, 0.00, -0.00, -1.00, 530.7, 539.0)">c</text><text xml:space="preserve" font-family="Menlo-Regular" font-size="40.0" fill="#808080" transform="matrix(1.00, 0.00, -0.00, -1.00, 554.8, 539.0)">l</text><text xml:space="preserve" font-family="Menlo-Regular" font-size="40.0" fill="#808080" transform="matrix(1.00, 0.00, -0.00, -1.00, 578.9, 539.0)">a</text><text xml:space="preserve" font-family="Menlo-Regular" font-size="40.0" fill="#808080" transform="matrix(1.00, 0.00, -0.00, -1.00, 603.0, 539.0)">s</text><text xml:space="preserve" font-family="Menlo-Regular" font-size="40.0" fill="#808080" transform="matrix(1.00, 0.00, -0.00, -1.00, 627.1, 539.0)">s</text><text xml:space="preserve" font-family="Menlo-Regular" font-size="40.0" fill="#808080" transform="matrix(1.00, 0.00, -0.00, -1.00, 651.2, 539.0)"> </text><text xml:space="preserve" font-family="Menlo-Regular" font-size="40.0" fill="#808080" transform="matrix(1.00, 0.00, -0.00, -1.00, 675.2, 539.0)">(</text><text xml:space="preserve" font-family="Menlo-Regular" font-size="40.0" fill="#808080" transform="matrix(1.00, 0.00, -0.00, -1.00, 699.3, 539.0)">b</text><text xml:space="preserve" font-family="Menlo-Regular" font-size="40.0" fill="#808080" transform="matrix(1.00, 0.00, -0.00, -1.00, 723.4, 539.0)">u</text><text xml:space="preserve" font-family="Menlo-Regular" font-size="40.0" fill="#808080" transform="matrix(1.00, 0.00, -0.00, -1.00, 747.5, 539.0)">t</text><text xml:space="preserve" font-family="Menlo-Regular" font-size="40.0" fill="#808080" transform="matrix(1.00, 0.00, -0.00, -1.00, 771.6, 539.0)"> </text><text xml:space="preserve" font-family="Menlo-Regular" font-size="40.0" fill="#808080" transform="matrix(1.00, 0.00, -0.00, -1.00, 795.7, 539.0)">w</text><text xml:space="preserve" font-family="Menlo-Regular" font-size="40.0" fill="#808080" transform="matrix(1.00, 0.00, -0.00, -1.00, 819.8, 539.0)">a</text><text xml:space="preserve" font-family="Menlo-Regular" font-size="40.0" fill="#808080" transform="matrix(1.00, 0.00, -0.00, -1.00, 843.8, 539.0)">i</text><text xml:space="preserve" font-family="Menlo-Regular" font-size="40.0" fill="#808080" transform="matrix(1.00, 0.00, -0.00, -1.00, 867.9, 539.0)">t</text><text xml:space="preserve" font-family="Menlo-Regular" font-size="40.0" fill="#808080" transform="matrix(1.00, 0.00, -0.00, -1.00, 892.0, 539.0)">)</text><text xml:space="preserve" font-family="Monaco" font-size="40.0" fill="#808080" transform="matrix(1.00, 0.00, -0.00, -1.00, 916.0, 539.0)"> </text><text xml:space="preserve" font-family="Menlo-Regular" font-size="40.0" fill="#808080" transform="matrix(1.00, 0.00, -0.00, -1.00, 49.0, 493.0)"> </text><text xml:space="preserve" font-family="Menlo-Regular" font-size="40.0" fill="#808080" transform="matrix(1.00, 0.00, -0.00, -1.00, 73.1, 493.0)"> </text><text xml:space="preserve" font-family="Menlo-Bold" font-weight="bold" font-size="40.0" fill="#CC7831" transform="matrix(1.00, 0.00, -0.00, -1.00, 97.2, 493.0)">v</text><text xml:space="preserve" font-family="Menlo-Bold" font-weight="bold" font-size="40.0" fill="#CC7831" transform="matrix(1.00, 0.00, -0.00, -1.00, 121.3, 493.0)">a</text><text xml:space="preserve" font-family="Menlo-Bold" font-weight="bold" font-size="40.0" fill="#CC7831" transform="matrix(1.00, 0.00, -0.00, -1.00, 145.3, 493.0)">l</text><text xml:space="preserve" font-family="Menlo-Bold" font-weight="bold" font-size="40.0" fill="#CC7831" transform="matrix(1.00, 0.00, -0.00, -1.00, 169.4, 493.0)"> </text><text xml:space="preserve" font-family="Menlo-Italic" font-style="italic" font-size="40.0" fill="#9776AA" transform="matrix(1.00, 0.00, -0.00, -1.00, 193.5, 493.0)">b</text><text xml:space="preserve" font-family="Menlo-Italic" font-style="italic" font-size="40.0" fill="#9776AA" transform="matrix(1.00, 0.00, -0.00, -1.00, 217.6, 493.0)">r</text><text xml:space="preserve" font-family="Menlo-Italic" font-style="italic" font-size="40.0" fill="#9776AA" transform="matrix(1.00, 0.00, -0.00, -1.00, 241.7, 493.0)">a</text><text xml:space="preserve" font-family="Menlo-Italic" font-style="italic" font-size="40.0" fill="#9776AA" transform="matrix(1.00, 0.00, -0.00, -1.00, 265.8, 493.0)">n</text><text xml:space="preserve" font-family="Menlo-Italic" font-style="italic" font-size="40.0" fill="#9776AA" transform="matrix(1.00, 0.00, -0.00, -1.00, 289.8, 493.0)">d</text><text xml:space="preserve" font-family="Menlo-Italic" font-style="italic" font-size="40.0" fill="#9776AA" transform="matrix(1.00, 0.00, -0.00, -1.00, 313.9, 493.0)"> </text><text xml:space="preserve" font-family="Menlo-Regular" font-size="40.0" fill="#A9B6C6" transform="matrix(1.00, 0.00, -0.00, -1.00, 338.0, 493.0)">=</text><text xml:space="preserve" font-family="Menlo-Regular" font-size="40.0" fill="#A9B6C6" transform="matrix(1.00, 0.00, -0.00, -1.00, 362.1, 493.0)"> </text><text xml:space="preserve" font-family="Menlo-Regular" font-size="40.0" fill="#6A8758" transform="matrix(1.00, 0.00, -0.00, -1.00, 386.1, 493.0)">"</text><text xml:space="preserve" font-family="Menlo-Regular" font-size="40.0" fill="#6A8758" transform="matrix(1.00, 0.00, -0.00, -1.00, 410.2, 493.0)">B</text><text xml:space="preserve" font-family="Menlo-Regular" font-size="40.0" fill="#6A8758" transform="matrix(1.00, 0.00, -0.00, -1.00, 434.3, 493.0)">M</text><text xml:space="preserve" font-family="Menlo-Regular" font-size="40.0" fill="#6A8758" transform="matrix(1.00, 0.00, -0.00, -1.00, 458.4, 493.0)">W</text><text xml:space="preserve" font-family="Menlo-Regular" font-size="40.0" fill="#6A8758" transform="matrix(1.00, 0.00, -0.00, -1.00, 482.5, 493.0)">"</text><text xml:space="preserve" font-family="Monaco" font-size="40.0" fill="#6A8758" transform="matrix(1.00, 0.00, -0.00, -1.00, 506.6, 493.0)"> </text><text xml:space="preserve" font-family="Menlo-Regular" font-size="40.0" fill="#A9B6C6" transform="matrix(1.00, 0.00, -0.00, -1.00, 49.0, 447.0)">}</text><text xml:space="preserve" font-family="Menlo-Regular" font-size="40.0" fill="#A9B6C6" transform="matrix(1.00, 0.00, -0.00, -1.00, 73.1, 447.0)"> </text></g></svg>