<?xml version="1.0" encoding="UTF-8" standalone="no"?><svg xmlns="http://www.w3.org/2000/svg" xmlns:xlink="http://www.w3.org/1999/xlink" clip-rule="evenodd" stroke-miterlimit="4.00" viewBox="0 0 1024 768"><desc>SVG generated by Keynote</desc><defs></defs><g transform="matrix(1.00, 0.00, -0.00, -1.00, 0.0, 768.0)"><path d="M 0.0 768.0 L 1024.0 768.0 L 1024.0 0.0 L 0.0 0.0 Z M 0.0 768.0 " fill="#FFFFFF"></path><path d="M 0.0 0.0 L 934.0 0.0 " fill="none" stroke="#747676" stroke-width="3.00" stroke-linecap="round" stroke-linejoin="round" stroke-dasharray="0.0, 9.0" transform="matrix(1.00, 0.00, 0.00, -1.00, 45.0, 644.0)"></path><text xml:space="preserve" font-family="DINCondensed-Bold" font-weight="bold" font-size="48.4" fill="#747676" transform="matrix(1.00, 0.00, -0.00, -1.00, 49.0, 673.0)">O</text><text xml:space="preserve" font-family="DINCondensed-Bold" font-weight="bold" font-size="48.4" fill="#747676" transform="matrix(1.00, 0.00, -0.00, -1.00, 69.6, 673.0)">N</text><text xml:space="preserve" font-family="DINCondensed-Bold" font-weight="bold" font-size="48.4" fill="#747676" transform="matrix(1.00, 0.00, -0.00, -1.00, 91.1, 673.0)">L</text><text xml:space="preserve" font-family="DINCondensed-Bold" font-weight="bold" font-size="48.4" fill="#747676" transform="matrix(1.00, 0.00, -0.00, -1.00, 109.0, 673.0)">I</text><text xml:space="preserve" font-family="DINCondensed-Bold" font-weight="bold" font-size="48.4" fill="#747676" transform="matrix(1.00, 0.00, -0.00, -1.00, 118.8, 673.0)">N</text><text xml:space="preserve" font-family="DINCondensed-Bold" font-weight="bold" font-size="48.4" fill="#747676" transform="matrix(1.00, 0.00, -0.00, -1.00, 140.3, 673.0)">E</text><text xml:space="preserve" font-family="ZapfDingbatsITC" font-size="23.8" fill="#5C5C5C" transform="matrix(1.00, 0.00, -0.00, -1.00, 49.0, 593.2)">➤</text><text xml:space="preserve" font-family="IowanOldStyle-Roman" font-size="31.7" fill="#5C5C5C" transform="matrix(1.00, 0.00, -0.00, -1.00, 86.0, 589.0)">h</text><text xml:space="preserve" font-family="IowanOldStyle-Roman" font-size="31.7" fill="#5C5C5C" transform="matrix(1.00, 0.00, -0.00, -1.00, 104.6, 589.0)">t</text><text xml:space="preserve" font-family="IowanOldStyle-Roman" font-size="31.7" fill="#5C5C5C" transform="matrix(1.00, 0.00, -0.00, -1.00, 116.0, 589.0)">t</text><text xml:space="preserve" font-family="IowanOldStyle-Roman" font-size="31.7" fill="#5C5C5C" transform="matrix(1.00, 0.00, -0.00, -1.00, 127.4, 589.0)">p</text><text xml:space="preserve" font-family="IowanOldStyle-Roman" font-size="31.7" fill="#5C5C5C" transform="matrix(1.00, 0.00, -0.00, -1.00, 145.1, 589.0)">s</text><text xml:space="preserve" font-family="IowanOldStyle-Roman" font-size="31.7" fill="#5C5C5C" transform="matrix(1.00, 0.00, -0.00, -1.00, 159.1, 589.0)">:</text><text xml:space="preserve" font-family="IowanOldStyle-Roman" font-size="31.7" fill="#5C5C5C" transform="matrix(1.00, 0.00, -0.00, -1.00, 167.9, 589.0)">/</text><text xml:space="preserve" font-family="IowanOldStyle-Roman" font-size="31.7" fill="#5C5C5C" transform="matrix(1.00, 0.00, -0.00, -1.00, 182.5, 589.0)">/</text><text xml:space="preserve" font-family="IowanOldStyle-Roman" font-size="31.7" fill="#5C5C5C" transform="matrix(1.00, 0.00, -0.00, -1.00, 197.1, 589.0)">w</text><text xml:space="preserve" font-family="IowanOldStyle-Roman" font-size="31.7" fill="#5C5C5C" transform="matrix(1.00, 0.00, -0.00, -1.00, 221.7, 589.0)">w</text><text xml:space="preserve" font-family="IowanOldStyle-Roman" font-size="31.7" fill="#5C5C5C" transform="matrix(1.00, 0.00, -0.00, -1.00, 246.2, 589.0)">w</text><text xml:space="preserve" font-family="IowanOldStyle-Roman" font-size="31.7" fill="#5C5C5C" transform="matrix(1.00, 0.00, -0.00, -1.00, 267.8, 589.0)">.</text><text xml:space="preserve" font-family="IowanOldStyle-Roman" font-size="31.7" fill="#5C5C5C" transform="matrix(1.00, 0.00, -0.00, -1.00, 276.6, 589.0)">c</text><text xml:space="preserve" font-family="IowanOldStyle-Roman" font-size="31.7" fill="#5C5C5C" transform="matrix(1.00, 0.00, -0.00, -1.00, 290.8, 589.0)">o</text><text xml:space="preserve" font-family="IowanOldStyle-Roman" font-size="31.7" fill="#5C5C5C" transform="matrix(1.00, 0.00, -0.00, -1.00, 308.2, 589.0)">u</text><text xml:space="preserve" font-family="IowanOldStyle-Roman" font-size="31.7" fill="#5C5C5C" transform="matrix(1.00, 0.00, -0.00, -1.00, 326.9, 589.0)">r</text><text xml:space="preserve" font-family="IowanOldStyle-Roman" font-size="31.7" fill="#5C5C5C" transform="matrix(1.00, 0.00, -0.00, -1.00, 339.2, 589.0)">s</text><text xml:space="preserve" font-family="IowanOldStyle-Roman" font-size="31.7" fill="#5C5C5C" transform="matrix(1.00, 0.00, -0.00, -1.00, 353.2, 589.0)">e</text><text xml:space="preserve" font-family="IowanOldStyle-Roman" font-size="31.7" fill="#5C5C5C" transform="matrix(1.00, 0.00, -0.00, -1.00, 368.7, 589.0)">r</text><text xml:space="preserve" font-family="IowanOldStyle-Roman" font-size="31.7" fill="#5C5C5C" transform="matrix(1.00, 0.00, -0.00, -1.00, 381.1, 589.0)">a</text><text xml:space="preserve" font-family="IowanOldStyle-Roman" font-size="31.7" fill="#5C5C5C" transform="matrix(1.00, 0.00, -0.00, -1.00, 396.3, 589.0)">.</text><text xml:space="preserve" font-family="IowanOldStyle-Roman" font-size="31.7" fill="#5C5C5C" transform="matrix(1.00, 0.00, -0.00, -1.00, 405.1, 589.0)">o</text><text xml:space="preserve" font-family="IowanOldStyle-Roman" font-size="31.7" fill="#5C5C5C" transform="matrix(1.00, 0.00, -0.00, -1.00, 422.5, 589.0)">r</text><text xml:space="preserve" font-family="IowanOldStyle-Roman" font-size="31.7" fill="#5C5C5C" transform="matrix(1.00, 0.00, -0.00, -1.00, 434.9, 589.0)">g</text><text xml:space="preserve" font-family="IowanOldStyle-Roman" font-size="31.7" fill="#5C5C5C" transform="matrix(1.00, 0.00, -0.00, -1.00, 451.2, 589.0)">/</text><text xml:space="preserve" font-family="IowanOldStyle-Roman" font-size="31.7" fill="#5C5C5C" transform="matrix(1.00, 0.00, -0.00, -1.00, 465.8, 589.0)">l</text><text xml:space="preserve" font-family="IowanOldStyle-Roman" font-size="31.7" fill="#5C5C5C" transform="matrix(1.00, 0.00, -0.00, -1.00, 475.1, 589.0)">e</text><text xml:space="preserve" font-family="IowanOldStyle-Roman" font-size="31.7" fill="#5C5C5C" transform="matrix(1.00, 0.00, -0.00, -1.00, 490.5, 589.0)">a</text><text xml:space="preserve" font-family="IowanOldStyle-Roman" font-size="31.7" fill="#5C5C5C" transform="matrix(1.00, 0.00, -0.00, -1.00, 505.8, 589.0)">r</text><text xml:space="preserve" font-family="IowanOldStyle-Roman" font-size="31.7" fill="#5C5C5C" transform="matrix(1.00, 0.00, -0.00, -1.00, 518.1, 589.0)">n</text><text xml:space="preserve" font-family="IowanOldStyle-Roman" font-size="31.7" fill="#5C5C5C" transform="matrix(1.00, 0.00, -0.00, -1.00, 536.6, 589.0)">/</text><text xml:space="preserve" font-family="IowanOldStyle-Roman" font-size="31.7" fill="#5C5C5C" transform="matrix(1.00, 0.00, -0.00, -1.00, 551.2, 589.0)">p</text><text xml:space="preserve" font-family="IowanOldStyle-Roman" font-size="31.7" fill="#5C5C5C" transform="matrix(1.00, 0.00, -0.00, -1.00, 569.0, 589.0)">r</text><text xml:space="preserve" font-family="IowanOldStyle-Roman" font-size="31.7" fill="#5C5C5C" transform="matrix(1.00, 0.00, -0.00, -1.00, 581.4, 589.0)">o</text><text xml:space="preserve" font-family="IowanOldStyle-Roman" font-size="31.7" fill="#5C5C5C" transform="matrix(1.00, 0.00, -0.00, -1.00, 598.8, 589.0)">g</text><text xml:space="preserve" font-family="IowanOldStyle-Roman" font-size="31.7" fill="#5C5C5C" transform="matrix(1.00, 0.00, -0.00, -1.00, 615.1, 589.0)">f</text><text xml:space="preserve" font-family="IowanOldStyle-Roman" font-size="31.7" fill="#5C5C5C" transform="matrix(1.00, 0.00, -0.00, -1.00, 625.3, 589.0)">u</text><text xml:space="preserve" font-family="IowanOldStyle-Roman" font-size="31.7" fill="#5C5C5C" transform="matrix(1.00, 0.00, -0.00, -1.00, 643.9, 589.0)">n</text><text xml:space="preserve" font-family="IowanOldStyle-Roman" font-size="31.7" fill="#5C5C5C" transform="matrix(1.00, 0.00, -0.00, -1.00, 662.4, 589.0)">1</text><text xml:space="preserve" font-family="IowanOldStyle-Roman" font-size="31.7" fill="#5C5C5C" transform="matrix(1.00, 0.00, -0.00, -1.00, 680.1, 589.0)"> </text><g><clipPath id="clip-140"><path d="M 84.6 583.6 L 679.7 583.6 L 679.7 587.3 L 84.6 587.3 Z M 84.6 583.6 "></path></clipPath><g clip-path="url(#clip-140)"><path d="M 40.6 40.6 L 634.7 40.6 " fill="none" stroke="#5C5C5C" stroke-width="1.69" stroke-miterlimit="0.00" transform="matrix(1.00, 0.00, 0.00, -1.00, 45.0, 626.0)"></path></g></g><text xml:space="preserve" font-family="ZapfDingbatsITC" font-size="23.8" fill="#5C5C5C" transform="matrix(1.00, 0.00, -0.00, -1.00, 49.0, 532.4)">➤</text><text xml:space="preserve" font-family="IowanOldStyle-Roman" font-size="31.7" fill="#5C5C5C" transform="matrix(1.00, 0.00, -0.00, -1.00, 86.0, 529.0)">h</text><text xml:space="preserve" font-family="IowanOldStyle-Roman" font-size="31.7" fill="#5C5C5C" transform="matrix(1.00, 0.00, -0.00, -1.00, 104.6, 529.0)">t</text><text xml:space="preserve" font-family="IowanOldStyle-Roman" font-size="31.7" fill="#5C5C5C" transform="matrix(1.00, 0.00, -0.00, -1.00, 116.0, 529.0)">t</text><text xml:space="preserve" font-family="IowanOldStyle-Roman" font-size="31.7" fill="#5C5C5C" transform="matrix(1.00, 0.00, -0.00, -1.00, 127.4, 529.0)">p</text><text xml:space="preserve" font-family="IowanOldStyle-Roman" font-size="31.7" fill="#5C5C5C" transform="matrix(1.00, 0.00, -0.00, -1.00, 145.1, 529.0)">:</text><text xml:space="preserve" font-family="IowanOldStyle-Roman" font-size="31.7" fill="#5C5C5C" transform="matrix(1.00, 0.00, -0.00, -1.00, 153.9, 529.0)">/</text><text xml:space="preserve" font-family="IowanOldStyle-Roman" font-size="31.7" fill="#5C5C5C" transform="matrix(1.00, 0.00, -0.00, -1.00, 168.5, 529.0)">/</text><text xml:space="preserve" font-family="IowanOldStyle-Roman" font-size="31.7" fill="#5C5C5C" transform="matrix(1.00, 0.00, -0.00, -1.00, 183.1, 529.0)">s</text><text xml:space="preserve" font-family="IowanOldStyle-Roman" font-size="31.7" fill="#5C5C5C" transform="matrix(1.00, 0.00, -0.00, -1.00, 197.1, 529.0)">c</text><text xml:space="preserve" font-family="IowanOldStyle-Roman" font-size="31.7" fill="#5C5C5C" transform="matrix(1.00, 0.00, -0.00, -1.00, 211.3, 529.0)">a</text><text xml:space="preserve" font-family="IowanOldStyle-Roman" font-size="31.7" fill="#5C5C5C" transform="matrix(1.00, 0.00, -0.00, -1.00, 226.5, 529.0)">l</text><text xml:space="preserve" font-family="IowanOldStyle-Roman" font-size="31.7" fill="#5C5C5C" transform="matrix(1.00, 0.00, -0.00, -1.00, 235.8, 529.0)">a</text><text xml:space="preserve" font-family="IowanOldStyle-Roman" font-size="31.7" fill="#5C5C5C" transform="matrix(1.00, 0.00, -0.00, -1.00, 251.0, 529.0)">c</text><text xml:space="preserve" font-family="IowanOldStyle-Roman" font-size="31.7" fill="#5C5C5C" transform="matrix(1.00, 0.00, -0.00, -1.00, 265.1, 529.0)">o</text><text xml:space="preserve" font-family="IowanOldStyle-Roman" font-size="31.7" fill="#5C5C5C" transform="matrix(1.00, 0.00, -0.00, -1.00, 282.6, 529.0)">o</text><text xml:space="preserve" font-family="IowanOldStyle-Roman" font-size="31.7" fill="#5C5C5C" transform="matrix(1.00, 0.00, -0.00, -1.00, 300.0, 529.0)">k</text><text xml:space="preserve" font-family="IowanOldStyle-Roman" font-size="31.7" fill="#5C5C5C" transform="matrix(1.00, 0.00, -0.00, -1.00, 317.3, 529.0)">b</text><text xml:space="preserve" font-family="IowanOldStyle-Roman" font-size="31.7" fill="#5C5C5C" transform="matrix(1.00, 0.00, -0.00, -1.00, 334.9, 529.0)">o</text><text xml:space="preserve" font-family="IowanOldStyle-Roman" font-size="31.7" fill="#5C5C5C" transform="matrix(1.00, 0.00, -0.00, -1.00, 352.4, 529.0)">o</text><text xml:space="preserve" font-family="IowanOldStyle-Roman" font-size="31.7" fill="#5C5C5C" transform="matrix(1.00, 0.00, -0.00, -1.00, 369.8, 529.0)">k</text><text xml:space="preserve" font-family="IowanOldStyle-Roman" font-size="31.7" fill="#5C5C5C" transform="matrix(1.00, 0.00, -0.00, -1.00, 387.1, 529.0)">.</text><text xml:space="preserve" font-family="IowanOldStyle-Roman" font-size="31.7" fill="#5C5C5C" transform="matrix(1.00, 0.00, -0.00, -1.00, 395.9, 529.0)">c</text><text xml:space="preserve" font-family="IowanOldStyle-Roman" font-size="31.7" fill="#5C5C5C" transform="matrix(1.00, 0.00, -0.00, -1.00, 410.1, 529.0)">o</text><text xml:space="preserve" font-family="IowanOldStyle-Roman" font-size="31.7" fill="#5C5C5C" transform="matrix(1.00, 0.00, -0.00, -1.00, 427.5, 529.0)">m</text><text xml:space="preserve" font-family="IowanOldStyle-Roman" font-size="31.7" fill="#5C5C5C" transform="matrix(1.00, 0.00, -0.00, -1.00, 455.4, 529.0)">/</text><text xml:space="preserve" font-family="IowanOldStyle-Roman" font-size="31.7" fill="#5C5C5C" transform="matrix(1.00, 0.00, -0.00, -1.00, 470.1, 529.0)"> </text><g><clipPath id="clip-141"><path d="M 84.6 522.8 L 469.7 522.8 L 469.7 526.5 L 84.6 526.5 Z M 84.6 522.8 "></path></clipPath><g clip-path="url(#clip-141)"><path d="M 40.6 101.4 L 424.7 101.4 " fill="none" stroke="#5C5C5C" stroke-width="1.69" stroke-miterlimit="0.00" transform="matrix(1.00, 0.00, 0.00, -1.00, 45.0, 626.0)"></path></g></g><text xml:space="preserve" font-family="ZapfDingbatsITC" font-size="23.8" fill="#5C5C5C" transform="matrix(1.00, 0.00, -0.00, -1.00, 49.0, 471.6)">➤</text><text xml:space="preserve" font-family="IowanOldStyle-Roman" font-size="31.7" fill="#5C5C5C" transform="matrix(1.00, 0.00, -0.00, -1.00, 86.0, 468.0)">h</text><text xml:space="preserve" font-family="IowanOldStyle-Roman" font-size="31.7" fill="#5C5C5C" transform="matrix(1.00, 0.00, -0.00, -1.00, 104.6, 468.0)">t</text><text xml:space="preserve" font-family="IowanOldStyle-Roman" font-size="31.7" fill="#5C5C5C" transform="matrix(1.00, 0.00, -0.00, -1.00, 116.0, 468.0)">t</text><text xml:space="preserve" font-family="IowanOldStyle-Roman" font-size="31.7" fill="#5C5C5C" transform="matrix(1.00, 0.00, -0.00, -1.00, 127.4, 468.0)">p</text><text xml:space="preserve" font-family="IowanOldStyle-Roman" font-size="31.7" fill="#5C5C5C" transform="matrix(1.00, 0.00, -0.00, -1.00, 145.1, 468.0)">s</text><text xml:space="preserve" font-family="IowanOldStyle-Roman" font-size="31.7" fill="#5C5C5C" transform="matrix(1.00, 0.00, -0.00, -1.00, 159.1, 468.0)">:</text><text xml:space="preserve" font-family="IowanOldStyle-Roman" font-size="31.7" fill="#5C5C5C" transform="matrix(1.00, 0.00, -0.00, -1.00, 167.9, 468.0)">/</text><text xml:space="preserve" font-family="IowanOldStyle-Roman" font-size="31.7" fill="#5C5C5C" transform="matrix(1.00, 0.00, -0.00, -1.00, 182.5, 468.0)">/</text><text xml:space="preserve" font-family="IowanOldStyle-Roman" font-size="31.7" fill="#5C5C5C" transform="matrix(1.00, 0.00, -0.00, -1.00, 197.1, 468.0)">t</text><text xml:space="preserve" font-family="IowanOldStyle-Roman" font-size="31.7" fill="#5C5C5C" transform="matrix(1.00, 0.00, -0.00, -1.00, 208.5, 468.0)">w</text><text xml:space="preserve" font-family="IowanOldStyle-Roman" font-size="31.7" fill="#5C5C5C" transform="matrix(1.00, 0.00, -0.00, -1.00, 233.1, 468.0)">i</text><text xml:space="preserve" font-family="IowanOldStyle-Roman" font-size="31.7" fill="#5C5C5C" transform="matrix(1.00, 0.00, -0.00, -1.00, 242.5, 468.0)">t</text><text xml:space="preserve" font-family="IowanOldStyle-Roman" font-size="31.7" fill="#5C5C5C" transform="matrix(1.00, 0.00, -0.00, -1.00, 253.9, 468.0)">t</text><text xml:space="preserve" font-family="IowanOldStyle-Roman" font-size="31.7" fill="#5C5C5C" transform="matrix(1.00, 0.00, -0.00, -1.00, 265.3, 468.0)">e</text><text xml:space="preserve" font-family="IowanOldStyle-Roman" font-size="31.7" fill="#5C5C5C" transform="matrix(1.00, 0.00, -0.00, -1.00, 280.7, 468.0)">r</text><text xml:space="preserve" font-family="IowanOldStyle-Roman" font-size="31.7" fill="#5C5C5C" transform="matrix(1.00, 0.00, -0.00, -1.00, 290.5, 468.0)">.</text><text xml:space="preserve" font-family="IowanOldStyle-Roman" font-size="31.7" fill="#5C5C5C" transform="matrix(1.00, 0.00, -0.00, -1.00, 299.3, 468.0)">g</text><text xml:space="preserve" font-family="IowanOldStyle-Roman" font-size="31.7" fill="#5C5C5C" transform="matrix(1.00, 0.00, -0.00, -1.00, 315.6, 468.0)">i</text><text xml:space="preserve" font-family="IowanOldStyle-Roman" font-size="31.7" fill="#5C5C5C" transform="matrix(1.00, 0.00, -0.00, -1.00, 325.0, 468.0)">t</text><text xml:space="preserve" font-family="IowanOldStyle-Roman" font-size="31.7" fill="#5C5C5C" transform="matrix(1.00, 0.00, -0.00, -1.00, 336.4, 468.0)">h</text><text xml:space="preserve" font-family="IowanOldStyle-Roman" font-size="31.7" fill="#5C5C5C" transform="matrix(1.00, 0.00, -0.00, -1.00, 355.0, 468.0)">u</text><text xml:space="preserve" font-family="IowanOldStyle-Roman" font-size="31.7" fill="#5C5C5C" transform="matrix(1.00, 0.00, -0.00, -1.00, 373.6, 468.0)">b</text><text xml:space="preserve" font-family="IowanOldStyle-Roman" font-size="31.7" fill="#5C5C5C" transform="matrix(1.00, 0.00, -0.00, -1.00, 391.2, 468.0)">.</text><text xml:space="preserve" font-family="IowanOldStyle-Roman" font-size="31.7" fill="#5C5C5C" transform="matrix(1.00, 0.00, -0.00, -1.00, 400.0, 468.0)">i</text><text xml:space="preserve" font-family="IowanOldStyle-Roman" font-size="31.7" fill="#5C5C5C" transform="matrix(1.00, 0.00, -0.00, -1.00, 409.4, 468.0)">o</text><text xml:space="preserve" font-family="IowanOldStyle-Roman" font-size="31.7" fill="#5C5C5C" transform="matrix(1.00, 0.00, -0.00, -1.00, 426.9, 468.0)">/</text><text xml:space="preserve" font-family="IowanOldStyle-Roman" font-size="31.7" fill="#5C5C5C" transform="matrix(1.00, 0.00, -0.00, -1.00, 441.5, 468.0)">s</text><text xml:space="preserve" font-family="IowanOldStyle-Roman" font-size="31.7" fill="#5C5C5C" transform="matrix(1.00, 0.00, -0.00, -1.00, 455.5, 468.0)">c</text><text xml:space="preserve" font-family="IowanOldStyle-Roman" font-size="31.7" fill="#5C5C5C" transform="matrix(1.00, 0.00, -0.00, -1.00, 469.7, 468.0)">a</text><text xml:space="preserve" font-family="IowanOldStyle-Roman" font-size="31.7" fill="#5C5C5C" transform="matrix(1.00, 0.00, -0.00, -1.00, 484.9, 468.0)">l</text><text xml:space="preserve" font-family="IowanOldStyle-Roman" font-size="31.7" fill="#5C5C5C" transform="matrix(1.00, 0.00, -0.00, -1.00, 494.1, 468.0)">a</text><text xml:space="preserve" font-family="IowanOldStyle-Roman" font-size="31.7" fill="#5C5C5C" transform="matrix(1.00, 0.00, -0.00, -1.00, 509.4, 468.0)">_</text><text xml:space="preserve" font-family="IowanOldStyle-Roman" font-size="31.7" fill="#5C5C5C" transform="matrix(1.00, 0.00, -0.00, -1.00, 525.2, 468.0)">s</text><text xml:space="preserve" font-family="IowanOldStyle-Roman" font-size="31.7" fill="#5C5C5C" transform="matrix(1.00, 0.00, -0.00, -1.00, 539.2, 468.0)">c</text><text xml:space="preserve" font-family="IowanOldStyle-Roman" font-size="31.7" fill="#5C5C5C" transform="matrix(1.00, 0.00, -0.00, -1.00, 553.4, 468.0)">h</text><text xml:space="preserve" font-family="IowanOldStyle-Roman" font-size="31.7" fill="#5C5C5C" transform="matrix(1.00, 0.00, -0.00, -1.00, 572.0, 468.0)">o</text><text xml:space="preserve" font-family="IowanOldStyle-Roman" font-size="31.7" fill="#5C5C5C" transform="matrix(1.00, 0.00, -0.00, -1.00, 589.4, 468.0)">o</text><text xml:space="preserve" font-family="IowanOldStyle-Roman" font-size="31.7" fill="#5C5C5C" transform="matrix(1.00, 0.00, -0.00, -1.00, 606.8, 468.0)">l</text><text xml:space="preserve" font-family="IowanOldStyle-Roman" font-size="31.7" fill="#5C5C5C" transform="matrix(1.00, 0.00, -0.00, -1.00, 616.1, 468.0)">/</text><text xml:space="preserve" font-family="IowanOldStyle-Roman" font-size="31.7" fill="#5C5C5C" transform="matrix(1.00, 0.00, -0.00, -1.00, 630.8, 468.0)"> </text><text xml:space="preserve" font-family="IowanOldStyle-Roman" font-size="31.7" fill="#5C5C5C" transform="matrix(1.00, 0.00, -0.00, -1.00, 639.6, 468.0)">*</text><text xml:space="preserve" font-family="IowanOldStyle-Roman" font-size="31.7" fill="#5C5C5C" transform="matrix(1.00, 0.00, -0.00, -1.00, 654.0, 468.0)">*</text><text xml:space="preserve" font-family="IowanOldStyle-Roman" font-size="31.7" fill="#5C5C5C" transform="matrix(1.00, 0.00, -0.00, -1.00, 668.3, 468.0)"> </text><g><clipPath id="clip-142"><path d="M 84.6 462.0 L 630.4 462.0 L 630.4 465.6 L 84.6 465.6 Z M 84.6 462.0 "></path></clipPath><g clip-path="url(#clip-142)"><path d="M 40.6 162.2 L 585.4 162.2 " fill="none" stroke="#5C5C5C" stroke-width="1.69" stroke-miterlimit="0.00" transform="matrix(1.00, 0.00, 0.00, -1.00, 45.0, 626.0)"></path></g></g><text xml:space="preserve" font-family="ZapfDingbatsITC" font-size="23.8" fill="#5C5C5C" transform="matrix(1.00, 0.00, -0.00, -1.00, 49.0, 167.5)">➤</text><text xml:space="preserve" font-family="IowanOldStyle-Roman" font-size="31.7" fill="#5C5C5C" transform="matrix(1.00, 0.00, -0.00, -1.00, 86.0, 164.0)">H</text><text xml:space="preserve" font-family="IowanOldStyle-Roman" font-size="31.7" fill="#5C5C5C" transform="matrix(1.00, 0.00, -0.00, -1.00, 111.1, 164.0)">a</text><text xml:space="preserve" font-family="IowanOldStyle-Roman" font-size="31.7" fill="#5C5C5C" transform="matrix(1.00, 0.00, -0.00, -1.00, 126.4, 164.0)">t</text><text xml:space="preserve" font-family="IowanOldStyle-Roman" font-size="31.7" fill="#5C5C5C" transform="matrix(1.00, 0.00, -0.00, -1.00, 137.8, 164.0)"> </text><text xml:space="preserve" font-family="IowanOldStyle-Roman" font-size="31.7" fill="#5C5C5C" transform="matrix(1.00, 0.00, -0.00, -1.00, 146.6, 164.0)">T</text><text xml:space="preserve" font-family="IowanOldStyle-Roman" font-size="31.7" fill="#5C5C5C" transform="matrix(1.00, 0.00, -0.00, -1.00, 165.4, 164.0)">i</text><text xml:space="preserve" font-family="IowanOldStyle-Roman" font-size="31.7" fill="#5C5C5C" transform="matrix(1.00, 0.00, -0.00, -1.00, 174.8, 164.0)">p</text><text xml:space="preserve" font-family="IowanOldStyle-Roman" font-size="31.7" fill="#5C5C5C" transform="matrix(1.00, 0.00, -0.00, -1.00, 192.6, 164.0)"> </text><text xml:space="preserve" font-family="IowanOldStyle-Roman" font-size="31.7" fill="#5C5C5C" transform="matrix(1.00, 0.00, -0.00, -1.00, 201.4, 164.0)">a</text><text xml:space="preserve" font-family="IowanOldStyle-Roman" font-size="31.7" fill="#5C5C5C" transform="matrix(1.00, 0.00, -0.00, -1.00, 216.6, 164.0)">n</text><text xml:space="preserve" font-family="IowanOldStyle-Roman" font-size="31.7" fill="#5C5C5C" transform="matrix(1.00, 0.00, -0.00, -1.00, 235.1, 164.0)">d</text><text xml:space="preserve" font-family="IowanOldStyle-Roman" font-size="31.7" fill="#5C5C5C" transform="matrix(1.00, 0.00, -0.00, -1.00, 252.9, 164.0)"> </text><text xml:space="preserve" font-family="IowanOldStyle-Roman" font-size="31.7" fill="#5C5C5C" transform="matrix(1.00, 0.00, -0.00, -1.00, 261.7, 164.0)">t</text><text xml:space="preserve" font-family="IowanOldStyle-Roman" font-size="31.7" fill="#5C5C5C" transform="matrix(1.00, 0.00, -0.00, -1.00, 273.1, 164.0)">h</text><text xml:space="preserve" font-family="IowanOldStyle-Roman" font-size="31.7" fill="#5C5C5C" transform="matrix(1.00, 0.00, -0.00, -1.00, 291.7, 164.0)">a</text><text xml:space="preserve" font-family="IowanOldStyle-Roman" font-size="31.7" fill="#5C5C5C" transform="matrix(1.00, 0.00, -0.00, -1.00, 306.9, 164.0)">n</text><text xml:space="preserve" font-family="IowanOldStyle-Roman" font-size="31.7" fill="#5C5C5C" transform="matrix(1.00, 0.00, -0.00, -1.00, 325.4, 164.0)">k</text><text xml:space="preserve" font-family="IowanOldStyle-Roman" font-size="31.7" fill="#5C5C5C" transform="matrix(1.00, 0.00, -0.00, -1.00, 342.7, 164.0)"> </text><text xml:space="preserve" font-family="IowanOldStyle-Roman" font-size="31.7" fill="#5C5C5C" transform="matrix(1.00, 0.00, -0.00, -1.00, 351.5, 164.0)">y</text><text xml:space="preserve" font-family="IowanOldStyle-Roman" font-size="31.7" fill="#5C5C5C" transform="matrix(1.00, 0.00, -0.00, -1.00, 366.9, 164.0)">o</text><text xml:space="preserve" font-family="IowanOldStyle-Roman" font-size="31.7" fill="#5C5C5C" transform="matrix(1.00, 0.00, -0.00, -1.00, 384.3, 164.0)">u</text><text xml:space="preserve" font-family="IowanOldStyle-Roman" font-size="31.7" fill="#5C5C5C" transform="matrix(1.00, 0.00, -0.00, -1.00, 402.9, 164.0)">:</text><text xml:space="preserve" font-family="IowanOldStyle-Roman" font-size="31.7" fill="#5C5C5C" transform="matrix(1.00, 0.00, -0.00, -1.00, 411.7, 164.0)"> </text><text xml:space="preserve" font-family="IowanOldStyle-Roman" font-size="31.7" fill="#5C5C5C" transform="matrix(1.00, 0.00, -0.00, -1.00, 420.5, 164.0)">M</text><text xml:space="preserve" font-family="IowanOldStyle-Roman" font-size="31.7" fill="#5C5C5C" transform="matrix(1.00, 0.00, -0.00, -1.00, 449.4, 164.0)">u</text><text xml:space="preserve" font-family="IowanOldStyle-Roman" font-size="31.7" fill="#5C5C5C" transform="matrix(1.00, 0.00, -0.00, -1.00, 468.0, 164.0)">c</text><text xml:space="preserve" font-family="IowanOldStyle-Roman" font-size="31.7" fill="#5C5C5C" transform="matrix(1.00, 0.00, -0.00, -1.00, 482.1, 164.0)">h</text><text xml:space="preserve" font-family="IowanOldStyle-Roman" font-size="31.7" fill="#5C5C5C" transform="matrix(1.00, 0.00, -0.00, -1.00, 500.7, 164.0)"> </text><text xml:space="preserve" font-family="IowanOldStyle-Roman" font-size="31.7" fill="#5C5C5C" transform="matrix(1.00, 0.00, -0.00, -1.00, 509.5, 164.0)">o</text><text xml:space="preserve" font-family="IowanOldStyle-Roman" font-size="31.7" fill="#5C5C5C" transform="matrix(1.00, 0.00, -0.00, -1.00, 526.9, 164.0)">f</text><text xml:space="preserve" font-family="IowanOldStyle-Roman" font-size="31.7" fill="#5C5C5C" transform="matrix(1.00, 0.00, -0.00, -1.00, 537.1, 164.0)"> </text><text xml:space="preserve" font-family="IowanOldStyle-Roman" font-size="31.7" fill="#5C5C5C" transform="matrix(1.00, 0.00, -0.00, -1.00, 545.9, 164.0)">t</text><text xml:space="preserve" font-family="IowanOldStyle-Roman" font-size="31.7" fill="#5C5C5C" transform="matrix(1.00, 0.00, -0.00, -1.00, 557.3, 164.0)">h</text><text xml:space="preserve" font-family="IowanOldStyle-Roman" font-size="31.7" fill="#5C5C5C" transform="matrix(1.00, 0.00, -0.00, -1.00, 575.8, 164.0)">i</text><text xml:space="preserve" font-family="IowanOldStyle-Roman" font-size="31.7" fill="#5C5C5C" transform="matrix(1.00, 0.00, -0.00, -1.00, 585.2, 164.0)">s</text><text xml:space="preserve" font-family="IowanOldStyle-Roman" font-size="31.7" fill="#5C5C5C" transform="matrix(1.00, 0.00, -0.00, -1.00, 599.2, 164.0)"> </text><text xml:space="preserve" font-family="IowanOldStyle-Roman" font-size="31.7" fill="#5C5C5C" transform="matrix(1.00, 0.00, -0.00, -1.00, 608.0, 164.0)">p</text><text xml:space="preserve" font-family="IowanOldStyle-Roman" font-size="31.7" fill="#5C5C5C" transform="matrix(1.00, 0.00, -0.00, -1.00, 625.8, 164.0)">r</text><text xml:space="preserve" font-family="IowanOldStyle-Roman" font-size="31.7" fill="#5C5C5C" transform="matrix(1.00, 0.00, -0.00, -1.00, 638.1, 164.0)">e</text><text xml:space="preserve" font-family="IowanOldStyle-Roman" font-size="31.7" fill="#5C5C5C" transform="matrix(1.00, 0.00, -0.00, -1.00, 653.6, 164.0)">s</text><text xml:space="preserve" font-family="IowanOldStyle-Roman" font-size="31.7" fill="#5C5C5C" transform="matrix(1.00, 0.00, -0.00, -1.00, 667.6, 164.0)">e</text><text xml:space="preserve" font-family="IowanOldStyle-Roman" font-size="31.7" fill="#5C5C5C" transform="matrix(1.00, 0.00, -0.00, -1.00, 683.1, 164.0)">n</text><text xml:space="preserve" font-family="IowanOldStyle-Roman" font-size="31.7" fill="#5C5C5C" transform="matrix(1.00, 0.00, -0.00, -1.00, 701.6, 164.0)">t</text><text xml:space="preserve" font-family="IowanOldStyle-Roman" font-size="31.7" fill="#5C5C5C" transform="matrix(1.00, 0.00, -0.00, -1.00, 713.0, 164.0)">a</text><text xml:space="preserve" font-family="IowanOldStyle-Roman" font-size="31.7" fill="#5C5C5C" transform="matrix(1.00, 0.00, -0.00, -1.00, 728.2, 164.0)">t</text><text xml:space="preserve" font-family="IowanOldStyle-Roman" font-size="31.7" fill="#5C5C5C" transform="matrix(1.00, 0.00, -0.00, -1.00, 739.6, 164.0)">i</text><text xml:space="preserve" font-family="IowanOldStyle-Roman" font-size="31.7" fill="#5C5C5C" transform="matrix(1.00, 0.00, -0.00, -1.00, 749.0, 164.0)">o</text><text xml:space="preserve" font-family="IowanOldStyle-Roman" font-size="31.7" fill="#5C5C5C" transform="matrix(1.00, 0.00, -0.00, -1.00, 766.4, 164.0)">n</text><text xml:space="preserve" font-family="IowanOldStyle-Roman" font-size="31.7" fill="#5C5C5C" transform="matrix(1.00, 0.00, -0.00, -1.00, 784.9, 164.0)"> </text><text xml:space="preserve" font-family="IowanOldStyle-Roman" font-size="31.7" fill="#5C5C5C" transform="matrix(1.00, 0.00, -0.00, -1.00, 793.7, 164.0)">i</text><text xml:space="preserve" font-family="IowanOldStyle-Roman" font-size="31.7" fill="#5C5C5C" transform="matrix(1.00, 0.00, -0.00, -1.00, 803.1, 164.0)">s</text><text xml:space="preserve" font-family="IowanOldStyle-Roman" font-size="31.7" fill="#5C5C5C" transform="matrix(1.00, 0.00, -0.00, -1.00, 817.2, 164.0)"> </text><text xml:space="preserve" font-family="IowanOldStyle-Roman" font-size="31.7" fill="#5C5C5C" transform="matrix(1.00, 0.00, -0.00, -1.00, 826.0, 164.0)">b</text><text xml:space="preserve" font-family="IowanOldStyle-Roman" font-size="31.7" fill="#5C5C5C" transform="matrix(1.00, 0.00, -0.00, -1.00, 843.6, 164.0)">a</text><text xml:space="preserve" font-family="IowanOldStyle-Roman" font-size="31.7" fill="#5C5C5C" transform="matrix(1.00, 0.00, -0.00, -1.00, 858.8, 164.0)">s</text><text xml:space="preserve" font-family="IowanOldStyle-Roman" font-size="31.7" fill="#5C5C5C" transform="matrix(1.00, 0.00, -0.00, -1.00, 872.9, 164.0)">e</text><text xml:space="preserve" font-family="IowanOldStyle-Roman" font-size="31.7" fill="#5C5C5C" transform="matrix(1.00, 0.00, -0.00, -1.00, 888.3, 164.0)">d</text><text xml:space="preserve" font-family="IowanOldStyle-Roman" font-size="31.7" fill="#5C5C5C" transform="matrix(1.00, 0.00, -0.00, -1.00, 906.1, 164.0)"> </text><text xml:space="preserve" font-family="IowanOldStyle-Roman" font-size="31.7" fill="#5C5C5C" transform="matrix(1.00, 0.00, -0.00, -1.00, 914.9, 164.0)">o</text><text xml:space="preserve" font-family="IowanOldStyle-Roman" font-size="31.7" fill="#5C5C5C" transform="matrix(1.00, 0.00, -0.00, -1.00, 932.3, 164.0)">n</text><text xml:space="preserve" font-family="IowanOldStyle-Roman" font-size="31.7" fill="#5C5C5C" transform="matrix(1.00, 0.00, -0.00, -1.00, 950.8, 164.0)"> </text><text xml:space="preserve" font-family="IowanOldStyle-Roman" font-size="31.7" fill="#5C5C5C" transform="matrix(1.00, 0.00, -0.00, -1.00, 86.0, 121.0)">T</text><text xml:space="preserve" font-family="IowanOldStyle-Roman" font-size="31.7" fill="#5C5C5C" transform="matrix(1.00, 0.00, -0.00, -1.00, 101.2, 121.0)">w</text><text xml:space="preserve" font-family="IowanOldStyle-Roman" font-size="31.7" fill="#5C5C5C" transform="matrix(1.00, 0.00, -0.00, -1.00, 125.7, 121.0)">i</text><text xml:space="preserve" font-family="IowanOldStyle-Roman" font-size="31.7" fill="#5C5C5C" transform="matrix(1.00, 0.00, -0.00, -1.00, 135.1, 121.0)">t</text><text xml:space="preserve" font-family="IowanOldStyle-Roman" font-size="31.7" fill="#5C5C5C" transform="matrix(1.00, 0.00, -0.00, -1.00, 146.5, 121.0)">t</text><text xml:space="preserve" font-family="IowanOldStyle-Roman" font-size="31.7" fill="#5C5C5C" transform="matrix(1.00, 0.00, -0.00, -1.00, 157.9, 121.0)">e</text><text xml:space="preserve" font-family="IowanOldStyle-Roman" font-size="31.7" fill="#5C5C5C" transform="matrix(1.00, 0.00, -0.00, -1.00, 173.4, 121.0)">r</text><text xml:space="preserve" font-family="IowanOldStyle-Roman" font-size="31.7" fill="#5C5C5C" transform="matrix(1.00, 0.00, -0.00, -1.00, 187.1, 121.0)">’</text><text xml:space="preserve" font-family="IowanOldStyle-Roman" font-size="31.7" fill="#5C5C5C" transform="matrix(1.00, 0.00, -0.00, -1.00, 195.8, 121.0)">s</text><text xml:space="preserve" font-family="IowanOldStyle-Roman" font-size="31.7" fill="#5C5C5C" transform="matrix(1.00, 0.00, -0.00, -1.00, 209.9, 121.0)"> </text><text xml:space="preserve" font-family="IowanOldStyle-Roman" font-size="31.7" fill="#5C5C5C" transform="matrix(1.00, 0.00, -0.00, -1.00, 218.7, 121.0)">S</text><text xml:space="preserve" font-family="IowanOldStyle-Roman" font-size="31.7" fill="#5C5C5C" transform="matrix(1.00, 0.00, -0.00, -1.00, 235.8, 121.0)">c</text><text xml:space="preserve" font-family="IowanOldStyle-Roman" font-size="31.7" fill="#5C5C5C" transform="matrix(1.00, 0.00, -0.00, -1.00, 250.0, 121.0)">a</text><text xml:space="preserve" font-family="IowanOldStyle-Roman" font-size="31.7" fill="#5C5C5C" transform="matrix(1.00, 0.00, -0.00, -1.00, 265.2, 121.0)">l</text><text xml:space="preserve" font-family="IowanOldStyle-Roman" font-size="31.7" fill="#5C5C5C" transform="matrix(1.00, 0.00, -0.00, -1.00, 274.4, 121.0)">a</text><text xml:space="preserve" font-family="IowanOldStyle-Roman" font-size="31.7" fill="#5C5C5C" transform="matrix(1.00, 0.00, -0.00, -1.00, 289.7, 121.0)"> </text><text xml:space="preserve" font-family="IowanOldStyle-Roman" font-size="31.7" fill="#5C5C5C" transform="matrix(1.00, 0.00, -0.00, -1.00, 298.5, 121.0)">S</text><text xml:space="preserve" font-family="IowanOldStyle-Roman" font-size="31.7" fill="#5C5C5C" transform="matrix(1.00, 0.00, -0.00, -1.00, 315.6, 121.0)">c</text><text xml:space="preserve" font-family="IowanOldStyle-Roman" font-size="31.7" fill="#5C5C5C" transform="matrix(1.00, 0.00, -0.00, -1.00, 329.8, 121.0)">h</text><text xml:space="preserve" font-family="IowanOldStyle-Roman" font-size="31.7" fill="#5C5C5C" transform="matrix(1.00, 0.00, -0.00, -1.00, 348.3, 121.0)">o</text><text xml:space="preserve" font-family="IowanOldStyle-Roman" font-size="31.7" fill="#5C5C5C" transform="matrix(1.00, 0.00, -0.00, -1.00, 365.8, 121.0)">o</text><text xml:space="preserve" font-family="IowanOldStyle-Roman" font-size="31.7" fill="#5C5C5C" transform="matrix(1.00, 0.00, -0.00, -1.00, 383.2, 121.0)">l</text><text xml:space="preserve" font-family="IowanOldStyle-Roman" font-size="31.7" fill="#5C5C5C" transform="matrix(1.00, 0.00, -0.00, -1.00, 392.5, 121.0)"> </text><text xml:space="preserve" font-family="IowanOldStyle-Roman" font-size="31.7" fill="#5C5C5C" transform="matrix(1.00, 0.00, -0.00, -1.00, 401.3, 121.0)">m</text><text xml:space="preserve" font-family="IowanOldStyle-Roman" font-size="31.7" fill="#5C5C5C" transform="matrix(1.00, 0.00, -0.00, -1.00, 429.1, 121.0)">e</text><text xml:space="preserve" font-family="IowanOldStyle-Roman" font-size="31.7" fill="#5C5C5C" transform="matrix(1.00, 0.00, -0.00, -1.00, 444.6, 121.0)">n</text><text xml:space="preserve" font-family="IowanOldStyle-Roman" font-size="31.7" fill="#5C5C5C" transform="matrix(1.00, 0.00, -0.00, -1.00, 463.1, 121.0)">t</text><text xml:space="preserve" font-family="IowanOldStyle-Roman" font-size="31.7" fill="#5C5C5C" transform="matrix(1.00, 0.00, -0.00, -1.00, 474.5, 121.0)">i</text><text xml:space="preserve" font-family="IowanOldStyle-Roman" font-size="31.7" fill="#5C5C5C" transform="matrix(1.00, 0.00, -0.00, -1.00, 483.9, 121.0)">o</text><text xml:space="preserve" font-family="IowanOldStyle-Roman" font-size="31.7" fill="#5C5C5C" transform="matrix(1.00, 0.00, -0.00, -1.00, 501.3, 121.0)">n</text><text xml:space="preserve" font-family="IowanOldStyle-Roman" font-size="31.7" fill="#5C5C5C" transform="matrix(1.00, 0.00, -0.00, -1.00, 519.8, 121.0)">e</text><text xml:space="preserve" font-family="IowanOldStyle-Roman" font-size="31.7" fill="#5C5C5C" transform="matrix(1.00, 0.00, -0.00, -1.00, 535.3, 121.0)">d</text><text xml:space="preserve" font-family="IowanOldStyle-Roman" font-size="31.7" fill="#5C5C5C" transform="matrix(1.00, 0.00, -0.00, -1.00, 553.1, 121.0)"> </text><text xml:space="preserve" font-family="IowanOldStyle-Roman" font-size="31.7" fill="#5C5C5C" transform="matrix(1.00, 0.00, -0.00, -1.00, 561.9, 121.0)">a</text><text xml:space="preserve" font-family="IowanOldStyle-Roman" font-size="31.7" fill="#5C5C5C" transform="matrix(1.00, 0.00, -0.00, -1.00, 577.1, 121.0)">b</text><text xml:space="preserve" font-family="IowanOldStyle-Roman" font-size="31.7" fill="#5C5C5C" transform="matrix(1.00, 0.00, -0.00, -1.00, 594.7, 121.0)">o</text><text xml:space="preserve" font-family="IowanOldStyle-Roman" font-size="31.7" fill="#5C5C5C" transform="matrix(1.00, 0.00, -0.00, -1.00, 612.2, 121.0)">v</text><text xml:space="preserve" font-family="IowanOldStyle-Roman" font-size="31.7" fill="#5C5C5C" transform="matrix(1.00, 0.00, -0.00, -1.00, 627.7, 121.0)">e</text><text xml:space="preserve" font-family="IowanOldStyle-Roman" font-size="31.7" fill="#5C5C5C" transform="matrix(1.00, 0.00, -0.00, -1.00, 643.2, 121.0)"> </text><text xml:space="preserve" font-family="IowanOldStyle-Roman" font-size="31.7" fill="#5C5C5C" transform="matrix(1.00, 0.00, -0.00, -1.00, 652.1, 121.0)">h</text><text xml:space="preserve" font-family="IowanOldStyle-Roman" font-size="31.7" fill="#5C5C5C" transform="matrix(1.00, 0.00, -0.00, -1.00, 670.7, 121.0)">t</text><text xml:space="preserve" font-family="IowanOldStyle-Roman" font-size="31.7" fill="#5C5C5C" transform="matrix(1.00, 0.00, -0.00, -1.00, 682.1, 121.0)">t</text><text xml:space="preserve" font-family="IowanOldStyle-Roman" font-size="31.7" fill="#5C5C5C" transform="matrix(1.00, 0.00, -0.00, -1.00, 693.4, 121.0)">p</text><text xml:space="preserve" font-family="IowanOldStyle-Roman" font-size="31.7" fill="#5C5C5C" transform="matrix(1.00, 0.00, -0.00, -1.00, 711.2, 121.0)">:</text><text xml:space="preserve" font-family="IowanOldStyle-Roman" font-size="31.7" fill="#5C5C5C" transform="matrix(1.00, 0.00, -0.00, -1.00, 720.0, 121.0)">/</text><text xml:space="preserve" font-family="IowanOldStyle-Roman" font-size="31.7" fill="#5C5C5C" transform="matrix(1.00, 0.00, -0.00, -1.00, 734.6, 121.0)">/</text><g><clipPath id="clip-143"><path d="M 650.7 114.9 L 748.8 114.9 L 748.8 118.5 L 650.7 118.5 Z M 650.7 114.9 "></path></clipPath><g clip-path="url(#clip-143)"><path d="M 606.7 509.3 L 703.8 509.3 " fill="none" stroke="#5C5C5C" stroke-width="1.69" stroke-miterlimit="0.00" transform="matrix(1.00, 0.00, 0.00, -1.00, 45.0, 626.0)"></path></g></g><text xml:space="preserve" font-family="IowanOldStyle-Roman" font-size="31.7" fill="#5C5C5C" transform="matrix(1.00, 0.00, -0.00, -1.00, 86.0, 78.0)">w</text><text xml:space="preserve" font-family="IowanOldStyle-Roman" font-size="31.7" fill="#5C5C5C" transform="matrix(1.00, 0.00, -0.00, -1.00, 110.5, 78.0)">w</text><text xml:space="preserve" font-family="IowanOldStyle-Roman" font-size="31.7" fill="#5C5C5C" transform="matrix(1.00, 0.00, -0.00, -1.00, 135.1, 78.0)">w</text><text xml:space="preserve" font-family="IowanOldStyle-Roman" font-size="31.7" fill="#5C5C5C" transform="matrix(1.00, 0.00, -0.00, -1.00, 156.7, 78.0)">.</text><text xml:space="preserve" font-family="IowanOldStyle-Roman" font-size="31.7" fill="#5C5C5C" transform="matrix(1.00, 0.00, -0.00, -1.00, 165.5, 78.0)">a</text><text xml:space="preserve" font-family="IowanOldStyle-Roman" font-size="31.7" fill="#5C5C5C" transform="matrix(1.00, 0.00, -0.00, -1.00, 180.8, 78.0)">p</text><text xml:space="preserve" font-family="IowanOldStyle-Roman" font-size="31.7" fill="#5C5C5C" transform="matrix(1.00, 0.00, -0.00, -1.00, 198.5, 78.0)">a</text><text xml:space="preserve" font-family="IowanOldStyle-Roman" font-size="31.7" fill="#5C5C5C" transform="matrix(1.00, 0.00, -0.00, -1.00, 213.7, 78.0)">c</text><text xml:space="preserve" font-family="IowanOldStyle-Roman" font-size="31.7" fill="#5C5C5C" transform="matrix(1.00, 0.00, -0.00, -1.00, 227.9, 78.0)">h</text><text xml:space="preserve" font-family="IowanOldStyle-Roman" font-size="31.7" fill="#5C5C5C" transform="matrix(1.00, 0.00, -0.00, -1.00, 246.5, 78.0)">e</text><text xml:space="preserve" font-family="IowanOldStyle-Roman" font-size="31.7" fill="#5C5C5C" transform="matrix(1.00, 0.00, -0.00, -1.00, 261.9, 78.0)">.</text><text xml:space="preserve" font-family="IowanOldStyle-Roman" font-size="31.7" fill="#5C5C5C" transform="matrix(1.00, 0.00, -0.00, -1.00, 270.7, 78.0)">o</text><text xml:space="preserve" font-family="IowanOldStyle-Roman" font-size="31.7" fill="#5C5C5C" transform="matrix(1.00, 0.00, -0.00, -1.00, 288.1, 78.0)">r</text><text xml:space="preserve" font-family="IowanOldStyle-Roman" font-size="31.7" fill="#5C5C5C" transform="matrix(1.00, 0.00, -0.00, -1.00, 300.5, 78.0)">g</text><text xml:space="preserve" font-family="IowanOldStyle-Roman" font-size="31.7" fill="#5C5C5C" transform="matrix(1.00, 0.00, -0.00, -1.00, 316.9, 78.0)">/</text><text xml:space="preserve" font-family="IowanOldStyle-Roman" font-size="31.7" fill="#5C5C5C" transform="matrix(1.00, 0.00, -0.00, -1.00, 331.5, 78.0)">l</text><text xml:space="preserve" font-family="IowanOldStyle-Roman" font-size="31.7" fill="#5C5C5C" transform="matrix(1.00, 0.00, -0.00, -1.00, 340.7, 78.0)">i</text><text xml:space="preserve" font-family="IowanOldStyle-Roman" font-size="31.7" fill="#5C5C5C" transform="matrix(1.00, 0.00, -0.00, -1.00, 350.1, 78.0)">c</text><text xml:space="preserve" font-family="IowanOldStyle-Roman" font-size="31.7" fill="#5C5C5C" transform="matrix(1.00, 0.00, -0.00, -1.00, 364.3, 78.0)">e</text><text xml:space="preserve" font-family="IowanOldStyle-Roman" font-size="31.7" fill="#5C5C5C" transform="matrix(1.00, 0.00, -0.00, -1.00, 379.7, 78.0)">n</text><text xml:space="preserve" font-family="IowanOldStyle-Roman" font-size="31.7" fill="#5C5C5C" transform="matrix(1.00, 0.00, -0.00, -1.00, 398.2, 78.0)">s</text><text xml:space="preserve" font-family="IowanOldStyle-Roman" font-size="31.7" fill="#5C5C5C" transform="matrix(1.00, 0.00, -0.00, -1.00, 412.2, 78.0)">e</text><text xml:space="preserve" font-family="IowanOldStyle-Roman" font-size="31.7" fill="#5C5C5C" transform="matrix(1.00, 0.00, -0.00, -1.00, 427.7, 78.0)">s</text><text xml:space="preserve" font-family="IowanOldStyle-Roman" font-size="31.7" fill="#5C5C5C" transform="matrix(1.00, 0.00, -0.00, -1.00, 441.7, 78.0)">/</text><text xml:space="preserve" font-family="IowanOldStyle-Roman" font-size="31.7" fill="#5C5C5C" transform="matrix(1.00, 0.00, -0.00, -1.00, 456.3, 78.0)">L</text><text xml:space="preserve" font-family="IowanOldStyle-Roman" font-size="31.7" fill="#5C5C5C" transform="matrix(1.00, 0.00, -0.00, -1.00, 474.4, 78.0)">I</text><text xml:space="preserve" font-family="IowanOldStyle-Roman" font-size="31.7" fill="#5C5C5C" transform="matrix(1.00, 0.00, -0.00, -1.00, 485.2, 78.0)">C</text><text xml:space="preserve" font-family="IowanOldStyle-Roman" font-size="31.7" fill="#5C5C5C" transform="matrix(1.00, 0.00, -0.00, -1.00, 507.6, 78.0)">E</text><text xml:space="preserve" font-family="IowanOldStyle-Roman" font-size="31.7" fill="#5C5C5C" transform="matrix(1.00, 0.00, -0.00, -1.00, 527.6, 78.0)">N</text><text xml:space="preserve" font-family="IowanOldStyle-Roman" font-size="31.7" fill="#5C5C5C" transform="matrix(1.00, 0.00, -0.00, -1.00, 553.2, 78.0)">S</text><text xml:space="preserve" font-family="IowanOldStyle-Roman" font-size="31.7" fill="#5C5C5C" transform="matrix(1.00, 0.00, -0.00, -1.00, 570.4, 78.0)">E</text><text xml:space="preserve" font-family="IowanOldStyle-Roman" font-size="31.7" fill="#5C5C5C" transform="matrix(1.00, 0.00, -0.00, -1.00, 590.5, 78.0)">-</text><text xml:space="preserve" font-family="IowanOldStyle-Roman" font-size="31.7" fill="#5C5C5C" transform="matrix(1.00, 0.00, -0.00, -1.00, 601.5, 78.0)">2</text><text xml:space="preserve" font-family="IowanOldStyle-Roman" font-size="31.7" fill="#5C5C5C" transform="matrix(1.00, 0.00, -0.00, -1.00, 619.2, 78.0)">.</text><text xml:space="preserve" font-family="IowanOldStyle-Roman" font-size="31.7" fill="#5C5C5C" transform="matrix(1.00, 0.00, -0.00, -1.00, 628.0, 78.0)">0</text><g><clipPath id="clip-144"><path d="M 84.6 71.9 L 645.3 71.9 L 645.3 75.5 L 84.6 75.5 Z M 84.6 71.9 "></path></clipPath><g clip-path="url(#clip-144)"><path d="M 40.6 552.3 L 600.3 552.3 " fill="none" stroke="#5C5C5C" stroke-width="1.69" stroke-miterlimit="0.00" transform="matrix(1.00, 0.00, 0.00, -1.00, 45.0, 626.0)"></path></g></g></g></svg>