<?xml version="1.0" encoding="UTF-8" standalone="no"?><svg xmlns="http://www.w3.org/2000/svg" xmlns:xlink="http://www.w3.org/1999/xlink" clip-rule="evenodd" stroke-miterlimit="4.00" viewBox="0 0 1024 768"><desc>SVG generated by Keynote</desc><defs></defs><g transform="matrix(1.00, 0.00, -0.00, -1.00, 0.0, 768.0)"><path d="M 0.0 768.0 L 1024.0 768.0 L 1024.0 0.0 L 0.0 0.0 Z M 0.0 768.0 " fill="#FFFFFF"></path><path d="M 0.0 0.0 L 934.0 0.0 " fill="none" stroke="#747676" stroke-width="3.00" stroke-linecap="round" stroke-linejoin="round" stroke-dasharray="0.0, 9.0" transform="matrix(1.00, 0.00, 0.00, -1.00, 45.0, 644.0)"></path><text xml:space="preserve" font-family="DINCondensed-Bold" font-weight="bold" font-size="48.4" fill="#747676" transform="matrix(1.00, 0.00, -0.00, -1.00, 49.0, 673.0)">F</text><text xml:space="preserve" font-family="DINCondensed-Bold" font-weight="bold" font-size="48.4" fill="#747676" transform="matrix(1.00, 0.00, -0.00, -1.00, 66.9, 673.0)">O</text><text xml:space="preserve" font-family="DINCondensed-Bold" font-weight="bold" font-size="48.4" fill="#747676" transform="matrix(1.00, 0.00, -0.00, -1.00, 87.5, 673.0)">R</text><text xml:space="preserve" font-family="DINCondensed-Bold" font-weight="bold" font-size="48.4" fill="#747676" transform="matrix(1.00, 0.00, -0.00, -1.00, 108.1, 673.0)">E</text><text xml:space="preserve" font-family="DINCondensed-Bold" font-weight="bold" font-size="48.4" fill="#747676" transform="matrix(1.00, 0.00, -0.00, -1.00, 126.0, 673.0)">A</text><text xml:space="preserve" font-family="DINCondensed-Bold" font-weight="bold" font-size="48.4" fill="#747676" transform="matrix(1.00, 0.00, -0.00, -1.00, 145.7, 673.0)">C</text><text xml:space="preserve" font-family="DINCondensed-Bold" font-weight="bold" font-size="48.4" fill="#747676" transform="matrix(1.00, 0.00, -0.00, -1.00, 165.4, 673.0)">H</text><path d="M 49.0 622.0 L 76.1 622.0 L 76.1 569.0 L 49.0 569.0 Z M 49.0 622.0 " fill="#344033"></path><path d="M 76.1 622.0 L 536.7 622.0 L 536.7 569.0 L 76.1 569.0 Z M 76.1 622.0 " fill="#2A2A2A"></path><path d="M 49.0 392.0 L 841.3 392.0 L 841.3 337.0 L 49.0 337.0 Z M 49.0 392.0 " fill="#2A2A2A"></path><text xml:space="preserve" font-family="Menlo-Regular" font-size="45.0" fill="#CACACA" transform="matrix(1.00, 0.00, -0.00, -1.00, 49.0, 580.0)">n</text><text xml:space="preserve" font-family="Menlo-Regular" font-size="45.0" fill="#CACACA" transform="matrix(1.00, 0.00, -0.00, -1.00, 76.1, 580.0)">.</text><text xml:space="preserve" font-family="Menlo-Regular" font-size="45.0" fill="#CACACA" transform="matrix(1.00, 0.00, -0.00, -1.00, 103.2, 580.0)">f</text><text xml:space="preserve" font-family="Menlo-Regular" font-size="45.0" fill="#CACACA" transform="matrix(1.00, 0.00, -0.00, -1.00, 130.3, 580.0)">o</text><text xml:space="preserve" font-family="Menlo-Regular" font-size="45.0" fill="#CACACA" transform="matrix(1.00, 0.00, -0.00, -1.00, 157.4, 580.0)">r</text><text xml:space="preserve" font-family="Menlo-Regular" font-size="45.0" fill="#CACACA" transform="matrix(1.00, 0.00, -0.00, -1.00, 184.5, 580.0)">e</text><text xml:space="preserve" font-family="Menlo-Regular" font-size="45.0" fill="#CACACA" transform="matrix(1.00, 0.00, -0.00, -1.00, 211.6, 580.0)">a</text><text xml:space="preserve" font-family="Menlo-Regular" font-size="45.0" fill="#CACACA" transform="matrix(1.00, 0.00, -0.00, -1.00, 238.7, 580.0)">c</text><text xml:space="preserve" font-family="Menlo-Regular" font-size="45.0" fill="#CACACA" transform="matrix(1.00, 0.00, -0.00, -1.00, 265.8, 580.0)">h</text><text xml:space="preserve" font-family="Menlo-Regular" font-size="45.0" fill="#CACACA" transform="matrix(1.00, 0.00, -0.00, -1.00, 292.9, 580.0)">(</text><text xml:space="preserve" font-family="Menlo-Italic" font-style="italic" font-size="45.0" fill="#CACACA" transform="matrix(1.00, 0.00, -0.00, -1.00, 319.9, 580.0)">p</text><text xml:space="preserve" font-family="Menlo-Italic" font-style="italic" font-size="45.0" fill="#CACACA" transform="matrix(1.00, 0.00, -0.00, -1.00, 347.0, 580.0)">r</text><text xml:space="preserve" font-family="Menlo-Italic" font-style="italic" font-size="45.0" fill="#CACACA" transform="matrix(1.00, 0.00, -0.00, -1.00, 374.1, 580.0)">i</text><text xml:space="preserve" font-family="Menlo-Italic" font-style="italic" font-size="45.0" fill="#CACACA" transform="matrix(1.00, 0.00, -0.00, -1.00, 401.2, 580.0)">n</text><text xml:space="preserve" font-family="Menlo-Italic" font-style="italic" font-size="45.0" fill="#CACACA" transform="matrix(1.00, 0.00, -0.00, -1.00, 428.3, 580.0)">t</text><text xml:space="preserve" font-family="Menlo-Italic" font-style="italic" font-size="45.0" fill="#CACACA" transform="matrix(1.00, 0.00, -0.00, -1.00, 455.4, 580.0)">l</text><text xml:space="preserve" font-family="Menlo-Italic" font-style="italic" font-size="45.0" fill="#CACACA" transform="matrix(1.00, 0.00, -0.00, -1.00, 482.5, 580.0)">n</text><text xml:space="preserve" font-family="Menlo-Regular" font-size="45.0" fill="#CACACA" transform="matrix(1.00, 0.00, -0.00, -1.00, 509.6, 580.0)">)</text><text xml:space="preserve" font-family="Monaco" font-size="45.0" fill="#CACACA" transform="matrix(1.00, 0.00, -0.00, -1.00, 536.7, 580.0)"> </text><text xml:space="preserve" font-family="ZapfDingbatsITC" font-size="24.0" fill="#5C5C5C" transform="matrix(1.00, 0.00, -0.00, -1.00, 49.0, 486.2)">➤</text><text xml:space="preserve" font-family="IowanOldStyle-Roman" font-size="32.0" fill="#5C5C5C" transform="matrix(1.00, 0.00, -0.00, -1.00, 86.0, 483.0)">f</text><text xml:space="preserve" font-family="IowanOldStyle-Roman" font-size="32.0" fill="#5C5C5C" transform="matrix(1.00, 0.00, -0.00, -1.00, 96.2, 483.0)">o</text><text xml:space="preserve" font-family="IowanOldStyle-Roman" font-size="32.0" fill="#5C5C5C" transform="matrix(1.00, 0.00, -0.00, -1.00, 113.8, 483.0)">r</text><text xml:space="preserve" font-family="IowanOldStyle-Roman" font-size="32.0" fill="#5C5C5C" transform="matrix(1.00, 0.00, -0.00, -1.00, 126.3, 483.0)">e</text><text xml:space="preserve" font-family="IowanOldStyle-Roman" font-size="32.0" fill="#5C5C5C" transform="matrix(1.00, 0.00, -0.00, -1.00, 141.9, 483.0)">a</text><text xml:space="preserve" font-family="IowanOldStyle-Roman" font-size="32.0" fill="#5C5C5C" transform="matrix(1.00, 0.00, -0.00, -1.00, 157.3, 483.0)">c</text><text xml:space="preserve" font-family="IowanOldStyle-Roman" font-size="32.0" fill="#5C5C5C" transform="matrix(1.00, 0.00, -0.00, -1.00, 171.6, 483.0)">h</text><text xml:space="preserve" font-family="IowanOldStyle-Roman" font-size="32.0" fill="#5C5C5C" transform="matrix(1.00, 0.00, -0.00, -1.00, 190.4, 483.0)"> </text><text xml:space="preserve" font-family="IowanOldStyle-Roman" font-size="32.0" fill="#5C5C5C" transform="matrix(1.00, 0.00, -0.00, -1.00, 199.2, 483.0)">i</text><text xml:space="preserve" font-family="IowanOldStyle-Roman" font-size="32.0" fill="#5C5C5C" transform="matrix(1.00, 0.00, -0.00, -1.00, 208.7, 483.0)">s</text><text xml:space="preserve" font-family="IowanOldStyle-Roman" font-size="32.0" fill="#5C5C5C" transform="matrix(1.00, 0.00, -0.00, -1.00, 222.9, 483.0)"> </text><text xml:space="preserve" font-family="IowanOldStyle-Roman" font-size="32.0" fill="#5C5C5C" transform="matrix(1.00, 0.00, -0.00, -1.00, 231.8, 483.0)">l</text><text xml:space="preserve" font-family="IowanOldStyle-Roman" font-size="32.0" fill="#5C5C5C" transform="matrix(1.00, 0.00, -0.00, -1.00, 241.1, 483.0)">i</text><text xml:space="preserve" font-family="IowanOldStyle-Roman" font-size="32.0" fill="#5C5C5C" transform="matrix(1.00, 0.00, -0.00, -1.00, 250.6, 483.0)">k</text><text xml:space="preserve" font-family="IowanOldStyle-Roman" font-size="32.0" fill="#5C5C5C" transform="matrix(1.00, 0.00, -0.00, -1.00, 267.1, 483.0)">e</text><text xml:space="preserve" font-family="IowanOldStyle-Roman" font-size="32.0" fill="#5C5C5C" transform="matrix(1.00, 0.00, -0.00, -1.00, 282.7, 483.0)"> </text><text xml:space="preserve" font-family="IowanOldStyle-Roman" font-size="32.0" fill="#5C5C5C" transform="matrix(1.00, 0.00, -0.00, -1.00, 291.6, 483.0)">`</text><text xml:space="preserve" font-family="IowanOldStyle-Roman" font-size="32.0" fill="#5C5C5C" transform="matrix(1.00, 0.00, -0.00, -1.00, 307.6, 483.0)">m</text><text xml:space="preserve" font-family="IowanOldStyle-Roman" font-size="32.0" fill="#5C5C5C" transform="matrix(1.00, 0.00, -0.00, -1.00, 335.8, 483.0)">a</text><text xml:space="preserve" font-family="IowanOldStyle-Roman" font-size="32.0" fill="#5C5C5C" transform="matrix(1.00, 0.00, -0.00, -1.00, 351.2, 483.0)">p</text><text xml:space="preserve" font-family="IowanOldStyle-Roman" font-size="32.0" fill="#5C5C5C" transform="matrix(1.00, 0.00, -0.00, -1.00, 369.1, 483.0)">`</text><text xml:space="preserve" font-family="IowanOldStyle-Roman" font-size="32.0" fill="#5C5C5C" transform="matrix(1.00, 0.00, -0.00, -1.00, 385.1, 483.0)"> </text><text xml:space="preserve" font-family="IowanOldStyle-Roman" font-size="32.0" fill="#5C5C5C" transform="matrix(1.00, 0.00, -0.00, -1.00, 394.0, 483.0)">b</text><text xml:space="preserve" font-family="IowanOldStyle-Roman" font-size="32.0" fill="#5C5C5C" transform="matrix(1.00, 0.00, -0.00, -1.00, 411.8, 483.0)">u</text><text xml:space="preserve" font-family="IowanOldStyle-Roman" font-size="32.0" fill="#5C5C5C" transform="matrix(1.00, 0.00, -0.00, -1.00, 430.6, 483.0)">t</text><text xml:space="preserve" font-family="IowanOldStyle-Roman" font-size="32.0" fill="#5C5C5C" transform="matrix(1.00, 0.00, -0.00, -1.00, 442.1, 483.0)"> </text><text xml:space="preserve" font-family="IowanOldStyle-Italic" font-style="italic" font-size="32.0" fill="#5C5C5C" transform="matrix(1.00, 0.00, -0.00, -1.00, 451.0, 483.0)">r</text><text xml:space="preserve" font-family="IowanOldStyle-Italic" font-style="italic" font-size="32.0" fill="#5C5C5C" transform="matrix(1.00, 0.00, -0.00, -1.00, 462.3, 483.0)">e</text><text xml:space="preserve" font-family="IowanOldStyle-Italic" font-style="italic" font-size="32.0" fill="#5C5C5C" transform="matrix(1.00, 0.00, -0.00, -1.00, 474.5, 483.0)">t</text><text xml:space="preserve" font-family="IowanOldStyle-Italic" font-style="italic" font-size="32.0" fill="#5C5C5C" transform="matrix(1.00, 0.00, -0.00, -1.00, 485.3, 483.0)">u</text><text xml:space="preserve" font-family="IowanOldStyle-Italic" font-style="italic" font-size="32.0" fill="#5C5C5C" transform="matrix(1.00, 0.00, -0.00, -1.00, 501.4, 483.0)">r</text><text xml:space="preserve" font-family="IowanOldStyle-Italic" font-style="italic" font-size="32.0" fill="#5C5C5C" transform="matrix(1.00, 0.00, -0.00, -1.00, 513.2, 483.0)">n</text><text xml:space="preserve" font-family="IowanOldStyle-Italic" font-style="italic" font-size="32.0" fill="#5C5C5C" transform="matrix(1.00, 0.00, -0.00, -1.00, 529.4, 483.0)">s</text><text xml:space="preserve" font-family="IowanOldStyle-Italic" font-style="italic" font-size="32.0" fill="#5C5C5C" transform="matrix(1.00, 0.00, -0.00, -1.00, 540.7, 483.0)"> </text><text xml:space="preserve" font-family="IowanOldStyle-Italic" font-style="italic" font-size="32.0" fill="#5C5C5C" transform="matrix(1.00, 0.00, -0.00, -1.00, 547.7, 483.0)">n</text><text xml:space="preserve" font-family="IowanOldStyle-Italic" font-style="italic" font-size="32.0" fill="#5C5C5C" transform="matrix(1.00, 0.00, -0.00, -1.00, 563.9, 483.0)">o</text><text xml:space="preserve" font-family="IowanOldStyle-Italic" font-style="italic" font-size="32.0" fill="#5C5C5C" transform="matrix(1.00, 0.00, -0.00, -1.00, 578.5, 483.0)">t</text><text xml:space="preserve" font-family="IowanOldStyle-Italic" font-style="italic" font-size="32.0" fill="#5C5C5C" transform="matrix(1.00, 0.00, -0.00, -1.00, 589.3, 483.0)">h</text><text xml:space="preserve" font-family="IowanOldStyle-Italic" font-style="italic" font-size="32.0" fill="#5C5C5C" transform="matrix(1.00, 0.00, -0.00, -1.00, 605.2, 483.0)">i</text><text xml:space="preserve" font-family="IowanOldStyle-Italic" font-style="italic" font-size="32.0" fill="#5C5C5C" transform="matrix(1.00, 0.00, -0.00, -1.00, 614.0, 483.0)">n</text><text xml:space="preserve" font-family="IowanOldStyle-Italic" font-style="italic" font-size="32.0" fill="#5C5C5C" transform="matrix(1.00, 0.00, -0.00, -1.00, 630.2, 483.0)">g</text><text xml:space="preserve" font-family="IowanOldStyle-Roman" font-size="32.0" fill="#5C5C5C" transform="matrix(1.00, 0.00, -0.00, -1.00, 644.9, 483.0)"> </text><text xml:space="preserve" font-family="ZapfDingbatsITC" font-size="24.0" fill="#5C5C5C" transform="matrix(1.00, 0.00, -0.00, -1.00, 49.0, 424.2)">➤</text><text xml:space="preserve" font-family="IowanOldStyle-Roman" font-size="32.0" fill="#5C5C5C" transform="matrix(1.00, 0.00, -0.00, -1.00, 86.0, 421.0)">T</text><text xml:space="preserve" font-family="IowanOldStyle-Roman" font-size="32.0" fill="#5C5C5C" transform="matrix(1.00, 0.00, -0.00, -1.00, 102.5, 421.0)">r</text><text xml:space="preserve" font-family="IowanOldStyle-Roman" font-size="32.0" fill="#5C5C5C" transform="matrix(1.00, 0.00, -0.00, -1.00, 115.6, 421.0)">y</text><text xml:space="preserve" font-family="IowanOldStyle-Roman" font-size="32.0" fill="#5C5C5C" transform="matrix(1.00, 0.00, -0.00, -1.00, 131.1, 421.0)"> </text><text xml:space="preserve" font-family="IowanOldStyle-Roman" font-size="32.0" fill="#5C5C5C" transform="matrix(1.00, 0.00, -0.00, -1.00, 140.0, 421.0)">i</text><text xml:space="preserve" font-family="IowanOldStyle-Roman" font-size="32.0" fill="#5C5C5C" transform="matrix(1.00, 0.00, -0.00, -1.00, 149.5, 421.0)">t</text><text xml:space="preserve" font-family="IowanOldStyle-Roman" font-size="32.0" fill="#5C5C5C" transform="matrix(1.00, 0.00, -0.00, -1.00, 161.0, 421.0)">…</text><text xml:space="preserve" font-family="IowanOldStyle-Roman" font-size="32.0" fill="#5C5C5C" transform="matrix(1.00, 0.00, -0.00, -1.00, 193.0, 421.0)"> </text><text xml:space="preserve" font-family="Menlo-Regular" font-size="47.0" fill="#CACACA" transform="matrix(1.00, 0.00, -0.00, -1.00, 49.0, 348.0)">n</text><text xml:space="preserve" font-family="Menlo-Regular" font-size="47.0" fill="#CACACA" transform="matrix(1.00, 0.00, -0.00, -1.00, 77.3, 348.0)">.</text><text xml:space="preserve" font-family="Menlo-Regular" font-size="47.0" fill="#CACACA" transform="matrix(1.00, 0.00, -0.00, -1.00, 105.6, 348.0)">f</text><text xml:space="preserve" font-family="Menlo-Regular" font-size="47.0" fill="#CACACA" transform="matrix(1.00, 0.00, -0.00, -1.00, 133.9, 348.0)">o</text><text xml:space="preserve" font-family="Menlo-Regular" font-size="47.0" fill="#CACACA" transform="matrix(1.00, 0.00, -0.00, -1.00, 162.2, 348.0)">r</text><text xml:space="preserve" font-family="Menlo-Regular" font-size="47.0" fill="#CACACA" transform="matrix(1.00, 0.00, -0.00, -1.00, 190.5, 348.0)">e</text><text xml:space="preserve" font-family="Menlo-Regular" font-size="47.0" fill="#CACACA" transform="matrix(1.00, 0.00, -0.00, -1.00, 218.8, 348.0)">a</text><text xml:space="preserve" font-family="Menlo-Regular" font-size="47.0" fill="#CACACA" transform="matrix(1.00, 0.00, -0.00, -1.00, 247.1, 348.0)">c</text><text xml:space="preserve" font-family="Menlo-Regular" font-size="47.0" fill="#CACACA" transform="matrix(1.00, 0.00, -0.00, -1.00, 275.4, 348.0)">h</text><text xml:space="preserve" font-family="Menlo-Regular" font-size="47.0" fill="#CACACA" transform="matrix(1.00, 0.00, -0.00, -1.00, 303.7, 348.0)">(</text><text xml:space="preserve" font-family="Menlo-Regular" font-size="47.0" fill="#CACACA" transform="matrix(1.00, 0.00, -0.00, -1.00, 332.0, 348.0)">(</text><text xml:space="preserve" font-family="Menlo-Regular" font-size="47.0" fill="#CACACA" transform="matrix(1.00, 0.00, -0.00, -1.00, 360.3, 348.0)">i</text><text xml:space="preserve" font-family="Menlo-Regular" font-size="47.0" fill="#CACACA" transform="matrix(1.00, 0.00, -0.00, -1.00, 388.6, 348.0)">:</text><text xml:space="preserve" font-family="Menlo-Regular" font-size="47.0" fill="#CACACA" transform="matrix(1.00, 0.00, -0.00, -1.00, 416.9, 348.0)"> </text><text xml:space="preserve" font-family="Menlo-Regular" font-size="47.0" fill="#CC7831" transform="matrix(1.00, 0.00, -0.00, -1.00, 445.1, 348.0)">I</text><text xml:space="preserve" font-family="Menlo-Regular" font-size="47.0" fill="#CC7831" transform="matrix(1.00, 0.00, -0.00, -1.00, 473.5, 348.0)">n</text><text xml:space="preserve" font-family="Menlo-Regular" font-size="47.0" fill="#CC7831" transform="matrix(1.00, 0.00, -0.00, -1.00, 501.8, 348.0)">t</text><text xml:space="preserve" font-family="Menlo-Regular" font-size="47.0" fill="#A9B6C6" transform="matrix(1.00, 0.00, -0.00, -1.00, 530.0, 348.0)">)</text><text xml:space="preserve" font-family="Menlo-Regular" font-size="47.0" fill="#A9B6C6" transform="matrix(1.00, 0.00, -0.00, -1.00, 558.3, 348.0)"> </text><text xml:space="preserve" font-family="Menlo-Regular" font-size="47.0" fill="#A9B6C6" transform="matrix(1.00, 0.00, -0.00, -1.00, 586.6, 348.0)">=</text><text xml:space="preserve" font-family="Menlo-Regular" font-size="47.0" fill="#A9B6C6" transform="matrix(1.00, 0.00, -0.00, -1.00, 614.9, 348.0)">&gt;</text><text xml:space="preserve" font-family="Menlo-Regular" font-size="47.0" fill="#A9B6C6" transform="matrix(1.00, 0.00, -0.00, -1.00, 643.2, 348.0)"> </text><text xml:space="preserve" font-family="Menlo-Regular" font-size="47.0" fill="#A9B6C6" transform="matrix(1.00, 0.00, -0.00, -1.00, 671.5, 348.0)">i</text><text xml:space="preserve" font-family="Menlo-Regular" font-size="47.0" fill="#A9B6C6" transform="matrix(1.00, 0.00, -0.00, -1.00, 699.8, 348.0)"> </text><text xml:space="preserve" font-family="Menlo-Regular" font-size="47.0" fill="#A9B6C6" transform="matrix(1.00, 0.00, -0.00, -1.00, 728.1, 348.0)">*</text><text xml:space="preserve" font-family="Menlo-Regular" font-size="47.0" fill="#A9B6C6" transform="matrix(1.00, 0.00, -0.00, -1.00, 756.4, 348.0)"> </text><text xml:space="preserve" font-family="Menlo-Regular" font-size="47.0" fill="#6796BB" transform="matrix(1.00, 0.00, -0.00, -1.00, 784.7, 348.0)">2</text><text xml:space="preserve" font-family="Menlo-Regular" font-size="47.0" fill="#A9B6C6" transform="matrix(1.00, 0.00, -0.00, -1.00, 813.0, 348.0)">)</text><text xml:space="preserve" font-family="Monaco" font-size="47.0" fill="#A9B6C6" transform="matrix(1.00, 0.00, -0.00, -1.00, 841.3, 348.0)"> </text></g></svg>