<?xml version="1.0" encoding="UTF-8" standalone="no"?><svg xmlns="http://www.w3.org/2000/svg" xmlns:xlink="http://www.w3.org/1999/xlink" clip-rule="evenodd" stroke-miterlimit="4.00" viewBox="0 0 1024 768"><desc>SVG generated by Keynote</desc><defs></defs><g transform="matrix(1.00, 0.00, -0.00, -1.00, 0.0, 768.0)"><path d="M 0.0 768.0 L 1024.0 768.0 L 1024.0 0.0 L 0.0 0.0 Z M 0.0 768.0 " fill="#FFFFFF"></path><path d="M 0.0 0.0 L 934.0 0.0 " fill="none" stroke="#747676" stroke-width="3.00" stroke-linecap="round" stroke-linejoin="round" stroke-dasharray="0.0, 9.0" transform="matrix(1.00, 0.00, 0.00, -1.00, 45.0, 644.0)"></path><text xml:space="preserve" font-family="DINCondensed-Bold" font-weight="bold" font-size="48.4" fill="#747676" transform="matrix(1.00, 0.00, -0.00, -1.00, 49.0, 673.0)">A</text><text xml:space="preserve" font-family="DINCondensed-Bold" font-weight="bold" font-size="48.4" fill="#747676" transform="matrix(1.00, 0.00, -0.00, -1.00, 68.7, 673.0)">P</text><text xml:space="preserve" font-family="DINCondensed-Bold" font-weight="bold" font-size="48.4" fill="#747676" transform="matrix(1.00, 0.00, -0.00, -1.00, 88.4, 673.0)">P</text><text xml:space="preserve" font-family="DINCondensed-Bold" font-weight="bold" font-size="48.4" fill="#747676" transform="matrix(1.00, 0.00, -0.00, -1.00, 108.0, 673.0)">L</text><text xml:space="preserve" font-family="DINCondensed-Bold" font-weight="bold" font-size="48.4" fill="#747676" transform="matrix(1.00, 0.00, -0.00, -1.00, 121.5, 673.0)">Y</text><text xml:space="preserve" font-family="DINCondensed-Bold" font-weight="bold" font-size="48.4" fill="#747676" transform="matrix(1.00, 0.00, -0.00, -1.00, 140.3, 673.0)"> </text><text xml:space="preserve" font-family="DINCondensed-Bold" font-weight="bold" font-size="48.4" fill="#747676" transform="matrix(1.00, 0.00, -0.00, -1.00, 149.3, 673.0)">M</text><text xml:space="preserve" font-family="DINCondensed-Bold" font-weight="bold" font-size="48.4" fill="#747676" transform="matrix(1.00, 0.00, -0.00, -1.00, 176.1, 673.0)">E</text><text xml:space="preserve" font-family="DINCondensed-Bold" font-weight="bold" font-size="48.4" fill="#747676" transform="matrix(1.00, 0.00, -0.00, -1.00, 194.0, 673.0)">T</text><text xml:space="preserve" font-family="DINCondensed-Bold" font-weight="bold" font-size="48.4" fill="#747676" transform="matrix(1.00, 0.00, -0.00, -1.00, 210.1, 673.0)">H</text><text xml:space="preserve" font-family="DINCondensed-Bold" font-weight="bold" font-size="48.4" fill="#747676" transform="matrix(1.00, 0.00, -0.00, -1.00, 230.7, 673.0)">O</text><text xml:space="preserve" font-family="DINCondensed-Bold" font-weight="bold" font-size="48.4" fill="#747676" transform="matrix(1.00, 0.00, -0.00, -1.00, 251.3, 673.0)">D</text><text xml:space="preserve" font-family="DINCondensed-Bold" font-weight="bold" font-size="48.4" fill="#747676" transform="matrix(1.00, 0.00, -0.00, -1.00, 271.9, 673.0)">S</text><path d="M 49.0 498.0 L 181.5 498.0 L 181.5 447.0 L 49.0 447.0 Z M 49.0 498.0 " fill="#344033"></path><path d="M 181.5 498.0 L 366.9 498.0 L 366.9 447.0 L 181.5 447.0 Z M 181.5 498.0 " fill="#2A2A2A"></path><path d="M 49.0 447.0 L 499.3 447.0 L 499.3 396.0 L 49.0 396.0 Z M 49.0 447.0 " fill="#2A2A2A"></path><path d="M 49.0 396.0 L 658.3 396.0 L 658.3 345.0 L 49.0 345.0 Z M 49.0 396.0 " fill="#2A2A2A"></path><path d="M 49.0 345.0 L 75.5 345.0 L 75.5 294.0 L 49.0 294.0 Z M 49.0 345.0 " fill="#2A2A2A"></path><path d="M 49.0 243.0 L 684.8 243.0 L 684.8 192.0 L 49.0 192.0 Z M 49.0 243.0 " fill="#2A2A2A"></path><text xml:space="preserve" font-family="ZapfDingbatsITC" font-size="24.0" fill="#5C5C5C" transform="matrix(1.00, 0.00, -0.00, -1.00, 49.0, 592.2)">➤</text><text xml:space="preserve" font-family="IowanOldStyle-Roman" font-size="32.0" fill="#5C5C5C" transform="matrix(1.00, 0.00, -0.00, -1.00, 86.0, 589.0)">S</text><text xml:space="preserve" font-family="IowanOldStyle-Roman" font-size="32.0" fill="#5C5C5C" transform="matrix(1.00, 0.00, -0.00, -1.00, 103.3, 589.0)">y</text><text xml:space="preserve" font-family="IowanOldStyle-Roman" font-size="32.0" fill="#5C5C5C" transform="matrix(1.00, 0.00, -0.00, -1.00, 118.9, 589.0)">n</text><text xml:space="preserve" font-family="IowanOldStyle-Roman" font-size="32.0" fill="#5C5C5C" transform="matrix(1.00, 0.00, -0.00, -1.00, 137.5, 589.0)">t</text><text xml:space="preserve" font-family="IowanOldStyle-Roman" font-size="32.0" fill="#5C5C5C" transform="matrix(1.00, 0.00, -0.00, -1.00, 149.1, 589.0)">a</text><text xml:space="preserve" font-family="IowanOldStyle-Roman" font-size="32.0" fill="#5C5C5C" transform="matrix(1.00, 0.00, -0.00, -1.00, 164.4, 589.0)">c</text><text xml:space="preserve" font-family="IowanOldStyle-Roman" font-size="32.0" fill="#5C5C5C" transform="matrix(1.00, 0.00, -0.00, -1.00, 178.7, 589.0)">t</text><text xml:space="preserve" font-family="IowanOldStyle-Roman" font-size="32.0" fill="#5C5C5C" transform="matrix(1.00, 0.00, -0.00, -1.00, 190.2, 589.0)">i</text><text xml:space="preserve" font-family="IowanOldStyle-Roman" font-size="32.0" fill="#5C5C5C" transform="matrix(1.00, 0.00, -0.00, -1.00, 199.7, 589.0)">c</text><text xml:space="preserve" font-family="IowanOldStyle-Roman" font-size="32.0" fill="#5C5C5C" transform="matrix(1.00, 0.00, -0.00, -1.00, 214.0, 589.0)"> </text><text xml:space="preserve" font-family="IowanOldStyle-Roman" font-size="32.0" fill="#5C5C5C" transform="matrix(1.00, 0.00, -0.00, -1.00, 222.9, 589.0)">s</text><text xml:space="preserve" font-family="IowanOldStyle-Roman" font-size="32.0" fill="#5C5C5C" transform="matrix(1.00, 0.00, -0.00, -1.00, 237.1, 589.0)">u</text><text xml:space="preserve" font-family="IowanOldStyle-Roman" font-size="32.0" fill="#5C5C5C" transform="matrix(1.00, 0.00, -0.00, -1.00, 255.9, 589.0)">g</text><text xml:space="preserve" font-family="IowanOldStyle-Roman" font-size="32.0" fill="#5C5C5C" transform="matrix(1.00, 0.00, -0.00, -1.00, 272.4, 589.0)">a</text><text xml:space="preserve" font-family="IowanOldStyle-Roman" font-size="32.0" fill="#5C5C5C" transform="matrix(1.00, 0.00, -0.00, -1.00, 287.8, 589.0)">r</text><text xml:space="preserve" font-family="IowanOldStyle-Roman" font-size="32.0" fill="#5C5C5C" transform="matrix(1.00, 0.00, -0.00, -1.00, 300.3, 589.0)"> </text><text xml:space="preserve" font-family="IowanOldStyle-Roman" font-size="32.0" fill="#5C5C5C" transform="matrix(1.00, 0.00, -0.00, -1.00, 309.2, 589.0)">f</text><text xml:space="preserve" font-family="IowanOldStyle-Roman" font-size="32.0" fill="#5C5C5C" transform="matrix(1.00, 0.00, -0.00, -1.00, 319.4, 589.0)">o</text><text xml:space="preserve" font-family="IowanOldStyle-Roman" font-size="32.0" fill="#5C5C5C" transform="matrix(1.00, 0.00, -0.00, -1.00, 337.0, 589.0)">r</text><text xml:space="preserve" font-family="IowanOldStyle-Roman" font-size="32.0" fill="#5C5C5C" transform="matrix(1.00, 0.00, -0.00, -1.00, 349.5, 589.0)"> </text><text xml:space="preserve" font-family="IowanOldStyle-Roman" font-size="32.0" fill="#5C5C5C" transform="matrix(1.00, 0.00, -0.00, -1.00, 358.4, 589.0)">w</text><text xml:space="preserve" font-family="IowanOldStyle-Roman" font-size="32.0" fill="#5C5C5C" transform="matrix(1.00, 0.00, -0.00, -1.00, 383.2, 589.0)">h</text><text xml:space="preserve" font-family="IowanOldStyle-Roman" font-size="32.0" fill="#5C5C5C" transform="matrix(1.00, 0.00, -0.00, -1.00, 401.9, 589.0)">e</text><text xml:space="preserve" font-family="IowanOldStyle-Roman" font-size="32.0" fill="#5C5C5C" transform="matrix(1.00, 0.00, -0.00, -1.00, 417.5, 589.0)">n</text><text xml:space="preserve" font-family="IowanOldStyle-Roman" font-size="32.0" fill="#5C5C5C" transform="matrix(1.00, 0.00, -0.00, -1.00, 436.2, 589.0)"> </text><text xml:space="preserve" font-family="IowanOldStyle-Roman" font-size="32.0" fill="#5C5C5C" transform="matrix(1.00, 0.00, -0.00, -1.00, 445.1, 589.0)">a</text><text xml:space="preserve" font-family="IowanOldStyle-Roman" font-size="32.0" fill="#5C5C5C" transform="matrix(1.00, 0.00, -0.00, -1.00, 460.5, 589.0)"> </text><text xml:space="preserve" font-family="IowanOldStyle-Roman" font-size="32.0" fill="#5C5C5C" transform="matrix(1.00, 0.00, -0.00, -1.00, 469.4, 589.0)">c</text><text xml:space="preserve" font-family="IowanOldStyle-Roman" font-size="32.0" fill="#5C5C5C" transform="matrix(1.00, 0.00, -0.00, -1.00, 483.7, 589.0)">l</text><text xml:space="preserve" font-family="IowanOldStyle-Roman" font-size="32.0" fill="#5C5C5C" transform="matrix(1.00, 0.00, -0.00, -1.00, 493.0, 589.0)">a</text><text xml:space="preserve" font-family="IowanOldStyle-Roman" font-size="32.0" fill="#5C5C5C" transform="matrix(1.00, 0.00, -0.00, -1.00, 508.4, 589.0)">s</text><text xml:space="preserve" font-family="IowanOldStyle-Roman" font-size="32.0" fill="#5C5C5C" transform="matrix(1.00, 0.00, -0.00, -1.00, 522.6, 589.0)">s</text><text xml:space="preserve" font-family="IowanOldStyle-Roman" font-size="32.0" fill="#5C5C5C" transform="matrix(1.00, 0.00, -0.00, -1.00, 536.7, 589.0)"> </text><text xml:space="preserve" font-family="IowanOldStyle-Roman" font-size="32.0" fill="#5C5C5C" transform="matrix(1.00, 0.00, -0.00, -1.00, 545.6, 589.0)">o</text><text xml:space="preserve" font-family="IowanOldStyle-Roman" font-size="32.0" fill="#5C5C5C" transform="matrix(1.00, 0.00, -0.00, -1.00, 563.3, 589.0)">r</text><text xml:space="preserve" font-family="IowanOldStyle-Roman" font-size="32.0" fill="#5C5C5C" transform="matrix(1.00, 0.00, -0.00, -1.00, 575.7, 589.0)"> </text><text xml:space="preserve" font-family="IowanOldStyle-Roman" font-size="32.0" fill="#5C5C5C" transform="matrix(1.00, 0.00, -0.00, -1.00, 584.6, 589.0)">o</text><text xml:space="preserve" font-family="IowanOldStyle-Roman" font-size="32.0" fill="#5C5C5C" transform="matrix(1.00, 0.00, -0.00, -1.00, 602.2, 589.0)">b</text><text xml:space="preserve" font-family="IowanOldStyle-Roman" font-size="32.0" fill="#5C5C5C" transform="matrix(1.00, 0.00, -0.00, -1.00, 620.0, 589.0)">j</text><text xml:space="preserve" font-family="IowanOldStyle-Roman" font-size="32.0" fill="#5C5C5C" transform="matrix(1.00, 0.00, -0.00, -1.00, 628.8, 589.0)">e</text><text xml:space="preserve" font-family="IowanOldStyle-Roman" font-size="32.0" fill="#5C5C5C" transform="matrix(1.00, 0.00, -0.00, -1.00, 644.4, 589.0)">c</text><text xml:space="preserve" font-family="IowanOldStyle-Roman" font-size="32.0" fill="#5C5C5C" transform="matrix(1.00, 0.00, -0.00, -1.00, 658.7, 589.0)">t</text><text xml:space="preserve" font-family="IowanOldStyle-Roman" font-size="32.0" fill="#5C5C5C" transform="matrix(1.00, 0.00, -0.00, -1.00, 670.2, 589.0)"> </text><text xml:space="preserve" font-family="IowanOldStyle-Roman" font-size="32.0" fill="#5C5C5C" transform="matrix(1.00, 0.00, -0.00, -1.00, 679.1, 589.0)">h</text><text xml:space="preserve" font-family="IowanOldStyle-Roman" font-size="32.0" fill="#5C5C5C" transform="matrix(1.00, 0.00, -0.00, -1.00, 697.8, 589.0)">a</text><text xml:space="preserve" font-family="IowanOldStyle-Roman" font-size="32.0" fill="#5C5C5C" transform="matrix(1.00, 0.00, -0.00, -1.00, 713.2, 589.0)">s</text><text xml:space="preserve" font-family="IowanOldStyle-Roman" font-size="32.0" fill="#5C5C5C" transform="matrix(1.00, 0.00, -0.00, -1.00, 727.4, 589.0)"> </text><text xml:space="preserve" font-family="IowanOldStyle-Roman" font-size="32.0" fill="#5C5C5C" transform="matrix(1.00, 0.00, -0.00, -1.00, 736.3, 589.0)">o</text><text xml:space="preserve" font-family="IowanOldStyle-Roman" font-size="32.0" fill="#5C5C5C" transform="matrix(1.00, 0.00, -0.00, -1.00, 753.9, 589.0)">n</text><text xml:space="preserve" font-family="IowanOldStyle-Roman" font-size="32.0" fill="#5C5C5C" transform="matrix(1.00, 0.00, -0.00, -1.00, 772.6, 589.0)">e</text><text xml:space="preserve" font-family="IowanOldStyle-Roman" font-size="32.0" fill="#5C5C5C" transform="matrix(1.00, 0.00, -0.00, -1.00, 788.2, 589.0)"> </text><text xml:space="preserve" font-family="IowanOldStyle-Roman" font-size="32.0" fill="#5C5C5C" transform="matrix(1.00, 0.00, -0.00, -1.00, 797.1, 589.0)">m</text><text xml:space="preserve" font-family="IowanOldStyle-Roman" font-size="32.0" fill="#5C5C5C" transform="matrix(1.00, 0.00, -0.00, -1.00, 825.2, 589.0)">a</text><text xml:space="preserve" font-family="IowanOldStyle-Roman" font-size="32.0" fill="#5C5C5C" transform="matrix(1.00, 0.00, -0.00, -1.00, 840.6, 589.0)">i</text><text xml:space="preserve" font-family="IowanOldStyle-Roman" font-size="32.0" fill="#5C5C5C" transform="matrix(1.00, 0.00, -0.00, -1.00, 850.1, 589.0)">n</text><text xml:space="preserve" font-family="IowanOldStyle-Roman" font-size="32.0" fill="#5C5C5C" transform="matrix(1.00, 0.00, -0.00, -1.00, 868.8, 589.0)"> </text><text xml:space="preserve" font-family="IowanOldStyle-Roman" font-size="32.0" fill="#5C5C5C" transform="matrix(1.00, 0.00, -0.00, -1.00, 877.7, 589.0)">u</text><text xml:space="preserve" font-family="IowanOldStyle-Roman" font-size="32.0" fill="#5C5C5C" transform="matrix(1.00, 0.00, -0.00, -1.00, 896.5, 589.0)">s</text><text xml:space="preserve" font-family="IowanOldStyle-Roman" font-size="32.0" fill="#5C5C5C" transform="matrix(1.00, 0.00, -0.00, -1.00, 910.7, 589.0)">e</text><text xml:space="preserve" font-family="IowanOldStyle-Roman" font-size="32.0" fill="#5C5C5C" transform="matrix(1.00, 0.00, -0.00, -1.00, 926.3, 589.0)">.</text><text xml:space="preserve" font-family="IowanOldStyle-Roman" font-size="32.0" fill="#5C5C5C" transform="matrix(1.00, 0.00, -0.00, -1.00, 935.2, 589.0)"> </text><text xml:space="preserve" font-family="Menlo-Bold" font-weight="bold" font-size="44.0" fill="#CC7831" transform="matrix(1.00, 0.00, -0.00, -1.00, 49.0, 457.0)">c</text><text xml:space="preserve" font-family="Menlo-Bold" font-weight="bold" font-size="44.0" fill="#CC7831" transform="matrix(1.00, 0.00, -0.00, -1.00, 75.5, 457.0)">l</text><text xml:space="preserve" font-family="Menlo-Bold" font-weight="bold" font-size="44.0" fill="#CC7831" transform="matrix(1.00, 0.00, -0.00, -1.00, 102.0, 457.0)">a</text><text xml:space="preserve" font-family="Menlo-Bold" font-weight="bold" font-size="44.0" fill="#CC7831" transform="matrix(1.00, 0.00, -0.00, -1.00, 128.5, 457.0)">s</text><text xml:space="preserve" font-family="Menlo-Bold" font-weight="bold" font-size="44.0" fill="#CC7831" transform="matrix(1.00, 0.00, -0.00, -1.00, 155.0, 457.0)">s</text><text xml:space="preserve" font-family="Menlo-Bold" font-weight="bold" font-size="44.0" fill="#CC7831" transform="matrix(1.00, 0.00, -0.00, -1.00, 181.5, 457.0)"> </text><text xml:space="preserve" font-family="Menlo-Regular" font-size="44.0" fill="#A9B6C6" transform="matrix(1.00, 0.00, -0.00, -1.00, 207.9, 457.0)">F</text><text xml:space="preserve" font-family="Menlo-Regular" font-size="44.0" fill="#A9B6C6" transform="matrix(1.00, 0.00, -0.00, -1.00, 234.4, 457.0)">o</text><text xml:space="preserve" font-family="Menlo-Regular" font-size="44.0" fill="#A9B6C6" transform="matrix(1.00, 0.00, -0.00, -1.00, 260.9, 457.0)">o</text><text xml:space="preserve" font-family="Menlo-Regular" font-size="44.0" fill="#A9B6C6" transform="matrix(1.00, 0.00, -0.00, -1.00, 287.4, 457.0)"> </text><text xml:space="preserve" font-family="Menlo-Regular" font-size="44.0" fill="#A9B6C6" transform="matrix(1.00, 0.00, -0.00, -1.00, 313.9, 457.0)">{</text><text xml:space="preserve" font-family="Menlo-Regular" font-size="44.0" fill="#A9B6C6" transform="matrix(1.00, 0.00, -0.00, -1.00, 340.4, 457.0)">}</text><text xml:space="preserve" font-family="Monaco" font-size="44.0" fill="#A9B6C6" transform="matrix(1.00, 0.00, -0.00, -1.00, 366.9, 457.0)"> </text><text xml:space="preserve" font-family="Menlo-Bold" font-weight="bold" font-size="44.0" fill="#CC7831" transform="matrix(1.00, 0.00, -0.00, -1.00, 49.0, 406.0)">o</text><text xml:space="preserve" font-family="Menlo-Bold" font-weight="bold" font-size="44.0" fill="#CC7831" transform="matrix(1.00, 0.00, -0.00, -1.00, 75.5, 406.0)">b</text><text xml:space="preserve" font-family="Menlo-Bold" font-weight="bold" font-size="44.0" fill="#CC7831" transform="matrix(1.00, 0.00, -0.00, -1.00, 102.0, 406.0)">j</text><text xml:space="preserve" font-family="Menlo-Bold" font-weight="bold" font-size="44.0" fill="#CC7831" transform="matrix(1.00, 0.00, -0.00, -1.00, 128.5, 406.0)">e</text><text xml:space="preserve" font-family="Menlo-Bold" font-weight="bold" font-size="44.0" fill="#CC7831" transform="matrix(1.00, 0.00, -0.00, -1.00, 155.0, 406.0)">c</text><text xml:space="preserve" font-family="Menlo-Bold" font-weight="bold" font-size="44.0" fill="#CC7831" transform="matrix(1.00, 0.00, -0.00, -1.00, 181.5, 406.0)">t</text><text xml:space="preserve" font-family="Menlo-Bold" font-weight="bold" font-size="44.0" fill="#CC7831" transform="matrix(1.00, 0.00, -0.00, -1.00, 208.0, 406.0)"> </text><text xml:space="preserve" font-family="Menlo-Regular" font-size="44.0" fill="#A9B6C6" transform="matrix(1.00, 0.00, -0.00, -1.00, 234.4, 406.0)">F</text><text xml:space="preserve" font-family="Menlo-Regular" font-size="44.0" fill="#A9B6C6" transform="matrix(1.00, 0.00, -0.00, -1.00, 260.9, 406.0)">o</text><text xml:space="preserve" font-family="Menlo-Regular" font-size="44.0" fill="#A9B6C6" transform="matrix(1.00, 0.00, -0.00, -1.00, 287.4, 406.0)">o</text><text xml:space="preserve" font-family="Menlo-Regular" font-size="44.0" fill="#A9B6C6" transform="matrix(1.00, 0.00, -0.00, -1.00, 313.9, 406.0)">M</text><text xml:space="preserve" font-family="Menlo-Regular" font-size="44.0" fill="#A9B6C6" transform="matrix(1.00, 0.00, -0.00, -1.00, 340.4, 406.0)">a</text><text xml:space="preserve" font-family="Menlo-Regular" font-size="44.0" fill="#A9B6C6" transform="matrix(1.00, 0.00, -0.00, -1.00, 366.9, 406.0)">k</text><text xml:space="preserve" font-family="Menlo-Regular" font-size="44.0" fill="#A9B6C6" transform="matrix(1.00, 0.00, -0.00, -1.00, 393.4, 406.0)">e</text><text xml:space="preserve" font-family="Menlo-Regular" font-size="44.0" fill="#A9B6C6" transform="matrix(1.00, 0.00, -0.00, -1.00, 419.9, 406.0)">r</text><text xml:space="preserve" font-family="Menlo-Regular" font-size="44.0" fill="#A9B6C6" transform="matrix(1.00, 0.00, -0.00, -1.00, 446.4, 406.0)"> </text><text xml:space="preserve" font-family="Menlo-Regular" font-size="44.0" fill="#A9B6C6" transform="matrix(1.00, 0.00, -0.00, -1.00, 472.9, 406.0)">{</text><text xml:space="preserve" font-family="Monaco" font-size="44.0" fill="#A9B6C6" transform="matrix(1.00, 0.00, -0.00, -1.00, 499.3, 406.0)"> </text><text xml:space="preserve" font-family="Menlo-Regular" font-size="44.0" fill="#A9B6C6" transform="matrix(1.00, 0.00, -0.00, -1.00, 49.0, 355.0)"> </text><text xml:space="preserve" font-family="Menlo-Regular" font-size="44.0" fill="#A9B6C6" transform="matrix(1.00, 0.00, -0.00, -1.00, 75.5, 355.0)"> </text><text xml:space="preserve" font-family="Menlo-Bold" font-weight="bold" font-size="44.0" fill="#CC7831" transform="matrix(1.00, 0.00, -0.00, -1.00, 102.0, 355.0)">d</text><text xml:space="preserve" font-family="Menlo-Bold" font-weight="bold" font-size="44.0" fill="#CC7831" transform="matrix(1.00, 0.00, -0.00, -1.00, 128.5, 355.0)">e</text><text xml:space="preserve" font-family="Menlo-Bold" font-weight="bold" font-size="44.0" fill="#CC7831" transform="matrix(1.00, 0.00, -0.00, -1.00, 155.0, 355.0)">f</text><text xml:space="preserve" font-family="Menlo-Bold" font-weight="bold" font-size="44.0" fill="#CC7831" transform="matrix(1.00, 0.00, -0.00, -1.00, 181.5, 355.0)"> </text><text xml:space="preserve" font-family="Menlo-Regular" font-size="44.0" fill="#FFC66D" transform="matrix(1.00, 0.00, -0.00, -1.00, 207.9, 355.0)">a</text><text xml:space="preserve" font-family="Menlo-Regular" font-size="44.0" fill="#FFC66D" transform="matrix(1.00, 0.00, -0.00, -1.00, 234.4, 355.0)">p</text><text xml:space="preserve" font-family="Menlo-Regular" font-size="44.0" fill="#FFC66D" transform="matrix(1.00, 0.00, -0.00, -1.00, 260.9, 355.0)">p</text><text xml:space="preserve" font-family="Menlo-Regular" font-size="44.0" fill="#FFC66D" transform="matrix(1.00, 0.00, -0.00, -1.00, 287.4, 355.0)">l</text><text xml:space="preserve" font-family="Menlo-Regular" font-size="44.0" fill="#FFC66D" transform="matrix(1.00, 0.00, -0.00, -1.00, 313.9, 355.0)">y</text><text xml:space="preserve" font-family="Menlo-Regular" font-size="44.0" fill="#A9B6C6" transform="matrix(1.00, 0.00, -0.00, -1.00, 340.4, 355.0)">(</text><text xml:space="preserve" font-family="Menlo-Regular" font-size="44.0" fill="#A9B6C6" transform="matrix(1.00, 0.00, -0.00, -1.00, 366.9, 355.0)">)</text><text xml:space="preserve" font-family="Menlo-Regular" font-size="44.0" fill="#A9B6C6" transform="matrix(1.00, 0.00, -0.00, -1.00, 393.4, 355.0)"> </text><text xml:space="preserve" font-family="Menlo-Regular" font-size="44.0" fill="#A9B6C6" transform="matrix(1.00, 0.00, -0.00, -1.00, 419.9, 355.0)">=</text><text xml:space="preserve" font-family="Menlo-Regular" font-size="44.0" fill="#A9B6C6" transform="matrix(1.00, 0.00, -0.00, -1.00, 446.4, 355.0)"> </text><text xml:space="preserve" font-family="Menlo-Bold" font-weight="bold" font-size="44.0" fill="#CC7831" transform="matrix(1.00, 0.00, -0.00, -1.00, 472.8, 355.0)">n</text><text xml:space="preserve" font-family="Menlo-Bold" font-weight="bold" font-size="44.0" fill="#CC7831" transform="matrix(1.00, 0.00, -0.00, -1.00, 499.3, 355.0)">e</text><text xml:space="preserve" font-family="Menlo-Bold" font-weight="bold" font-size="44.0" fill="#CC7831" transform="matrix(1.00, 0.00, -0.00, -1.00, 525.8, 355.0)">w</text><text xml:space="preserve" font-family="Menlo-Bold" font-weight="bold" font-size="44.0" fill="#CC7831" transform="matrix(1.00, 0.00, -0.00, -1.00, 552.3, 355.0)"> </text><text xml:space="preserve" font-family="Menlo-Regular" font-size="44.0" fill="#A9B6C6" transform="matrix(1.00, 0.00, -0.00, -1.00, 578.8, 355.0)">F</text><text xml:space="preserve" font-family="Menlo-Regular" font-size="44.0" fill="#A9B6C6" transform="matrix(1.00, 0.00, -0.00, -1.00, 605.3, 355.0)">o</text><text xml:space="preserve" font-family="Menlo-Regular" font-size="44.0" fill="#A9B6C6" transform="matrix(1.00, 0.00, -0.00, -1.00, 631.8, 355.0)">o</text><text xml:space="preserve" font-family="Monaco" font-size="44.0" fill="#A9B6C6" transform="matrix(1.00, 0.00, -0.00, -1.00, 658.3, 355.0)"> </text><text xml:space="preserve" font-family="Menlo-Regular" font-size="44.0" fill="#A9B6C6" transform="matrix(1.00, 0.00, -0.00, -1.00, 49.0, 304.0)">}</text><text xml:space="preserve" font-family="Monaco" font-size="44.0" fill="#A9B6C6" transform="matrix(1.00, 0.00, -0.00, -1.00, 75.5, 304.0)"> </text><text xml:space="preserve" font-family="Monaco" font-size="44.0" fill="#A9B6C6" transform="matrix(1.00, 0.00, -0.00, -1.00, 49.0, 253.0)"> </text><text xml:space="preserve" font-family="Menlo-Bold" font-weight="bold" font-size="44.0" fill="#CC7831" transform="matrix(1.00, 0.00, -0.00, -1.00, 49.0, 202.0)">v</text><text xml:space="preserve" font-family="Menlo-Bold" font-weight="bold" font-size="44.0" fill="#CC7831" transform="matrix(1.00, 0.00, -0.00, -1.00, 75.5, 202.0)">a</text><text xml:space="preserve" font-family="Menlo-Bold" font-weight="bold" font-size="44.0" fill="#CC7831" transform="matrix(1.00, 0.00, -0.00, -1.00, 102.0, 202.0)">l</text><text xml:space="preserve" font-family="Menlo-Bold" font-weight="bold" font-size="44.0" fill="#CC7831" transform="matrix(1.00, 0.00, -0.00, -1.00, 128.5, 202.0)"> </text><text xml:space="preserve" font-family="Menlo-Regular" font-size="44.0" fill="#A9B6C6" transform="matrix(1.00, 0.00, -0.00, -1.00, 155.0, 202.0)">n</text><text xml:space="preserve" font-family="Menlo-Regular" font-size="44.0" fill="#A9B6C6" transform="matrix(1.00, 0.00, -0.00, -1.00, 181.5, 202.0)">e</text><text xml:space="preserve" font-family="Menlo-Regular" font-size="44.0" fill="#A9B6C6" transform="matrix(1.00, 0.00, -0.00, -1.00, 208.0, 202.0)">w</text><text xml:space="preserve" font-family="Menlo-Regular" font-size="44.0" fill="#A9B6C6" transform="matrix(1.00, 0.00, -0.00, -1.00, 234.4, 202.0)">F</text><text xml:space="preserve" font-family="Menlo-Regular" font-size="44.0" fill="#A9B6C6" transform="matrix(1.00, 0.00, -0.00, -1.00, 260.9, 202.0)">o</text><text xml:space="preserve" font-family="Menlo-Regular" font-size="44.0" fill="#A9B6C6" transform="matrix(1.00, 0.00, -0.00, -1.00, 287.4, 202.0)">o</text><text xml:space="preserve" font-family="Menlo-Regular" font-size="44.0" fill="#A9B6C6" transform="matrix(1.00, 0.00, -0.00, -1.00, 313.9, 202.0)"> </text><text xml:space="preserve" font-family="Menlo-Regular" font-size="44.0" fill="#A9B6C6" transform="matrix(1.00, 0.00, -0.00, -1.00, 340.4, 202.0)">=</text><text xml:space="preserve" font-family="Menlo-Regular" font-size="44.0" fill="#A9B6C6" transform="matrix(1.00, 0.00, -0.00, -1.00, 366.9, 202.0)"> </text><text xml:space="preserve" font-family="Menlo-Italic" font-style="italic" font-size="44.0" fill="#A9B6C6" transform="matrix(1.00, 0.00, -0.00, -1.00, 393.4, 202.0)">F</text><text xml:space="preserve" font-family="Menlo-Italic" font-style="italic" font-size="44.0" fill="#A9B6C6" transform="matrix(1.00, 0.00, -0.00, -1.00, 419.9, 202.0)">o</text><text xml:space="preserve" font-family="Menlo-Italic" font-style="italic" font-size="44.0" fill="#A9B6C6" transform="matrix(1.00, 0.00, -0.00, -1.00, 446.4, 202.0)">o</text><text xml:space="preserve" font-family="Menlo-Italic" font-style="italic" font-size="44.0" fill="#A9B6C6" transform="matrix(1.00, 0.00, -0.00, -1.00, 472.9, 202.0)">M</text><text xml:space="preserve" font-family="Menlo-Italic" font-style="italic" font-size="44.0" fill="#A9B6C6" transform="matrix(1.00, 0.00, -0.00, -1.00, 499.4, 202.0)">a</text><text xml:space="preserve" font-family="Menlo-Italic" font-style="italic" font-size="44.0" fill="#A9B6C6" transform="matrix(1.00, 0.00, -0.00, -1.00, 525.8, 202.0)">k</text><text xml:space="preserve" font-family="Menlo-Italic" font-style="italic" font-size="44.0" fill="#A9B6C6" transform="matrix(1.00, 0.00, -0.00, -1.00, 552.3, 202.0)">e</text><text xml:space="preserve" font-family="Menlo-Italic" font-style="italic" font-size="44.0" fill="#A9B6C6" transform="matrix(1.00, 0.00, -0.00, -1.00, 578.8, 202.0)">r</text><text xml:space="preserve" font-family="Menlo-Regular" font-size="44.0" fill="#A9B6C6" transform="matrix(1.00, 0.00, -0.00, -1.00, 605.3, 202.0)">(</text><text xml:space="preserve" font-family="Menlo-Regular" font-size="44.0" fill="#A9B6C6" transform="matrix(1.00, 0.00, -0.00, -1.00, 631.8, 202.0)">)</text><text xml:space="preserve" font-family="Menlo-Regular" font-size="44.0" fill="#A9B6C6" transform="matrix(1.00, 0.00, -0.00, -1.00, 658.3, 202.0)"> </text></g></svg>