<?xml version="1.0" encoding="UTF-8" standalone="no"?><svg xmlns="http://www.w3.org/2000/svg" xmlns:xlink="http://www.w3.org/1999/xlink" clip-rule="evenodd" stroke-miterlimit="4.00" viewBox="0 0 1024 768"><desc>SVG generated by Keynote</desc><defs></defs><g transform="matrix(1.00, 0.00, -0.00, -1.00, 0.0, 768.0)"><path d="M 0.0 768.0 L 1024.0 768.0 L 1024.0 0.0 L 0.0 0.0 Z M 0.0 768.0 " fill="#FFFFFF"></path><path d="M 0.0 0.0 L 934.0 0.0 " fill="none" stroke="#747676" stroke-width="3.00" stroke-linecap="round" stroke-linejoin="round" stroke-dasharray="0.0, 9.0" transform="matrix(1.00, 0.00, 0.00, -1.00, 45.0, 644.0)"></path><text xml:space="preserve" font-family="DINCondensed-Bold" font-weight="bold" font-size="48.4" fill="#747676" transform="matrix(1.00, 0.00, -0.00, -1.00, 49.0, 673.0)">V</text><text xml:space="preserve" font-family="DINCondensed-Bold" font-weight="bold" font-size="48.4" fill="#747676" transform="matrix(1.00, 0.00, -0.00, -1.00, 66.9, 673.0)">A</text><text xml:space="preserve" font-family="DINCondensed-Bold" font-weight="bold" font-size="48.4" fill="#747676" transform="matrix(1.00, 0.00, -0.00, -1.00, 86.6, 673.0)">L</text><text xml:space="preserve" font-family="DINCondensed-Bold" font-weight="bold" font-size="48.4" fill="#747676" transform="matrix(1.00, 0.00, -0.00, -1.00, 104.5, 673.0)">U</text><text xml:space="preserve" font-family="DINCondensed-Bold" font-weight="bold" font-size="48.4" fill="#747676" transform="matrix(1.00, 0.00, -0.00, -1.00, 125.1, 673.0)">E</text><text xml:space="preserve" font-family="DINCondensed-Bold" font-weight="bold" font-size="48.4" fill="#747676" transform="matrix(1.00, 0.00, -0.00, -1.00, 143.0, 673.0)">S</text><path d="M 49.0 512.0 L 123.1 512.0 L 123.1 464.0 L 49.0 464.0 Z M 49.0 512.0 " fill="#344033"></path><path d="M 123.1 512.0 L 295.8 512.0 L 295.8 464.0 L 123.1 464.0 Z M 123.1 512.0 " fill="#2A2A2A"></path><path d="M 295.8 512.0 L 320.5 512.0 L 320.5 464.0 L 295.8 464.0 Z M 295.8 512.0 " fill="#344033"></path><path d="M 49.0 464.0 L 468.6 464.0 L 468.6 416.0 L 49.0 416.0 Z M 49.0 464.0 " fill="#2A2A2A"></path><path d="M 49.0 292.0 L 157.4 292.0 L 157.4 222.0 L 49.0 222.0 Z M 49.0 292.0 " fill="#40322A"></path><path d="M 157.4 292.0 L 843.7 292.0 L 843.7 222.0 L 157.4 222.0 Z M 157.4 292.0 " fill="#2A2A2A"></path><text xml:space="preserve" font-family="ZapfDingbatsITC" font-size="24.0" fill="#5C5C5C" transform="matrix(1.00, 0.00, -0.00, -1.00, 49.0, 592.2)">➤</text><text xml:space="preserve" font-family="IowanOldStyle-Roman" font-size="32.0" fill="#5C5C5C" transform="matrix(1.00, 0.00, -0.00, -1.00, 86.0, 589.0)">N</text><text xml:space="preserve" font-family="IowanOldStyle-Roman" font-size="32.0" fill="#5C5C5C" transform="matrix(1.00, 0.00, -0.00, -1.00, 111.9, 589.0)">a</text><text xml:space="preserve" font-family="IowanOldStyle-Roman" font-size="32.0" fill="#5C5C5C" transform="matrix(1.00, 0.00, -0.00, -1.00, 127.3, 589.0)">m</text><text xml:space="preserve" font-family="IowanOldStyle-Roman" font-size="32.0" fill="#5C5C5C" transform="matrix(1.00, 0.00, -0.00, -1.00, 155.4, 589.0)">e</text><text xml:space="preserve" font-family="IowanOldStyle-Roman" font-size="32.0" fill="#5C5C5C" transform="matrix(1.00, 0.00, -0.00, -1.00, 171.0, 589.0)">d</text><text xml:space="preserve" font-family="IowanOldStyle-Roman" font-size="32.0" fill="#5C5C5C" transform="matrix(1.00, 0.00, -0.00, -1.00, 189.0, 589.0)"> </text><text xml:space="preserve" font-family="IowanOldStyle-Roman" font-size="32.0" fill="#5C5C5C" transform="matrix(1.00, 0.00, -0.00, -1.00, 197.9, 589.0)">v</text><text xml:space="preserve" font-family="IowanOldStyle-Roman" font-size="32.0" fill="#5C5C5C" transform="matrix(1.00, 0.00, -0.00, -1.00, 213.6, 589.0)">a</text><text xml:space="preserve" font-family="IowanOldStyle-Roman" font-size="32.0" fill="#5C5C5C" transform="matrix(1.00, 0.00, -0.00, -1.00, 229.0, 589.0)">l</text><text xml:space="preserve" font-family="IowanOldStyle-Roman" font-size="32.0" fill="#5C5C5C" transform="matrix(1.00, 0.00, -0.00, -1.00, 238.3, 589.0)">u</text><text xml:space="preserve" font-family="IowanOldStyle-Roman" font-size="32.0" fill="#5C5C5C" transform="matrix(1.00, 0.00, -0.00, -1.00, 257.1, 589.0)">e</text><text xml:space="preserve" font-family="IowanOldStyle-Roman" font-size="32.0" fill="#5C5C5C" transform="matrix(1.00, 0.00, -0.00, -1.00, 272.7, 589.0)">s</text><text xml:space="preserve" font-family="IowanOldStyle-Roman" font-size="32.0" fill="#5C5C5C" transform="matrix(1.00, 0.00, -0.00, -1.00, 286.9, 589.0)"> </text><text xml:space="preserve" font-family="IowanOldStyle-Roman" font-size="32.0" fill="#5C5C5C" transform="matrix(1.00, 0.00, -0.00, -1.00, 295.8, 589.0)">o</text><text xml:space="preserve" font-family="IowanOldStyle-Roman" font-size="32.0" fill="#5C5C5C" transform="matrix(1.00, 0.00, -0.00, -1.00, 313.4, 589.0)">r</text><text xml:space="preserve" font-family="IowanOldStyle-Roman" font-size="32.0" fill="#5C5C5C" transform="matrix(1.00, 0.00, -0.00, -1.00, 325.9, 589.0)"> </text><text xml:space="preserve" font-family="IowanOldStyle-Roman" font-size="32.0" fill="#5C5C5C" transform="matrix(1.00, 0.00, -0.00, -1.00, 334.8, 589.0)">e</text><text xml:space="preserve" font-family="IowanOldStyle-Roman" font-size="32.0" fill="#5C5C5C" transform="matrix(1.00, 0.00, -0.00, -1.00, 349.8, 589.0)">x</text><text xml:space="preserve" font-family="IowanOldStyle-Roman" font-size="32.0" fill="#5C5C5C" transform="matrix(1.00, 0.00, -0.00, -1.00, 366.8, 589.0)">p</text><text xml:space="preserve" font-family="IowanOldStyle-Roman" font-size="32.0" fill="#5C5C5C" transform="matrix(1.00, 0.00, -0.00, -1.00, 384.7, 589.0)">r</text><text xml:space="preserve" font-family="IowanOldStyle-Roman" font-size="32.0" fill="#5C5C5C" transform="matrix(1.00, 0.00, -0.00, -1.00, 397.2, 589.0)">e</text><text xml:space="preserve" font-family="IowanOldStyle-Roman" font-size="32.0" fill="#5C5C5C" transform="matrix(1.00, 0.00, -0.00, -1.00, 412.8, 589.0)">s</text><text xml:space="preserve" font-family="IowanOldStyle-Roman" font-size="32.0" fill="#5C5C5C" transform="matrix(1.00, 0.00, -0.00, -1.00, 427.0, 589.0)">s</text><text xml:space="preserve" font-family="IowanOldStyle-Roman" font-size="32.0" fill="#5C5C5C" transform="matrix(1.00, 0.00, -0.00, -1.00, 441.1, 589.0)">i</text><text xml:space="preserve" font-family="IowanOldStyle-Roman" font-size="32.0" fill="#5C5C5C" transform="matrix(1.00, 0.00, -0.00, -1.00, 450.6, 589.0)">o</text><text xml:space="preserve" font-family="IowanOldStyle-Roman" font-size="32.0" fill="#5C5C5C" transform="matrix(1.00, 0.00, -0.00, -1.00, 468.2, 589.0)">n</text><text xml:space="preserve" font-family="IowanOldStyle-Roman" font-size="32.0" fill="#5C5C5C" transform="matrix(1.00, 0.00, -0.00, -1.00, 486.9, 589.0)">s</text><text xml:space="preserve" font-family="IowanOldStyle-Roman" font-size="32.0" fill="#5C5C5C" transform="matrix(1.00, 0.00, -0.00, -1.00, 501.1, 589.0)"> </text><text xml:space="preserve" font-family="IowanOldStyle-Roman" font-size="32.0" fill="#5C5C5C" transform="matrix(1.00, 0.00, -0.00, -1.00, 510.0, 589.0)">w</text><text xml:space="preserve" font-family="IowanOldStyle-Roman" font-size="32.0" fill="#5C5C5C" transform="matrix(1.00, 0.00, -0.00, -1.00, 534.8, 589.0)">i</text><text xml:space="preserve" font-family="IowanOldStyle-Roman" font-size="32.0" fill="#5C5C5C" transform="matrix(1.00, 0.00, -0.00, -1.00, 544.3, 589.0)">t</text><text xml:space="preserve" font-family="IowanOldStyle-Roman" font-size="32.0" fill="#5C5C5C" transform="matrix(1.00, 0.00, -0.00, -1.00, 555.8, 589.0)">h</text><text xml:space="preserve" font-family="IowanOldStyle-Roman" font-size="32.0" fill="#5C5C5C" transform="matrix(1.00, 0.00, -0.00, -1.00, 574.5, 589.0)"> </text><text xml:space="preserve" font-family="IowanOldStyle-Roman" font-size="32.0" fill="#5C5C5C" transform="matrix(1.00, 0.00, -0.00, -1.00, 583.4, 589.0)">a</text><text xml:space="preserve" font-family="IowanOldStyle-Roman" font-size="32.0" fill="#5C5C5C" transform="matrix(1.00, 0.00, -0.00, -1.00, 598.8, 589.0)"> </text><text xml:space="preserve" font-family="IowanOldStyle-Roman" font-size="32.0" fill="#5C5C5C" transform="matrix(1.00, 0.00, -0.00, -1.00, 607.7, 589.0)">n</text><text xml:space="preserve" font-family="IowanOldStyle-Roman" font-size="32.0" fill="#5C5C5C" transform="matrix(1.00, 0.00, -0.00, -1.00, 626.4, 589.0)">a</text><text xml:space="preserve" font-family="IowanOldStyle-Roman" font-size="32.0" fill="#5C5C5C" transform="matrix(1.00, 0.00, -0.00, -1.00, 641.8, 589.0)">m</text><text xml:space="preserve" font-family="IowanOldStyle-Roman" font-size="32.0" fill="#5C5C5C" transform="matrix(1.00, 0.00, -0.00, -1.00, 669.9, 589.0)">e</text><text xml:space="preserve" font-family="IowanOldStyle-Roman" font-size="32.0" fill="#5C5C5C" transform="matrix(1.00, 0.00, -0.00, -1.00, 685.5, 589.0)"> </text><text xml:space="preserve" font-family="Menlo-Bold" font-weight="bold" font-size="41.0" fill="#CC7831" transform="matrix(1.00, 0.00, -0.00, -1.00, 49.0, 474.0)">v</text><text xml:space="preserve" font-family="Menlo-Bold" font-weight="bold" font-size="41.0" fill="#CC7831" transform="matrix(1.00, 0.00, -0.00, -1.00, 73.7, 474.0)">a</text><text xml:space="preserve" font-family="Menlo-Bold" font-weight="bold" font-size="41.0" fill="#CC7831" transform="matrix(1.00, 0.00, -0.00, -1.00, 98.4, 474.0)">l</text><text xml:space="preserve" font-family="Menlo-Bold" font-weight="bold" font-size="41.0" fill="#CC7831" transform="matrix(1.00, 0.00, -0.00, -1.00, 123.1, 474.0)"> </text><text xml:space="preserve" font-family="Menlo-Regular" font-size="41.0" fill="#A9B6C6" transform="matrix(1.00, 0.00, -0.00, -1.00, 147.7, 474.0)">o</text><text xml:space="preserve" font-family="Menlo-Regular" font-size="41.0" fill="#A9B6C6" transform="matrix(1.00, 0.00, -0.00, -1.00, 172.4, 474.0)">n</text><text xml:space="preserve" font-family="Menlo-Regular" font-size="41.0" fill="#A9B6C6" transform="matrix(1.00, 0.00, -0.00, -1.00, 197.1, 474.0)">e</text><text xml:space="preserve" font-family="Menlo-Regular" font-size="41.0" fill="#A9B6C6" transform="matrix(1.00, 0.00, -0.00, -1.00, 221.8, 474.0)"> </text><text xml:space="preserve" font-family="Menlo-Regular" font-size="41.0" fill="#A9B6C6" transform="matrix(1.00, 0.00, -0.00, -1.00, 246.5, 474.0)">=</text><text xml:space="preserve" font-family="Menlo-Regular" font-size="41.0" fill="#A9B6C6" transform="matrix(1.00, 0.00, -0.00, -1.00, 271.2, 474.0)"> </text><text xml:space="preserve" font-family="Menlo-Regular" font-size="41.0" fill="#6796BB" transform="matrix(1.00, 0.00, -0.00, -1.00, 295.8, 474.0)">1</text><text xml:space="preserve" font-family="Monaco" font-size="41.0" fill="#6796BB" transform="matrix(1.00, 0.00, -0.00, -1.00, 320.5, 474.0)"> </text><text xml:space="preserve" font-family="Menlo-Bold" font-weight="bold" font-size="41.0" fill="#CC7831" transform="matrix(1.00, 0.00, -0.00, -1.00, 49.0, 426.0)">v</text><text xml:space="preserve" font-family="Menlo-Bold" font-weight="bold" font-size="41.0" fill="#CC7831" transform="matrix(1.00, 0.00, -0.00, -1.00, 73.7, 426.0)">a</text><text xml:space="preserve" font-family="Menlo-Bold" font-weight="bold" font-size="41.0" fill="#CC7831" transform="matrix(1.00, 0.00, -0.00, -1.00, 98.4, 426.0)">l</text><text xml:space="preserve" font-family="Menlo-Bold" font-weight="bold" font-size="41.0" fill="#CC7831" transform="matrix(1.00, 0.00, -0.00, -1.00, 123.1, 426.0)"> </text><text xml:space="preserve" font-family="Menlo-Regular" font-size="41.0" fill="#A9B6C6" transform="matrix(1.00, 0.00, -0.00, -1.00, 147.7, 426.0)">a</text><text xml:space="preserve" font-family="Menlo-Regular" font-size="41.0" fill="#A9B6C6" transform="matrix(1.00, 0.00, -0.00, -1.00, 172.4, 426.0)">d</text><text xml:space="preserve" font-family="Menlo-Regular" font-size="41.0" fill="#A9B6C6" transform="matrix(1.00, 0.00, -0.00, -1.00, 197.1, 426.0)">d</text><text xml:space="preserve" font-family="Menlo-Regular" font-size="41.0" fill="#A9B6C6" transform="matrix(1.00, 0.00, -0.00, -1.00, 221.8, 426.0)"> </text><text xml:space="preserve" font-family="Menlo-Regular" font-size="41.0" fill="#A9B6C6" transform="matrix(1.00, 0.00, -0.00, -1.00, 246.5, 426.0)">=</text><text xml:space="preserve" font-family="Menlo-Regular" font-size="41.0" fill="#A9B6C6" transform="matrix(1.00, 0.00, -0.00, -1.00, 271.2, 426.0)"> </text><text xml:space="preserve" font-family="Menlo-Regular" font-size="41.0" fill="#6796BB" transform="matrix(1.00, 0.00, -0.00, -1.00, 295.8, 426.0)">1</text><text xml:space="preserve" font-family="Menlo-Regular" font-size="41.0" fill="#6796BB" transform="matrix(1.00, 0.00, -0.00, -1.00, 320.5, 426.0)"> </text><text xml:space="preserve" font-family="Menlo-Regular" font-size="41.0" fill="#A9B6C6" transform="matrix(1.00, 0.00, -0.00, -1.00, 345.2, 426.0)">+</text><text xml:space="preserve" font-family="Menlo-Regular" font-size="41.0" fill="#A9B6C6" transform="matrix(1.00, 0.00, -0.00, -1.00, 369.9, 426.0)"> </text><text xml:space="preserve" font-family="Menlo-Regular" font-size="41.0" fill="#A9B6C6" transform="matrix(1.00, 0.00, -0.00, -1.00, 394.6, 426.0)">o</text><text xml:space="preserve" font-family="Menlo-Regular" font-size="41.0" fill="#A9B6C6" transform="matrix(1.00, 0.00, -0.00, -1.00, 419.3, 426.0)">n</text><text xml:space="preserve" font-family="Menlo-Regular" font-size="41.0" fill="#A9B6C6" transform="matrix(1.00, 0.00, -0.00, -1.00, 444.0, 426.0)">e</text><text xml:space="preserve" font-family="Menlo-Regular" font-size="41.0" fill="#A9B6C6" transform="matrix(1.00, 0.00, -0.00, -1.00, 468.6, 426.0)"> </text><text xml:space="preserve" font-family="ZapfDingbatsITC" font-size="24.0" fill="#5C5C5C" transform="matrix(1.00, 0.00, -0.00, -1.00, 49.0, 324.2)">➤</text><text xml:space="preserve" font-family="IowanOldStyle-Roman" font-size="32.0" fill="#5C5C5C" transform="matrix(1.00, 0.00, -0.00, -1.00, 86.0, 321.0)">Y</text><text xml:space="preserve" font-family="IowanOldStyle-Roman" font-size="32.0" fill="#5C5C5C" transform="matrix(1.00, 0.00, -0.00, -1.00, 103.4, 321.0)">o</text><text xml:space="preserve" font-family="IowanOldStyle-Roman" font-size="32.0" fill="#5C5C5C" transform="matrix(1.00, 0.00, -0.00, -1.00, 121.0, 321.0)">u</text><text xml:space="preserve" font-family="IowanOldStyle-Roman" font-size="32.0" fill="#5C5C5C" transform="matrix(1.00, 0.00, -0.00, -1.00, 139.9, 321.0)"> </text><text xml:space="preserve" font-family="IowanOldStyle-Roman" font-size="32.0" fill="#5C5C5C" transform="matrix(1.00, 0.00, -0.00, -1.00, 148.7, 321.0)">c</text><text xml:space="preserve" font-family="IowanOldStyle-Roman" font-size="32.0" fill="#5C5C5C" transform="matrix(1.00, 0.00, -0.00, -1.00, 163.0, 321.0)">a</text><text xml:space="preserve" font-family="IowanOldStyle-Roman" font-size="32.0" fill="#5C5C5C" transform="matrix(1.00, 0.00, -0.00, -1.00, 178.4, 321.0)">n</text><text xml:space="preserve" font-family="IowanOldStyle-Roman" font-size="32.0" fill="#5C5C5C" transform="matrix(1.00, 0.00, -0.00, -1.00, 197.1, 321.0)">n</text><text xml:space="preserve" font-family="IowanOldStyle-Roman" font-size="32.0" fill="#5C5C5C" transform="matrix(1.00, 0.00, -0.00, -1.00, 215.8, 321.0)">o</text><text xml:space="preserve" font-family="IowanOldStyle-Roman" font-size="32.0" fill="#5C5C5C" transform="matrix(1.00, 0.00, -0.00, -1.00, 233.4, 321.0)">t</text><text xml:space="preserve" font-family="IowanOldStyle-Roman" font-size="32.0" fill="#5C5C5C" transform="matrix(1.00, 0.00, -0.00, -1.00, 244.9, 321.0)"> </text><text xml:space="preserve" font-family="IowanOldStyle-Roman" font-size="32.0" fill="#5C5C5C" transform="matrix(1.00, 0.00, -0.00, -1.00, 253.8, 321.0)">c</text><text xml:space="preserve" font-family="IowanOldStyle-Roman" font-size="32.0" fill="#5C5C5C" transform="matrix(1.00, 0.00, -0.00, -1.00, 268.1, 321.0)">h</text><text xml:space="preserve" font-family="IowanOldStyle-Roman" font-size="32.0" fill="#5C5C5C" transform="matrix(1.00, 0.00, -0.00, -1.00, 286.8, 321.0)">a</text><text xml:space="preserve" font-family="IowanOldStyle-Roman" font-size="32.0" fill="#5C5C5C" transform="matrix(1.00, 0.00, -0.00, -1.00, 302.2, 321.0)">n</text><text xml:space="preserve" font-family="IowanOldStyle-Roman" font-size="32.0" fill="#5C5C5C" transform="matrix(1.00, 0.00, -0.00, -1.00, 320.9, 321.0)">g</text><text xml:space="preserve" font-family="IowanOldStyle-Roman" font-size="32.0" fill="#5C5C5C" transform="matrix(1.00, 0.00, -0.00, -1.00, 337.4, 321.0)">e</text><text xml:space="preserve" font-family="IowanOldStyle-Roman" font-size="32.0" fill="#5C5C5C" transform="matrix(1.00, 0.00, -0.00, -1.00, 353.0, 321.0)"> </text><text xml:space="preserve" font-family="IowanOldStyle-Roman" font-size="32.0" fill="#5C5C5C" transform="matrix(1.00, 0.00, -0.00, -1.00, 361.9, 321.0)">`</text><text xml:space="preserve" font-family="IowanOldStyle-Roman" font-size="32.0" fill="#5C5C5C" transform="matrix(1.00, 0.00, -0.00, -1.00, 377.9, 321.0)">v</text><text xml:space="preserve" font-family="IowanOldStyle-Roman" font-size="32.0" fill="#5C5C5C" transform="matrix(1.00, 0.00, -0.00, -1.00, 393.7, 321.0)">a</text><text xml:space="preserve" font-family="IowanOldStyle-Roman" font-size="32.0" fill="#5C5C5C" transform="matrix(1.00, 0.00, -0.00, -1.00, 409.0, 321.0)">l</text><text xml:space="preserve" font-family="IowanOldStyle-Roman" font-size="32.0" fill="#5C5C5C" transform="matrix(1.00, 0.00, -0.00, -1.00, 418.4, 321.0)">`</text><text xml:space="preserve" font-family="IowanOldStyle-Roman" font-size="32.0" fill="#5C5C5C" transform="matrix(1.00, 0.00, -0.00, -1.00, 434.4, 321.0)"> </text><text xml:space="preserve" font-family="IowanOldStyle-Roman" font-size="32.0" fill="#5C5C5C" transform="matrix(1.00, 0.00, -0.00, -1.00, 443.3, 321.0)">b</text><text xml:space="preserve" font-family="IowanOldStyle-Roman" font-size="32.0" fill="#5C5C5C" transform="matrix(1.00, 0.00, -0.00, -1.00, 461.1, 321.0)">i</text><text xml:space="preserve" font-family="IowanOldStyle-Roman" font-size="32.0" fill="#5C5C5C" transform="matrix(1.00, 0.00, -0.00, -1.00, 470.6, 321.0)">n</text><text xml:space="preserve" font-family="IowanOldStyle-Roman" font-size="32.0" fill="#5C5C5C" transform="matrix(1.00, 0.00, -0.00, -1.00, 489.3, 321.0)">d</text><text xml:space="preserve" font-family="IowanOldStyle-Roman" font-size="32.0" fill="#5C5C5C" transform="matrix(1.00, 0.00, -0.00, -1.00, 507.2, 321.0)">i</text><text xml:space="preserve" font-family="IowanOldStyle-Roman" font-size="32.0" fill="#5C5C5C" transform="matrix(1.00, 0.00, -0.00, -1.00, 516.7, 321.0)">n</text><text xml:space="preserve" font-family="IowanOldStyle-Roman" font-size="32.0" fill="#5C5C5C" transform="matrix(1.00, 0.00, -0.00, -1.00, 535.4, 321.0)">g</text><text xml:space="preserve" font-family="IowanOldStyle-Roman" font-size="32.0" fill="#5C5C5C" transform="matrix(1.00, 0.00, -0.00, -1.00, 552.0, 321.0)"> </text><text xml:space="preserve" font-family="IowanOldStyle-Roman" font-size="32.0" fill="#5C5C5C" transform="matrix(1.00, 0.00, -0.00, -1.00, 560.8, 321.0)"> </text><text xml:space="preserve" font-family="IowanOldStyle-Roman" font-size="32.0" fill="#5C5C5C" transform="matrix(1.00, 0.00, -0.00, -1.00, 569.7, 321.0)">(</text><text xml:space="preserve" font-family="IowanOldStyle-Roman" font-size="32.0" fill="#5C5C5C" transform="matrix(1.00, 0.00, -0.00, -1.00, 583.1, 321.0)">i</text><text xml:space="preserve" font-family="IowanOldStyle-Roman" font-size="32.0" fill="#5C5C5C" transform="matrix(1.00, 0.00, -0.00, -1.00, 592.6, 321.0)">m</text><text xml:space="preserve" font-family="IowanOldStyle-Roman" font-size="32.0" fill="#5C5C5C" transform="matrix(1.00, 0.00, -0.00, -1.00, 620.8, 321.0)">m</text><text xml:space="preserve" font-family="IowanOldStyle-Roman" font-size="32.0" fill="#5C5C5C" transform="matrix(1.00, 0.00, -0.00, -1.00, 648.9, 321.0)">u</text><text xml:space="preserve" font-family="IowanOldStyle-Roman" font-size="32.0" fill="#5C5C5C" transform="matrix(1.00, 0.00, -0.00, -1.00, 667.7, 321.0)">t</text><text xml:space="preserve" font-family="IowanOldStyle-Roman" font-size="32.0" fill="#5C5C5C" transform="matrix(1.00, 0.00, -0.00, -1.00, 679.2, 321.0)">a</text><text xml:space="preserve" font-family="IowanOldStyle-Roman" font-size="32.0" fill="#5C5C5C" transform="matrix(1.00, 0.00, -0.00, -1.00, 694.6, 321.0)">b</text><text xml:space="preserve" font-family="IowanOldStyle-Roman" font-size="32.0" fill="#5C5C5C" transform="matrix(1.00, 0.00, -0.00, -1.00, 712.4, 321.0)">l</text><text xml:space="preserve" font-family="IowanOldStyle-Roman" font-size="32.0" fill="#5C5C5C" transform="matrix(1.00, 0.00, -0.00, -1.00, 721.8, 321.0)">e</text><text xml:space="preserve" font-family="IowanOldStyle-Roman" font-size="32.0" fill="#5C5C5C" transform="matrix(1.00, 0.00, -0.00, -1.00, 737.4, 321.0)">)</text><text xml:space="preserve" font-family="IowanOldStyle-Roman" font-size="32.0" fill="#5C5C5C" transform="matrix(1.00, 0.00, -0.00, -1.00, 750.8, 321.0)"> </text><text xml:space="preserve" font-family="Menlo-Regular" font-size="60.0" fill="#CACACA" transform="matrix(1.00, 0.00, -0.00, -1.00, 49.0, 236.0)">a</text><text xml:space="preserve" font-family="Menlo-Regular" font-size="60.0" fill="#CACACA" transform="matrix(1.00, 0.00, -0.00, -1.00, 85.1, 236.0)">d</text><text xml:space="preserve" font-family="Menlo-Regular" font-size="60.0" fill="#CACACA" transform="matrix(1.00, 0.00, -0.00, -1.00, 121.3, 236.0)">d</text><text xml:space="preserve" font-family="Menlo-Regular" font-size="60.0" fill="#CACACA" transform="matrix(1.00, 0.00, -0.00, -1.00, 157.4, 236.0)"> </text><text xml:space="preserve" font-family="Menlo-Regular" font-size="60.0" fill="#CACACA" transform="matrix(1.00, 0.00, -0.00, -1.00, 193.5, 236.0)">=</text><text xml:space="preserve" font-family="Menlo-Regular" font-size="60.0" fill="#000000" transform="matrix(1.00, 0.00, -0.00, -1.00, 229.6, 236.0)"> </text><text xml:space="preserve" font-family="Menlo-Regular" font-size="60.0" fill="#6796BB" transform="matrix(1.00, 0.00, -0.00, -1.00, 265.7, 236.0)">2</text><text xml:space="preserve" font-family="Menlo-Regular" font-size="60.0" fill="#6796BB" transform="matrix(1.00, 0.00, -0.00, -1.00, 301.9, 236.0)"> </text><text xml:space="preserve" font-family="Menlo-Regular" font-size="60.0" fill="#6796BB" transform="matrix(1.00, 0.00, -0.00, -1.00, 338.0, 236.0)">/</text><text xml:space="preserve" font-family="Menlo-Regular" font-size="60.0" fill="#6796BB" transform="matrix(1.00, 0.00, -0.00, -1.00, 374.1, 236.0)">/</text><text xml:space="preserve" font-family="Menlo-Regular" font-size="60.0" fill="#6796BB" transform="matrix(1.00, 0.00, -0.00, -1.00, 410.2, 236.0)">d</text><text xml:space="preserve" font-family="Menlo-Regular" font-size="60.0" fill="#6796BB" transform="matrix(1.00, 0.00, -0.00, -1.00, 446.4, 236.0)">o</text><text xml:space="preserve" font-family="Menlo-Regular" font-size="60.0" fill="#6796BB" transform="matrix(1.00, 0.00, -0.00, -1.00, 482.5, 236.0)">e</text><text xml:space="preserve" font-family="Menlo-Regular" font-size="60.0" fill="#6796BB" transform="matrix(1.00, 0.00, -0.00, -1.00, 518.6, 236.0)">s</text><text xml:space="preserve" font-family="Menlo-Regular" font-size="60.0" fill="#6796BB" transform="matrix(1.00, 0.00, -0.00, -1.00, 554.8, 236.0)">n</text><text xml:space="preserve" font-family="Menlo-Regular" font-size="60.0" fill="#6796BB" transform="matrix(1.00, 0.00, -0.00, -1.00, 590.9, 236.0)">’</text><text xml:space="preserve" font-family="Menlo-Regular" font-size="60.0" fill="#6796BB" transform="matrix(1.00, 0.00, -0.00, -1.00, 627.0, 236.0)">t</text><text xml:space="preserve" font-family="Menlo-Regular" font-size="60.0" fill="#6796BB" transform="matrix(1.00, 0.00, -0.00, -1.00, 663.2, 236.0)"> </text><text xml:space="preserve" font-family="Menlo-Regular" font-size="60.0" fill="#6796BB" transform="matrix(1.00, 0.00, -0.00, -1.00, 699.3, 236.0)">w</text><text xml:space="preserve" font-family="Menlo-Regular" font-size="60.0" fill="#6796BB" transform="matrix(1.00, 0.00, -0.00, -1.00, 735.4, 236.0)">o</text><text xml:space="preserve" font-family="Menlo-Regular" font-size="60.0" fill="#6796BB" transform="matrix(1.00, 0.00, -0.00, -1.00, 771.5, 236.0)">r</text><text xml:space="preserve" font-family="Menlo-Regular" font-size="60.0" fill="#6796BB" transform="matrix(1.00, 0.00, -0.00, -1.00, 807.7, 236.0)">k</text></g></svg>