<?xml version="1.0" encoding="UTF-8" standalone="no"?><svg xmlns="http://www.w3.org/2000/svg" xmlns:xlink="http://www.w3.org/1999/xlink" clip-rule="evenodd" stroke-miterlimit="4.00" viewBox="0 0 1024 768"><desc>SVG generated by Keynote</desc><defs></defs><g transform="matrix(1.00, 0.00, -0.00, -1.00, 0.0, 768.0)"><path d="M 0.0 768.0 L 1024.0 768.0 L 1024.0 0.0 L 0.0 0.0 Z M 0.0 768.0 " fill="#FFFFFF"></path><path d="M 0.0 0.0 L 934.0 0.0 " fill="none" stroke="#747676" stroke-width="3.00" stroke-linecap="round" stroke-linejoin="round" stroke-dasharray="0.0, 9.0" transform="matrix(1.00, 0.00, 0.00, -1.00, 45.0, 644.0)"></path><text xml:space="preserve" font-family="DINCondensed-Bold" font-weight="bold" font-size="48.4" fill="#747676" transform="matrix(1.00, 0.00, -0.00, -1.00, 49.0, 673.0)">E</text><text xml:space="preserve" font-family="DINCondensed-Bold" font-weight="bold" font-size="48.4" fill="#747676" transform="matrix(1.00, 0.00, -0.00, -1.00, 66.9, 673.0)">X</text><text xml:space="preserve" font-family="DINCondensed-Bold" font-weight="bold" font-size="48.4" fill="#747676" transform="matrix(1.00, 0.00, -0.00, -1.00, 85.7, 673.0)">P</text><text xml:space="preserve" font-family="DINCondensed-Bold" font-weight="bold" font-size="48.4" fill="#747676" transform="matrix(1.00, 0.00, -0.00, -1.00, 105.4, 673.0)">R</text><text xml:space="preserve" font-family="DINCondensed-Bold" font-weight="bold" font-size="48.4" fill="#747676" transform="matrix(1.00, 0.00, -0.00, -1.00, 126.0, 673.0)">E</text><text xml:space="preserve" font-family="DINCondensed-Bold" font-weight="bold" font-size="48.4" fill="#747676" transform="matrix(1.00, 0.00, -0.00, -1.00, 143.9, 673.0)">S</text><text xml:space="preserve" font-family="DINCondensed-Bold" font-weight="bold" font-size="48.4" fill="#747676" transform="matrix(1.00, 0.00, -0.00, -1.00, 163.5, 673.0)">S</text><text xml:space="preserve" font-family="DINCondensed-Bold" font-weight="bold" font-size="48.4" fill="#747676" transform="matrix(1.00, 0.00, -0.00, -1.00, 183.2, 673.0)">I</text><text xml:space="preserve" font-family="DINCondensed-Bold" font-weight="bold" font-size="48.4" fill="#747676" transform="matrix(1.00, 0.00, -0.00, -1.00, 193.0, 673.0)">O</text><text xml:space="preserve" font-family="DINCondensed-Bold" font-weight="bold" font-size="48.4" fill="#747676" transform="matrix(1.00, 0.00, -0.00, -1.00, 213.6, 673.0)">N</text><text xml:space="preserve" font-family="DINCondensed-Bold" font-weight="bold" font-size="48.4" fill="#747676" transform="matrix(1.00, 0.00, -0.00, -1.00, 235.1, 673.0)">S</text><path d="M 49.0 622.0 L 371.1 622.0 L 371.1 498.0 L 49.0 498.0 Z M 49.0 622.0 " fill="#2A2A2A"></path><path d="M 49.0 498.0 L 371.1 498.0 L 371.1 374.0 L 49.0 374.0 Z M 49.0 498.0 " fill="#2A2A2A"></path><path d="M 49.0 374.0 L 435.5 374.0 L 435.5 250.0 L 49.0 250.0 Z M 49.0 374.0 " fill="#2A2A2A"></path><text xml:space="preserve" font-family="Menlo-Regular" font-size="107.0" fill="#6796BB" transform="matrix(1.00, 0.00, -0.00, -1.00, 49.0, 523.0)">1</text><text xml:space="preserve" font-family="Menlo-Regular" font-size="107.0" fill="#6796BB" transform="matrix(1.00, 0.00, -0.00, -1.00, 113.4, 523.0)"> </text><text xml:space="preserve" font-family="Menlo-Regular" font-size="107.0" fill="#A9B6C6" transform="matrix(1.00, 0.00, -0.00, -1.00, 177.8, 523.0)">+</text><text xml:space="preserve" font-family="Menlo-Regular" font-size="107.0" fill="#A9B6C6" transform="matrix(1.00, 0.00, -0.00, -1.00, 242.3, 523.0)"> </text><text xml:space="preserve" font-family="Menlo-Regular" font-size="107.0" fill="#6796BB" transform="matrix(1.00, 0.00, -0.00, -1.00, 306.7, 523.0)">1</text><text xml:space="preserve" font-family="Monaco" font-size="107.0" fill="#6796BB" transform="matrix(1.00, 0.00, -0.00, -1.00, 371.1, 523.0)"> </text><text xml:space="preserve" font-family="Menlo-Regular" font-size="107.0" fill="#6796BB" transform="matrix(1.00, 0.00, -0.00, -1.00, 49.0, 399.0)">1</text><text xml:space="preserve" font-family="Menlo-Regular" font-size="107.0" fill="#6796BB" transform="matrix(1.00, 0.00, -0.00, -1.00, 113.4, 399.0)"> </text><text xml:space="preserve" font-family="Menlo-Regular" font-size="107.0" fill="#A9B6C6" transform="matrix(1.00, 0.00, -0.00, -1.00, 177.8, 399.0)">&gt;</text><text xml:space="preserve" font-family="Menlo-Regular" font-size="107.0" fill="#A9B6C6" transform="matrix(1.00, 0.00, -0.00, -1.00, 242.3, 399.0)"> </text><text xml:space="preserve" font-family="Menlo-Regular" font-size="107.0" fill="#6796BB" transform="matrix(1.00, 0.00, -0.00, -1.00, 306.7, 399.0)">0</text><text xml:space="preserve" font-family="Monaco" font-size="107.0" fill="#6796BB" transform="matrix(1.00, 0.00, -0.00, -1.00, 371.1, 399.0)"> </text><text xml:space="preserve" font-family="Menlo-Regular" font-size="107.0" fill="#6796BB" transform="matrix(1.00, 0.00, -0.00, -1.00, 49.0, 275.0)">0</text><text xml:space="preserve" font-family="Menlo-Regular" font-size="107.0" fill="#6796BB" transform="matrix(1.00, 0.00, -0.00, -1.00, 113.4, 275.0)"> </text><text xml:space="preserve" font-family="Menlo-Regular" font-size="107.0" fill="#A9B6C6" transform="matrix(1.00, 0.00, -0.00, -1.00, 177.8, 275.0)">&gt;</text><text xml:space="preserve" font-family="Menlo-Regular" font-size="107.0" fill="#A9B6C6" transform="matrix(1.00, 0.00, -0.00, -1.00, 242.3, 275.0)"> </text><text xml:space="preserve" font-family="Menlo-Regular" font-size="107.0" fill="#6796BB" transform="matrix(1.00, 0.00, -0.00, -1.00, 306.7, 275.0)">1</text><text xml:space="preserve" font-family="Menlo-Regular" font-size="107.0" fill="#6796BB" transform="matrix(1.00, 0.00, -0.00, -1.00, 371.1, 275.0)"> </text></g></svg>