<?xml version="1.0" encoding="UTF-8" standalone="no"?><svg xmlns="http://www.w3.org/2000/svg" xmlns:xlink="http://www.w3.org/1999/xlink" clip-rule="evenodd" stroke-miterlimit="4.00" viewBox="0 0 1024 768"><desc>SVG generated by Keynote</desc><defs></defs><g transform="matrix(1.00, 0.00, -0.00, -1.00, 0.0, 768.0)"><path d="M 0.0 768.0 L 1024.0 768.0 L 1024.0 0.0 L 0.0 0.0 Z M 0.0 768.0 " fill="#FFFFFF"></path><path d="M 0.0 0.0 L 934.0 0.0 " fill="none" stroke="#747676" stroke-width="3.00" stroke-linecap="round" stroke-linejoin="round" stroke-dasharray="0.0, 9.0" transform="matrix(1.00, 0.00, 0.00, -1.00, 45.0, 644.0)"></path><text xml:space="preserve" font-family="DINCondensed-Bold" font-weight="bold" font-size="48.4" fill="#747676" transform="matrix(1.00, 0.00, -0.00, -1.00, 49.0, 673.0)">F</text><text xml:space="preserve" font-family="DINCondensed-Bold" font-weight="bold" font-size="48.4" fill="#747676" transform="matrix(1.00, 0.00, -0.00, -1.00, 66.9, 673.0)">U</text><text xml:space="preserve" font-family="DINCondensed-Bold" font-weight="bold" font-size="48.4" fill="#747676" transform="matrix(1.00, 0.00, -0.00, -1.00, 87.5, 673.0)">N</text><text xml:space="preserve" font-family="DINCondensed-Bold" font-weight="bold" font-size="48.4" fill="#747676" transform="matrix(1.00, 0.00, -0.00, -1.00, 109.0, 673.0)">C</text><text xml:space="preserve" font-family="DINCondensed-Bold" font-weight="bold" font-size="48.4" fill="#747676" transform="matrix(1.00, 0.00, -0.00, -1.00, 128.6, 673.0)">T</text><text xml:space="preserve" font-family="DINCondensed-Bold" font-weight="bold" font-size="48.4" fill="#747676" transform="matrix(1.00, 0.00, -0.00, -1.00, 144.7, 673.0)">I</text><text xml:space="preserve" font-family="DINCondensed-Bold" font-weight="bold" font-size="48.4" fill="#747676" transform="matrix(1.00, 0.00, -0.00, -1.00, 154.6, 673.0)">O</text><text xml:space="preserve" font-family="DINCondensed-Bold" font-weight="bold" font-size="48.4" fill="#747676" transform="matrix(1.00, 0.00, -0.00, -1.00, 175.2, 673.0)">N</text><text xml:space="preserve" font-family="DINCondensed-Bold" font-weight="bold" font-size="48.4" fill="#747676" transform="matrix(1.00, 0.00, -0.00, -1.00, 196.6, 673.0)"> </text><text xml:space="preserve" font-family="DINCondensed-Bold" font-weight="bold" font-size="48.4" fill="#747676" transform="matrix(1.00, 0.00, -0.00, -1.00, 205.6, 673.0)">F</text><text xml:space="preserve" font-family="DINCondensed-Bold" font-weight="bold" font-size="48.4" fill="#747676" transform="matrix(1.00, 0.00, -0.00, -1.00, 223.5, 673.0)">O</text><text xml:space="preserve" font-family="DINCondensed-Bold" font-weight="bold" font-size="48.4" fill="#747676" transform="matrix(1.00, 0.00, -0.00, -1.00, 244.1, 673.0)">R</text><text xml:space="preserve" font-family="DINCondensed-Bold" font-weight="bold" font-size="48.4" fill="#747676" transform="matrix(1.00, 0.00, -0.00, -1.00, 264.7, 673.0)">M</text><text xml:space="preserve" font-family="DINCondensed-Bold" font-weight="bold" font-size="48.4" fill="#747676" transform="matrix(1.00, 0.00, -0.00, -1.00, 291.6, 673.0)">A</text><text xml:space="preserve" font-family="DINCondensed-Bold" font-weight="bold" font-size="48.4" fill="#747676" transform="matrix(1.00, 0.00, -0.00, -1.00, 308.6, 673.0)">T</text><text xml:space="preserve" font-family="DINCondensed-Bold" font-weight="bold" font-size="48.4" fill="#747676" transform="matrix(1.00, 0.00, -0.00, -1.00, 324.7, 673.0)">T</text><text xml:space="preserve" font-family="DINCondensed-Bold" font-weight="bold" font-size="48.4" fill="#747676" transform="matrix(1.00, 0.00, -0.00, -1.00, 340.8, 673.0)">I</text><text xml:space="preserve" font-family="DINCondensed-Bold" font-weight="bold" font-size="48.4" fill="#747676" transform="matrix(1.00, 0.00, -0.00, -1.00, 350.6, 673.0)">N</text><text xml:space="preserve" font-family="DINCondensed-Bold" font-weight="bold" font-size="48.4" fill="#747676" transform="matrix(1.00, 0.00, -0.00, -1.00, 372.1, 673.0)">G</text><path d="M 49.0 497.5 L 453.0 497.5 L 453.0 426.5 L 49.0 426.5 Z M 49.0 497.5 " fill="#2A2A2A"></path><path d="M 49.0 426.5 L 930.4 426.5 L 930.4 355.5 L 49.0 355.5 Z M 49.0 426.5 " fill="#2A2A2A"></path><path d="M 49.0 355.5 L 306.1 355.5 L 306.1 284.5 L 49.0 284.5 Z M 49.0 355.5 " fill="#2A2A2A"></path><path d="M 49.0 284.5 L 122.5 284.5 L 122.5 213.5 L 49.0 213.5 Z M 49.0 284.5 " fill="#2A2A2A"></path><text xml:space="preserve" font-family="ZapfDingbatsITC" font-size="24.0" fill="#5C5C5C" transform="matrix(1.00, 0.00, -0.00, -1.00, 49.0, 591.7)">➤</text><text xml:space="preserve" font-family="IowanOldStyle-Roman" font-size="32.0" fill="#5C5C5C" transform="matrix(1.00, 0.00, -0.00, -1.00, 86.0, 588.0)">S</text><text xml:space="preserve" font-family="IowanOldStyle-Roman" font-size="32.0" fill="#5C5C5C" transform="matrix(1.00, 0.00, -0.00, -1.00, 103.3, 588.0)">a</text><text xml:space="preserve" font-family="IowanOldStyle-Roman" font-size="32.0" fill="#5C5C5C" transform="matrix(1.00, 0.00, -0.00, -1.00, 118.7, 588.0)">m</text><text xml:space="preserve" font-family="IowanOldStyle-Roman" font-size="32.0" fill="#5C5C5C" transform="matrix(1.00, 0.00, -0.00, -1.00, 146.9, 588.0)">e</text><text xml:space="preserve" font-family="IowanOldStyle-Roman" font-size="32.0" fill="#5C5C5C" transform="matrix(1.00, 0.00, -0.00, -1.00, 162.5, 588.0)"> </text><text xml:space="preserve" font-family="IowanOldStyle-Roman" font-size="32.0" fill="#5C5C5C" transform="matrix(1.00, 0.00, -0.00, -1.00, 171.3, 588.0)">f</text><text xml:space="preserve" font-family="IowanOldStyle-Roman" font-size="32.0" fill="#5C5C5C" transform="matrix(1.00, 0.00, -0.00, -1.00, 181.6, 588.0)">o</text><text xml:space="preserve" font-family="IowanOldStyle-Roman" font-size="32.0" fill="#5C5C5C" transform="matrix(1.00, 0.00, -0.00, -1.00, 199.2, 588.0)">r</text><text xml:space="preserve" font-family="IowanOldStyle-Roman" font-size="32.0" fill="#5C5C5C" transform="matrix(1.00, 0.00, -0.00, -1.00, 211.7, 588.0)"> </text><text xml:space="preserve" font-family="IowanOldStyle-Roman" font-size="32.0" fill="#5C5C5C" transform="matrix(1.00, 0.00, -0.00, -1.00, 220.6, 588.0)">a</text><text xml:space="preserve" font-family="IowanOldStyle-Roman" font-size="32.0" fill="#5C5C5C" transform="matrix(1.00, 0.00, -0.00, -1.00, 236.0, 588.0)">n</text><text xml:space="preserve" font-family="IowanOldStyle-Roman" font-size="32.0" fill="#5C5C5C" transform="matrix(1.00, 0.00, -0.00, -1.00, 254.6, 588.0)">o</text><text xml:space="preserve" font-family="IowanOldStyle-Roman" font-size="32.0" fill="#5C5C5C" transform="matrix(1.00, 0.00, -0.00, -1.00, 272.3, 588.0)">n</text><text xml:space="preserve" font-family="IowanOldStyle-Roman" font-size="32.0" fill="#5C5C5C" transform="matrix(1.00, 0.00, -0.00, -1.00, 290.9, 588.0)">y</text><text xml:space="preserve" font-family="IowanOldStyle-Roman" font-size="32.0" fill="#5C5C5C" transform="matrix(1.00, 0.00, -0.00, -1.00, 306.5, 588.0)">m</text><text xml:space="preserve" font-family="IowanOldStyle-Roman" font-size="32.0" fill="#5C5C5C" transform="matrix(1.00, 0.00, -0.00, -1.00, 334.6, 588.0)">o</text><text xml:space="preserve" font-family="IowanOldStyle-Roman" font-size="32.0" fill="#5C5C5C" transform="matrix(1.00, 0.00, -0.00, -1.00, 352.3, 588.0)">u</text><text xml:space="preserve" font-family="IowanOldStyle-Roman" font-size="32.0" fill="#5C5C5C" transform="matrix(1.00, 0.00, -0.00, -1.00, 371.1, 588.0)">s</text><text xml:space="preserve" font-family="IowanOldStyle-Roman" font-size="32.0" fill="#5C5C5C" transform="matrix(1.00, 0.00, -0.00, -1.00, 385.2, 588.0)"> </text><text xml:space="preserve" font-family="IowanOldStyle-Roman" font-size="32.0" fill="#5C5C5C" transform="matrix(1.00, 0.00, -0.00, -1.00, 394.1, 588.0)">f</text><text xml:space="preserve" font-family="IowanOldStyle-Roman" font-size="32.0" fill="#5C5C5C" transform="matrix(1.00, 0.00, -0.00, -1.00, 404.3, 588.0)">u</text><text xml:space="preserve" font-family="IowanOldStyle-Roman" font-size="32.0" fill="#5C5C5C" transform="matrix(1.00, 0.00, -0.00, -1.00, 423.2, 588.0)">n</text><text xml:space="preserve" font-family="IowanOldStyle-Roman" font-size="32.0" fill="#5C5C5C" transform="matrix(1.00, 0.00, -0.00, -1.00, 441.8, 588.0)">c</text><text xml:space="preserve" font-family="IowanOldStyle-Roman" font-size="32.0" fill="#5C5C5C" transform="matrix(1.00, 0.00, -0.00, -1.00, 456.1, 588.0)">t</text><text xml:space="preserve" font-family="IowanOldStyle-Roman" font-size="32.0" fill="#5C5C5C" transform="matrix(1.00, 0.00, -0.00, -1.00, 467.6, 588.0)">i</text><text xml:space="preserve" font-family="IowanOldStyle-Roman" font-size="32.0" fill="#5C5C5C" transform="matrix(1.00, 0.00, -0.00, -1.00, 477.1, 588.0)">o</text><text xml:space="preserve" font-family="IowanOldStyle-Roman" font-size="32.0" fill="#5C5C5C" transform="matrix(1.00, 0.00, -0.00, -1.00, 494.8, 588.0)">n</text><text xml:space="preserve" font-family="IowanOldStyle-Roman" font-size="32.0" fill="#5C5C5C" transform="matrix(1.00, 0.00, -0.00, -1.00, 513.5, 588.0)">s</text><text xml:space="preserve" font-family="IowanOldStyle-Roman" font-size="32.0" fill="#5C5C5C" transform="matrix(1.00, 0.00, -0.00, -1.00, 527.6, 588.0)"> </text><text xml:space="preserve" font-family="Menlo-Regular" font-size="61.0" fill="#CACACA" transform="matrix(1.00, 0.00, -0.00, -1.00, 49.0, 441.0)">{</text><text xml:space="preserve" font-family="Menlo-Regular" font-size="61.0" fill="#CACACA" transform="matrix(1.00, 0.00, -0.00, -1.00, 85.7, 441.0)"> </text><text xml:space="preserve" font-family="Menlo-Regular" font-size="61.0" fill="#CACACA" transform="matrix(1.00, 0.00, -0.00, -1.00, 122.5, 441.0)">i</text><text xml:space="preserve" font-family="Menlo-Regular" font-size="61.0" fill="#CACACA" transform="matrix(1.00, 0.00, -0.00, -1.00, 159.2, 441.0)">:</text><text xml:space="preserve" font-family="Menlo-Regular" font-size="61.0" fill="#000000" transform="matrix(1.00, 0.00, -0.00, -1.00, 195.9, 441.0)"> </text><text xml:space="preserve" font-family="Menlo-Regular" font-size="61.0" fill="#CC7831" transform="matrix(1.00, 0.00, -0.00, -1.00, 232.6, 441.0)">I</text><text xml:space="preserve" font-family="Menlo-Regular" font-size="61.0" fill="#CC7831" transform="matrix(1.00, 0.00, -0.00, -1.00, 269.4, 441.0)">n</text><text xml:space="preserve" font-family="Menlo-Regular" font-size="61.0" fill="#CC7831" transform="matrix(1.00, 0.00, -0.00, -1.00, 306.1, 441.0)">t</text><text xml:space="preserve" font-family="Menlo-Regular" font-size="61.0" fill="#CC7831" transform="matrix(1.00, 0.00, -0.00, -1.00, 342.8, 441.0)"> </text><text xml:space="preserve" font-family="Menlo-Regular" font-size="61.0" fill="#A9B6C6" transform="matrix(1.00, 0.00, -0.00, -1.00, 379.5, 441.0)">=</text><text xml:space="preserve" font-family="Menlo-Regular" font-size="61.0" fill="#A9B6C6" transform="matrix(1.00, 0.00, -0.00, -1.00, 416.3, 441.0)">&gt;</text><text xml:space="preserve" font-family="Monaco" font-size="61.0" fill="#A9B6C6" transform="matrix(1.00, 0.00, -0.00, -1.00, 453.0, 441.0)"> </text><text xml:space="preserve" font-family="Menlo-Regular" font-size="61.0" fill="#A9B6C6" transform="matrix(1.00, 0.00, -0.00, -1.00, 49.0, 370.0)"> </text><text xml:space="preserve" font-family="Menlo-Regular" font-size="61.0" fill="#A9B6C6" transform="matrix(1.00, 0.00, -0.00, -1.00, 85.7, 370.0)"> </text><text xml:space="preserve" font-family="Menlo-Italic" font-style="italic" font-size="61.0" fill="#A9B6C6" transform="matrix(1.00, 0.00, -0.00, -1.00, 122.5, 370.0)">p</text><text xml:space="preserve" font-family="Menlo-Italic" font-style="italic" font-size="61.0" fill="#A9B6C6" transform="matrix(1.00, 0.00, -0.00, -1.00, 159.2, 370.0)">r</text><text xml:space="preserve" font-family="Menlo-Italic" font-style="italic" font-size="61.0" fill="#A9B6C6" transform="matrix(1.00, 0.00, -0.00, -1.00, 195.9, 370.0)">i</text><text xml:space="preserve" font-family="Menlo-Italic" font-style="italic" font-size="61.0" fill="#A9B6C6" transform="matrix(1.00, 0.00, -0.00, -1.00, 232.6, 370.0)">n</text><text xml:space="preserve" font-family="Menlo-Italic" font-style="italic" font-size="61.0" fill="#A9B6C6" transform="matrix(1.00, 0.00, -0.00, -1.00, 269.4, 370.0)">t</text><text xml:space="preserve" font-family="Menlo-Italic" font-style="italic" font-size="61.0" fill="#A9B6C6" transform="matrix(1.00, 0.00, -0.00, -1.00, 306.1, 370.0)">l</text><text xml:space="preserve" font-family="Menlo-Italic" font-style="italic" font-size="61.0" fill="#A9B6C6" transform="matrix(1.00, 0.00, -0.00, -1.00, 342.8, 370.0)">n</text><text xml:space="preserve" font-family="Menlo-Regular" font-size="61.0" fill="#A9B6C6" transform="matrix(1.00, 0.00, -0.00, -1.00, 379.5, 370.0)">(</text><text xml:space="preserve" font-family="Menlo-Regular" font-size="61.0" fill="#6A8758" transform="matrix(1.00, 0.00, -0.00, -1.00, 416.3, 370.0)">"</text><text xml:space="preserve" font-family="Menlo-Regular" font-size="61.0" fill="#6A8758" transform="matrix(1.00, 0.00, -0.00, -1.00, 453.0, 370.0)">h</text><text xml:space="preserve" font-family="Menlo-Regular" font-size="61.0" fill="#6A8758" transform="matrix(1.00, 0.00, -0.00, -1.00, 489.7, 370.0)">e</text><text xml:space="preserve" font-family="Menlo-Regular" font-size="61.0" fill="#6A8758" transform="matrix(1.00, 0.00, -0.00, -1.00, 526.4, 370.0)">l</text><text xml:space="preserve" font-family="Menlo-Regular" font-size="61.0" fill="#6A8758" transform="matrix(1.00, 0.00, -0.00, -1.00, 563.2, 370.0)">l</text><text xml:space="preserve" font-family="Menlo-Regular" font-size="61.0" fill="#6A8758" transform="matrix(1.00, 0.00, -0.00, -1.00, 599.9, 370.0)">o</text><text xml:space="preserve" font-family="Menlo-Regular" font-size="61.0" fill="#6A8758" transform="matrix(1.00, 0.00, -0.00, -1.00, 636.6, 370.0)"> </text><text xml:space="preserve" font-family="Menlo-Regular" font-size="61.0" fill="#6A8758" transform="matrix(1.00, 0.00, -0.00, -1.00, 673.4, 370.0)">w</text><text xml:space="preserve" font-family="Menlo-Regular" font-size="61.0" fill="#6A8758" transform="matrix(1.00, 0.00, -0.00, -1.00, 710.1, 370.0)">o</text><text xml:space="preserve" font-family="Menlo-Regular" font-size="61.0" fill="#6A8758" transform="matrix(1.00, 0.00, -0.00, -1.00, 746.8, 370.0)">r</text><text xml:space="preserve" font-family="Menlo-Regular" font-size="61.0" fill="#6A8758" transform="matrix(1.00, 0.00, -0.00, -1.00, 783.6, 370.0)">l</text><text xml:space="preserve" font-family="Menlo-Regular" font-size="61.0" fill="#6A8758" transform="matrix(1.00, 0.00, -0.00, -1.00, 820.3, 370.0)">d</text><text xml:space="preserve" font-family="Menlo-Regular" font-size="61.0" fill="#6A8758" transform="matrix(1.00, 0.00, -0.00, -1.00, 857.0, 370.0)">"</text><text xml:space="preserve" font-family="Menlo-Regular" font-size="61.0" fill="#A9B6C6" transform="matrix(1.00, 0.00, -0.00, -1.00, 893.7, 370.0)">)</text><text xml:space="preserve" font-family="Monaco" font-size="61.0" fill="#A9B6C6" transform="matrix(1.00, 0.00, -0.00, -1.00, 930.4, 370.0)"> </text><text xml:space="preserve" font-family="Menlo-Regular" font-size="61.0" fill="#A9B6C6" transform="matrix(1.00, 0.00, -0.00, -1.00, 49.0, 299.0)"> </text><text xml:space="preserve" font-family="Menlo-Regular" font-size="61.0" fill="#A9B6C6" transform="matrix(1.00, 0.00, -0.00, -1.00, 85.7, 299.0)"> </text><text xml:space="preserve" font-family="Menlo-Regular" font-size="61.0" fill="#A9B6C6" transform="matrix(1.00, 0.00, -0.00, -1.00, 122.5, 299.0)">i</text><text xml:space="preserve" font-family="Menlo-Regular" font-size="61.0" fill="#A9B6C6" transform="matrix(1.00, 0.00, -0.00, -1.00, 159.2, 299.0)"> </text><text xml:space="preserve" font-family="Menlo-Regular" font-size="61.0" fill="#A9B6C6" transform="matrix(1.00, 0.00, -0.00, -1.00, 195.9, 299.0)">*</text><text xml:space="preserve" font-family="Menlo-Regular" font-size="61.0" fill="#A9B6C6" transform="matrix(1.00, 0.00, -0.00, -1.00, 232.7, 299.0)"> </text><text xml:space="preserve" font-family="Menlo-Regular" font-size="61.0" fill="#6796BB" transform="matrix(1.00, 0.00, -0.00, -1.00, 269.4, 299.0)">2</text><text xml:space="preserve" font-family="Monaco" font-size="61.0" fill="#6796BB" transform="matrix(1.00, 0.00, -0.00, -1.00, 306.1, 299.0)"> </text><text xml:space="preserve" font-family="Menlo-Regular" font-size="61.0" fill="#A9B6C6" transform="matrix(1.00, 0.00, -0.00, -1.00, 49.0, 228.0)">}</text><text xml:space="preserve" font-family="Menlo-Regular" font-size="61.0" fill="#A9B6C6" transform="matrix(1.00, 0.00, -0.00, -1.00, 85.7, 228.0)"> </text></g></svg>