<?xml version="1.0" encoding="UTF-8" standalone="no"?><svg xmlns="http://www.w3.org/2000/svg" xmlns:xlink="http://www.w3.org/1999/xlink" clip-rule="evenodd" stroke-miterlimit="4.00" viewBox="0 0 1024 768"><desc>SVG generated by Keynote</desc><defs></defs><g transform="matrix(1.00, 0.00, -0.00, -1.00, 0.0, 768.0)"><path d="M 0.0 768.0 L 1024.0 768.0 L 1024.0 0.0 L 0.0 0.0 Z M 0.0 768.0 " fill="#FFFFFF"></path><path d="M 0.0 0.0 L 934.0 0.0 " fill="none" stroke="#747676" stroke-width="3.00" stroke-linecap="round" stroke-linejoin="round" stroke-dasharray="0.0, 9.0" transform="matrix(1.00, 0.00, 0.00, -1.00, 45.0, 644.0)"></path><text xml:space="preserve" font-family="DINCondensed-Bold" font-weight="bold" font-size="48.4" fill="#747676" transform="matrix(1.00, 0.00, -0.00, -1.00, 49.0, 673.0)">C</text><text xml:space="preserve" font-family="DINCondensed-Bold" font-weight="bold" font-size="48.4" fill="#747676" transform="matrix(1.00, 0.00, -0.00, -1.00, 68.7, 673.0)">O</text><text xml:space="preserve" font-family="DINCondensed-Bold" font-weight="bold" font-size="48.4" fill="#747676" transform="matrix(1.00, 0.00, -0.00, -1.00, 89.3, 673.0)">M</text><text xml:space="preserve" font-family="DINCondensed-Bold" font-weight="bold" font-size="48.4" fill="#747676" transform="matrix(1.00, 0.00, -0.00, -1.00, 116.2, 673.0)">P</text><text xml:space="preserve" font-family="DINCondensed-Bold" font-weight="bold" font-size="48.4" fill="#747676" transform="matrix(1.00, 0.00, -0.00, -1.00, 134.1, 673.0)">A</text><text xml:space="preserve" font-family="DINCondensed-Bold" font-weight="bold" font-size="48.4" fill="#747676" transform="matrix(1.00, 0.00, -0.00, -1.00, 153.7, 673.0)">N</text><text xml:space="preserve" font-family="DINCondensed-Bold" font-weight="bold" font-size="48.4" fill="#747676" transform="matrix(1.00, 0.00, -0.00, -1.00, 175.2, 673.0)">I</text><text xml:space="preserve" font-family="DINCondensed-Bold" font-weight="bold" font-size="48.4" fill="#747676" transform="matrix(1.00, 0.00, -0.00, -1.00, 185.1, 673.0)">O</text><text xml:space="preserve" font-family="DINCondensed-Bold" font-weight="bold" font-size="48.4" fill="#747676" transform="matrix(1.00, 0.00, -0.00, -1.00, 205.7, 673.0)">N</text><text xml:space="preserve" font-family="DINCondensed-Bold" font-weight="bold" font-size="48.4" fill="#747676" transform="matrix(1.00, 0.00, -0.00, -1.00, 227.2, 673.0)"> </text><text xml:space="preserve" font-family="DINCondensed-Bold" font-weight="bold" font-size="48.4" fill="#747676" transform="matrix(1.00, 0.00, -0.00, -1.00, 236.2, 673.0)">O</text><text xml:space="preserve" font-family="DINCondensed-Bold" font-weight="bold" font-size="48.4" fill="#747676" transform="matrix(1.00, 0.00, -0.00, -1.00, 256.8, 673.0)">B</text><text xml:space="preserve" font-family="DINCondensed-Bold" font-weight="bold" font-size="48.4" fill="#747676" transform="matrix(1.00, 0.00, -0.00, -1.00, 277.4, 673.0)">J</text><text xml:space="preserve" font-family="DINCondensed-Bold" font-weight="bold" font-size="48.4" fill="#747676" transform="matrix(1.00, 0.00, -0.00, -1.00, 293.5, 673.0)">E</text><text xml:space="preserve" font-family="DINCondensed-Bold" font-weight="bold" font-size="48.4" fill="#747676" transform="matrix(1.00, 0.00, -0.00, -1.00, 311.4, 673.0)">C</text><text xml:space="preserve" font-family="DINCondensed-Bold" font-weight="bold" font-size="48.4" fill="#747676" transform="matrix(1.00, 0.00, -0.00, -1.00, 331.0, 673.0)">T</text><text xml:space="preserve" font-family="DINCondensed-Bold" font-weight="bold" font-size="48.4" fill="#747676" transform="matrix(1.00, 0.00, -0.00, -1.00, 347.1, 673.0)">S</text><path d="M 49.0 622.0 L 145.3 622.0 L 145.3 584.0 L 49.0 584.0 Z M 49.0 622.0 " fill="#344033"></path><path d="M 145.3 622.0 L 511.4 622.0 L 511.4 584.0 L 145.3 584.0 Z M 145.3 622.0 " fill="#2A2A2A"></path><path d="M 49.0 584.0 L 781.1 584.0 L 781.1 546.0 L 49.0 546.0 Z M 49.0 584.0 " fill="#2A2A2A"></path><path d="M 49.0 546.0 L 68.3 546.0 L 68.3 508.0 L 49.0 508.0 Z M 49.0 546.0 " fill="#2A2A2A"></path><path d="M 49.0 508.0 L 280.2 508.0 L 280.2 470.0 L 49.0 470.0 Z M 49.0 508.0 " fill="#2A2A2A"></path><path d="M 49.0 470.0 L 800.4 470.0 L 800.4 432.0 L 49.0 432.0 Z M 49.0 470.0 " fill="#2A2A2A"></path><path d="M 49.0 432.0 L 68.3 432.0 L 68.3 394.0 L 49.0 394.0 Z M 49.0 432.0 " fill="#2A2A2A"></path><path d="M 49.0 318.0 L 395.8 318.0 L 395.8 280.0 L 49.0 280.0 Z M 49.0 318.0 " fill="#2A2A2A"></path><text xml:space="preserve" font-family="Menlo-Bold" font-weight="bold" font-size="32.0" fill="#CC7831" transform="matrix(1.00, 0.00, -0.00, -1.00, 49.0, 592.0)">c</text><text xml:space="preserve" font-family="Menlo-Bold" font-weight="bold" font-size="32.0" fill="#CC7831" transform="matrix(1.00, 0.00, -0.00, -1.00, 68.3, 592.0)">l</text><text xml:space="preserve" font-family="Menlo-Bold" font-weight="bold" font-size="32.0" fill="#CC7831" transform="matrix(1.00, 0.00, -0.00, -1.00, 87.5, 592.0)">a</text><text xml:space="preserve" font-family="Menlo-Bold" font-weight="bold" font-size="32.0" fill="#CC7831" transform="matrix(1.00, 0.00, -0.00, -1.00, 106.8, 592.0)">s</text><text xml:space="preserve" font-family="Menlo-Bold" font-weight="bold" font-size="32.0" fill="#CC7831" transform="matrix(1.00, 0.00, -0.00, -1.00, 126.1, 592.0)">s</text><text xml:space="preserve" font-family="Menlo-Bold" font-weight="bold" font-size="32.0" fill="#CC7831" transform="matrix(1.00, 0.00, -0.00, -1.00, 145.3, 592.0)"> </text><text xml:space="preserve" font-family="Menlo-Regular" font-size="32.0" fill="#A9B6C6" transform="matrix(1.00, 0.00, -0.00, -1.00, 164.6, 592.0)">B</text><text xml:space="preserve" font-family="Menlo-Regular" font-size="32.0" fill="#A9B6C6" transform="matrix(1.00, 0.00, -0.00, -1.00, 183.9, 592.0)">a</text><text xml:space="preserve" font-family="Menlo-Regular" font-size="32.0" fill="#A9B6C6" transform="matrix(1.00, 0.00, -0.00, -1.00, 203.1, 592.0)">r</text><text xml:space="preserve" font-family="Menlo-Regular" font-size="32.0" fill="#A9B6C6" transform="matrix(1.00, 0.00, -0.00, -1.00, 222.4, 592.0)">(</text><text xml:space="preserve" font-family="Menlo-Regular" font-size="32.0" fill="#A9B6C6" transform="matrix(1.00, 0.00, -0.00, -1.00, 241.7, 592.0)">f</text><text xml:space="preserve" font-family="Menlo-Regular" font-size="32.0" fill="#A9B6C6" transform="matrix(1.00, 0.00, -0.00, -1.00, 260.9, 592.0)">o</text><text xml:space="preserve" font-family="Menlo-Regular" font-size="32.0" fill="#A9B6C6" transform="matrix(1.00, 0.00, -0.00, -1.00, 280.2, 592.0)">o</text><text xml:space="preserve" font-family="Menlo-Regular" font-size="32.0" fill="#A9B6C6" transform="matrix(1.00, 0.00, -0.00, -1.00, 299.5, 592.0)">:</text><text xml:space="preserve" font-family="Menlo-Regular" font-size="32.0" fill="#A9B6C6" transform="matrix(1.00, 0.00, -0.00, -1.00, 318.7, 592.0)"> </text><text xml:space="preserve" font-family="Menlo-Regular" font-size="32.0" fill="#4E807D" transform="matrix(1.00, 0.00, -0.00, -1.00, 338.0, 592.0)">S</text><text xml:space="preserve" font-family="Menlo-Regular" font-size="32.0" fill="#4E807D" transform="matrix(1.00, 0.00, -0.00, -1.00, 357.3, 592.0)">t</text><text xml:space="preserve" font-family="Menlo-Regular" font-size="32.0" fill="#4E807D" transform="matrix(1.00, 0.00, -0.00, -1.00, 376.5, 592.0)">r</text><text xml:space="preserve" font-family="Menlo-Regular" font-size="32.0" fill="#4E807D" transform="matrix(1.00, 0.00, -0.00, -1.00, 395.8, 592.0)">i</text><text xml:space="preserve" font-family="Menlo-Regular" font-size="32.0" fill="#4E807D" transform="matrix(1.00, 0.00, -0.00, -1.00, 415.1, 592.0)">n</text><text xml:space="preserve" font-family="Menlo-Regular" font-size="32.0" fill="#4E807D" transform="matrix(1.00, 0.00, -0.00, -1.00, 434.3, 592.0)">g</text><text xml:space="preserve" font-family="Menlo-Regular" font-size="32.0" fill="#A9B6C6" transform="matrix(1.00, 0.00, -0.00, -1.00, 453.6, 592.0)">)</text><text xml:space="preserve" font-family="Menlo-Regular" font-size="32.0" fill="#A9B6C6" transform="matrix(1.00, 0.00, -0.00, -1.00, 472.8, 592.0)"> </text><text xml:space="preserve" font-family="Menlo-Regular" font-size="32.0" fill="#A9B6C6" transform="matrix(1.00, 0.00, -0.00, -1.00, 492.1, 592.0)">{</text><text xml:space="preserve" font-family="Monaco" font-size="32.0" fill="#A9B6C6" transform="matrix(1.00, 0.00, -0.00, -1.00, 511.4, 592.0)"> </text><text xml:space="preserve" font-family="Menlo-Regular" font-size="32.0" fill="#A9B6C6" transform="matrix(1.00, 0.00, -0.00, -1.00, 49.0, 554.0)"> </text><text xml:space="preserve" font-family="Menlo-Regular" font-size="32.0" fill="#A9B6C6" transform="matrix(1.00, 0.00, -0.00, -1.00, 68.3, 554.0)"> </text><text xml:space="preserve" font-family="Menlo-Bold" font-weight="bold" font-size="32.0" fill="#CC7831" transform="matrix(1.00, 0.00, -0.00, -1.00, 87.5, 554.0)">d</text><text xml:space="preserve" font-family="Menlo-Bold" font-weight="bold" font-size="32.0" fill="#CC7831" transform="matrix(1.00, 0.00, -0.00, -1.00, 106.8, 554.0)">e</text><text xml:space="preserve" font-family="Menlo-Bold" font-weight="bold" font-size="32.0" fill="#CC7831" transform="matrix(1.00, 0.00, -0.00, -1.00, 126.1, 554.0)">f</text><text xml:space="preserve" font-family="Menlo-Bold" font-weight="bold" font-size="32.0" fill="#CC7831" transform="matrix(1.00, 0.00, -0.00, -1.00, 145.3, 554.0)"> </text><text xml:space="preserve" font-family="Menlo-Regular" font-size="32.0" fill="#FFC66D" transform="matrix(1.00, 0.00, -0.00, -1.00, 164.6, 554.0)">s</text><text xml:space="preserve" font-family="Menlo-Regular" font-size="32.0" fill="#FFC66D" transform="matrix(1.00, 0.00, -0.00, -1.00, 183.9, 554.0)">h</text><text xml:space="preserve" font-family="Menlo-Regular" font-size="32.0" fill="#FFC66D" transform="matrix(1.00, 0.00, -0.00, -1.00, 203.1, 554.0)">o</text><text xml:space="preserve" font-family="Menlo-Regular" font-size="32.0" fill="#FFC66D" transform="matrix(1.00, 0.00, -0.00, -1.00, 222.4, 554.0)">w</text><text xml:space="preserve" font-family="Menlo-Regular" font-size="32.0" fill="#A9B6C6" transform="matrix(1.00, 0.00, -0.00, -1.00, 241.7, 554.0)">(</text><text xml:space="preserve" font-family="Menlo-Regular" font-size="32.0" fill="#A9B6C6" transform="matrix(1.00, 0.00, -0.00, -1.00, 260.9, 554.0)">)</text><text xml:space="preserve" font-family="Menlo-Regular" font-size="32.0" fill="#A9B6C6" transform="matrix(1.00, 0.00, -0.00, -1.00, 280.2, 554.0)"> </text><text xml:space="preserve" font-family="Menlo-Regular" font-size="32.0" fill="#A9B6C6" transform="matrix(1.00, 0.00, -0.00, -1.00, 299.5, 554.0)">=</text><text xml:space="preserve" font-family="Menlo-Regular" font-size="32.0" fill="#A9B6C6" transform="matrix(1.00, 0.00, -0.00, -1.00, 318.7, 554.0)"> </text><text xml:space="preserve" font-family="Menlo-Italic" font-style="italic" font-size="32.0" fill="#A9B6C6" transform="matrix(1.00, 0.00, -0.00, -1.00, 338.0, 554.0)">p</text><text xml:space="preserve" font-family="Menlo-Italic" font-style="italic" font-size="32.0" fill="#A9B6C6" transform="matrix(1.00, 0.00, -0.00, -1.00, 357.3, 554.0)">r</text><text xml:space="preserve" font-family="Menlo-Italic" font-style="italic" font-size="32.0" fill="#A9B6C6" transform="matrix(1.00, 0.00, -0.00, -1.00, 376.5, 554.0)">i</text><text xml:space="preserve" font-family="Menlo-Italic" font-style="italic" font-size="32.0" fill="#A9B6C6" transform="matrix(1.00, 0.00, -0.00, -1.00, 395.8, 554.0)">n</text><text xml:space="preserve" font-family="Menlo-Italic" font-style="italic" font-size="32.0" fill="#A9B6C6" transform="matrix(1.00, 0.00, -0.00, -1.00, 415.1, 554.0)">t</text><text xml:space="preserve" font-family="Menlo-Italic" font-style="italic" font-size="32.0" fill="#A9B6C6" transform="matrix(1.00, 0.00, -0.00, -1.00, 434.3, 554.0)">l</text><text xml:space="preserve" font-family="Menlo-Italic" font-style="italic" font-size="32.0" fill="#A9B6C6" transform="matrix(1.00, 0.00, -0.00, -1.00, 453.6, 554.0)">n</text><text xml:space="preserve" font-family="Menlo-Regular" font-size="32.0" fill="#A9B6C6" transform="matrix(1.00, 0.00, -0.00, -1.00, 472.8, 554.0)">(</text><text xml:space="preserve" font-family="Menlo-Regular" font-size="32.0" fill="#6A8758" transform="matrix(1.00, 0.00, -0.00, -1.00, 492.1, 554.0)">"</text><text xml:space="preserve" font-family="Menlo-Regular" font-size="32.0" fill="#6A8758" transform="matrix(1.00, 0.00, -0.00, -1.00, 511.4, 554.0)">F</text><text xml:space="preserve" font-family="Menlo-Regular" font-size="32.0" fill="#6A8758" transform="matrix(1.00, 0.00, -0.00, -1.00, 530.6, 554.0)">o</text><text xml:space="preserve" font-family="Menlo-Regular" font-size="32.0" fill="#6A8758" transform="matrix(1.00, 0.00, -0.00, -1.00, 549.9, 554.0)">o</text><text xml:space="preserve" font-family="Menlo-Regular" font-size="32.0" fill="#6A8758" transform="matrix(1.00, 0.00, -0.00, -1.00, 569.2, 554.0)"> </text><text xml:space="preserve" font-family="Menlo-Regular" font-size="32.0" fill="#6A8758" transform="matrix(1.00, 0.00, -0.00, -1.00, 588.5, 554.0)">=</text><text xml:space="preserve" font-family="Menlo-Regular" font-size="32.0" fill="#6A8758" transform="matrix(1.00, 0.00, -0.00, -1.00, 607.7, 554.0)"> </text><text xml:space="preserve" font-family="Menlo-Regular" font-size="32.0" fill="#6A8758" transform="matrix(1.00, 0.00, -0.00, -1.00, 627.0, 554.0)">"</text><text xml:space="preserve" font-family="Menlo-Regular" font-size="32.0" fill="#6A8758" transform="matrix(1.00, 0.00, -0.00, -1.00, 646.3, 554.0)"> </text><text xml:space="preserve" font-family="Menlo-Regular" font-size="32.0" fill="#A9B6C6" transform="matrix(1.00, 0.00, -0.00, -1.00, 665.5, 554.0)">+</text><text xml:space="preserve" font-family="Menlo-Regular" font-size="32.0" fill="#A9B6C6" transform="matrix(1.00, 0.00, -0.00, -1.00, 684.8, 554.0)"> </text><text xml:space="preserve" font-family="Menlo-Regular" font-size="32.0" fill="#A9B6C6" transform="matrix(1.00, 0.00, -0.00, -1.00, 704.0, 554.0)">f</text><text xml:space="preserve" font-family="Menlo-Regular" font-size="32.0" fill="#A9B6C6" transform="matrix(1.00, 0.00, -0.00, -1.00, 723.3, 554.0)">o</text><text xml:space="preserve" font-family="Menlo-Regular" font-size="32.0" fill="#A9B6C6" transform="matrix(1.00, 0.00, -0.00, -1.00, 742.6, 554.0)">o</text><text xml:space="preserve" font-family="Menlo-Regular" font-size="32.0" fill="#A9B6C6" transform="matrix(1.00, 0.00, -0.00, -1.00, 761.8, 554.0)">)</text><text xml:space="preserve" font-family="Monaco" font-size="32.0" fill="#A9B6C6" transform="matrix(1.00, 0.00, -0.00, -1.00, 781.1, 554.0)"> </text><text xml:space="preserve" font-family="Menlo-Regular" font-size="32.0" fill="#A9B6C6" transform="matrix(1.00, 0.00, -0.00, -1.00, 49.0, 516.0)">}</text><text xml:space="preserve" font-family="Monaco" font-size="32.0" fill="#A9B6C6" transform="matrix(1.00, 0.00, -0.00, -1.00, 68.3, 516.0)"> </text><text xml:space="preserve" font-family="Menlo-Bold" font-weight="bold" font-size="32.0" fill="#CC7831" transform="matrix(1.00, 0.00, -0.00, -1.00, 49.0, 478.0)">o</text><text xml:space="preserve" font-family="Menlo-Bold" font-weight="bold" font-size="32.0" fill="#CC7831" transform="matrix(1.00, 0.00, -0.00, -1.00, 68.3, 478.0)">b</text><text xml:space="preserve" font-family="Menlo-Bold" font-weight="bold" font-size="32.0" fill="#CC7831" transform="matrix(1.00, 0.00, -0.00, -1.00, 87.5, 478.0)">j</text><text xml:space="preserve" font-family="Menlo-Bold" font-weight="bold" font-size="32.0" fill="#CC7831" transform="matrix(1.00, 0.00, -0.00, -1.00, 106.8, 478.0)">e</text><text xml:space="preserve" font-family="Menlo-Bold" font-weight="bold" font-size="32.0" fill="#CC7831" transform="matrix(1.00, 0.00, -0.00, -1.00, 126.1, 478.0)">c</text><text xml:space="preserve" font-family="Menlo-Bold" font-weight="bold" font-size="32.0" fill="#CC7831" transform="matrix(1.00, 0.00, -0.00, -1.00, 145.3, 478.0)">t</text><text xml:space="preserve" font-family="Menlo-Bold" font-weight="bold" font-size="32.0" fill="#CC7831" transform="matrix(1.00, 0.00, -0.00, -1.00, 164.6, 478.0)"> </text><text xml:space="preserve" font-family="Menlo-Regular" font-size="32.0" fill="#A9B6C6" transform="matrix(1.00, 0.00, -0.00, -1.00, 183.9, 478.0)">B</text><text xml:space="preserve" font-family="Menlo-Regular" font-size="32.0" fill="#A9B6C6" transform="matrix(1.00, 0.00, -0.00, -1.00, 203.1, 478.0)">a</text><text xml:space="preserve" font-family="Menlo-Regular" font-size="32.0" fill="#A9B6C6" transform="matrix(1.00, 0.00, -0.00, -1.00, 222.4, 478.0)">r</text><text xml:space="preserve" font-family="Menlo-Regular" font-size="32.0" fill="#A9B6C6" transform="matrix(1.00, 0.00, -0.00, -1.00, 241.7, 478.0)"> </text><text xml:space="preserve" font-family="Menlo-Regular" font-size="32.0" fill="#A9B6C6" transform="matrix(1.00, 0.00, -0.00, -1.00, 260.9, 478.0)">{</text><text xml:space="preserve" font-family="Monaco" font-size="32.0" fill="#A9B6C6" transform="matrix(1.00, 0.00, -0.00, -1.00, 280.2, 478.0)"> </text><text xml:space="preserve" font-family="Menlo-Regular" font-size="32.0" fill="#A9B6C6" transform="matrix(1.00, 0.00, -0.00, -1.00, 49.0, 440.0)"> </text><text xml:space="preserve" font-family="Menlo-Regular" font-size="32.0" fill="#A9B6C6" transform="matrix(1.00, 0.00, -0.00, -1.00, 68.3, 440.0)"> </text><text xml:space="preserve" font-family="Menlo-Bold" font-weight="bold" font-size="32.0" fill="#CC7831" transform="matrix(1.00, 0.00, -0.00, -1.00, 87.5, 440.0)">d</text><text xml:space="preserve" font-family="Menlo-Bold" font-weight="bold" font-size="32.0" fill="#CC7831" transform="matrix(1.00, 0.00, -0.00, -1.00, 106.8, 440.0)">e</text><text xml:space="preserve" font-family="Menlo-Bold" font-weight="bold" font-size="32.0" fill="#CC7831" transform="matrix(1.00, 0.00, -0.00, -1.00, 126.1, 440.0)">f</text><text xml:space="preserve" font-family="Menlo-Bold" font-weight="bold" font-size="32.0" fill="#CC7831" transform="matrix(1.00, 0.00, -0.00, -1.00, 145.3, 440.0)"> </text><text xml:space="preserve" font-family="Menlo-Regular" font-size="32.0" fill="#FFC66D" transform="matrix(1.00, 0.00, -0.00, -1.00, 164.6, 440.0)">a</text><text xml:space="preserve" font-family="Menlo-Regular" font-size="32.0" fill="#FFC66D" transform="matrix(1.00, 0.00, -0.00, -1.00, 183.9, 440.0)">p</text><text xml:space="preserve" font-family="Menlo-Regular" font-size="32.0" fill="#FFC66D" transform="matrix(1.00, 0.00, -0.00, -1.00, 203.1, 440.0)">p</text><text xml:space="preserve" font-family="Menlo-Regular" font-size="32.0" fill="#FFC66D" transform="matrix(1.00, 0.00, -0.00, -1.00, 222.4, 440.0)">l</text><text xml:space="preserve" font-family="Menlo-Regular" font-size="32.0" fill="#FFC66D" transform="matrix(1.00, 0.00, -0.00, -1.00, 241.7, 440.0)">y</text><text xml:space="preserve" font-family="Menlo-Regular" font-size="32.0" fill="#A9B6C6" transform="matrix(1.00, 0.00, -0.00, -1.00, 260.9, 440.0)">(</text><text xml:space="preserve" font-family="Menlo-Regular" font-size="32.0" fill="#A9B6C6" transform="matrix(1.00, 0.00, -0.00, -1.00, 280.2, 440.0)">f</text><text xml:space="preserve" font-family="Menlo-Regular" font-size="32.0" fill="#A9B6C6" transform="matrix(1.00, 0.00, -0.00, -1.00, 299.5, 440.0)">o</text><text xml:space="preserve" font-family="Menlo-Regular" font-size="32.0" fill="#A9B6C6" transform="matrix(1.00, 0.00, -0.00, -1.00, 318.7, 440.0)">o</text><text xml:space="preserve" font-family="Menlo-Regular" font-size="32.0" fill="#A9B6C6" transform="matrix(1.00, 0.00, -0.00, -1.00, 338.0, 440.0)">:</text><text xml:space="preserve" font-family="Menlo-Regular" font-size="32.0" fill="#A9B6C6" transform="matrix(1.00, 0.00, -0.00, -1.00, 357.3, 440.0)"> </text><text xml:space="preserve" font-family="Menlo-Regular" font-size="32.0" fill="#4E807D" transform="matrix(1.00, 0.00, -0.00, -1.00, 376.5, 440.0)">S</text><text xml:space="preserve" font-family="Menlo-Regular" font-size="32.0" fill="#4E807D" transform="matrix(1.00, 0.00, -0.00, -1.00, 395.8, 440.0)">t</text><text xml:space="preserve" font-family="Menlo-Regular" font-size="32.0" fill="#4E807D" transform="matrix(1.00, 0.00, -0.00, -1.00, 415.1, 440.0)">r</text><text xml:space="preserve" font-family="Menlo-Regular" font-size="32.0" fill="#4E807D" transform="matrix(1.00, 0.00, -0.00, -1.00, 434.3, 440.0)">i</text><text xml:space="preserve" font-family="Menlo-Regular" font-size="32.0" fill="#4E807D" transform="matrix(1.00, 0.00, -0.00, -1.00, 453.6, 440.0)">n</text><text xml:space="preserve" font-family="Menlo-Regular" font-size="32.0" fill="#4E807D" transform="matrix(1.00, 0.00, -0.00, -1.00, 472.9, 440.0)">g</text><text xml:space="preserve" font-family="Menlo-Regular" font-size="32.0" fill="#A9B6C6" transform="matrix(1.00, 0.00, -0.00, -1.00, 492.1, 440.0)">)</text><text xml:space="preserve" font-family="Menlo-Regular" font-size="32.0" fill="#A9B6C6" transform="matrix(1.00, 0.00, -0.00, -1.00, 511.4, 440.0)"> </text><text xml:space="preserve" font-family="Menlo-Regular" font-size="32.0" fill="#A9B6C6" transform="matrix(1.00, 0.00, -0.00, -1.00, 530.6, 440.0)">=</text><text xml:space="preserve" font-family="Menlo-Regular" font-size="32.0" fill="#A9B6C6" transform="matrix(1.00, 0.00, -0.00, -1.00, 549.9, 440.0)"> </text><text xml:space="preserve" font-family="Menlo-Bold" font-weight="bold" font-size="32.0" fill="#CC7831" transform="matrix(1.00, 0.00, -0.00, -1.00, 569.2, 440.0)">n</text><text xml:space="preserve" font-family="Menlo-Bold" font-weight="bold" font-size="32.0" fill="#CC7831" transform="matrix(1.00, 0.00, -0.00, -1.00, 588.4, 440.0)">e</text><text xml:space="preserve" font-family="Menlo-Bold" font-weight="bold" font-size="32.0" fill="#CC7831" transform="matrix(1.00, 0.00, -0.00, -1.00, 607.7, 440.0)">w</text><text xml:space="preserve" font-family="Menlo-Bold" font-weight="bold" font-size="32.0" fill="#CC7831" transform="matrix(1.00, 0.00, -0.00, -1.00, 627.0, 440.0)"> </text><text xml:space="preserve" font-family="Menlo-Regular" font-size="32.0" fill="#A9B6C6" transform="matrix(1.00, 0.00, -0.00, -1.00, 646.2, 440.0)">B</text><text xml:space="preserve" font-family="Menlo-Regular" font-size="32.0" fill="#A9B6C6" transform="matrix(1.00, 0.00, -0.00, -1.00, 665.5, 440.0)">a</text><text xml:space="preserve" font-family="Menlo-Regular" font-size="32.0" fill="#A9B6C6" transform="matrix(1.00, 0.00, -0.00, -1.00, 684.8, 440.0)">r</text><text xml:space="preserve" font-family="Menlo-Regular" font-size="32.0" fill="#A9B6C6" transform="matrix(1.00, 0.00, -0.00, -1.00, 704.0, 440.0)">(</text><text xml:space="preserve" font-family="Menlo-Regular" font-size="32.0" fill="#A9B6C6" transform="matrix(1.00, 0.00, -0.00, -1.00, 723.3, 440.0)">f</text><text xml:space="preserve" font-family="Menlo-Regular" font-size="32.0" fill="#A9B6C6" transform="matrix(1.00, 0.00, -0.00, -1.00, 742.6, 440.0)">o</text><text xml:space="preserve" font-family="Menlo-Regular" font-size="32.0" fill="#A9B6C6" transform="matrix(1.00, 0.00, -0.00, -1.00, 761.8, 440.0)">o</text><text xml:space="preserve" font-family="Menlo-Regular" font-size="32.0" fill="#A9B6C6" transform="matrix(1.00, 0.00, -0.00, -1.00, 781.1, 440.0)">)</text><text xml:space="preserve" font-family="Monaco" font-size="32.0" fill="#A9B6C6" transform="matrix(1.00, 0.00, -0.00, -1.00, 800.4, 440.0)"> </text><text xml:space="preserve" font-family="Menlo-Regular" font-size="32.0" fill="#A9B6C6" transform="matrix(1.00, 0.00, -0.00, -1.00, 49.0, 402.0)">}</text><text xml:space="preserve" font-family="Monaco" font-size="32.0" fill="#A9B6C6" transform="matrix(1.00, 0.00, -0.00, -1.00, 68.3, 402.0)"> </text><text xml:space="preserve" font-family="Monaco" font-size="32.0" fill="#A9B6C6" transform="matrix(1.00, 0.00, -0.00, -1.00, 49.0, 364.0)"> </text><text xml:space="preserve" font-family="Monaco" font-size="32.0" fill="#A9B6C6" transform="matrix(1.00, 0.00, -0.00, -1.00, 49.0, 326.0)"> </text><text xml:space="preserve" font-family="Menlo-Italic" font-style="italic" font-size="32.0" fill="#A9B6C6" transform="matrix(1.00, 0.00, -0.00, -1.00, 49.0, 288.0)">B</text><text xml:space="preserve" font-family="Menlo-Italic" font-style="italic" font-size="32.0" fill="#A9B6C6" transform="matrix(1.00, 0.00, -0.00, -1.00, 68.3, 288.0)">a</text><text xml:space="preserve" font-family="Menlo-Italic" font-style="italic" font-size="32.0" fill="#A9B6C6" transform="matrix(1.00, 0.00, -0.00, -1.00, 87.5, 288.0)">r</text><text xml:space="preserve" font-family="Menlo-Regular" font-size="32.0" fill="#A9B6C6" transform="matrix(1.00, 0.00, -0.00, -1.00, 106.8, 288.0)">(</text><text xml:space="preserve" font-family="Menlo-Regular" font-size="32.0" fill="#6A8758" transform="matrix(1.00, 0.00, -0.00, -1.00, 126.1, 288.0)">"</text><text xml:space="preserve" font-family="Menlo-Regular" font-size="32.0" fill="#6A8758" transform="matrix(1.00, 0.00, -0.00, -1.00, 145.3, 288.0)">F</text><text xml:space="preserve" font-family="Menlo-Regular" font-size="32.0" fill="#6A8758" transform="matrix(1.00, 0.00, -0.00, -1.00, 164.6, 288.0)">o</text><text xml:space="preserve" font-family="Menlo-Regular" font-size="32.0" fill="#6A8758" transform="matrix(1.00, 0.00, -0.00, -1.00, 183.9, 288.0)">o</text><text xml:space="preserve" font-family="Menlo-Regular" font-size="32.0" fill="#6A8758" transform="matrix(1.00, 0.00, -0.00, -1.00, 203.1, 288.0)">"</text><text xml:space="preserve" font-family="Menlo-Regular" font-size="32.0" fill="#A9B6C6" transform="matrix(1.00, 0.00, -0.00, -1.00, 222.4, 288.0)">)</text><text xml:space="preserve" font-family="Menlo-Regular" font-size="32.0" fill="#A9B6C6" transform="matrix(1.00, 0.00, -0.00, -1.00, 241.7, 288.0)">.</text><text xml:space="preserve" font-family="Menlo-Regular" font-size="32.0" fill="#A9B6C6" transform="matrix(1.00, 0.00, -0.00, -1.00, 260.9, 288.0)">s</text><text xml:space="preserve" font-family="Menlo-Regular" font-size="32.0" fill="#A9B6C6" transform="matrix(1.00, 0.00, -0.00, -1.00, 280.2, 288.0)">h</text><text xml:space="preserve" font-family="Menlo-Regular" font-size="32.0" fill="#A9B6C6" transform="matrix(1.00, 0.00, -0.00, -1.00, 299.5, 288.0)">o</text><text xml:space="preserve" font-family="Menlo-Regular" font-size="32.0" fill="#A9B6C6" transform="matrix(1.00, 0.00, -0.00, -1.00, 318.7, 288.0)">w</text><text xml:space="preserve" font-family="Menlo-Regular" font-size="32.0" fill="#A9B6C6" transform="matrix(1.00, 0.00, -0.00, -1.00, 338.0, 288.0)">(</text><text xml:space="preserve" font-family="Menlo-Regular" font-size="32.0" fill="#A9B6C6" transform="matrix(1.00, 0.00, -0.00, -1.00, 357.3, 288.0)">)</text><text xml:space="preserve" font-family="Menlo-Regular" font-size="32.0" fill="#A9B6C6" transform="matrix(1.00, 0.00, -0.00, -1.00, 376.5, 288.0)"> </text><text xml:space="preserve" font-family="ZapfDingbatsITC" font-size="24.0" fill="#5C5C5C" transform="matrix(1.00, 0.00, -0.00, -1.00, 49.0, 174.2)">➤</text><text xml:space="preserve" font-family="IowanOldStyle-Roman" font-size="32.0" fill="#5C5C5C" transform="matrix(1.00, 0.00, -0.00, -1.00, 86.0, 171.0)">N</text><text xml:space="preserve" font-family="IowanOldStyle-Roman" font-size="32.0" fill="#5C5C5C" transform="matrix(1.00, 0.00, -0.00, -1.00, 111.9, 171.0)">o</text><text xml:space="preserve" font-family="IowanOldStyle-Roman" font-size="32.0" fill="#5C5C5C" transform="matrix(1.00, 0.00, -0.00, -1.00, 129.5, 171.0)">t</text><text xml:space="preserve" font-family="IowanOldStyle-Roman" font-size="32.0" fill="#5C5C5C" transform="matrix(1.00, 0.00, -0.00, -1.00, 141.0, 171.0)">e</text><text xml:space="preserve" font-family="IowanOldStyle-Roman" font-size="32.0" fill="#5C5C5C" transform="matrix(1.00, 0.00, -0.00, -1.00, 156.6, 171.0)"> </text><text xml:space="preserve" font-family="IowanOldStyle-Roman" font-size="32.0" fill="#5C5C5C" transform="matrix(1.00, 0.00, -0.00, -1.00, 165.5, 171.0)">s</text><text xml:space="preserve" font-family="IowanOldStyle-Roman" font-size="32.0" fill="#5C5C5C" transform="matrix(1.00, 0.00, -0.00, -1.00, 179.6, 171.0)">a</text><text xml:space="preserve" font-family="IowanOldStyle-Roman" font-size="32.0" fill="#5C5C5C" transform="matrix(1.00, 0.00, -0.00, -1.00, 195.0, 171.0)">m</text><text xml:space="preserve" font-family="IowanOldStyle-Roman" font-size="32.0" fill="#5C5C5C" transform="matrix(1.00, 0.00, -0.00, -1.00, 223.2, 171.0)">e</text><text xml:space="preserve" font-family="IowanOldStyle-Roman" font-size="32.0" fill="#5C5C5C" transform="matrix(1.00, 0.00, -0.00, -1.00, 238.8, 171.0)"> </text><text xml:space="preserve" font-family="IowanOldStyle-Roman" font-size="32.0" fill="#5C5C5C" transform="matrix(1.00, 0.00, -0.00, -1.00, 247.7, 171.0)">n</text><text xml:space="preserve" font-family="IowanOldStyle-Roman" font-size="32.0" fill="#5C5C5C" transform="matrix(1.00, 0.00, -0.00, -1.00, 266.4, 171.0)">a</text><text xml:space="preserve" font-family="IowanOldStyle-Roman" font-size="32.0" fill="#5C5C5C" transform="matrix(1.00, 0.00, -0.00, -1.00, 281.8, 171.0)">m</text><text xml:space="preserve" font-family="IowanOldStyle-Roman" font-size="32.0" fill="#5C5C5C" transform="matrix(1.00, 0.00, -0.00, -1.00, 309.9, 171.0)">e</text><text xml:space="preserve" font-family="IowanOldStyle-Roman" font-size="32.0" fill="#5C5C5C" transform="matrix(1.00, 0.00, -0.00, -1.00, 325.5, 171.0)"> </text><text xml:space="preserve" font-family="ZapfDingbatsITC" font-size="24.0" fill="#5C5C5C" transform="matrix(1.00, 0.00, -0.00, -1.00, 49.0, 112.2)">➤</text><text xml:space="preserve" font-family="IowanOldStyle-Roman" font-size="32.0" fill="#5C5C5C" transform="matrix(1.00, 0.00, -0.00, -1.00, 86.0, 109.0)">T</text><text xml:space="preserve" font-family="IowanOldStyle-Roman" font-size="32.0" fill="#5C5C5C" transform="matrix(1.00, 0.00, -0.00, -1.00, 102.5, 109.0)">r</text><text xml:space="preserve" font-family="IowanOldStyle-Roman" font-size="32.0" fill="#5C5C5C" transform="matrix(1.00, 0.00, -0.00, -1.00, 115.0, 109.0)">i</text><text xml:space="preserve" font-family="IowanOldStyle-Roman" font-size="32.0" fill="#5C5C5C" transform="matrix(1.00, 0.00, -0.00, -1.00, 124.5, 109.0)">v</text><text xml:space="preserve" font-family="IowanOldStyle-Roman" font-size="32.0" fill="#5C5C5C" transform="matrix(1.00, 0.00, -0.00, -1.00, 140.2, 109.0)">i</text><text xml:space="preserve" font-family="IowanOldStyle-Roman" font-size="32.0" fill="#5C5C5C" transform="matrix(1.00, 0.00, -0.00, -1.00, 149.7, 109.0)">a</text><text xml:space="preserve" font-family="IowanOldStyle-Roman" font-size="32.0" fill="#5C5C5C" transform="matrix(1.00, 0.00, -0.00, -1.00, 165.1, 109.0)">l</text><text xml:space="preserve" font-family="IowanOldStyle-Roman" font-size="32.0" fill="#5C5C5C" transform="matrix(1.00, 0.00, -0.00, -1.00, 174.5, 109.0)"> </text><text xml:space="preserve" font-family="IowanOldStyle-Roman" font-size="32.0" fill="#5C5C5C" transform="matrix(1.00, 0.00, -0.00, -1.00, 183.3, 109.0)">e</text><text xml:space="preserve" font-family="IowanOldStyle-Roman" font-size="32.0" fill="#5C5C5C" transform="matrix(1.00, 0.00, -0.00, -1.00, 198.4, 109.0)">x</text><text xml:space="preserve" font-family="IowanOldStyle-Roman" font-size="32.0" fill="#5C5C5C" transform="matrix(1.00, 0.00, -0.00, -1.00, 215.3, 109.0)">a</text><text xml:space="preserve" font-family="IowanOldStyle-Roman" font-size="32.0" fill="#5C5C5C" transform="matrix(1.00, 0.00, -0.00, -1.00, 230.7, 109.0)">m</text><text xml:space="preserve" font-family="IowanOldStyle-Roman" font-size="32.0" fill="#5C5C5C" transform="matrix(1.00, 0.00, -0.00, -1.00, 258.9, 109.0)">p</text><text xml:space="preserve" font-family="IowanOldStyle-Roman" font-size="32.0" fill="#5C5C5C" transform="matrix(1.00, 0.00, -0.00, -1.00, 276.8, 109.0)">l</text><text xml:space="preserve" font-family="IowanOldStyle-Roman" font-size="32.0" fill="#5C5C5C" transform="matrix(1.00, 0.00, -0.00, -1.00, 286.1, 109.0)">e</text><text xml:space="preserve" font-family="IowanOldStyle-Roman" font-size="32.0" fill="#5C5C5C" transform="matrix(1.00, 0.00, -0.00, -1.00, 301.7, 109.0)"> </text><text xml:space="preserve" font-family="IowanOldStyle-Roman" font-size="32.0" fill="#5C5C5C" transform="matrix(1.00, 0.00, -0.00, -1.00, 310.6, 109.0)">o</text><text xml:space="preserve" font-family="IowanOldStyle-Roman" font-size="32.0" fill="#5C5C5C" transform="matrix(1.00, 0.00, -0.00, -1.00, 328.2, 109.0)">n</text><text xml:space="preserve" font-family="IowanOldStyle-Roman" font-size="32.0" fill="#5C5C5C" transform="matrix(1.00, 0.00, -0.00, -1.00, 346.9, 109.0)">l</text><text xml:space="preserve" font-family="IowanOldStyle-Roman" font-size="32.0" fill="#5C5C5C" transform="matrix(1.00, 0.00, -0.00, -1.00, 356.3, 109.0)">y</text><text xml:space="preserve" font-family="IowanOldStyle-Roman" font-size="32.0" fill="#5C5C5C" transform="matrix(1.00, 0.00, -0.00, -1.00, 371.8, 109.0)"> </text><text xml:space="preserve" font-family="IowanOldStyle-Roman" font-size="32.0" fill="#5C5C5C" transform="matrix(1.00, 0.00, -0.00, -1.00, 380.7, 109.0)">u</text><text xml:space="preserve" font-family="IowanOldStyle-Roman" font-size="32.0" fill="#5C5C5C" transform="matrix(1.00, 0.00, -0.00, -1.00, 399.5, 109.0)">s</text><text xml:space="preserve" font-family="IowanOldStyle-Roman" font-size="32.0" fill="#5C5C5C" transform="matrix(1.00, 0.00, -0.00, -1.00, 413.7, 109.0)">e</text><text xml:space="preserve" font-family="IowanOldStyle-Roman" font-size="32.0" fill="#5C5C5C" transform="matrix(1.00, 0.00, -0.00, -1.00, 429.3, 109.0)">d</text><text xml:space="preserve" font-family="IowanOldStyle-Roman" font-size="32.0" fill="#5C5C5C" transform="matrix(1.00, 0.00, -0.00, -1.00, 447.3, 109.0)"> </text><text xml:space="preserve" font-family="IowanOldStyle-Roman" font-size="32.0" fill="#5C5C5C" transform="matrix(1.00, 0.00, -0.00, -1.00, 456.1, 109.0)">t</text><text xml:space="preserve" font-family="IowanOldStyle-Roman" font-size="32.0" fill="#5C5C5C" transform="matrix(1.00, 0.00, -0.00, -1.00, 467.7, 109.0)">o</text><text xml:space="preserve" font-family="IowanOldStyle-Roman" font-size="32.0" fill="#5C5C5C" transform="matrix(1.00, 0.00, -0.00, -1.00, 485.3, 109.0)"> </text><text xml:space="preserve" font-family="IowanOldStyle-Roman" font-size="32.0" fill="#5C5C5C" transform="matrix(1.00, 0.00, -0.00, -1.00, 494.2, 109.0)">r</text><text xml:space="preserve" font-family="IowanOldStyle-Roman" font-size="32.0" fill="#5C5C5C" transform="matrix(1.00, 0.00, -0.00, -1.00, 506.6, 109.0)">e</text><text xml:space="preserve" font-family="IowanOldStyle-Roman" font-size="32.0" fill="#5C5C5C" transform="matrix(1.00, 0.00, -0.00, -1.00, 522.3, 109.0)">m</text><text xml:space="preserve" font-family="IowanOldStyle-Roman" font-size="32.0" fill="#5C5C5C" transform="matrix(1.00, 0.00, -0.00, -1.00, 550.4, 109.0)">o</text><text xml:space="preserve" font-family="IowanOldStyle-Roman" font-size="32.0" fill="#5C5C5C" transform="matrix(1.00, 0.00, -0.00, -1.00, 568.0, 109.0)">v</text><text xml:space="preserve" font-family="IowanOldStyle-Roman" font-size="32.0" fill="#5C5C5C" transform="matrix(1.00, 0.00, -0.00, -1.00, 583.7, 109.0)">e</text><text xml:space="preserve" font-family="IowanOldStyle-Roman" font-size="32.0" fill="#5C5C5C" transform="matrix(1.00, 0.00, -0.00, -1.00, 599.4, 109.0)"> </text><text xml:space="preserve" font-family="IowanOldStyle-Roman" font-size="32.0" fill="#5C5C5C" transform="matrix(1.00, 0.00, -0.00, -1.00, 608.2, 109.0)">n</text><text xml:space="preserve" font-family="IowanOldStyle-Roman" font-size="32.0" fill="#5C5C5C" transform="matrix(1.00, 0.00, -0.00, -1.00, 626.9, 109.0)">e</text><text xml:space="preserve" font-family="IowanOldStyle-Roman" font-size="32.0" fill="#5C5C5C" transform="matrix(1.00, 0.00, -0.00, -1.00, 642.5, 109.0)">e</text><text xml:space="preserve" font-family="IowanOldStyle-Roman" font-size="32.0" fill="#5C5C5C" transform="matrix(1.00, 0.00, -0.00, -1.00, 658.1, 109.0)">d</text><text xml:space="preserve" font-family="IowanOldStyle-Roman" font-size="32.0" fill="#5C5C5C" transform="matrix(1.00, 0.00, -0.00, -1.00, 676.1, 109.0)"> </text><text xml:space="preserve" font-family="IowanOldStyle-Roman" font-size="32.0" fill="#5C5C5C" transform="matrix(1.00, 0.00, -0.00, -1.00, 685.0, 109.0)">f</text><text xml:space="preserve" font-family="IowanOldStyle-Roman" font-size="32.0" fill="#5C5C5C" transform="matrix(1.00, 0.00, -0.00, -1.00, 695.2, 109.0)">o</text><text xml:space="preserve" font-family="IowanOldStyle-Roman" font-size="32.0" fill="#5C5C5C" transform="matrix(1.00, 0.00, -0.00, -1.00, 712.8, 109.0)">r</text><text xml:space="preserve" font-family="IowanOldStyle-Roman" font-size="32.0" fill="#5C5C5C" transform="matrix(1.00, 0.00, -0.00, -1.00, 725.3, 109.0)"> </text><text xml:space="preserve" font-family="IowanOldStyle-Roman" font-size="32.0" fill="#5C5C5C" transform="matrix(1.00, 0.00, -0.00, -1.00, 734.2, 109.0)">`</text><text xml:space="preserve" font-family="IowanOldStyle-Roman" font-size="32.0" fill="#5C5C5C" transform="matrix(1.00, 0.00, -0.00, -1.00, 750.2, 109.0)">n</text><text xml:space="preserve" font-family="IowanOldStyle-Roman" font-size="32.0" fill="#5C5C5C" transform="matrix(1.00, 0.00, -0.00, -1.00, 768.9, 109.0)">e</text><text xml:space="preserve" font-family="IowanOldStyle-Roman" font-size="32.0" fill="#5C5C5C" transform="matrix(1.00, 0.00, -0.00, -1.00, 784.5, 109.0)">w</text><text xml:space="preserve" font-family="IowanOldStyle-Roman" font-size="32.0" fill="#5C5C5C" transform="matrix(1.00, 0.00, -0.00, -1.00, 809.3, 109.0)">`</text></g></svg>