<?xml version="1.0" encoding="UTF-8" standalone="no"?><svg xmlns="http://www.w3.org/2000/svg" xmlns:xlink="http://www.w3.org/1999/xlink" clip-rule="evenodd" stroke-miterlimit="4.00" viewBox="0 0 1024 768"><desc>SVG generated by Keynote</desc><defs></defs><g transform="matrix(1.00, 0.00, -0.00, -1.00, 0.0, 768.0)"><path d="M 0.0 768.0 L 1024.0 768.0 L 1024.0 0.0 L 0.0 0.0 Z M 0.0 768.0 " fill="#FFFFFF"></path><path d="M 0.0 0.0 L 934.0 0.0 " fill="none" stroke="#747676" stroke-width="3.00" stroke-linecap="round" stroke-linejoin="round" stroke-dasharray="0.0, 9.0" transform="matrix(1.00, 0.00, 0.00, -1.00, 45.0, 644.0)"></path><text xml:space="preserve" font-family="DINCondensed-Bold" font-weight="bold" font-size="48.4" fill="#747676" transform="matrix(1.00, 0.00, -0.00, -1.00, 49.0, 673.0)">I</text><text xml:space="preserve" font-family="DINCondensed-Bold" font-weight="bold" font-size="48.4" fill="#747676" transform="matrix(1.00, 0.00, -0.00, -1.00, 58.9, 673.0)">N</text><text xml:space="preserve" font-family="DINCondensed-Bold" font-weight="bold" font-size="48.4" fill="#747676" transform="matrix(1.00, 0.00, -0.00, -1.00, 80.3, 673.0)">T</text><text xml:space="preserve" font-family="DINCondensed-Bold" font-weight="bold" font-size="48.4" fill="#747676" transform="matrix(1.00, 0.00, -0.00, -1.00, 96.4, 673.0)">E</text><text xml:space="preserve" font-family="DINCondensed-Bold" font-weight="bold" font-size="48.4" fill="#747676" transform="matrix(1.00, 0.00, -0.00, -1.00, 114.3, 673.0)">L</text><text xml:space="preserve" font-family="DINCondensed-Bold" font-weight="bold" font-size="48.4" fill="#747676" transform="matrix(1.00, 0.00, -0.00, -1.00, 132.2, 673.0)">L</text><text xml:space="preserve" font-family="DINCondensed-Bold" font-weight="bold" font-size="48.4" fill="#747676" transform="matrix(1.00, 0.00, -0.00, -1.00, 150.1, 673.0)">I</text><text xml:space="preserve" font-family="DINCondensed-Bold" font-weight="bold" font-size="48.4" fill="#747676" transform="matrix(1.00, 0.00, -0.00, -1.00, 159.9, 673.0)">J</text><text xml:space="preserve" font-family="DINCondensed-Bold" font-weight="bold" font-size="48.4" fill="#747676" transform="matrix(1.00, 0.00, -0.00, -1.00, 176.0, 673.0)"> </text><text xml:space="preserve" font-family="DINCondensed-Bold" font-weight="bold" font-size="48.4" fill="#747676" transform="matrix(1.00, 0.00, -0.00, -1.00, 185.0, 673.0)">I</text><text xml:space="preserve" font-family="DINCondensed-Bold" font-weight="bold" font-size="48.4" fill="#747676" transform="matrix(1.00, 0.00, -0.00, -1.00, 194.9, 673.0)">N</text><text xml:space="preserve" font-family="DINCondensed-Bold" font-weight="bold" font-size="48.4" fill="#747676" transform="matrix(1.00, 0.00, -0.00, -1.00, 216.4, 673.0)">S</text><text xml:space="preserve" font-family="DINCondensed-Bold" font-weight="bold" font-size="48.4" fill="#747676" transform="matrix(1.00, 0.00, -0.00, -1.00, 236.0, 673.0)">T</text><text xml:space="preserve" font-family="DINCondensed-Bold" font-weight="bold" font-size="48.4" fill="#747676" transform="matrix(1.00, 0.00, -0.00, -1.00, 249.4, 673.0)">A</text><text xml:space="preserve" font-family="DINCondensed-Bold" font-weight="bold" font-size="48.4" fill="#747676" transform="matrix(1.00, 0.00, -0.00, -1.00, 269.1, 673.0)">L</text><text xml:space="preserve" font-family="DINCondensed-Bold" font-weight="bold" font-size="48.4" fill="#747676" transform="matrix(1.00, 0.00, -0.00, -1.00, 287.0, 673.0)">L</text><text xml:space="preserve" font-family="DINCondensed-Bold" font-weight="bold" font-size="48.4" fill="#747676" transform="matrix(1.00, 0.00, -0.00, -1.00, 304.9, 673.0)">E</text><text xml:space="preserve" font-family="DINCondensed-Bold" font-weight="bold" font-size="48.4" fill="#747676" transform="matrix(1.00, 0.00, -0.00, -1.00, 322.8, 673.0)">D</text><text xml:space="preserve" font-family="DINCondensed-Bold" font-weight="bold" font-size="48.4" fill="#747676" transform="matrix(1.00, 0.00, -0.00, -1.00, 343.4, 673.0)">?</text><text xml:space="preserve" font-family="ZapfDingbatsITC" font-size="63.8" fill="#5C5C5C" transform="matrix(1.00, 0.00, -0.00, -1.00, 49.0, 543.8)">➤</text><text xml:space="preserve" font-family="IowanOldStyle-Roman" font-size="85.0" fill="#5C5C5C" transform="matrix(1.00, 0.00, -0.00, -1.00, 107.0, 534.0)">I</text><text xml:space="preserve" font-family="IowanOldStyle-Roman" font-size="85.0" fill="#5C5C5C" transform="matrix(1.00, 0.00, -0.00, -1.00, 135.9, 534.0)">f</text><text xml:space="preserve" font-family="IowanOldStyle-Roman" font-size="85.0" fill="#5C5C5C" transform="matrix(1.00, 0.00, -0.00, -1.00, 163.0, 534.0)"> </text><text xml:space="preserve" font-family="IowanOldStyle-Roman" font-size="85.0" fill="#5C5C5C" transform="matrix(1.00, 0.00, -0.00, -1.00, 186.6, 534.0)">y</text><text xml:space="preserve" font-family="IowanOldStyle-Roman" font-size="85.0" fill="#5C5C5C" transform="matrix(1.00, 0.00, -0.00, -1.00, 227.9, 534.0)">e</text><text xml:space="preserve" font-family="IowanOldStyle-Roman" font-size="85.0" fill="#5C5C5C" transform="matrix(1.00, 0.00, -0.00, -1.00, 269.4, 534.0)">s</text><text xml:space="preserve" font-family="IowanOldStyle-Roman" font-size="85.0" fill="#5C5C5C" transform="matrix(1.00, 0.00, -0.00, -1.00, 307.0, 534.0)">,</text><text xml:space="preserve" font-family="IowanOldStyle-Roman" font-size="85.0" fill="#5C5C5C" transform="matrix(1.00, 0.00, -0.00, -1.00, 330.6, 534.0)"> </text><text xml:space="preserve" font-family="IowanOldStyle-Roman" font-size="85.0" fill="#5C5C5C" transform="matrix(1.00, 0.00, -0.00, -1.00, 354.2, 534.0)">:</text><text xml:space="preserve" font-family="IowanOldStyle-Roman" font-size="85.0" fill="#5C5C5C" transform="matrix(1.00, 0.00, -0.00, -1.00, 377.8, 534.0)">)</text><text xml:space="preserve" font-family="IowanOldStyle-Roman" font-size="85.0" fill="#5C5C5C" transform="matrix(1.00, 0.00, -0.00, -1.00, 413.4, 534.0)"> </text><text xml:space="preserve" font-family="ZapfDingbatsITC" font-size="63.8" fill="#5C5C5C" transform="matrix(1.00, 0.00, -0.00, -1.00, 49.0, 409.8)">➤</text><text xml:space="preserve" font-family="IowanOldStyle-Roman" font-size="85.0" fill="#5C5C5C" transform="matrix(1.00, 0.00, -0.00, -1.00, 107.0, 400.0)">I</text><text xml:space="preserve" font-family="IowanOldStyle-Roman" font-size="85.0" fill="#5C5C5C" transform="matrix(1.00, 0.00, -0.00, -1.00, 135.9, 400.0)">f</text><text xml:space="preserve" font-family="IowanOldStyle-Roman" font-size="85.0" fill="#5C5C5C" transform="matrix(1.00, 0.00, -0.00, -1.00, 163.0, 400.0)"> </text><text xml:space="preserve" font-family="IowanOldStyle-Roman" font-size="85.0" fill="#5C5C5C" transform="matrix(1.00, 0.00, -0.00, -1.00, 186.6, 400.0)">n</text><text xml:space="preserve" font-family="IowanOldStyle-Roman" font-size="85.0" fill="#5C5C5C" transform="matrix(1.00, 0.00, -0.00, -1.00, 236.3, 400.0)">o</text><text xml:space="preserve" font-family="IowanOldStyle-Roman" font-size="85.0" fill="#5C5C5C" transform="matrix(1.00, 0.00, -0.00, -1.00, 283.1, 400.0)">…</text><text xml:space="preserve" font-family="IowanOldStyle-Roman" font-size="85.0" fill="#5C5C5C" transform="matrix(1.00, 0.00, -0.00, -1.00, 368.1, 400.0)">.</text></g></svg>