<?xml version="1.0" encoding="UTF-8" standalone="no"?><svg xmlns="http://www.w3.org/2000/svg" xmlns:xlink="http://www.w3.org/1999/xlink" clip-rule="evenodd" stroke-miterlimit="4.00" viewBox="0 0 1024 768"><desc>SVG generated by Keynote</desc><defs></defs><g transform="matrix(1.00, 0.00, -0.00, -1.00, 0.0, 768.0)"><path d="M 0.0 768.0 L 1024.0 768.0 L 1024.0 0.0 L 0.0 0.0 Z M 0.0 768.0 " fill="#FFFFFF"></path><g><clipPath id="clip-86"><path d="M 593.0 768.0 L 1024.0 768.0 L 1024.0 0.0 L 593.0 0.0 Z M 593.0 768.0 "></path></clipPath><g clip-path="url(#clip-86)"><image xlink:href="C9C45D50B2E7D68C0E9AAA86DD9F4E44.jpeg" width="769.00" height="769.00" transform="matrix(1.00, 0.00, -0.00, -1.00, 330.0, 769.0)"></image></g></g><path d="M 0.0 0.0 L 508.0 0.0 " fill="none" stroke="#747676" stroke-width="3.00" stroke-linecap="round" stroke-linejoin="round" stroke-dasharray="0.0, 9.0" transform="matrix(1.00, 0.00, 0.00, -1.00, 45.0, 168.0)"></path><text xml:space="preserve" font-family="DINCondensed-Bold" font-weight="bold" font-size="111.0" fill="#5C5C5C" transform="matrix(1.00, 0.00, -0.00, -1.00, 49.8, 412.2)">I</text><text xml:space="preserve" font-family="DINCondensed-Bold" font-weight="bold" font-size="111.0" fill="#5C5C5C" transform="matrix(1.00, 0.00, -0.00, -1.00, 72.5, 412.2)">N</text><text xml:space="preserve" font-family="DINCondensed-Bold" font-weight="bold" font-size="111.0" fill="#5C5C5C" transform="matrix(1.00, 0.00, -0.00, -1.00, 121.8, 412.2)">T</text><text xml:space="preserve" font-family="DINCondensed-Bold" font-weight="bold" font-size="111.0" fill="#5C5C5C" transform="matrix(1.00, 0.00, -0.00, -1.00, 158.6, 412.2)">R</text><text xml:space="preserve" font-family="DINCondensed-Bold" font-weight="bold" font-size="111.0" fill="#5C5C5C" transform="matrix(1.00, 0.00, -0.00, -1.00, 205.9, 412.2)">O</text><text xml:space="preserve" font-family="DINCondensed-Bold" font-weight="bold" font-size="111.0" fill="#5C5C5C" transform="matrix(1.00, 0.00, -0.00, -1.00, 253.2, 412.2)">D</text><text xml:space="preserve" font-family="DINCondensed-Bold" font-weight="bold" font-size="111.0" fill="#5C5C5C" transform="matrix(1.00, 0.00, -0.00, -1.00, 300.5, 412.2)">U</text><text xml:space="preserve" font-family="DINCondensed-Bold" font-weight="bold" font-size="111.0" fill="#5C5C5C" transform="matrix(1.00, 0.00, -0.00, -1.00, 347.8, 412.2)">C</text><text xml:space="preserve" font-family="DINCondensed-Bold" font-weight="bold" font-size="111.0" fill="#5C5C5C" transform="matrix(1.00, 0.00, -0.00, -1.00, 392.9, 412.2)">T</text><text xml:space="preserve" font-family="DINCondensed-Bold" font-weight="bold" font-size="111.0" fill="#5C5C5C" transform="matrix(1.00, 0.00, -0.00, -1.00, 429.8, 412.2)">I</text><text xml:space="preserve" font-family="DINCondensed-Bold" font-weight="bold" font-size="111.0" fill="#5C5C5C" transform="matrix(1.00, 0.00, -0.00, -1.00, 452.4, 412.2)">O</text><text xml:space="preserve" font-family="DINCondensed-Bold" font-weight="bold" font-size="111.0" fill="#5C5C5C" transform="matrix(1.00, 0.00, -0.00, -1.00, 499.7, 412.2)">N</text><text xml:space="preserve" font-family="DINCondensed-Bold" font-weight="bold" font-size="111.0" fill="#5C5C5C" transform="matrix(1.00, 0.00, -0.00, -1.00, 549.0, 412.2)"> </text><text xml:space="preserve" font-family="DINCondensed-Bold" font-weight="bold" font-size="111.0" fill="#5C5C5C" transform="matrix(1.00, 0.00, -0.00, -1.00, 466.2, 301.3)">T</text><text xml:space="preserve" font-family="DINCondensed-Bold" font-weight="bold" font-size="111.0" fill="#5C5C5C" transform="matrix(1.00, 0.00, -0.00, -1.00, 501.7, 301.3)">O</text><text xml:space="preserve" font-family="DINCondensed-Bold" font-weight="bold" font-size="111.0" fill="#5C5C5C" transform="matrix(1.00, 0.00, -0.00, -1.00, 549.0, 301.3)"> </text><text xml:space="preserve" font-family="DINCondensed-Bold" font-weight="bold" font-size="111.0" fill="#5C5C5C" transform="matrix(1.00, 0.00, -0.00, -1.00, 327.3, 190.5)">S</text><text xml:space="preserve" font-family="DINCondensed-Bold" font-weight="bold" font-size="111.0" fill="#5C5C5C" transform="matrix(1.00, 0.00, -0.00, -1.00, 372.4, 190.5)">C</text><text xml:space="preserve" font-family="DINCondensed-Bold" font-weight="bold" font-size="111.0" fill="#5C5C5C" transform="matrix(1.00, 0.00, -0.00, -1.00, 417.6, 190.5)">A</text><text xml:space="preserve" font-family="DINCondensed-Bold" font-weight="bold" font-size="111.0" fill="#5C5C5C" transform="matrix(1.00, 0.00, -0.00, -1.00, 462.8, 190.5)">L</text><text xml:space="preserve" font-family="DINCondensed-Bold" font-weight="bold" font-size="111.0" fill="#5C5C5C" transform="matrix(1.00, 0.00, -0.00, -1.00, 503.8, 190.5)">A</text><text xml:space="preserve" font-family="DINCondensed-Bold" font-weight="bold" font-size="111.0" fill="#5C5C5C" transform="matrix(1.00, 0.00, -0.00, -1.00, 549.0, 190.5)"> </text><text xml:space="preserve" font-family="IowanOldStyle-Italic" font-style="italic" font-size="48.0" fill="#737575" transform="matrix(1.00, 0.00, -0.00, -1.00, 382.3, 109.8)">W</text><text xml:space="preserve" font-family="IowanOldStyle-Italic" font-style="italic" font-size="48.0" fill="#737575" transform="matrix(1.00, 0.00, -0.00, -1.00, 425.3, 109.8)">e</text><text xml:space="preserve" font-family="IowanOldStyle-Italic" font-style="italic" font-size="48.0" fill="#737575" transform="matrix(1.00, 0.00, -0.00, -1.00, 443.5, 109.8)">l</text><text xml:space="preserve" font-family="IowanOldStyle-Italic" font-style="italic" font-size="48.0" fill="#737575" transform="matrix(1.00, 0.00, -0.00, -1.00, 456.5, 109.8)">c</text><text xml:space="preserve" font-family="IowanOldStyle-Italic" font-style="italic" font-size="48.0" fill="#737575" transform="matrix(1.00, 0.00, -0.00, -1.00, 473.8, 109.8)">o</text><text xml:space="preserve" font-family="IowanOldStyle-Italic" font-style="italic" font-size="48.0" fill="#737575" transform="matrix(1.00, 0.00, -0.00, -1.00, 495.6, 109.8)">m</text><text xml:space="preserve" font-family="IowanOldStyle-Italic" font-style="italic" font-size="48.0" fill="#737575" transform="matrix(1.00, 0.00, -0.00, -1.00, 530.7, 109.8)">e</text></g></svg>