<?xml version="1.0" encoding="UTF-8" standalone="no"?><svg xmlns="http://www.w3.org/2000/svg" xmlns:xlink="http://www.w3.org/1999/xlink" clip-rule="evenodd" stroke-miterlimit="4.00" viewBox="0 0 1024 768"><desc>SVG generated by Keynote</desc><defs></defs><g transform="matrix(1.00, 0.00, -0.00, -1.00, 0.0, 768.0)"><path d="M 0.0 768.0 L 1024.0 768.0 L 1024.0 0.0 L 0.0 0.0 Z M 0.0 768.0 " fill="#FFFFFF"></path><g><clipPath id="clip-133"><path d="M 593.0 768.0 L 1024.0 768.0 L 1024.0 0.0 L 593.0 0.0 Z M 593.0 768.0 "></path></clipPath><g clip-path="url(#clip-133)"><image xlink:href="C9C45D50B2E7D68C0E9AAA86DD9F4E44.jpeg" width="769.00" height="769.00" transform="matrix(1.00, 0.00, -0.00, -1.00, 330.0, 769.0)"></image></g></g><path d="M 0.0 0.0 L 508.0 0.0 " fill="none" stroke="#747676" stroke-width="3.00" stroke-linecap="round" stroke-linejoin="round" stroke-dasharray="0.0, 9.0" transform="matrix(1.00, 0.00, 0.00, -1.00, 45.0, 168.0)"></path><text xml:space="preserve" font-family="DINCondensed-Bold" font-weight="bold" font-size="121.0" fill="#5C5C5C" transform="matrix(1.00, 0.00, -0.00, -1.00, 307.4, 315.0)">S</text><text xml:space="preserve" font-family="DINCondensed-Bold" font-weight="bold" font-size="121.0" fill="#5C5C5C" transform="matrix(1.00, 0.00, -0.00, -1.00, 356.5, 315.0)">C</text><text xml:space="preserve" font-family="DINCondensed-Bold" font-weight="bold" font-size="121.0" fill="#5C5C5C" transform="matrix(1.00, 0.00, -0.00, -1.00, 405.7, 315.0)">A</text><text xml:space="preserve" font-family="DINCondensed-Bold" font-weight="bold" font-size="121.0" fill="#5C5C5C" transform="matrix(1.00, 0.00, -0.00, -1.00, 455.0, 315.0)">L</text><text xml:space="preserve" font-family="DINCondensed-Bold" font-weight="bold" font-size="121.0" fill="#5C5C5C" transform="matrix(1.00, 0.00, -0.00, -1.00, 499.8, 315.0)">A</text><text xml:space="preserve" font-family="DINCondensed-Bold" font-weight="bold" font-size="121.0" fill="#5C5C5C" transform="matrix(1.00, 0.00, -0.00, -1.00, 549.0, 315.0)"> </text><text xml:space="preserve" font-family="DINCondensed-Bold" font-weight="bold" font-size="121.0" fill="#5C5C5C" transform="matrix(1.00, 0.00, -0.00, -1.00, 69.8, 194.2)">C</text><text xml:space="preserve" font-family="DINCondensed-Bold" font-weight="bold" font-size="121.0" fill="#5C5C5C" transform="matrix(1.00, 0.00, -0.00, -1.00, 119.1, 194.2)">O</text><text xml:space="preserve" font-family="DINCondensed-Bold" font-weight="bold" font-size="121.0" fill="#5C5C5C" transform="matrix(1.00, 0.00, -0.00, -1.00, 170.6, 194.2)">N</text><text xml:space="preserve" font-family="DINCondensed-Bold" font-weight="bold" font-size="121.0" fill="#5C5C5C" transform="matrix(1.00, 0.00, -0.00, -1.00, 224.4, 194.2)">C</text><text xml:space="preserve" font-family="DINCondensed-Bold" font-weight="bold" font-size="121.0" fill="#5C5C5C" transform="matrix(1.00, 0.00, -0.00, -1.00, 273.6, 194.2)">L</text><text xml:space="preserve" font-family="DINCondensed-Bold" font-weight="bold" font-size="121.0" fill="#5C5C5C" transform="matrix(1.00, 0.00, -0.00, -1.00, 318.4, 194.2)">U</text><text xml:space="preserve" font-family="DINCondensed-Bold" font-weight="bold" font-size="121.0" fill="#5C5C5C" transform="matrix(1.00, 0.00, -0.00, -1.00, 369.9, 194.2)">S</text><text xml:space="preserve" font-family="DINCondensed-Bold" font-weight="bold" font-size="121.0" fill="#5C5C5C" transform="matrix(1.00, 0.00, -0.00, -1.00, 419.0, 194.2)">I</text><text xml:space="preserve" font-family="DINCondensed-Bold" font-weight="bold" font-size="121.0" fill="#5C5C5C" transform="matrix(1.00, 0.00, -0.00, -1.00, 443.7, 194.2)">O</text><text xml:space="preserve" font-family="DINCondensed-Bold" font-weight="bold" font-size="121.0" fill="#5C5C5C" transform="matrix(1.00, 0.00, -0.00, -1.00, 495.3, 194.2)">N</text><text xml:space="preserve" font-family="IowanOldStyle-Italic" font-style="italic" font-size="40.8" fill="#737575" transform="matrix(1.00, 0.00, -0.00, -1.00, 460.1, 118.4)">Q</text><text xml:space="preserve" font-family="IowanOldStyle-Italic" font-style="italic" font-size="40.8" fill="#737575" transform="matrix(1.00, 0.00, -0.00, -1.00, 489.9, 118.4)">&amp;</text><text xml:space="preserve" font-family="IowanOldStyle-Italic" font-style="italic" font-size="40.8" fill="#737575" transform="matrix(1.00, 0.00, -0.00, -1.00, 520.2, 118.4)">A</text><text xml:space="preserve" font-family="IowanOldStyle-Italic" font-style="italic" font-size="40.8" fill="#737575" transform="matrix(1.00, 0.00, -0.00, -1.00, 549.0, 118.4)"> </text><text xml:space="preserve" font-family="IowanOldStyle-Italic" font-style="italic" font-size="40.8" fill="#737575" transform="matrix(1.00, 0.00, -0.00, -1.00, 156.8, 74.8)">R</text><text xml:space="preserve" font-family="IowanOldStyle-Italic" font-style="italic" font-size="40.8" fill="#737575" transform="matrix(1.00, 0.00, -0.00, -1.00, 184.1, 74.8)">e</text><text xml:space="preserve" font-family="IowanOldStyle-Italic" font-style="italic" font-size="40.8" fill="#737575" transform="matrix(1.00, 0.00, -0.00, -1.00, 199.6, 74.8)">c</text><text xml:space="preserve" font-family="IowanOldStyle-Italic" font-style="italic" font-size="40.8" fill="#737575" transform="matrix(1.00, 0.00, -0.00, -1.00, 214.3, 74.8)">o</text><text xml:space="preserve" font-family="IowanOldStyle-Italic" font-style="italic" font-size="40.8" fill="#737575" transform="matrix(1.00, 0.00, -0.00, -1.00, 232.8, 74.8)">m</text><text xml:space="preserve" font-family="IowanOldStyle-Italic" font-style="italic" font-size="40.8" fill="#737575" transform="matrix(1.00, 0.00, -0.00, -1.00, 262.7, 74.8)">m</text><text xml:space="preserve" font-family="IowanOldStyle-Italic" font-style="italic" font-size="40.8" fill="#737575" transform="matrix(1.00, 0.00, -0.00, -1.00, 292.6, 74.8)">e</text><text xml:space="preserve" font-family="IowanOldStyle-Italic" font-style="italic" font-size="40.8" fill="#737575" transform="matrix(1.00, 0.00, -0.00, -1.00, 308.1, 74.8)">n</text><text xml:space="preserve" font-family="IowanOldStyle-Italic" font-style="italic" font-size="40.8" fill="#737575" transform="matrix(1.00, 0.00, -0.00, -1.00, 328.7, 74.8)">d</text><text xml:space="preserve" font-family="IowanOldStyle-Italic" font-style="italic" font-size="40.8" fill="#737575" transform="matrix(1.00, 0.00, -0.00, -1.00, 348.6, 74.8)">e</text><text xml:space="preserve" font-family="IowanOldStyle-Italic" font-style="italic" font-size="40.8" fill="#737575" transform="matrix(1.00, 0.00, -0.00, -1.00, 364.1, 74.8)">d</text><text xml:space="preserve" font-family="IowanOldStyle-Italic" font-style="italic" font-size="40.8" fill="#737575" transform="matrix(1.00, 0.00, -0.00, -1.00, 383.9, 74.8)"> </text><text xml:space="preserve" font-family="IowanOldStyle-Italic" font-style="italic" font-size="40.8" fill="#737575" transform="matrix(1.00, 0.00, -0.00, -1.00, 392.9, 74.8)">R</text><text xml:space="preserve" font-family="IowanOldStyle-Italic" font-style="italic" font-size="40.8" fill="#737575" transform="matrix(1.00, 0.00, -0.00, -1.00, 420.2, 74.8)">e</text><text xml:space="preserve" font-family="IowanOldStyle-Italic" font-style="italic" font-size="40.8" fill="#737575" transform="matrix(1.00, 0.00, -0.00, -1.00, 435.7, 74.8)">s</text><text xml:space="preserve" font-family="IowanOldStyle-Italic" font-style="italic" font-size="40.8" fill="#737575" transform="matrix(1.00, 0.00, -0.00, -1.00, 450.1, 74.8)">o</text><text xml:space="preserve" font-family="IowanOldStyle-Italic" font-style="italic" font-size="40.8" fill="#737575" transform="matrix(1.00, 0.00, -0.00, -1.00, 468.7, 74.8)">u</text><text xml:space="preserve" font-family="IowanOldStyle-Italic" font-style="italic" font-size="40.8" fill="#737575" transform="matrix(1.00, 0.00, -0.00, -1.00, 489.2, 74.8)">r</text><text xml:space="preserve" font-family="IowanOldStyle-Italic" font-style="italic" font-size="40.8" fill="#737575" transform="matrix(1.00, 0.00, -0.00, -1.00, 504.3, 74.8)">c</text><text xml:space="preserve" font-family="IowanOldStyle-Italic" font-style="italic" font-size="40.8" fill="#737575" transform="matrix(1.00, 0.00, -0.00, -1.00, 519.0, 74.8)">e</text><text xml:space="preserve" font-family="IowanOldStyle-Italic" font-style="italic" font-size="40.8" fill="#737575" transform="matrix(1.00, 0.00, -0.00, -1.00, 534.5, 74.8)">s</text></g></svg>