<?xml version="1.0" encoding="UTF-8" standalone="no"?><svg xmlns="http://www.w3.org/2000/svg" xmlns:xlink="http://www.w3.org/1999/xlink" clip-rule="evenodd" stroke-miterlimit="4.00" viewBox="0 0 1024 768"><desc>SVG generated by Keynote</desc><defs></defs><g transform="matrix(1.00, 0.00, -0.00, -1.00, 0.0, 768.0)"><path d="M 0.0 768.0 L 1024.0 768.0 L 1024.0 0.0 L 0.0 0.0 Z M 0.0 768.0 " fill="#FFFFFF"></path><path d="M 0.0 0.0 L 934.0 0.0 " fill="none" stroke="#747676" stroke-width="3.00" stroke-linecap="round" stroke-linejoin="round" stroke-dasharray="0.0, 9.0" transform="matrix(1.00, 0.00, 0.00, -1.00, 45.0, 644.0)"></path><text xml:space="preserve" font-family="DINCondensed-Bold" font-weight="bold" font-size="48.4" fill="#747676" transform="matrix(1.00, 0.00, -0.00, -1.00, 49.0, 673.0)">C</text><text xml:space="preserve" font-family="DINCondensed-Bold" font-weight="bold" font-size="48.4" fill="#747676" transform="matrix(1.00, 0.00, -0.00, -1.00, 68.7, 673.0)">L</text><text xml:space="preserve" font-family="DINCondensed-Bold" font-weight="bold" font-size="48.4" fill="#747676" transform="matrix(1.00, 0.00, -0.00, -1.00, 86.6, 673.0)">A</text><text xml:space="preserve" font-family="DINCondensed-Bold" font-weight="bold" font-size="48.4" fill="#747676" transform="matrix(1.00, 0.00, -0.00, -1.00, 106.3, 673.0)">S</text><text xml:space="preserve" font-family="DINCondensed-Bold" font-weight="bold" font-size="48.4" fill="#747676" transform="matrix(1.00, 0.00, -0.00, -1.00, 125.9, 673.0)">S</text><text xml:space="preserve" font-family="DINCondensed-Bold" font-weight="bold" font-size="48.4" fill="#747676" transform="matrix(1.00, 0.00, -0.00, -1.00, 145.5, 673.0)">E</text><text xml:space="preserve" font-family="DINCondensed-Bold" font-weight="bold" font-size="48.4" fill="#747676" transform="matrix(1.00, 0.00, -0.00, -1.00, 163.4, 673.0)">S</text><text xml:space="preserve" font-family="DINCondensed-Bold" font-weight="bold" font-size="48.4" fill="#747676" transform="matrix(1.00, 0.00, -0.00, -1.00, 183.1, 673.0)"> </text><text xml:space="preserve" font-family="DINCondensed-Bold" font-weight="bold" font-size="48.4" fill="#747676" transform="matrix(1.00, 0.00, -0.00, -1.00, 192.0, 673.0)">W</text><text xml:space="preserve" font-family="DINCondensed-Bold" font-weight="bold" font-size="48.4" fill="#747676" transform="matrix(1.00, 0.00, -0.00, -1.00, 220.7, 673.0)">I</text><text xml:space="preserve" font-family="DINCondensed-Bold" font-weight="bold" font-size="48.4" fill="#747676" transform="matrix(1.00, 0.00, -0.00, -1.00, 230.6, 673.0)">T</text><text xml:space="preserve" font-family="DINCondensed-Bold" font-weight="bold" font-size="48.4" fill="#747676" transform="matrix(1.00, 0.00, -0.00, -1.00, 246.6, 673.0)">H</text><text xml:space="preserve" font-family="DINCondensed-Bold" font-weight="bold" font-size="48.4" fill="#747676" transform="matrix(1.00, 0.00, -0.00, -1.00, 267.2, 673.0)"> </text><text xml:space="preserve" font-family="DINCondensed-Bold" font-weight="bold" font-size="48.4" fill="#747676" transform="matrix(1.00, 0.00, -0.00, -1.00, 276.2, 673.0)">A</text><text xml:space="preserve" font-family="DINCondensed-Bold" font-weight="bold" font-size="48.4" fill="#747676" transform="matrix(1.00, 0.00, -0.00, -1.00, 295.9, 673.0)"> </text><text xml:space="preserve" font-family="DINCondensed-Bold" font-weight="bold" font-size="48.4" fill="#747676" transform="matrix(1.00, 0.00, -0.00, -1.00, 304.9, 673.0)">C</text><text xml:space="preserve" font-family="DINCondensed-Bold" font-weight="bold" font-size="48.4" fill="#747676" transform="matrix(1.00, 0.00, -0.00, -1.00, 324.6, 673.0)">O</text><text xml:space="preserve" font-family="DINCondensed-Bold" font-weight="bold" font-size="48.4" fill="#747676" transform="matrix(1.00, 0.00, -0.00, -1.00, 345.2, 673.0)">N</text><text xml:space="preserve" font-family="DINCondensed-Bold" font-weight="bold" font-size="48.4" fill="#747676" transform="matrix(1.00, 0.00, -0.00, -1.00, 366.7, 673.0)">S</text><text xml:space="preserve" font-family="DINCondensed-Bold" font-weight="bold" font-size="48.4" fill="#747676" transform="matrix(1.00, 0.00, -0.00, -1.00, 386.3, 673.0)">T</text><text xml:space="preserve" font-family="DINCondensed-Bold" font-weight="bold" font-size="48.4" fill="#747676" transform="matrix(1.00, 0.00, -0.00, -1.00, 402.4, 673.0)">R</text><text xml:space="preserve" font-family="DINCondensed-Bold" font-weight="bold" font-size="48.4" fill="#747676" transform="matrix(1.00, 0.00, -0.00, -1.00, 423.0, 673.0)">U</text><text xml:space="preserve" font-family="DINCondensed-Bold" font-weight="bold" font-size="48.4" fill="#747676" transform="matrix(1.00, 0.00, -0.00, -1.00, 443.6, 673.0)">C</text><text xml:space="preserve" font-family="DINCondensed-Bold" font-weight="bold" font-size="48.4" fill="#747676" transform="matrix(1.00, 0.00, -0.00, -1.00, 463.3, 673.0)">T</text><text xml:space="preserve" font-family="DINCondensed-Bold" font-weight="bold" font-size="48.4" fill="#747676" transform="matrix(1.00, 0.00, -0.00, -1.00, 478.7, 673.0)">O</text><text xml:space="preserve" font-family="DINCondensed-Bold" font-weight="bold" font-size="48.4" fill="#747676" transform="matrix(1.00, 0.00, -0.00, -1.00, 499.3, 673.0)">R</text><path d="M 49.0 622.0 L 143.7 622.0 L 143.7 586.0 L 49.0 586.0 Z M 49.0 622.0 " fill="#344033"></path><path d="M 143.7 622.0 L 673.8 622.0 L 673.8 586.0 L 143.7 586.0 Z M 143.7 622.0 " fill="#2A2A2A"></path><path d="M 49.0 586.0 L 465.6 586.0 L 465.6 550.0 L 49.0 550.0 Z M 49.0 586.0 " fill="#2A2A2A"></path><path d="M 465.6 586.0 L 844.2 586.0 L 844.2 550.0 L 465.6 550.0 Z M 465.6 586.0 " fill="#344033"></path><path d="M 49.0 550.0 L 238.3 550.0 L 238.3 514.0 L 49.0 514.0 Z M 49.0 550.0 " fill="#344033"></path><path d="M 49.0 514.0 L 598.1 514.0 L 598.1 478.0 L 49.0 478.0 Z M 49.0 514.0 " fill="#344033"></path><path d="M 49.0 478.0 L 257.3 478.0 L 257.3 442.0 L 49.0 442.0 Z M 49.0 478.0 " fill="#344033"></path><path d="M 49.0 442.0 L 238.3 442.0 L 238.3 406.0 L 49.0 406.0 Z M 49.0 442.0 " fill="#344033"></path><path d="M 49.0 406.0 L 257.3 406.0 L 257.3 370.0 L 49.0 370.0 Z M 49.0 406.0 " fill="#344033"></path><path d="M 49.0 370.0 L 105.8 370.0 L 105.8 334.0 L 49.0 334.0 Z M 49.0 370.0 " fill="#344033"></path><path d="M 49.0 334.0 L 503.4 334.0 L 503.4 298.0 L 49.0 298.0 Z M 49.0 334.0 " fill="#2A2A2A"></path><path d="M 49.0 298.0 L 768.5 298.0 L 768.5 262.0 L 49.0 262.0 Z M 49.0 298.0 " fill="#2A2A2A"></path><path d="M 49.0 262.0 L 67.9 262.0 L 67.9 226.0 L 49.0 226.0 Z M 49.0 262.0 " fill="#2A2A2A"></path><path d="M 49.0 190.0 L 636.0 190.0 L 636.0 154.0 L 49.0 154.0 Z M 49.0 190.0 " fill="#2A2A2A"></path><path d="M 49.0 154.0 L 257.3 154.0 L 257.3 118.0 L 49.0 118.0 Z M 49.0 154.0 " fill="#2A2A2A"></path><text xml:space="preserve" font-family="Menlo-Bold" font-weight="bold" font-size="31.4" fill="#CC7831" transform="matrix(1.00, 0.00, -0.00, -1.00, 49.0, 593.0)">c</text><text xml:space="preserve" font-family="Menlo-Bold" font-weight="bold" font-size="31.4" fill="#CC7831" transform="matrix(1.00, 0.00, -0.00, -1.00, 67.9, 593.0)">l</text><text xml:space="preserve" font-family="Menlo-Bold" font-weight="bold" font-size="31.4" fill="#CC7831" transform="matrix(1.00, 0.00, -0.00, -1.00, 86.9, 593.0)">a</text><text xml:space="preserve" font-family="Menlo-Bold" font-weight="bold" font-size="31.4" fill="#CC7831" transform="matrix(1.00, 0.00, -0.00, -1.00, 105.8, 593.0)">s</text><text xml:space="preserve" font-family="Menlo-Bold" font-weight="bold" font-size="31.4" fill="#CC7831" transform="matrix(1.00, 0.00, -0.00, -1.00, 124.8, 593.0)">s</text><text xml:space="preserve" font-family="Menlo-Bold" font-weight="bold" font-size="31.4" fill="#CC7831" transform="matrix(1.00, 0.00, -0.00, -1.00, 143.7, 593.0)"> </text><text xml:space="preserve" font-family="Menlo-Regular" font-size="31.4" fill="#A9B6C6" transform="matrix(1.00, 0.00, -0.00, -1.00, 162.6, 593.0)">C</text><text xml:space="preserve" font-family="Menlo-Regular" font-size="31.4" fill="#A9B6C6" transform="matrix(1.00, 0.00, -0.00, -1.00, 181.5, 593.0)">a</text><text xml:space="preserve" font-family="Menlo-Regular" font-size="31.4" fill="#A9B6C6" transform="matrix(1.00, 0.00, -0.00, -1.00, 200.5, 593.0)">l</text><text xml:space="preserve" font-family="Menlo-Regular" font-size="31.4" fill="#A9B6C6" transform="matrix(1.00, 0.00, -0.00, -1.00, 219.4, 593.0)">c</text><text xml:space="preserve" font-family="Menlo-Regular" font-size="31.4" fill="#A9B6C6" transform="matrix(1.00, 0.00, -0.00, -1.00, 238.4, 593.0)">u</text><text xml:space="preserve" font-family="Menlo-Regular" font-size="31.4" fill="#A9B6C6" transform="matrix(1.00, 0.00, -0.00, -1.00, 257.3, 593.0)">l</text><text xml:space="preserve" font-family="Menlo-Regular" font-size="31.4" fill="#A9B6C6" transform="matrix(1.00, 0.00, -0.00, -1.00, 276.2, 593.0)">a</text><text xml:space="preserve" font-family="Menlo-Regular" font-size="31.4" fill="#A9B6C6" transform="matrix(1.00, 0.00, -0.00, -1.00, 295.2, 593.0)">t</text><text xml:space="preserve" font-family="Menlo-Regular" font-size="31.4" fill="#A9B6C6" transform="matrix(1.00, 0.00, -0.00, -1.00, 314.1, 593.0)">o</text><text xml:space="preserve" font-family="Menlo-Regular" font-size="31.4" fill="#A9B6C6" transform="matrix(1.00, 0.00, -0.00, -1.00, 333.0, 593.0)">r</text><text xml:space="preserve" font-family="Menlo-Regular" font-size="31.4" fill="#A9B6C6" transform="matrix(1.00, 0.00, -0.00, -1.00, 352.0, 593.0)">(</text><text xml:space="preserve" font-family="Menlo-Regular" font-size="31.4" fill="#A9B6C6" transform="matrix(1.00, 0.00, -0.00, -1.00, 370.9, 593.0)">b</text><text xml:space="preserve" font-family="Menlo-Regular" font-size="31.4" fill="#A9B6C6" transform="matrix(1.00, 0.00, -0.00, -1.00, 389.9, 593.0)">r</text><text xml:space="preserve" font-family="Menlo-Regular" font-size="31.4" fill="#A9B6C6" transform="matrix(1.00, 0.00, -0.00, -1.00, 408.8, 593.0)">a</text><text xml:space="preserve" font-family="Menlo-Regular" font-size="31.4" fill="#A9B6C6" transform="matrix(1.00, 0.00, -0.00, -1.00, 427.7, 593.0)">n</text><text xml:space="preserve" font-family="Menlo-Regular" font-size="31.4" fill="#A9B6C6" transform="matrix(1.00, 0.00, -0.00, -1.00, 446.7, 593.0)">d</text><text xml:space="preserve" font-family="Menlo-Regular" font-size="31.4" fill="#A9B6C6" transform="matrix(1.00, 0.00, -0.00, -1.00, 465.6, 593.0)">:</text><text xml:space="preserve" font-family="Menlo-Regular" font-size="31.4" fill="#A9B6C6" transform="matrix(1.00, 0.00, -0.00, -1.00, 484.5, 593.0)"> </text><text xml:space="preserve" font-family="Menlo-Regular" font-size="31.4" fill="#4E807D" transform="matrix(1.00, 0.00, -0.00, -1.00, 503.4, 593.0)">S</text><text xml:space="preserve" font-family="Menlo-Regular" font-size="31.4" fill="#4E807D" transform="matrix(1.00, 0.00, -0.00, -1.00, 522.4, 593.0)">t</text><text xml:space="preserve" font-family="Menlo-Regular" font-size="31.4" fill="#4E807D" transform="matrix(1.00, 0.00, -0.00, -1.00, 541.3, 593.0)">r</text><text xml:space="preserve" font-family="Menlo-Regular" font-size="31.4" fill="#4E807D" transform="matrix(1.00, 0.00, -0.00, -1.00, 560.2, 593.0)">i</text><text xml:space="preserve" font-family="Menlo-Regular" font-size="31.4" fill="#4E807D" transform="matrix(1.00, 0.00, -0.00, -1.00, 579.2, 593.0)">n</text><text xml:space="preserve" font-family="Menlo-Regular" font-size="31.4" fill="#4E807D" transform="matrix(1.00, 0.00, -0.00, -1.00, 598.1, 593.0)">g</text><text xml:space="preserve" font-family="Menlo-Regular" font-size="31.4" fill="#A9B6C6" transform="matrix(1.00, 0.00, -0.00, -1.00, 617.0, 593.0)">)</text><text xml:space="preserve" font-family="Menlo-Regular" font-size="31.4" fill="#A9B6C6" transform="matrix(1.00, 0.00, -0.00, -1.00, 636.0, 593.0)"> </text><text xml:space="preserve" font-family="Menlo-Regular" font-size="31.4" fill="#A9B6C6" transform="matrix(1.00, 0.00, -0.00, -1.00, 654.9, 593.0)">{</text><text xml:space="preserve" font-family="Monaco" font-size="31.4" fill="#A9B6C6" transform="matrix(1.00, 0.00, -0.00, -1.00, 673.8, 593.0)"> </text><text xml:space="preserve" font-family="Menlo-Regular" font-size="31.4" fill="#A9B6C6" transform="matrix(1.00, 0.00, -0.00, -1.00, 49.0, 557.0)"> </text><text xml:space="preserve" font-family="Menlo-Regular" font-size="31.4" fill="#A9B6C6" transform="matrix(1.00, 0.00, -0.00, -1.00, 67.9, 557.0)"> </text><text xml:space="preserve" font-family="Menlo-Bold" font-weight="bold" font-size="31.4" fill="#CC7831" transform="matrix(1.00, 0.00, -0.00, -1.00, 86.9, 557.0)">v</text><text xml:space="preserve" font-family="Menlo-Bold" font-weight="bold" font-size="31.4" fill="#CC7831" transform="matrix(1.00, 0.00, -0.00, -1.00, 105.8, 557.0)">a</text><text xml:space="preserve" font-family="Menlo-Bold" font-weight="bold" font-size="31.4" fill="#CC7831" transform="matrix(1.00, 0.00, -0.00, -1.00, 124.7, 557.0)">l</text><text xml:space="preserve" font-family="Menlo-Bold" font-weight="bold" font-size="31.4" fill="#CC7831" transform="matrix(1.00, 0.00, -0.00, -1.00, 143.7, 557.0)"> </text><text xml:space="preserve" font-family="Menlo-Italic" font-style="italic" font-size="31.4" fill="#9776AA" transform="matrix(1.00, 0.00, -0.00, -1.00, 162.6, 557.0)">c</text><text xml:space="preserve" font-family="Menlo-Italic" font-style="italic" font-size="31.4" fill="#9776AA" transform="matrix(1.00, 0.00, -0.00, -1.00, 181.5, 557.0)">o</text><text xml:space="preserve" font-family="Menlo-Italic" font-style="italic" font-size="31.4" fill="#9776AA" transform="matrix(1.00, 0.00, -0.00, -1.00, 200.5, 557.0)">l</text><text xml:space="preserve" font-family="Menlo-Italic" font-style="italic" font-size="31.4" fill="#9776AA" transform="matrix(1.00, 0.00, -0.00, -1.00, 219.4, 557.0)">o</text><text xml:space="preserve" font-family="Menlo-Italic" font-style="italic" font-size="31.4" fill="#9776AA" transform="matrix(1.00, 0.00, -0.00, -1.00, 238.4, 557.0)">r</text><text xml:space="preserve" font-family="Menlo-Regular" font-size="31.4" fill="#A9B6C6" transform="matrix(1.00, 0.00, -0.00, -1.00, 257.3, 557.0)">:</text><text xml:space="preserve" font-family="Menlo-Regular" font-size="31.4" fill="#A9B6C6" transform="matrix(1.00, 0.00, -0.00, -1.00, 276.2, 557.0)"> </text><text xml:space="preserve" font-family="Menlo-Regular" font-size="31.4" fill="#4E807D" transform="matrix(1.00, 0.00, -0.00, -1.00, 295.1, 557.0)">S</text><text xml:space="preserve" font-family="Menlo-Regular" font-size="31.4" fill="#4E807D" transform="matrix(1.00, 0.00, -0.00, -1.00, 314.1, 557.0)">t</text><text xml:space="preserve" font-family="Menlo-Regular" font-size="31.4" fill="#4E807D" transform="matrix(1.00, 0.00, -0.00, -1.00, 333.0, 557.0)">r</text><text xml:space="preserve" font-family="Menlo-Regular" font-size="31.4" fill="#4E807D" transform="matrix(1.00, 0.00, -0.00, -1.00, 352.0, 557.0)">i</text><text xml:space="preserve" font-family="Menlo-Regular" font-size="31.4" fill="#4E807D" transform="matrix(1.00, 0.00, -0.00, -1.00, 370.9, 557.0)">n</text><text xml:space="preserve" font-family="Menlo-Regular" font-size="31.4" fill="#4E807D" transform="matrix(1.00, 0.00, -0.00, -1.00, 389.8, 557.0)">g</text><text xml:space="preserve" font-family="Menlo-Regular" font-size="31.4" fill="#4E807D" transform="matrix(1.00, 0.00, -0.00, -1.00, 408.8, 557.0)"> </text><text xml:space="preserve" font-family="Menlo-Regular" font-size="31.4" fill="#A9B6C6" transform="matrix(1.00, 0.00, -0.00, -1.00, 427.7, 557.0)">=</text><text xml:space="preserve" font-family="Menlo-Regular" font-size="31.4" fill="#A9B6C6" transform="matrix(1.00, 0.00, -0.00, -1.00, 446.6, 557.0)"> </text><text xml:space="preserve" font-family="Menlo-Bold" font-weight="bold" font-size="31.4" fill="#CC7831" transform="matrix(1.00, 0.00, -0.00, -1.00, 465.6, 557.0)">i</text><text xml:space="preserve" font-family="Menlo-Bold" font-weight="bold" font-size="31.4" fill="#CC7831" transform="matrix(1.00, 0.00, -0.00, -1.00, 484.5, 557.0)">f</text><text xml:space="preserve" font-family="Menlo-Bold" font-weight="bold" font-size="31.4" fill="#CC7831" transform="matrix(1.00, 0.00, -0.00, -1.00, 503.4, 557.0)"> </text><text xml:space="preserve" font-family="Menlo-Regular" font-size="31.4" fill="#A9B6C6" transform="matrix(1.00, 0.00, -0.00, -1.00, 522.4, 557.0)">(</text><text xml:space="preserve" font-family="Menlo-Regular" font-size="31.4" fill="#A9B6C6" transform="matrix(1.00, 0.00, -0.00, -1.00, 541.3, 557.0)">b</text><text xml:space="preserve" font-family="Menlo-Regular" font-size="31.4" fill="#A9B6C6" transform="matrix(1.00, 0.00, -0.00, -1.00, 560.2, 557.0)">r</text><text xml:space="preserve" font-family="Menlo-Regular" font-size="31.4" fill="#A9B6C6" transform="matrix(1.00, 0.00, -0.00, -1.00, 579.2, 557.0)">a</text><text xml:space="preserve" font-family="Menlo-Regular" font-size="31.4" fill="#A9B6C6" transform="matrix(1.00, 0.00, -0.00, -1.00, 598.1, 557.0)">n</text><text xml:space="preserve" font-family="Menlo-Regular" font-size="31.4" fill="#A9B6C6" transform="matrix(1.00, 0.00, -0.00, -1.00, 617.1, 557.0)">d</text><text xml:space="preserve" font-family="Menlo-Regular" font-size="31.4" fill="#A9B6C6" transform="matrix(1.00, 0.00, -0.00, -1.00, 636.0, 557.0)"> </text><text xml:space="preserve" font-family="Menlo-Regular" font-size="31.4" fill="#A9B6C6" transform="matrix(1.00, 0.00, -0.00, -1.00, 654.9, 557.0)">=</text><text xml:space="preserve" font-family="Menlo-Regular" font-size="31.4" fill="#A9B6C6" transform="matrix(1.00, 0.00, -0.00, -1.00, 673.9, 557.0)">=</text><text xml:space="preserve" font-family="Menlo-Regular" font-size="31.4" fill="#A9B6C6" transform="matrix(1.00, 0.00, -0.00, -1.00, 692.8, 557.0)"> </text><text xml:space="preserve" font-family="Menlo-Regular" font-size="31.4" fill="#6A8758" transform="matrix(1.00, 0.00, -0.00, -1.00, 711.7, 557.0)">"</text><text xml:space="preserve" font-family="Menlo-Regular" font-size="31.4" fill="#6A8758" transform="matrix(1.00, 0.00, -0.00, -1.00, 730.6, 557.0)">T</text><text xml:space="preserve" font-family="Menlo-Regular" font-size="31.4" fill="#6A8758" transform="matrix(1.00, 0.00, -0.00, -1.00, 749.6, 557.0)">I</text><text xml:space="preserve" font-family="Menlo-Regular" font-size="31.4" fill="#6A8758" transform="matrix(1.00, 0.00, -0.00, -1.00, 768.5, 557.0)">"</text><text xml:space="preserve" font-family="Menlo-Regular" font-size="31.4" fill="#A9B6C6" transform="matrix(1.00, 0.00, -0.00, -1.00, 787.4, 557.0)">)</text><text xml:space="preserve" font-family="Menlo-Regular" font-size="31.4" fill="#A9B6C6" transform="matrix(1.00, 0.00, -0.00, -1.00, 806.4, 557.0)"> </text><text xml:space="preserve" font-family="Menlo-Regular" font-size="31.4" fill="#A9B6C6" transform="matrix(1.00, 0.00, -0.00, -1.00, 825.3, 557.0)">{</text><text xml:space="preserve" font-family="Monaco" font-size="31.4" fill="#A9B6C6" transform="matrix(1.00, 0.00, -0.00, -1.00, 844.2, 557.0)"> </text><text xml:space="preserve" font-family="Menlo-Regular" font-size="31.4" fill="#A9B6C6" transform="matrix(1.00, 0.00, -0.00, -1.00, 49.0, 521.0)"> </text><text xml:space="preserve" font-family="Menlo-Regular" font-size="31.4" fill="#A9B6C6" transform="matrix(1.00, 0.00, -0.00, -1.00, 67.9, 521.0)"> </text><text xml:space="preserve" font-family="Menlo-Regular" font-size="31.4" fill="#A9B6C6" transform="matrix(1.00, 0.00, -0.00, -1.00, 86.9, 521.0)"> </text><text xml:space="preserve" font-family="Menlo-Regular" font-size="31.4" fill="#A9B6C6" transform="matrix(1.00, 0.00, -0.00, -1.00, 105.8, 521.0)"> </text><text xml:space="preserve" font-family="Menlo-Regular" font-size="31.4" fill="#6A8758" transform="matrix(1.00, 0.00, -0.00, -1.00, 124.7, 521.0)">"</text><text xml:space="preserve" font-family="Menlo-Regular" font-size="31.4" fill="#6A8758" transform="matrix(1.00, 0.00, -0.00, -1.00, 143.7, 521.0)">b</text><text xml:space="preserve" font-family="Menlo-Regular" font-size="31.4" fill="#6A8758" transform="matrix(1.00, 0.00, -0.00, -1.00, 162.6, 521.0)">l</text><text xml:space="preserve" font-family="Menlo-Regular" font-size="31.4" fill="#6A8758" transform="matrix(1.00, 0.00, -0.00, -1.00, 181.6, 521.0)">u</text><text xml:space="preserve" font-family="Menlo-Regular" font-size="31.4" fill="#6A8758" transform="matrix(1.00, 0.00, -0.00, -1.00, 200.5, 521.0)">e</text><text xml:space="preserve" font-family="Menlo-Regular" font-size="31.4" fill="#6A8758" transform="matrix(1.00, 0.00, -0.00, -1.00, 219.4, 521.0)">"</text><text xml:space="preserve" font-family="Monaco" font-size="31.4" fill="#6A8758" transform="matrix(1.00, 0.00, -0.00, -1.00, 238.3, 521.0)"> </text><text xml:space="preserve" font-family="Menlo-Regular" font-size="31.4" fill="#6A8758" transform="matrix(1.00, 0.00, -0.00, -1.00, 49.0, 485.0)"> </text><text xml:space="preserve" font-family="Menlo-Regular" font-size="31.4" fill="#6A8758" transform="matrix(1.00, 0.00, -0.00, -1.00, 67.9, 485.0)"> </text><text xml:space="preserve" font-family="Menlo-Regular" font-size="31.4" fill="#A9B6C6" transform="matrix(1.00, 0.00, -0.00, -1.00, 86.9, 485.0)">}</text><text xml:space="preserve" font-family="Menlo-Regular" font-size="31.4" fill="#A9B6C6" transform="matrix(1.00, 0.00, -0.00, -1.00, 105.8, 485.0)"> </text><text xml:space="preserve" font-family="Menlo-Bold" font-weight="bold" font-size="31.4" fill="#CC7831" transform="matrix(1.00, 0.00, -0.00, -1.00, 124.7, 485.0)">e</text><text xml:space="preserve" font-family="Menlo-Bold" font-weight="bold" font-size="31.4" fill="#CC7831" transform="matrix(1.00, 0.00, -0.00, -1.00, 143.7, 485.0)">l</text><text xml:space="preserve" font-family="Menlo-Bold" font-weight="bold" font-size="31.4" fill="#CC7831" transform="matrix(1.00, 0.00, -0.00, -1.00, 162.6, 485.0)">s</text><text xml:space="preserve" font-family="Menlo-Bold" font-weight="bold" font-size="31.4" fill="#CC7831" transform="matrix(1.00, 0.00, -0.00, -1.00, 181.6, 485.0)">e</text><text xml:space="preserve" font-family="Menlo-Bold" font-weight="bold" font-size="31.4" fill="#CC7831" transform="matrix(1.00, 0.00, -0.00, -1.00, 200.5, 485.0)"> </text><text xml:space="preserve" font-family="Menlo-Bold" font-weight="bold" font-size="31.4" fill="#CC7831" transform="matrix(1.00, 0.00, -0.00, -1.00, 219.4, 485.0)">i</text><text xml:space="preserve" font-family="Menlo-Bold" font-weight="bold" font-size="31.4" fill="#CC7831" transform="matrix(1.00, 0.00, -0.00, -1.00, 238.4, 485.0)">f</text><text xml:space="preserve" font-family="Menlo-Bold" font-weight="bold" font-size="31.4" fill="#CC7831" transform="matrix(1.00, 0.00, -0.00, -1.00, 257.3, 485.0)"> </text><text xml:space="preserve" font-family="Menlo-Regular" font-size="31.4" fill="#A9B6C6" transform="matrix(1.00, 0.00, -0.00, -1.00, 276.2, 485.0)">(</text><text xml:space="preserve" font-family="Menlo-Regular" font-size="31.4" fill="#A9B6C6" transform="matrix(1.00, 0.00, -0.00, -1.00, 295.2, 485.0)">b</text><text xml:space="preserve" font-family="Menlo-Regular" font-size="31.4" fill="#A9B6C6" transform="matrix(1.00, 0.00, -0.00, -1.00, 314.1, 485.0)">r</text><text xml:space="preserve" font-family="Menlo-Regular" font-size="31.4" fill="#A9B6C6" transform="matrix(1.00, 0.00, -0.00, -1.00, 333.0, 485.0)">a</text><text xml:space="preserve" font-family="Menlo-Regular" font-size="31.4" fill="#A9B6C6" transform="matrix(1.00, 0.00, -0.00, -1.00, 352.0, 485.0)">n</text><text xml:space="preserve" font-family="Menlo-Regular" font-size="31.4" fill="#A9B6C6" transform="matrix(1.00, 0.00, -0.00, -1.00, 370.9, 485.0)">d</text><text xml:space="preserve" font-family="Menlo-Regular" font-size="31.4" fill="#A9B6C6" transform="matrix(1.00, 0.00, -0.00, -1.00, 389.8, 485.0)"> </text><text xml:space="preserve" font-family="Menlo-Regular" font-size="31.4" fill="#A9B6C6" transform="matrix(1.00, 0.00, -0.00, -1.00, 408.8, 485.0)">=</text><text xml:space="preserve" font-family="Menlo-Regular" font-size="31.4" fill="#A9B6C6" transform="matrix(1.00, 0.00, -0.00, -1.00, 427.7, 485.0)">=</text><text xml:space="preserve" font-family="Menlo-Regular" font-size="31.4" fill="#A9B6C6" transform="matrix(1.00, 0.00, -0.00, -1.00, 446.7, 485.0)"> </text><text xml:space="preserve" font-family="Menlo-Regular" font-size="31.4" fill="#6A8758" transform="matrix(1.00, 0.00, -0.00, -1.00, 465.6, 485.0)">"</text><text xml:space="preserve" font-family="Menlo-Regular" font-size="31.4" fill="#6A8758" transform="matrix(1.00, 0.00, -0.00, -1.00, 484.5, 485.0)">H</text><text xml:space="preserve" font-family="Menlo-Regular" font-size="31.4" fill="#6A8758" transform="matrix(1.00, 0.00, -0.00, -1.00, 503.4, 485.0)">P</text><text xml:space="preserve" font-family="Menlo-Regular" font-size="31.4" fill="#6A8758" transform="matrix(1.00, 0.00, -0.00, -1.00, 522.4, 485.0)">"</text><text xml:space="preserve" font-family="Menlo-Regular" font-size="31.4" fill="#A9B6C6" transform="matrix(1.00, 0.00, -0.00, -1.00, 541.3, 485.0)">)</text><text xml:space="preserve" font-family="Menlo-Regular" font-size="31.4" fill="#A9B6C6" transform="matrix(1.00, 0.00, -0.00, -1.00, 560.2, 485.0)"> </text><text xml:space="preserve" font-family="Menlo-Regular" font-size="31.4" fill="#A9B6C6" transform="matrix(1.00, 0.00, -0.00, -1.00, 579.2, 485.0)">{</text><text xml:space="preserve" font-family="Monaco" font-size="31.4" fill="#A9B6C6" transform="matrix(1.00, 0.00, -0.00, -1.00, 598.1, 485.0)"> </text><text xml:space="preserve" font-family="Menlo-Regular" font-size="31.4" fill="#A9B6C6" transform="matrix(1.00, 0.00, -0.00, -1.00, 49.0, 449.0)"> </text><text xml:space="preserve" font-family="Menlo-Regular" font-size="31.4" fill="#A9B6C6" transform="matrix(1.00, 0.00, -0.00, -1.00, 67.9, 449.0)"> </text><text xml:space="preserve" font-family="Menlo-Regular" font-size="31.4" fill="#A9B6C6" transform="matrix(1.00, 0.00, -0.00, -1.00, 86.9, 449.0)"> </text><text xml:space="preserve" font-family="Menlo-Regular" font-size="31.4" fill="#A9B6C6" transform="matrix(1.00, 0.00, -0.00, -1.00, 105.8, 449.0)"> </text><text xml:space="preserve" font-family="Menlo-Regular" font-size="31.4" fill="#6A8758" transform="matrix(1.00, 0.00, -0.00, -1.00, 124.7, 449.0)">"</text><text xml:space="preserve" font-family="Menlo-Regular" font-size="31.4" fill="#6A8758" transform="matrix(1.00, 0.00, -0.00, -1.00, 143.7, 449.0)">b</text><text xml:space="preserve" font-family="Menlo-Regular" font-size="31.4" fill="#6A8758" transform="matrix(1.00, 0.00, -0.00, -1.00, 162.6, 449.0)">l</text><text xml:space="preserve" font-family="Menlo-Regular" font-size="31.4" fill="#6A8758" transform="matrix(1.00, 0.00, -0.00, -1.00, 181.6, 449.0)">a</text><text xml:space="preserve" font-family="Menlo-Regular" font-size="31.4" fill="#6A8758" transform="matrix(1.00, 0.00, -0.00, -1.00, 200.5, 449.0)">c</text><text xml:space="preserve" font-family="Menlo-Regular" font-size="31.4" fill="#6A8758" transform="matrix(1.00, 0.00, -0.00, -1.00, 219.4, 449.0)">k</text><text xml:space="preserve" font-family="Menlo-Regular" font-size="31.4" fill="#6A8758" transform="matrix(1.00, 0.00, -0.00, -1.00, 238.4, 449.0)">"</text><text xml:space="preserve" font-family="Monaco" font-size="31.4" fill="#6A8758" transform="matrix(1.00, 0.00, -0.00, -1.00, 257.3, 449.0)"> </text><text xml:space="preserve" font-family="Menlo-Regular" font-size="31.4" fill="#6A8758" transform="matrix(1.00, 0.00, -0.00, -1.00, 49.0, 413.0)"> </text><text xml:space="preserve" font-family="Menlo-Regular" font-size="31.4" fill="#6A8758" transform="matrix(1.00, 0.00, -0.00, -1.00, 67.9, 413.0)"> </text><text xml:space="preserve" font-family="Menlo-Regular" font-size="31.4" fill="#A9B6C6" transform="matrix(1.00, 0.00, -0.00, -1.00, 86.9, 413.0)">}</text><text xml:space="preserve" font-family="Menlo-Regular" font-size="31.4" fill="#A9B6C6" transform="matrix(1.00, 0.00, -0.00, -1.00, 105.8, 413.0)"> </text><text xml:space="preserve" font-family="Menlo-Bold" font-weight="bold" font-size="31.4" fill="#CC7831" transform="matrix(1.00, 0.00, -0.00, -1.00, 124.7, 413.0)">e</text><text xml:space="preserve" font-family="Menlo-Bold" font-weight="bold" font-size="31.4" fill="#CC7831" transform="matrix(1.00, 0.00, -0.00, -1.00, 143.7, 413.0)">l</text><text xml:space="preserve" font-family="Menlo-Bold" font-weight="bold" font-size="31.4" fill="#CC7831" transform="matrix(1.00, 0.00, -0.00, -1.00, 162.6, 413.0)">s</text><text xml:space="preserve" font-family="Menlo-Bold" font-weight="bold" font-size="31.4" fill="#CC7831" transform="matrix(1.00, 0.00, -0.00, -1.00, 181.6, 413.0)">e</text><text xml:space="preserve" font-family="Menlo-Bold" font-weight="bold" font-size="31.4" fill="#CC7831" transform="matrix(1.00, 0.00, -0.00, -1.00, 200.5, 413.0)"> </text><text xml:space="preserve" font-family="Menlo-Regular" font-size="31.4" fill="#A9B6C6" transform="matrix(1.00, 0.00, -0.00, -1.00, 219.4, 413.0)">{</text><text xml:space="preserve" font-family="Monaco" font-size="31.4" fill="#A9B6C6" transform="matrix(1.00, 0.00, -0.00, -1.00, 238.3, 413.0)"> </text><text xml:space="preserve" font-family="Menlo-Regular" font-size="31.4" fill="#A9B6C6" transform="matrix(1.00, 0.00, -0.00, -1.00, 49.0, 377.0)"> </text><text xml:space="preserve" font-family="Menlo-Regular" font-size="31.4" fill="#A9B6C6" transform="matrix(1.00, 0.00, -0.00, -1.00, 67.9, 377.0)"> </text><text xml:space="preserve" font-family="Menlo-Regular" font-size="31.4" fill="#A9B6C6" transform="matrix(1.00, 0.00, -0.00, -1.00, 86.9, 377.0)"> </text><text xml:space="preserve" font-family="Menlo-Regular" font-size="31.4" fill="#A9B6C6" transform="matrix(1.00, 0.00, -0.00, -1.00, 105.8, 377.0)"> </text><text xml:space="preserve" font-family="Menlo-Regular" font-size="31.4" fill="#6A8758" transform="matrix(1.00, 0.00, -0.00, -1.00, 124.7, 377.0)">"</text><text xml:space="preserve" font-family="Menlo-Regular" font-size="31.4" fill="#6A8758" transform="matrix(1.00, 0.00, -0.00, -1.00, 143.7, 377.0)">w</text><text xml:space="preserve" font-family="Menlo-Regular" font-size="31.4" fill="#6A8758" transform="matrix(1.00, 0.00, -0.00, -1.00, 162.6, 377.0)">h</text><text xml:space="preserve" font-family="Menlo-Regular" font-size="31.4" fill="#6A8758" transform="matrix(1.00, 0.00, -0.00, -1.00, 181.6, 377.0)">i</text><text xml:space="preserve" font-family="Menlo-Regular" font-size="31.4" fill="#6A8758" transform="matrix(1.00, 0.00, -0.00, -1.00, 200.5, 377.0)">t</text><text xml:space="preserve" font-family="Menlo-Regular" font-size="31.4" fill="#6A8758" transform="matrix(1.00, 0.00, -0.00, -1.00, 219.4, 377.0)">e</text><text xml:space="preserve" font-family="Menlo-Regular" font-size="31.4" fill="#6A8758" transform="matrix(1.00, 0.00, -0.00, -1.00, 238.4, 377.0)">"</text><text xml:space="preserve" font-family="Monaco" font-size="31.4" fill="#6A8758" transform="matrix(1.00, 0.00, -0.00, -1.00, 257.3, 377.0)"> </text><text xml:space="preserve" font-family="Menlo-Regular" font-size="31.4" fill="#6A8758" transform="matrix(1.00, 0.00, -0.00, -1.00, 49.0, 341.0)"> </text><text xml:space="preserve" font-family="Menlo-Regular" font-size="31.4" fill="#6A8758" transform="matrix(1.00, 0.00, -0.00, -1.00, 67.9, 341.0)"> </text><text xml:space="preserve" font-family="Menlo-Regular" font-size="31.4" fill="#A9B6C6" transform="matrix(1.00, 0.00, -0.00, -1.00, 86.9, 341.0)">}</text><text xml:space="preserve" font-family="Monaco" font-size="31.4" fill="#A9B6C6" transform="matrix(1.00, 0.00, -0.00, -1.00, 105.8, 341.0)"> </text><text xml:space="preserve" font-family="Menlo-Regular" font-size="31.4" fill="#A9B6C6" transform="matrix(1.00, 0.00, -0.00, -1.00, 49.0, 305.0)"> </text><text xml:space="preserve" font-family="Menlo-Regular" font-size="31.4" fill="#A9B6C6" transform="matrix(1.00, 0.00, -0.00, -1.00, 67.9, 305.0)"> </text><text xml:space="preserve" font-family="Menlo-Regular" font-size="31.4" fill="#808080" transform="matrix(1.00, 0.00, -0.00, -1.00, 86.9, 305.0)">/</text><text xml:space="preserve" font-family="Menlo-Regular" font-size="31.4" fill="#808080" transform="matrix(1.00, 0.00, -0.00, -1.00, 105.8, 305.0)">/</text><text xml:space="preserve" font-family="Menlo-Regular" font-size="31.4" fill="#808080" transform="matrix(1.00, 0.00, -0.00, -1.00, 124.7, 305.0)"> </text><text xml:space="preserve" font-family="Menlo-Regular" font-size="31.4" fill="#808080" transform="matrix(1.00, 0.00, -0.00, -1.00, 143.7, 305.0)">A</text><text xml:space="preserve" font-family="Menlo-Regular" font-size="31.4" fill="#808080" transform="matrix(1.00, 0.00, -0.00, -1.00, 162.6, 305.0)">n</text><text xml:space="preserve" font-family="Menlo-Regular" font-size="31.4" fill="#808080" transform="matrix(1.00, 0.00, -0.00, -1.00, 181.6, 305.0)"> </text><text xml:space="preserve" font-family="Menlo-Regular" font-size="31.4" fill="#808080" transform="matrix(1.00, 0.00, -0.00, -1.00, 200.5, 305.0)">i</text><text xml:space="preserve" font-family="Menlo-Regular" font-size="31.4" fill="#808080" transform="matrix(1.00, 0.00, -0.00, -1.00, 219.4, 305.0)">n</text><text xml:space="preserve" font-family="Menlo-Regular" font-size="31.4" fill="#808080" transform="matrix(1.00, 0.00, -0.00, -1.00, 238.4, 305.0)">s</text><text xml:space="preserve" font-family="Menlo-Regular" font-size="31.4" fill="#808080" transform="matrix(1.00, 0.00, -0.00, -1.00, 257.3, 305.0)">t</text><text xml:space="preserve" font-family="Menlo-Regular" font-size="31.4" fill="#808080" transform="matrix(1.00, 0.00, -0.00, -1.00, 276.2, 305.0)">a</text><text xml:space="preserve" font-family="Menlo-Regular" font-size="31.4" fill="#808080" transform="matrix(1.00, 0.00, -0.00, -1.00, 295.2, 305.0)">n</text><text xml:space="preserve" font-family="Menlo-Regular" font-size="31.4" fill="#808080" transform="matrix(1.00, 0.00, -0.00, -1.00, 314.1, 305.0)">c</text><text xml:space="preserve" font-family="Menlo-Regular" font-size="31.4" fill="#808080" transform="matrix(1.00, 0.00, -0.00, -1.00, 333.1, 305.0)">e</text><text xml:space="preserve" font-family="Menlo-Regular" font-size="31.4" fill="#808080" transform="matrix(1.00, 0.00, -0.00, -1.00, 352.0, 305.0)"> </text><text xml:space="preserve" font-family="Menlo-Regular" font-size="31.4" fill="#808080" transform="matrix(1.00, 0.00, -0.00, -1.00, 370.9, 305.0)">m</text><text xml:space="preserve" font-family="Menlo-Regular" font-size="31.4" fill="#808080" transform="matrix(1.00, 0.00, -0.00, -1.00, 389.9, 305.0)">e</text><text xml:space="preserve" font-family="Menlo-Regular" font-size="31.4" fill="#808080" transform="matrix(1.00, 0.00, -0.00, -1.00, 408.8, 305.0)">t</text><text xml:space="preserve" font-family="Menlo-Regular" font-size="31.4" fill="#808080" transform="matrix(1.00, 0.00, -0.00, -1.00, 427.7, 305.0)">h</text><text xml:space="preserve" font-family="Menlo-Regular" font-size="31.4" fill="#808080" transform="matrix(1.00, 0.00, -0.00, -1.00, 446.7, 305.0)">o</text><text xml:space="preserve" font-family="Menlo-Regular" font-size="31.4" fill="#808080" transform="matrix(1.00, 0.00, -0.00, -1.00, 465.6, 305.0)">d</text><text xml:space="preserve" font-family="Menlo-Regular" font-size="31.4" fill="#808080" transform="matrix(1.00, 0.00, -0.00, -1.00, 484.6, 305.0)">.</text><text xml:space="preserve" font-family="Monaco" font-size="31.4" fill="#808080" transform="matrix(1.00, 0.00, -0.00, -1.00, 503.4, 305.0)"> </text><text xml:space="preserve" font-family="Menlo-Regular" font-size="31.4" fill="#808080" transform="matrix(1.00, 0.00, -0.00, -1.00, 49.0, 269.0)"> </text><text xml:space="preserve" font-family="Menlo-Regular" font-size="31.4" fill="#808080" transform="matrix(1.00, 0.00, -0.00, -1.00, 67.9, 269.0)"> </text><text xml:space="preserve" font-family="Menlo-Bold" font-weight="bold" font-size="31.4" fill="#CC7831" transform="matrix(1.00, 0.00, -0.00, -1.00, 86.9, 269.0)">d</text><text xml:space="preserve" font-family="Menlo-Bold" font-weight="bold" font-size="31.4" fill="#CC7831" transform="matrix(1.00, 0.00, -0.00, -1.00, 105.8, 269.0)">e</text><text xml:space="preserve" font-family="Menlo-Bold" font-weight="bold" font-size="31.4" fill="#CC7831" transform="matrix(1.00, 0.00, -0.00, -1.00, 124.7, 269.0)">f</text><text xml:space="preserve" font-family="Menlo-Bold" font-weight="bold" font-size="31.4" fill="#CC7831" transform="matrix(1.00, 0.00, -0.00, -1.00, 143.7, 269.0)"> </text><text xml:space="preserve" font-family="Menlo-Regular" font-size="31.4" fill="#FFC66D" transform="matrix(1.00, 0.00, -0.00, -1.00, 162.6, 269.0)">a</text><text xml:space="preserve" font-family="Menlo-Regular" font-size="31.4" fill="#FFC66D" transform="matrix(1.00, 0.00, -0.00, -1.00, 181.5, 269.0)">d</text><text xml:space="preserve" font-family="Menlo-Regular" font-size="31.4" fill="#FFC66D" transform="matrix(1.00, 0.00, -0.00, -1.00, 200.5, 269.0)">d</text><text xml:space="preserve" font-family="Menlo-Regular" font-size="31.4" fill="#A9B6C6" transform="matrix(1.00, 0.00, -0.00, -1.00, 219.4, 269.0)">(</text><text xml:space="preserve" font-family="Menlo-Regular" font-size="31.4" fill="#A9B6C6" transform="matrix(1.00, 0.00, -0.00, -1.00, 238.3, 269.0)">m</text><text xml:space="preserve" font-family="Menlo-Regular" font-size="31.4" fill="#A9B6C6" transform="matrix(1.00, 0.00, -0.00, -1.00, 257.3, 269.0)">:</text><text xml:space="preserve" font-family="Menlo-Regular" font-size="31.4" fill="#A9B6C6" transform="matrix(1.00, 0.00, -0.00, -1.00, 276.2, 269.0)"> </text><text xml:space="preserve" font-family="Menlo-Regular" font-size="31.4" fill="#CC7831" transform="matrix(1.00, 0.00, -0.00, -1.00, 295.1, 269.0)">I</text><text xml:space="preserve" font-family="Menlo-Regular" font-size="31.4" fill="#CC7831" transform="matrix(1.00, 0.00, -0.00, -1.00, 314.1, 269.0)">n</text><text xml:space="preserve" font-family="Menlo-Regular" font-size="31.4" fill="#CC7831" transform="matrix(1.00, 0.00, -0.00, -1.00, 333.0, 269.0)">t</text><text xml:space="preserve" font-family="Menlo-Regular" font-size="31.4" fill="#CC7831" transform="matrix(1.00, 0.00, -0.00, -1.00, 352.0, 269.0)">,</text><text xml:space="preserve" font-family="Menlo-Regular" font-size="31.4" fill="#CC7831" transform="matrix(1.00, 0.00, -0.00, -1.00, 370.9, 269.0)"> </text><text xml:space="preserve" font-family="Menlo-Regular" font-size="31.4" fill="#A9B6C6" transform="matrix(1.00, 0.00, -0.00, -1.00, 389.8, 269.0)">n</text><text xml:space="preserve" font-family="Menlo-Regular" font-size="31.4" fill="#A9B6C6" transform="matrix(1.00, 0.00, -0.00, -1.00, 408.8, 269.0)">:</text><text xml:space="preserve" font-family="Menlo-Regular" font-size="31.4" fill="#A9B6C6" transform="matrix(1.00, 0.00, -0.00, -1.00, 427.7, 269.0)"> </text><text xml:space="preserve" font-family="Menlo-Regular" font-size="31.4" fill="#CC7831" transform="matrix(1.00, 0.00, -0.00, -1.00, 446.6, 269.0)">I</text><text xml:space="preserve" font-family="Menlo-Regular" font-size="31.4" fill="#CC7831" transform="matrix(1.00, 0.00, -0.00, -1.00, 465.6, 269.0)">n</text><text xml:space="preserve" font-family="Menlo-Regular" font-size="31.4" fill="#CC7831" transform="matrix(1.00, 0.00, -0.00, -1.00, 484.5, 269.0)">t</text><text xml:space="preserve" font-family="Menlo-Regular" font-size="31.4" fill="#A9B6C6" transform="matrix(1.00, 0.00, -0.00, -1.00, 503.4, 269.0)">)</text><text xml:space="preserve" font-family="Menlo-Regular" font-size="31.4" fill="#A9B6C6" transform="matrix(1.00, 0.00, -0.00, -1.00, 522.4, 269.0)">:</text><text xml:space="preserve" font-family="Menlo-Regular" font-size="31.4" fill="#A9B6C6" transform="matrix(1.00, 0.00, -0.00, -1.00, 541.3, 269.0)"> </text><text xml:space="preserve" font-family="Menlo-Regular" font-size="31.4" fill="#CC7831" transform="matrix(1.00, 0.00, -0.00, -1.00, 560.2, 269.0)">I</text><text xml:space="preserve" font-family="Menlo-Regular" font-size="31.4" fill="#CC7831" transform="matrix(1.00, 0.00, -0.00, -1.00, 579.2, 269.0)">n</text><text xml:space="preserve" font-family="Menlo-Regular" font-size="31.4" fill="#CC7831" transform="matrix(1.00, 0.00, -0.00, -1.00, 598.1, 269.0)">t</text><text xml:space="preserve" font-family="Menlo-Regular" font-size="31.4" fill="#CC7831" transform="matrix(1.00, 0.00, -0.00, -1.00, 617.0, 269.0)"> </text><text xml:space="preserve" font-family="Menlo-Regular" font-size="31.4" fill="#A9B6C6" transform="matrix(1.00, 0.00, -0.00, -1.00, 636.0, 269.0)">=</text><text xml:space="preserve" font-family="Menlo-Regular" font-size="31.4" fill="#A9B6C6" transform="matrix(1.00, 0.00, -0.00, -1.00, 654.9, 269.0)"> </text><text xml:space="preserve" font-family="Menlo-Regular" font-size="31.4" fill="#A9B6C6" transform="matrix(1.00, 0.00, -0.00, -1.00, 673.8, 269.0)">m</text><text xml:space="preserve" font-family="Menlo-Regular" font-size="31.4" fill="#A9B6C6" transform="matrix(1.00, 0.00, -0.00, -1.00, 692.8, 269.0)"> </text><text xml:space="preserve" font-family="Menlo-Regular" font-size="31.4" fill="#A9B6C6" transform="matrix(1.00, 0.00, -0.00, -1.00, 711.7, 269.0)">+</text><text xml:space="preserve" font-family="Menlo-Regular" font-size="31.4" fill="#A9B6C6" transform="matrix(1.00, 0.00, -0.00, -1.00, 730.7, 269.0)"> </text><text xml:space="preserve" font-family="Menlo-Regular" font-size="31.4" fill="#A9B6C6" transform="matrix(1.00, 0.00, -0.00, -1.00, 749.6, 269.0)">n</text><text xml:space="preserve" font-family="Monaco" font-size="31.4" fill="#A9B6C6" transform="matrix(1.00, 0.00, -0.00, -1.00, 768.5, 269.0)"> </text><text xml:space="preserve" font-family="Menlo-Regular" font-size="31.4" fill="#A9B6C6" transform="matrix(1.00, 0.00, -0.00, -1.00, 49.0, 233.0)">}</text><text xml:space="preserve" font-family="Monaco" font-size="31.4" fill="#A9B6C6" transform="matrix(1.00, 0.00, -0.00, -1.00, 67.9, 233.0)"> </text><text xml:space="preserve" font-family="Monaco" font-size="31.4" fill="#A9B6C6" transform="matrix(1.00, 0.00, -0.00, -1.00, 49.0, 197.0)"> </text><text xml:space="preserve" font-family="Menlo-Bold" font-weight="bold" font-size="31.4" fill="#CC7831" transform="matrix(1.00, 0.00, -0.00, -1.00, 49.0, 161.0)">v</text><text xml:space="preserve" font-family="Menlo-Bold" font-weight="bold" font-size="31.4" fill="#CC7831" transform="matrix(1.00, 0.00, -0.00, -1.00, 67.9, 161.0)">a</text><text xml:space="preserve" font-family="Menlo-Bold" font-weight="bold" font-size="31.4" fill="#CC7831" transform="matrix(1.00, 0.00, -0.00, -1.00, 86.9, 161.0)">l</text><text xml:space="preserve" font-family="Menlo-Bold" font-weight="bold" font-size="31.4" fill="#CC7831" transform="matrix(1.00, 0.00, -0.00, -1.00, 105.8, 161.0)"> </text><text xml:space="preserve" font-family="Menlo-Regular" font-size="31.4" fill="#A9B6C6" transform="matrix(1.00, 0.00, -0.00, -1.00, 124.7, 161.0)">c</text><text xml:space="preserve" font-family="Menlo-Regular" font-size="31.4" fill="#A9B6C6" transform="matrix(1.00, 0.00, -0.00, -1.00, 143.7, 161.0)">a</text><text xml:space="preserve" font-family="Menlo-Regular" font-size="31.4" fill="#A9B6C6" transform="matrix(1.00, 0.00, -0.00, -1.00, 162.6, 161.0)">l</text><text xml:space="preserve" font-family="Menlo-Regular" font-size="31.4" fill="#A9B6C6" transform="matrix(1.00, 0.00, -0.00, -1.00, 181.6, 161.0)">c</text><text xml:space="preserve" font-family="Menlo-Regular" font-size="31.4" fill="#A9B6C6" transform="matrix(1.00, 0.00, -0.00, -1.00, 200.5, 161.0)"> </text><text xml:space="preserve" font-family="Menlo-Regular" font-size="31.4" fill="#A9B6C6" transform="matrix(1.00, 0.00, -0.00, -1.00, 219.4, 161.0)">=</text><text xml:space="preserve" font-family="Menlo-Regular" font-size="31.4" fill="#A9B6C6" transform="matrix(1.00, 0.00, -0.00, -1.00, 238.4, 161.0)"> </text><text xml:space="preserve" font-family="Menlo-Bold" font-weight="bold" font-size="31.4" fill="#CC7831" transform="matrix(1.00, 0.00, -0.00, -1.00, 257.3, 161.0)">n</text><text xml:space="preserve" font-family="Menlo-Bold" font-weight="bold" font-size="31.4" fill="#CC7831" transform="matrix(1.00, 0.00, -0.00, -1.00, 276.2, 161.0)">e</text><text xml:space="preserve" font-family="Menlo-Bold" font-weight="bold" font-size="31.4" fill="#CC7831" transform="matrix(1.00, 0.00, -0.00, -1.00, 295.2, 161.0)">w</text><text xml:space="preserve" font-family="Menlo-Bold" font-weight="bold" font-size="31.4" fill="#CC7831" transform="matrix(1.00, 0.00, -0.00, -1.00, 314.1, 161.0)"> </text><text xml:space="preserve" font-family="Menlo-Regular" font-size="31.4" fill="#A9B6C6" transform="matrix(1.00, 0.00, -0.00, -1.00, 333.0, 161.0)">C</text><text xml:space="preserve" font-family="Menlo-Regular" font-size="31.4" fill="#A9B6C6" transform="matrix(1.00, 0.00, -0.00, -1.00, 352.0, 161.0)">a</text><text xml:space="preserve" font-family="Menlo-Regular" font-size="31.4" fill="#A9B6C6" transform="matrix(1.00, 0.00, -0.00, -1.00, 370.9, 161.0)">l</text><text xml:space="preserve" font-family="Menlo-Regular" font-size="31.4" fill="#A9B6C6" transform="matrix(1.00, 0.00, -0.00, -1.00, 389.8, 161.0)">c</text><text xml:space="preserve" font-family="Menlo-Regular" font-size="31.4" fill="#A9B6C6" transform="matrix(1.00, 0.00, -0.00, -1.00, 408.8, 161.0)">u</text><text xml:space="preserve" font-family="Menlo-Regular" font-size="31.4" fill="#A9B6C6" transform="matrix(1.00, 0.00, -0.00, -1.00, 427.7, 161.0)">l</text><text xml:space="preserve" font-family="Menlo-Regular" font-size="31.4" fill="#A9B6C6" transform="matrix(1.00, 0.00, -0.00, -1.00, 446.6, 161.0)">a</text><text xml:space="preserve" font-family="Menlo-Regular" font-size="31.4" fill="#A9B6C6" transform="matrix(1.00, 0.00, -0.00, -1.00, 465.6, 161.0)">t</text><text xml:space="preserve" font-family="Menlo-Regular" font-size="31.4" fill="#A9B6C6" transform="matrix(1.00, 0.00, -0.00, -1.00, 484.5, 161.0)">o</text><text xml:space="preserve" font-family="Menlo-Regular" font-size="31.4" fill="#A9B6C6" transform="matrix(1.00, 0.00, -0.00, -1.00, 503.5, 161.0)">r</text><text xml:space="preserve" font-family="Menlo-Regular" font-size="31.4" fill="#A9B6C6" transform="matrix(1.00, 0.00, -0.00, -1.00, 522.4, 161.0)">(</text><text xml:space="preserve" font-family="Menlo-Regular" font-size="31.4" fill="#6A8758" transform="matrix(1.00, 0.00, -0.00, -1.00, 541.3, 161.0)">"</text><text xml:space="preserve" font-family="Menlo-Regular" font-size="31.4" fill="#6A8758" transform="matrix(1.00, 0.00, -0.00, -1.00, 560.2, 161.0)">H</text><text xml:space="preserve" font-family="Menlo-Regular" font-size="31.4" fill="#6A8758" transform="matrix(1.00, 0.00, -0.00, -1.00, 579.2, 161.0)">P</text><text xml:space="preserve" font-family="Menlo-Regular" font-size="31.4" fill="#6A8758" transform="matrix(1.00, 0.00, -0.00, -1.00, 598.1, 161.0)">"</text><text xml:space="preserve" font-family="Menlo-Regular" font-size="31.4" fill="#A9B6C6" transform="matrix(1.00, 0.00, -0.00, -1.00, 617.0, 161.0)">)</text><text xml:space="preserve" font-family="Monaco" font-size="31.4" fill="#A9B6C6" transform="matrix(1.00, 0.00, -0.00, -1.00, 636.0, 161.0)"> </text><text xml:space="preserve" font-family="Menlo-Regular" font-size="31.4" fill="#A9B6C6" transform="matrix(1.00, 0.00, -0.00, -1.00, 49.0, 125.0)">c</text><text xml:space="preserve" font-family="Menlo-Regular" font-size="31.4" fill="#A9B6C6" transform="matrix(1.00, 0.00, -0.00, -1.00, 67.9, 125.0)">a</text><text xml:space="preserve" font-family="Menlo-Regular" font-size="31.4" fill="#A9B6C6" transform="matrix(1.00, 0.00, -0.00, -1.00, 86.9, 125.0)">l</text><text xml:space="preserve" font-family="Menlo-Regular" font-size="31.4" fill="#A9B6C6" transform="matrix(1.00, 0.00, -0.00, -1.00, 105.8, 125.0)">c</text><text xml:space="preserve" font-family="Menlo-Regular" font-size="31.4" fill="#A9B6C6" transform="matrix(1.00, 0.00, -0.00, -1.00, 124.8, 125.0)">.</text><text xml:space="preserve" font-family="Menlo-Italic" font-style="italic" font-size="31.4" fill="#9776AA" transform="matrix(1.00, 0.00, -0.00, -1.00, 143.7, 125.0)">c</text><text xml:space="preserve" font-family="Menlo-Italic" font-style="italic" font-size="31.4" fill="#9776AA" transform="matrix(1.00, 0.00, -0.00, -1.00, 162.6, 125.0)">o</text><text xml:space="preserve" font-family="Menlo-Italic" font-style="italic" font-size="31.4" fill="#9776AA" transform="matrix(1.00, 0.00, -0.00, -1.00, 181.5, 125.0)">l</text><text xml:space="preserve" font-family="Menlo-Italic" font-style="italic" font-size="31.4" fill="#9776AA" transform="matrix(1.00, 0.00, -0.00, -1.00, 200.5, 125.0)">o</text><text xml:space="preserve" font-family="Menlo-Italic" font-style="italic" font-size="31.4" fill="#9776AA" transform="matrix(1.00, 0.00, -0.00, -1.00, 219.4, 125.0)">r</text><text xml:space="preserve" font-family="Menlo-Italic" font-style="italic" font-size="31.4" fill="#9776AA" transform="matrix(1.00, 0.00, -0.00, -1.00, 238.4, 125.0)"> </text></g></svg>