<?xml version="1.0" encoding="UTF-8" standalone="no"?><svg xmlns="http://www.w3.org/2000/svg" xmlns:xlink="http://www.w3.org/1999/xlink" clip-rule="evenodd" stroke-miterlimit="4.00" viewBox="0 0 1024 768"><desc>SVG generated by Keynote</desc><defs></defs><g transform="matrix(1.00, 0.00, -0.00, -1.00, 0.0, 768.0)"><path d="M 0.0 768.0 L 1024.0 768.0 L 1024.0 0.0 L 0.0 0.0 Z M 0.0 768.0 " fill="#FFFFFF"></path><g><clipPath id="clip-87"><path d="M 0.0 768.0 L 507.0 768.0 L 507.0 0.0 L 0.0 0.0 Z M 0.0 768.0 "></path></clipPath><g clip-path="url(#clip-87)"><image xlink:href="F282C6C90B0ADB9183366E84F292C7EE.jpeg" width="707.00" height="769.00" transform="matrix(1.00, 0.00, -0.00, -1.00, -16.0, 769.0)"></image></g></g><path d="M 0.0 0.0 L 425.0 0.0 " fill="none" stroke="#747676" stroke-width="3.00" stroke-linecap="round" stroke-linejoin="round" stroke-dasharray="0.0, 9.0" transform="matrix(1.00, 0.00, 0.00, -1.00, 553.0, 644.0)"></path><text xml:space="preserve" font-family="DINCondensed-Bold" font-weight="bold" font-size="48.4" fill="#747676" transform="matrix(1.00, 0.00, -0.00, -1.00, 557.0, 673.0)">O</text><text xml:space="preserve" font-family="DINCondensed-Bold" font-weight="bold" font-size="48.4" fill="#747676" transform="matrix(1.00, 0.00, -0.00, -1.00, 577.6, 673.0)">B</text><text xml:space="preserve" font-family="DINCondensed-Bold" font-weight="bold" font-size="48.4" fill="#747676" transform="matrix(1.00, 0.00, -0.00, -1.00, 598.2, 673.0)">J</text><text xml:space="preserve" font-family="DINCondensed-Bold" font-weight="bold" font-size="48.4" fill="#747676" transform="matrix(1.00, 0.00, -0.00, -1.00, 614.3, 673.0)">E</text><text xml:space="preserve" font-family="DINCondensed-Bold" font-weight="bold" font-size="48.4" fill="#747676" transform="matrix(1.00, 0.00, -0.00, -1.00, 632.2, 673.0)">C</text><text xml:space="preserve" font-family="DINCondensed-Bold" font-weight="bold" font-size="48.4" fill="#747676" transform="matrix(1.00, 0.00, -0.00, -1.00, 651.9, 673.0)">T</text><text xml:space="preserve" font-family="DINCondensed-Bold" font-weight="bold" font-size="48.4" fill="#747676" transform="matrix(1.00, 0.00, -0.00, -1.00, 667.9, 673.0)">I</text><text xml:space="preserve" font-family="DINCondensed-Bold" font-weight="bold" font-size="48.4" fill="#747676" transform="matrix(1.00, 0.00, -0.00, -1.00, 677.8, 673.0)">V</text><text xml:space="preserve" font-family="DINCondensed-Bold" font-weight="bold" font-size="48.4" fill="#747676" transform="matrix(1.00, 0.00, -0.00, -1.00, 697.5, 673.0)">E</text><text xml:space="preserve" font-family="DINCondensed-Bold" font-weight="bold" font-size="48.4" fill="#747676" transform="matrix(1.00, 0.00, -0.00, -1.00, 715.4, 673.0)">S</text><text xml:space="preserve" font-family="DINCondensed-Bold" font-weight="bold" font-size="48.4" fill="#747676" transform="matrix(1.00, 0.00, -0.00, -1.00, 735.0, 673.0)"> </text><text xml:space="preserve" font-family="ZapfDingbatsITC" font-size="21.0" fill="#5C5C5C" transform="matrix(1.00, 0.00, -0.00, -1.00, 557.0, 596.2)">➤</text><text xml:space="preserve" font-family="IowanOldStyle-Roman" font-size="28.0" fill="#5C5C5C" transform="matrix(1.00, 0.00, -0.00, -1.00, 589.0, 593.0)">I</text><text xml:space="preserve" font-family="IowanOldStyle-Roman" font-size="28.0" fill="#5C5C5C" transform="matrix(1.00, 0.00, -0.00, -1.00, 598.5, 593.0)">n</text><text xml:space="preserve" font-family="IowanOldStyle-Roman" font-size="28.0" fill="#5C5C5C" transform="matrix(1.00, 0.00, -0.00, -1.00, 614.9, 593.0)">t</text><text xml:space="preserve" font-family="IowanOldStyle-Roman" font-size="28.0" fill="#5C5C5C" transform="matrix(1.00, 0.00, -0.00, -1.00, 624.9, 593.0)">r</text><text xml:space="preserve" font-family="IowanOldStyle-Roman" font-size="28.0" fill="#5C5C5C" transform="matrix(1.00, 0.00, -0.00, -1.00, 635.9, 593.0)">o</text><text xml:space="preserve" font-family="IowanOldStyle-Roman" font-size="28.0" fill="#5C5C5C" transform="matrix(1.00, 0.00, -0.00, -1.00, 651.3, 593.0)">d</text><text xml:space="preserve" font-family="IowanOldStyle-Roman" font-size="28.0" fill="#5C5C5C" transform="matrix(1.00, 0.00, -0.00, -1.00, 667.0, 593.0)">u</text><text xml:space="preserve" font-family="IowanOldStyle-Roman" font-size="28.0" fill="#5C5C5C" transform="matrix(1.00, 0.00, -0.00, -1.00, 683.5, 593.0)">c</text><text xml:space="preserve" font-family="IowanOldStyle-Roman" font-size="28.0" fill="#5C5C5C" transform="matrix(1.00, 0.00, -0.00, -1.00, 696.0, 593.0)">e</text><text xml:space="preserve" font-family="IowanOldStyle-Roman" font-size="28.0" fill="#5C5C5C" transform="matrix(1.00, 0.00, -0.00, -1.00, 709.6, 593.0)"> </text><text xml:space="preserve" font-family="IowanOldStyle-Roman" font-size="28.0" fill="#5C5C5C" transform="matrix(1.00, 0.00, -0.00, -1.00, 717.4, 593.0)">y</text><text xml:space="preserve" font-family="IowanOldStyle-Roman" font-size="28.0" fill="#5C5C5C" transform="matrix(1.00, 0.00, -0.00, -1.00, 731.0, 593.0)">o</text><text xml:space="preserve" font-family="IowanOldStyle-Roman" font-size="28.0" fill="#5C5C5C" transform="matrix(1.00, 0.00, -0.00, -1.00, 746.4, 593.0)">u</text><text xml:space="preserve" font-family="IowanOldStyle-Roman" font-size="28.0" fill="#5C5C5C" transform="matrix(1.00, 0.00, -0.00, -1.00, 762.9, 593.0)"> </text><text xml:space="preserve" font-family="IowanOldStyle-Roman" font-size="28.0" fill="#5C5C5C" transform="matrix(1.00, 0.00, -0.00, -1.00, 770.6, 593.0)">t</text><text xml:space="preserve" font-family="IowanOldStyle-Roman" font-size="28.0" fill="#5C5C5C" transform="matrix(1.00, 0.00, -0.00, -1.00, 780.7, 593.0)">o</text><text xml:space="preserve" font-family="IowanOldStyle-Roman" font-size="28.0" fill="#5C5C5C" transform="matrix(1.00, 0.00, -0.00, -1.00, 796.1, 593.0)"> </text><text xml:space="preserve" font-family="IowanOldStyle-Italic" font-style="italic" font-size="28.0" fill="#5C5C5C" transform="matrix(1.00, 0.00, -0.00, -1.00, 804.0, 593.0)">e</text><text xml:space="preserve" font-family="IowanOldStyle-Italic" font-style="italic" font-size="28.0" fill="#5C5C5C" transform="matrix(1.00, 0.00, -0.00, -1.00, 814.6, 593.0)">n</text><text xml:space="preserve" font-family="IowanOldStyle-Italic" font-style="italic" font-size="28.0" fill="#5C5C5C" transform="matrix(1.00, 0.00, -0.00, -1.00, 828.8, 593.0)">o</text><text xml:space="preserve" font-family="IowanOldStyle-Italic" font-style="italic" font-size="28.0" fill="#5C5C5C" transform="matrix(1.00, 0.00, -0.00, -1.00, 841.5, 593.0)">u</text><text xml:space="preserve" font-family="IowanOldStyle-Italic" font-style="italic" font-size="28.0" fill="#5C5C5C" transform="matrix(1.00, 0.00, -0.00, -1.00, 855.6, 593.0)">g</text><text xml:space="preserve" font-family="IowanOldStyle-Italic" font-style="italic" font-size="28.0" fill="#5C5C5C" transform="matrix(1.00, 0.00, -0.00, -1.00, 868.4, 593.0)">h</text><text xml:space="preserve" font-family="IowanOldStyle-Roman" font-size="28.0" fill="#5C5C5C" transform="matrix(1.00, 0.00, -0.00, -1.00, 882.4, 593.0)"> </text><text xml:space="preserve" font-family="IowanOldStyle-Roman" font-size="28.0" fill="#5C5C5C" transform="matrix(1.00, 0.00, -0.00, -1.00, 890.2, 593.0)">S</text><text xml:space="preserve" font-family="IowanOldStyle-Roman" font-size="28.0" fill="#5C5C5C" transform="matrix(1.00, 0.00, -0.00, -1.00, 905.3, 593.0)">c</text><text xml:space="preserve" font-family="IowanOldStyle-Roman" font-size="28.0" fill="#5C5C5C" transform="matrix(1.00, 0.00, -0.00, -1.00, 917.8, 593.0)">a</text><text xml:space="preserve" font-family="IowanOldStyle-Roman" font-size="28.0" fill="#5C5C5C" transform="matrix(1.00, 0.00, -0.00, -1.00, 931.3, 593.0)">l</text><text xml:space="preserve" font-family="IowanOldStyle-Roman" font-size="28.0" fill="#5C5C5C" transform="matrix(1.00, 0.00, -0.00, -1.00, 939.5, 593.0)">a</text><text xml:space="preserve" font-family="IowanOldStyle-Roman" font-size="28.0" fill="#5C5C5C" transform="matrix(1.00, 0.00, -0.00, -1.00, 952.9, 593.0)"> </text><text xml:space="preserve" font-family="IowanOldStyle-Roman" font-size="28.0" fill="#5C5C5C" transform="matrix(1.00, 0.00, -0.00, -1.00, 589.0, 555.0)">w</text><text xml:space="preserve" font-family="IowanOldStyle-Roman" font-size="28.0" fill="#5C5C5C" transform="matrix(1.00, 0.00, -0.00, -1.00, 610.7, 555.0)">i</text><text xml:space="preserve" font-family="IowanOldStyle-Roman" font-size="28.0" fill="#5C5C5C" transform="matrix(1.00, 0.00, -0.00, -1.00, 619.0, 555.0)">t</text><text xml:space="preserve" font-family="IowanOldStyle-Roman" font-size="28.0" fill="#5C5C5C" transform="matrix(1.00, 0.00, -0.00, -1.00, 629.1, 555.0)">h</text><text xml:space="preserve" font-family="IowanOldStyle-Roman" font-size="28.0" fill="#5C5C5C" transform="matrix(1.00, 0.00, -0.00, -1.00, 645.5, 555.0)"> </text><text xml:space="preserve" font-family="IowanOldStyle-Roman" font-size="28.0" fill="#5C5C5C" transform="matrix(1.00, 0.00, -0.00, -1.00, 653.3, 555.0)">I</text><text xml:space="preserve" font-family="IowanOldStyle-Roman" font-size="28.0" fill="#5C5C5C" transform="matrix(1.00, 0.00, -0.00, -1.00, 662.8, 555.0)">n</text><text xml:space="preserve" font-family="IowanOldStyle-Roman" font-size="28.0" fill="#5C5C5C" transform="matrix(1.00, 0.00, -0.00, -1.00, 679.1, 555.0)">t</text><text xml:space="preserve" font-family="IowanOldStyle-Roman" font-size="28.0" fill="#5C5C5C" transform="matrix(1.00, 0.00, -0.00, -1.00, 689.2, 555.0)">e</text><text xml:space="preserve" font-family="IowanOldStyle-Roman" font-size="28.0" fill="#5C5C5C" transform="matrix(1.00, 0.00, -0.00, -1.00, 702.8, 555.0)">l</text><text xml:space="preserve" font-family="IowanOldStyle-Roman" font-size="28.0" fill="#5C5C5C" transform="matrix(1.00, 0.00, -0.00, -1.00, 711.0, 555.0)">l</text><text xml:space="preserve" font-family="IowanOldStyle-Roman" font-size="28.0" fill="#5C5C5C" transform="matrix(1.00, 0.00, -0.00, -1.00, 719.2, 555.0)">i</text><text xml:space="preserve" font-family="IowanOldStyle-Roman" font-size="28.0" fill="#5C5C5C" transform="matrix(1.00, 0.00, -0.00, -1.00, 727.5, 555.0)">J</text><text xml:space="preserve" font-family="IowanOldStyle-Roman" font-size="28.0" fill="#5C5C5C" transform="matrix(1.00, 0.00, -0.00, -1.00, 736.8, 555.0)"> </text><text xml:space="preserve" font-family="IowanOldStyle-Roman" font-size="28.0" fill="#5C5C5C" transform="matrix(1.00, 0.00, -0.00, -1.00, 744.6, 555.0)">t</text><text xml:space="preserve" font-family="IowanOldStyle-Roman" font-size="28.0" fill="#5C5C5C" transform="matrix(1.00, 0.00, -0.00, -1.00, 754.6, 555.0)">o</text><text xml:space="preserve" font-family="IowanOldStyle-Roman" font-size="28.0" fill="#5C5C5C" transform="matrix(1.00, 0.00, -0.00, -1.00, 770.1, 555.0)"> </text><text xml:space="preserve" font-family="IowanOldStyle-Roman" font-size="28.0" fill="#5C5C5C" transform="matrix(1.00, 0.00, -0.00, -1.00, 777.8, 555.0)">b</text><text xml:space="preserve" font-family="IowanOldStyle-Roman" font-size="28.0" fill="#5C5C5C" transform="matrix(1.00, 0.00, -0.00, -1.00, 793.4, 555.0)">e</text><text xml:space="preserve" font-family="IowanOldStyle-Roman" font-size="28.0" fill="#5C5C5C" transform="matrix(1.00, 0.00, -0.00, -1.00, 807.1, 555.0)">c</text><text xml:space="preserve" font-family="IowanOldStyle-Roman" font-size="28.0" fill="#5C5C5C" transform="matrix(1.00, 0.00, -0.00, -1.00, 819.6, 555.0)">o</text><text xml:space="preserve" font-family="IowanOldStyle-Roman" font-size="28.0" fill="#5C5C5C" transform="matrix(1.00, 0.00, -0.00, -1.00, 835.0, 555.0)">m</text><text xml:space="preserve" font-family="IowanOldStyle-Roman" font-size="28.0" fill="#5C5C5C" transform="matrix(1.00, 0.00, -0.00, -1.00, 859.6, 555.0)">e</text><text xml:space="preserve" font-family="IowanOldStyle-Roman" font-size="28.0" fill="#5C5C5C" transform="matrix(1.00, 0.00, -0.00, -1.00, 873.3, 555.0)"> </text><text xml:space="preserve" font-family="IowanOldStyle-Roman" font-size="28.0" fill="#5C5C5C" transform="matrix(1.00, 0.00, -0.00, -1.00, 589.0, 517.0)">p</text><text xml:space="preserve" font-family="IowanOldStyle-Roman" font-size="28.0" fill="#5C5C5C" transform="matrix(1.00, 0.00, -0.00, -1.00, 604.7, 517.0)">r</text><text xml:space="preserve" font-family="IowanOldStyle-Roman" font-size="28.0" fill="#5C5C5C" transform="matrix(1.00, 0.00, -0.00, -1.00, 615.6, 517.0)">o</text><text xml:space="preserve" font-family="IowanOldStyle-Roman" font-size="28.0" fill="#5C5C5C" transform="matrix(1.00, 0.00, -0.00, -1.00, 631.0, 517.0)">ﬁ</text><text xml:space="preserve" font-family="IowanOldStyle-Roman" font-size="28.0" fill="#5C5C5C" transform="matrix(1.00, 0.00, -0.00, -1.00, 647.5, 517.0)">c</text><text xml:space="preserve" font-family="IowanOldStyle-Roman" font-size="28.0" fill="#5C5C5C" transform="matrix(1.00, 0.00, -0.00, -1.00, 660.0, 517.0)">i</text><text xml:space="preserve" font-family="IowanOldStyle-Roman" font-size="28.0" fill="#5C5C5C" transform="matrix(1.00, 0.00, -0.00, -1.00, 668.4, 517.0)">e</text><text xml:space="preserve" font-family="IowanOldStyle-Roman" font-size="28.0" fill="#5C5C5C" transform="matrix(1.00, 0.00, -0.00, -1.00, 682.0, 517.0)">n</text><text xml:space="preserve" font-family="IowanOldStyle-Roman" font-size="28.0" fill="#5C5C5C" transform="matrix(1.00, 0.00, -0.00, -1.00, 698.4, 517.0)">t</text><text xml:space="preserve" font-family="IowanOldStyle-Roman" font-size="28.0" fill="#5C5C5C" transform="matrix(1.00, 0.00, -0.00, -1.00, 708.4, 517.0)"> </text><text xml:space="preserve" font-family="IowanOldStyle-Roman" font-size="28.0" fill="#5C5C5C" transform="matrix(1.00, 0.00, -0.00, -1.00, 716.2, 517.0)">w</text><text xml:space="preserve" font-family="IowanOldStyle-Roman" font-size="28.0" fill="#5C5C5C" transform="matrix(1.00, 0.00, -0.00, -1.00, 737.9, 517.0)">r</text><text xml:space="preserve" font-family="IowanOldStyle-Roman" font-size="28.0" fill="#5C5C5C" transform="matrix(1.00, 0.00, -0.00, -1.00, 748.8, 517.0)">i</text><text xml:space="preserve" font-family="IowanOldStyle-Roman" font-size="28.0" fill="#5C5C5C" transform="matrix(1.00, 0.00, -0.00, -1.00, 757.1, 517.0)">t</text><text xml:space="preserve" font-family="IowanOldStyle-Roman" font-size="28.0" fill="#5C5C5C" transform="matrix(1.00, 0.00, -0.00, -1.00, 767.2, 517.0)">i</text><text xml:space="preserve" font-family="IowanOldStyle-Roman" font-size="28.0" fill="#5C5C5C" transform="matrix(1.00, 0.00, -0.00, -1.00, 775.5, 517.0)">n</text><text xml:space="preserve" font-family="IowanOldStyle-Roman" font-size="28.0" fill="#5C5C5C" transform="matrix(1.00, 0.00, -0.00, -1.00, 791.9, 517.0)">g</text><text xml:space="preserve" font-family="IowanOldStyle-Roman" font-size="28.0" fill="#5C5C5C" transform="matrix(1.00, 0.00, -0.00, -1.00, 806.3, 517.0)"> </text><text xml:space="preserve" font-family="IowanOldStyle-Roman" font-size="28.0" fill="#5C5C5C" transform="matrix(1.00, 0.00, -0.00, -1.00, 814.1, 517.0)">D</text><text xml:space="preserve" font-family="IowanOldStyle-Roman" font-size="28.0" fill="#5C5C5C" transform="matrix(1.00, 0.00, -0.00, -1.00, 836.0, 517.0)">S</text><text xml:space="preserve" font-family="IowanOldStyle-Roman" font-size="28.0" fill="#5C5C5C" transform="matrix(1.00, 0.00, -0.00, -1.00, 851.1, 517.0)">E</text><text xml:space="preserve" font-family="IowanOldStyle-Roman" font-size="28.0" fill="#5C5C5C" transform="matrix(1.00, 0.00, -0.00, -1.00, 868.8, 517.0)"> </text><text xml:space="preserve" font-family="IowanOldStyle-Roman" font-size="28.0" fill="#5C5C5C" transform="matrix(1.00, 0.00, -0.00, -1.00, 589.0, 479.0)">A</text><text xml:space="preserve" font-family="IowanOldStyle-Roman" font-size="28.0" fill="#5C5C5C" transform="matrix(1.00, 0.00, -0.00, -1.00, 609.2, 479.0)">n</text><text xml:space="preserve" font-family="IowanOldStyle-Roman" font-size="28.0" fill="#5C5C5C" transform="matrix(1.00, 0.00, -0.00, -1.00, 625.6, 479.0)">a</text><text xml:space="preserve" font-family="IowanOldStyle-Roman" font-size="28.0" fill="#5C5C5C" transform="matrix(1.00, 0.00, -0.00, -1.00, 639.0, 479.0)">l</text><text xml:space="preserve" font-family="IowanOldStyle-Roman" font-size="28.0" fill="#5C5C5C" transform="matrix(1.00, 0.00, -0.00, -1.00, 647.2, 479.0)">y</text><text xml:space="preserve" font-family="IowanOldStyle-Roman" font-size="28.0" fill="#5C5C5C" transform="matrix(1.00, 0.00, -0.00, -1.00, 660.8, 479.0)">t</text><text xml:space="preserve" font-family="IowanOldStyle-Roman" font-size="28.0" fill="#5C5C5C" transform="matrix(1.00, 0.00, -0.00, -1.00, 670.9, 479.0)">i</text><text xml:space="preserve" font-family="IowanOldStyle-Roman" font-size="28.0" fill="#5C5C5C" transform="matrix(1.00, 0.00, -0.00, -1.00, 679.2, 479.0)">c</text><text xml:space="preserve" font-family="IowanOldStyle-Roman" font-size="28.0" fill="#5C5C5C" transform="matrix(1.00, 0.00, -0.00, -1.00, 691.7, 479.0)">s</text><text xml:space="preserve" font-family="IowanOldStyle-Roman" font-size="28.0" fill="#5C5C5C" transform="matrix(1.00, 0.00, -0.00, -1.00, 704.1, 479.0)"> </text><text xml:space="preserve" font-family="IowanOldStyle-Roman" font-size="28.0" fill="#5C5C5C" transform="matrix(1.00, 0.00, -0.00, -1.00, 711.9, 479.0)">a</text><text xml:space="preserve" font-family="IowanOldStyle-Roman" font-size="28.0" fill="#5C5C5C" transform="matrix(1.00, 0.00, -0.00, -1.00, 725.3, 479.0)">p</text><text xml:space="preserve" font-family="IowanOldStyle-Roman" font-size="28.0" fill="#5C5C5C" transform="matrix(1.00, 0.00, -0.00, -1.00, 741.0, 479.0)">p</text><text xml:space="preserve" font-family="IowanOldStyle-Roman" font-size="28.0" fill="#5C5C5C" transform="matrix(1.00, 0.00, -0.00, -1.00, 756.7, 479.0)">l</text><text xml:space="preserve" font-family="IowanOldStyle-Roman" font-size="28.0" fill="#5C5C5C" transform="matrix(1.00, 0.00, -0.00, -1.00, 764.9, 479.0)">i</text><text xml:space="preserve" font-family="IowanOldStyle-Roman" font-size="28.0" fill="#5C5C5C" transform="matrix(1.00, 0.00, -0.00, -1.00, 773.2, 479.0)">c</text><text xml:space="preserve" font-family="IowanOldStyle-Roman" font-size="28.0" fill="#5C5C5C" transform="matrix(1.00, 0.00, -0.00, -1.00, 785.7, 479.0)">a</text><text xml:space="preserve" font-family="IowanOldStyle-Roman" font-size="28.0" fill="#5C5C5C" transform="matrix(1.00, 0.00, -0.00, -1.00, 799.2, 479.0)">t</text><text xml:space="preserve" font-family="IowanOldStyle-Roman" font-size="28.0" fill="#5C5C5C" transform="matrix(1.00, 0.00, -0.00, -1.00, 809.2, 479.0)">i</text><text xml:space="preserve" font-family="IowanOldStyle-Roman" font-size="28.0" fill="#5C5C5C" transform="matrix(1.00, 0.00, -0.00, -1.00, 817.6, 479.0)">o</text><text xml:space="preserve" font-family="IowanOldStyle-Roman" font-size="28.0" fill="#5C5C5C" transform="matrix(1.00, 0.00, -0.00, -1.00, 833.0, 479.0)">n</text><text xml:space="preserve" font-family="IowanOldStyle-Roman" font-size="28.0" fill="#5C5C5C" transform="matrix(1.00, 0.00, -0.00, -1.00, 849.3, 479.0)">s</text></g></svg>