<?xml version="1.0" encoding="UTF-8" standalone="no"?>
<!DOCTYPE svg PUBLIC "-//W3C//DTD SVG 1.0//EN" "http://www.w3.org/TR/2001/REC-SVG-20010904/DTD/svg10.dtd">
<!-- Generated by Microsoft Visio 11.0, SVG Export, v1.0 difference-venn.svg Page-1 -->
<svg xmlns="http://www.w3.org/2000/svg" xmlns:xlink="http://www.w3.org/1999/xlink" xmlns:ev="http://www.w3.org/2001/xml-events"
		xmlns:v="http://schemas.microsoft.com/visio/2003/SVGExtensions/" width="2.27347in" height="1.92986in"
		viewBox="0 0 163.69 138.95" xml:space="preserve" color-interpolation-filters="sRGB" class="st6">
	<v:documentProperties v:langID="1033" v:viewMarkup="false">
		<v:userDefs>
			<v:ud v:nameU="msvNoAutoConnect" v:val="VT0(0):26"/>
		</v:userDefs>
	</v:documentProperties>

	<style type="text/css">
	<![CDATA[
		.st1 {fill:none;stroke:none;stroke-linecap:round;stroke-linejoin:round;stroke-width:0.25}
		.st2 {fill:#000000;font-family:Arial Unicode MS;font-size:1.99999em}
		.st3 {font-size:1.25001em}
		.st4 {fill:#bfcee1;fill-opacity:0;stroke:#000000;stroke-linecap:round;stroke-linejoin:round;stroke-width:0.5}
		.st5 {fill:#cb6015;stroke:#000000;stroke-linecap:round;stroke-linejoin:round;stroke-width:0.5}
		.st6 {fill:none;fill-rule:evenodd;font-size:12px;overflow:visible;stroke-linecap:square;stroke-miterlimit:3}
	]]>
	</style>

	<g v:mID="0" v:index="1" v:groupContext="foregroundPage">
		<v:userDefs>
			<v:ud v:nameU="msvThemeColors" v:val="VT0(36):26"/>
			<v:ud v:nameU="msvThemeEffects" v:val="VT0(16):26"/>
			<v:ud v:nameU="msvThemeOrder" v:val="VT0(0):26"/>
		</v:userDefs>
		<title>Page-1</title>
		<v:pageProperties v:drawingScale="1" v:pageScale="1" v:drawingUnits="0" v:shadowOffsetX="9" v:shadowOffsetY="-9"/>
		<v:layer v:name="Flowchart" v:index="0"/>
		<v:layer v:name="Container" v:index="1"/>
		<v:layer v:name="Connector" v:index="2"/>
		<v:layer v:name="Annotations" v:index="3"/>
		<g id="group15-1" transform="translate(18.5,-31.0687)" v:mID="15" v:groupContext="group">
			<v:userDefs>
				<v:ud v:nameU="msvThemeColors" v:val="VT0(36):26"/>
				<v:ud v:nameU="msvThemeEffects" v:val="VT0(16):26"/>
			</v:userDefs>
			<title>Sheet.15</title>
			<g id="shape9-2" v:mID="9" v:groupContext="shape">
				<title>Sheet.9</title>
				<desc>A − B</desc>
				<v:userDefs>
					<v:ud v:nameU="msvThemeColors" v:val="VT0(36):26"/>
					<v:ud v:nameU="msvThemeEffects" v:val="VT0(16):26"/>
				</v:userDefs>
				<v:textBlock v:margins="rect(2,2,2,2)"/>
				<v:textRect cx="62.875" cy="134.018" width="125.75" height="9.86275"/>
				<rect x="0" y="129.087" width="125.75" height="9.86275" class="st1"/>
				<text x="31.44" y="143.02" class="st2" v:langID="1033"><v:paragraph v:horizAlign="1"/><v:tabList/>A <tspan
							class="st3" v:langID="1049">−</tspan> B</text>			</g>
			<g id="shape1-6" v:mID="1" v:groupContext="shape" transform="translate(49.9301,-25.1074)">
				<title>Sheet.1</title>
				<path d="M12.02 138.95 A36.9853 36.9853 -180 0 0 24.04 111.66 A36.9853 36.9853 -180 0 0 12.02 84.37 A36.9853 36.9853
							 -180 0 0 -0 111.66 A36.9853 36.9853 -180 0 0 12.02 138.95 Z" class="st4"/>
			</g>
			<g id="shape2-8" v:mID="2" v:groupContext="shape" transform="translate(61.9504,-15.4105)">
				<title>Sheet.2</title>
				<desc>B</desc>
				<v:textBlock v:margins="rect(2,2,2,2)"/>
				<v:textRect cx="30.9752" cy="101.965" width="61.96" height="73.9706"/>
				<path d="M0 129.25 A36.9853 36.9853 -180 0 0 61.95 101.96 A36.9853 36.9853 -180 0 0 -0 74.68 A36.9853 36.9853 0 0
							 1 12.02 101.96 A36.9853 36.9853 0 0 1 0 129.25 Z" class="st4"/>
				<text x="22.97" y="109.16" class="st2" v:langID="1033"><v:paragraph v:horizAlign="1"/><v:tabList/>B</text>			</g>
			<g id="shape14-11" v:mID="14" v:groupContext="shape" transform="translate(0,-15.4105)">
				<title>Sheet.14</title>
				<desc>A</desc>
				<v:textBlock v:margins="rect(2,2,2,2)"/>
				<v:textRect cx="30.9752" cy="101.965" width="61.96" height="73.9706"/>
				<path d="M61.95 129.25 A36.9853 36.9853 0 0 1 49.93 101.96 A36.9853 36.9853 0 0 1 61.95 74.68 A36.9853 36.9853 -180
							 0 0 0 101.96 A36.9853 36.9853 -180 0 0 61.95 129.25 Z" class="st5"/>
				<text x="22.97" y="109.16" class="st2" v:langID="1033"><v:paragraph v:horizAlign="1"/><v:tabList/>A</text>			</g>
		</g>
	</g>
</svg>
